<?xml version="1.0" encoding="utf-8"?>
<!-- Generator: Adobe Illustrator 16.0.0, SVG Export Plug-In . SVG Version: 6.00 Build 0)  -->
<!DOCTYPE svg PUBLIC "-//W3C//DTD SVG 1.1//EN" "http://www.w3.org/Graphics/SVG/1.1/DTD/svg11.dtd">
<svg version="1.1" id="Layer_1" xmlns="http://www.w3.org/2000/svg" xmlns:xlink="http://www.w3.org/1999/xlink" x="0px" y="0px"
	 width="52.658px" height="50.175px" viewBox="0 0 52.658 50.175" enable-background="new 0 0 52.658 50.175" xml:space="preserve">
<path fill="#FFFFFF" d="M51.986,45.371L36.633,31.736c2.313-3.28,3.684-7.269,3.684-11.578C40.316,9.043,31.273,0,20.158,0
	S0,9.043,0,20.158s9.043,20.158,20.158,20.158c4.734,0,9.085-1.652,12.529-4.395l15.48,13.748c0.826,0.734,2.09,0.658,2.824-0.166
	l1.162-1.31C52.887,47.369,52.813,46.104,51.986,45.371z M29.014,32.659c-2.505,1.779-5.557,2.837-8.855,2.837
	c-8.457,0-15.338-6.881-15.338-15.338S11.701,4.82,20.158,4.82s15.338,6.881,15.338,15.338c0,3.082-0.922,5.948-2.492,8.354
	C31.945,30.135,30.59,31.539,29.014,32.659z"/>
</svg>
