<?xml version="1.0" encoding="utf-8"?>
<!-- Generator: Adobe Illustrator 15.0.0, SVG Export Plug-In . SVG Version: 6.00 Build 0)  -->
<!DOCTYPE svg PUBLIC "-//W3C//DTD SVG 1.1//EN" "http://www.w3.org/Graphics/SVG/1.1/DTD/svg11.dtd">
<svg version="1.1" id="Layer_1" xmlns="http://www.w3.org/2000/svg" xmlns:xlink="http://www.w3.org/1999/xlink" x="0px" y="0px"
	 width="224.186px" height="223.977px" viewBox="0 0 224.186 223.977" enable-background="new 0 0 224.186 223.977"
	 xml:space="preserve">
<g>
	<defs>
		<rect id="SVGID_1_" width="224.186" height="223.977"/>
	</defs>
	<clipPath id="SVGID_2_">
		<use xlink:href="#SVGID_1_"  overflow="visible"/>
	</clipPath>
	<path clip-path="url(#SVGID_2_)" d="M106.872,223.949c-25.492,0.001-50.984,0.037-76.476-0.013
		c-14.143-0.028-24.584-6.868-28.671-18.959c-1.044-3.09-1.635-6.491-1.641-9.75C-0.018,147.076-0.014,98.924,0.03,50.773
		c0.014-15.045,10.704-27.105,25.722-27.751c16.796-0.723,33.639-0.377,50.462-0.387c3.72-0.002,6.778,1.647,6.642,5.801
		c-0.133,4.069-3.119,5.517-6.918,5.516c-15.495-0.006-31.004,0.408-46.48-0.145c-10.194-0.363-18.489,7.88-18.459,18.476
		c0.135,47.318,0.024,94.637,0.083,141.955c0.014,11.271,6.662,18.232,17.942,18.261c51.317,0.13,102.635,0.144,153.951-0.006
		c12.124-0.035,18.062-6.612,18.079-18.919c0.022-14.828-0.052-29.657,0.072-44.485c0.017-2.051,0.313-4.729,1.593-5.97
		c1.381-1.341,4.451-2.294,6.077-1.645c1.588,0.633,3.167,3.474,3.226,5.393c0.317,10.321,0.162,20.656,0.166,30.986
		c0.002,5.664,0.067,11.33-0.019,16.994c-0.264,17.387-11.87,28.997-29.321,29.072C157.522,224.03,132.197,223.948,106.872,223.949"
		/>
	<path clip-path="url(#SVGID_2_)" d="M192.846,0c4.413,1.715,9.449,2.603,13.09,5.344c5.242,3.946,10.177,8.737,13.979,14.068
		c6.978,9.781,5.192,22.285-3.802,31.345c-20.311,20.455-40.74,40.79-61.126,61.169c-12.021,12.015-23.985,24.086-36.143,35.962
		c-1.912,1.867-4.554,3.366-7.126,4.116c-13.864,4.042-27.777,7.932-41.764,11.519c-2.419,0.62-6.194,0.452-7.669-1.024
		c-1.456-1.456-1.555-5.232-0.928-7.648c3.67-14.137,7.637-28.198,11.739-42.216c0.713-2.433,2.145-4.941,3.929-6.733
		c32.325-32.475,64.756-64.845,97.163-97.239C179.239,3.613,185.17,0.664,192.846,0 M113.565,136.725
		c26.712-26.653,53.69-53.574,80.298-80.124c-8.348-8.495-16.943-17.243-25.052-25.494c-26.794,26.878-53.689,53.858-80.604,80.856
		C96.504,120.065,105.171,128.527,113.565,136.725 M203.261,47.703c8.771-7.9,11.225-12.101,8.905-18.325
		c-3.074-8.248-8.743-14.827-17.487-16.977c-8.169-2.008-12.996,4.051-17.46,9.273C185.954,30.404,194.503,38.949,203.261,47.703
		 M101.446,143.453c-6.69-6.627-13.269-13.145-19.919-19.732c-2.351,8.544-4.854,17.639-7.522,27.338
		C83.919,148.31,92.949,145.808,101.446,143.453"/>
</g>
</svg>
