<?xml version="1.0" encoding="utf-8"?>
<!-- Generator: Adobe Illustrator 15.0.0, SVG Export Plug-In . SVG Version: 6.00 Build 0)  -->
<!DOCTYPE svg PUBLIC "-//W3C//DTD SVG 1.1//EN" "http://www.w3.org/Graphics/SVG/1.1/DTD/svg11.dtd">
<svg version="1.1" id="Layer_1" xmlns="http://www.w3.org/2000/svg" xmlns:xlink="http://www.w3.org/1999/xlink" x="0px" y="0px"
	 width="224.023px" height="181.963px" viewBox="0 0 224.023 181.963" enable-background="new 0 0 224.023 181.963"
	 xml:space="preserve">
<g>
	<defs>
		<rect id="SVGID_1_" width="224.023" height="181.963"/>
	</defs>
	<clipPath id="SVGID_2_">
		<use xlink:href="#SVGID_1_"  overflow="visible"/>
	</clipPath>
	<path clip-path="url(#SVGID_2_)" fill="#FFFFFF" d="M112.126,181.936c-27.496,0.001-54.99,0.018-82.485-0.006
		c-18.243-0.015-29.631-11.397-29.634-29.573C0,120.695-0.003,89.035,0.008,57.374c0.006-16.413,10.637-27.322,26.964-27.52
		c10.497-0.127,20.997-0.095,31.494,0.015c2.745,0.029,3.967-0.685,4.737-3.632C67.619,9.316,79.968-0.131,97.356,0.001
		c12.136,0.092,24.358-0.308,36.382,0.992c13.965,1.509,22.689,10.474,26.447,23.776c1.218,4.313,3.148,5.245,7.198,5.143
		c10.325-0.26,20.661-0.146,30.992-0.07c13.973,0.104,25.509,11.4,25.557,25.357c0.115,33.327,0.126,66.655-0.001,99.981
		c-0.057,14.828-12.194,26.657-27.321,26.721C168.449,182.018,140.287,181.935,112.126,181.936 M111.638,170.825
		c27.491,0,54.983,0.028,82.474-0.013c11.776-0.019,18.695-6.571,18.725-17.953c0.081-31.823,0.084-63.647-0.004-95.47
		c-0.029-10.432-6.166-16.405-16.507-16.442c-12.163-0.043-24.327-0.146-36.486,0.054c-5.043,0.083-7.84-1.988-8.773-6.844
		c-0.313-1.629-0.685-3.249-1.089-4.859c-2.912-11.58-11.034-18.066-23.024-18.196c-9.661-0.105-19.329-0.146-28.99,0.021
		c-6.241,0.108-12.068,1.392-16.983,5.936c-4.844,4.479-6.673,10.139-7.999,16.219c-1.497,6.867-2.502,7.651-9.306,7.656
		c-11.496,0.008-22.993-0.004-34.489,0.004c-12.642,0.008-18.101,5.52-18.106,18.33c-0.012,30.657-0.013,61.314,0.001,91.971
		c0.006,13.351,6.228,19.574,19.582,19.581C57.655,170.836,84.646,170.825,111.638,170.825"/>
	<path clip-path="url(#SVGID_2_)" fill="#FFFFFF" d="M112.521,153.043c-26.554-0.035-47.589-21.052-47.517-47.477
		c0.071-25.757,21.306-46.68,47.292-46.597c25.847,0.083,46.696,21.175,46.677,47.219
		C158.954,131.927,137.986,153.077,112.521,153.043 M111.262,141.944c19.425,0.358,36.248-15.837,36.632-35.267
		c0.393-19.921-15.587-36.034-36.289-36.588C93.142,69.594,76.46,86.151,76.08,105.35
		C75.691,124.917,91.713,141.582,111.262,141.944"/>
	<path clip-path="url(#SVGID_2_)" fill="#FFFFFF" d="M45.119,64.88c-0.037,4.172-3.04,7.158-7.216,7.173
		c-4.181,0.015-7.256-2.972-7.333-7.121c-0.079-4.235,3.367-7.688,7.533-7.549C42.161,57.519,45.155,60.718,45.119,64.88"/>
</g>
</svg>
