<?xml version="1.0" encoding="utf-8"?>
<!-- Generator: Adobe Illustrator 15.0.0, SVG Export Plug-In . SVG Version: 6.00 Build 0)  -->
<!DOCTYPE svg PUBLIC "-//W3C//DTD SVG 1.1//EN" "http://www.w3.org/Graphics/SVG/1.1/DTD/svg11.dtd">
<svg version="1.1" id="Layer_1" xmlns="http://www.w3.org/2000/svg" xmlns:xlink="http://www.w3.org/1999/xlink" x="0px" y="0px"
	 width="153.07px" height="116.488px" viewBox="0 0 153.07 116.488" enable-background="new 0 0 153.07 116.488"
	 xml:space="preserve">
<g>
	<defs>
		<rect id="SVGID_1_" width="153.07" height="116.488"/>
	</defs>
	<clipPath id="SVGID_2_">
		<use xlink:href="#SVGID_1_"  overflow="visible"/>
	</clipPath>
	<path clip-path="url(#SVGID_2_)" fill="#FFFFFF" d="M134.384-0.001H18.718C8.393-0.001,0,8.392,0,18.717V97.77
		c0,10.325,8.393,18.718,18.718,18.718h115.634c10.326,0,18.719-8.393,18.719-18.718V18.749
		C153.102,8.424,144.709-0.001,134.384-0.001 M144.551,97.77c0,5.604-4.561,10.167-10.167,10.167H18.718
		c-5.605,0-10.166-4.563-10.166-10.167V18.749c0-5.606,4.561-10.167,10.166-10.167h115.634c5.606,0,10.167,4.561,10.167,10.167
		V97.77H144.551z"/>
	<path clip-path="url(#SVGID_2_)" fill="#FFFFFF" d="M96.536,57.262l37.437-33.572c1.741-1.584,1.899-4.277,0.316-6.05
		c-1.584-1.742-4.275-1.9-6.05-0.316L76.614,63.66l-10.072-8.996c-0.031-0.031-0.063-0.063-0.063-0.094
		c-0.221-0.222-0.443-0.412-0.696-0.602L24.799,17.292c-1.773-1.584-4.466-1.426-6.049,0.348c-1.584,1.773-1.425,4.466,0.348,6.05
		l37.88,33.856L19.257,92.861c-1.711,1.615-1.806,4.308-0.19,6.05c0.855,0.887,1.995,1.361,3.135,1.361
		c1.045,0,2.09-0.38,2.914-1.14l38.291-35.821l10.388,9.28c0.824,0.729,1.837,1.076,2.852,1.076c1.014,0,2.059-0.38,2.85-1.108
		l10.674-9.564l38.069,36.169c0.823,0.792,1.9,1.172,2.946,1.172c1.14,0,2.247-0.443,3.104-1.33c1.615-1.71,1.552-4.435-0.158-6.05
		L96.536,57.262z"/>
</g>
</svg>
