<?xml version="1.0" encoding="utf-8"?>
<!-- Generator: Adobe Illustrator 15.0.0, SVG Export Plug-In . SVG Version: 6.00 Build 0)  -->
<!DOCTYPE svg PUBLIC "-//W3C//DTD SVG 1.1//EN" "http://www.w3.org/Graphics/SVG/1.1/DTD/svg11.dtd">
<svg version="1.1" id="Layer_1" xmlns="http://www.w3.org/2000/svg" xmlns:xlink="http://www.w3.org/1999/xlink" x="0px" y="0px"
	 width="153.062px" height="153.069px" viewBox="0 0 153.062 153.069" enable-background="new 0 0 153.062 153.069"
	 xml:space="preserve">
<g>
	<defs>
		<rect id="SVGID_1_" width="153.062" height="153.069"/>
	</defs>
	<clipPath id="SVGID_2_">
		<use xlink:href="#SVGID_1_"  overflow="visible"/>
	</clipPath>
	<path clip-path="url(#SVGID_2_)" fill="#FFFFFF" d="M148.044,49.255C136.737,19.584,108.275-0.016,76.522-0.001
		C69.46-0.013,62.432,0.96,55.638,2.891l-0.102,0.03C36.683,8.252,20.611,20.649,10.669,37.532c-0.176,0.296-0.29,0.627-0.335,0.969
		c-1.222,1.631-2.236,3.408-3.019,5.288l-0.191,0.414c-11.008,23.71-9.166,51.396,4.885,73.439
		c14.052,22.043,38.373,35.398,64.514,35.427c17.572,0.015,34.61-6.046,48.227-17.156c1.102,0.095,2.139-0.539,2.558-1.563
		c0.079-0.236,0.126-0.482,0.137-0.732C151.153,112.499,159.351,78.926,148.044,49.255 M55.268,8.343
		c3.382,4.149,8.366,6.666,13.713,6.928c1.461,0.038,2.924-0.027,4.377-0.192c2.351-0.533,4.811-0.24,6.972,0.829
		c1.209,0.646,1.877,1.987,1.663,3.341c-0.557,1.021-1.318,1.913-2.236,2.622c-2.287,1.552-3.664,4.127-3.684,6.891
		c0.173,1.72,1.094,3.276,2.517,4.257c2.105,1.406,4.699,1.876,7.163,1.297c1.366-0.358,2.696-0.839,3.973-1.439
		c1.162-0.571,2.393-0.993,3.659-1.256c3.24-0.455,6.566,1.686,9.96,4.122c1.701,1.231,4.474,3.556,3.899,5.322
		c-0.44,1.352-2.092,2.33-3.837,3.369c-0.706,0.417-1.398,0.826-2.196,1.382c-2.826,2.139-5.922,3.894-9.209,5.221
		c-1.243,0.413-2.508,0.755-3.79,1.024c-2.669,0.467-5.234,1.402-7.576,2.765c-4.699,3.035-4.126,7.89-3.765,10.809
		c-0.085-0.028-0.177-0.061-0.277-0.104c-0.437-0.179-0.867-0.384-1.294-0.584c-2.646-1.785-6.072-1.922-8.853-0.354
		c-2.779,1.567-4.435,4.57-4.277,7.758c0,6.071,4.508,9.612,8.131,12.454l1.258,0.998c0.8,0.734,1.52,1.552,2.147,2.438
		c-5.143-1.295-10.288-2.568-15.438-3.82c-4.328-1.046-8.698-2.335-10.489-5.539c-0.685-1.451-1.146-2.997-1.369-4.587
		c-0.325-2.521-1.211-4.938-2.594-7.071c-2.626-2.931-6.165-4.889-10.042-5.557l-0.468-0.133c-3.838-1.141-5.941-2.514-6.626-4.313
		c-0.428-2.335-0.047-4.745,1.079-6.834c1.447-3.009,1.929-6.391,1.382-9.684c-0.575-2.525-2.263-4.654-4.59-5.79
		c-1.383-0.643-2.893-0.967-4.419-0.949c-0.324,0-0.654,0.016-0.987,0.041C28.131,21.809,40.792,12.814,55.268,8.343
		 M65.773,147.122l0.022,0.022c-1.003-0.557-1.977-1.166-2.916-1.826c-2.068-1.288-3.482-3.404-3.881-5.808
		c0.142-1.544,0.642-3.032,1.458-4.351c0.572-1.217,0.995-2.501,1.258-3.818c0.163-1.198,0.601-2.342,1.28-3.342
		c0.757-0.689,1.633-1.234,2.587-1.606c1.067-0.473,2.082-1.057,3.028-1.74c2.042-1.626,3.735-3.646,4.979-5.94
		c0.602-1.054,1.121-2.203,1.622-3.326c0.681-1.78,1.629-3.446,2.815-4.94c2.558-2.693,7.598-0.693,9.64,0.284
		c3.895,1.75,7.477,4.128,10.602,7.038l0.293,0.302c3.312,3.5,6.834,6.792,10.55,9.858c3.073,2.374,6.44,4.341,10.019,5.851
		C103.841,145.179,84.626,149.984,65.773,147.122 M123.647,130.138c-4.057-1.501-7.872-3.588-11.324-6.193
		c-3.553-2.939-6.921-6.092-10.088-9.44l-0.295-0.3c-3.526-3.342-7.593-6.066-12.024-8.059c-6.473-3.106-12.147-2.814-15.578,0.803
		c-1.6,1.895-2.873,4.041-3.769,6.353c-0.458,1.008-0.903,2.004-1.397,2.873c-0.909,1.701-2.149,3.204-3.645,4.421
		c-0.673,0.469-1.39,0.869-2.142,1.195c-1.558,0.64-2.973,1.584-4.162,2.778c-1.296,1.618-2.149,3.545-2.474,5.593
		c-0.178,0.914-0.457,1.807-0.831,2.66c-1.22,2.035-1.917,4.34-2.032,6.709c0.038,1.858,0.581,3.67,1.571,5.244
		c-19.706-6.109-35.813-20.431-44.185-39.286C2.899,86.633,3.078,65.08,11.761,46.366l0.195-0.422
		c0.694-1.834,1.731-3.519,3.055-4.966c0.47-0.47,1.025-0.846,1.635-1.111c1.103-0.494,2.296-0.754,3.505-0.767
		c0.747-0.018,1.489,0.131,2.172,0.435c0.966,0.487,1.652,1.394,1.857,2.457c0.225,2.289-0.202,4.594-1.23,6.651
		c-1.633,3.22-2.01,6.932-1.056,10.413c1.716,4.485,6.5,6.368,9.977,7.401l0.512,0.144c2.765,0.443,5.326,1.726,7.335,3.676
		c0.908,1.542,1.484,3.256,1.691,5.033c0.315,2.115,0.962,4.168,1.919,6.081c2.794,5.007,8.568,6.765,13.757,8.018
		c5.567,1.353,11.139,2.732,16.716,4.14c1.121,0.366,2.332,0.351,3.445-0.043c1.296-0.504,2.224-1.662,2.435-3.037
		c0.583-3.876-4.772-8.537-4.861-8.604l-1.346-1.069c-3.175-2.491-6.174-4.845-6.174-8.442c-0.03-1.511,0.841-2.896,2.216-3.523
		c0.954-0.397,1.753-0.107,3.612,0.767c0.512,0.241,1.024,0.481,1.492,0.671c1.987,1.066,4.432,0.758,6.094-0.768
		c1.08-1.206,1.538-2.847,1.233-4.438c-0.419-3.41-0.257-4.82,1.464-5.934c1.855-1.019,3.872-1.719,5.961-2.069
		c1.471-0.316,2.924-0.716,4.349-1.2c3.775-1.506,7.329-3.511,10.572-5.961c0.511-0.361,1.103-0.704,1.696-1.055
		c2.737-1.226,4.917-3.436,6.105-6.191c1.205-3.7-0.735-7.419-5.775-11.055c-3.236-2.32-8.145-5.828-13.686-5.032
		c-1.719,0.315-3.388,0.863-4.961,1.627c-1.002,0.472-2.043,0.857-3.111,1.151c-1.024,0.236-2.102,0.067-3.006-0.474
		c-0.376-0.271-0.396-0.483-0.403-0.562c-0.058-0.665,0.767-1.486,2.047-2.666c1.576-1.238,2.815-2.852,3.608-4.692
		c1.054-3.619-0.5-7.488-3.764-9.374c-3.097-1.705-6.695-2.266-10.166-1.589c-1.217,0.143-2.443,0.202-3.668,0.174
		c-3.059-0.166-5.978-1.334-8.305-3.326c31.845-7.174,64.5,8.17,79.303,37.263C155.011,73.189,148.193,108.617,123.647,130.138"/>
</g>
</svg>
