<?xml version="1.0" encoding="utf-8"?>
<!-- Generator: Adobe Illustrator 15.0.0, SVG Export Plug-In . SVG Version: 6.00 Build 0)  -->
<!DOCTYPE svg PUBLIC "-//W3C//DTD SVG 1.1//EN" "http://www.w3.org/Graphics/SVG/1.1/DTD/svg11.dtd">
<svg version="1.1" id="Layer_1" xmlns="http://www.w3.org/2000/svg" xmlns:xlink="http://www.w3.org/1999/xlink" x="0px" y="0px"
	 width="153.07px" height="107.629px" viewBox="0 0 153.07 107.629" enable-background="new 0 0 153.07 107.629"
	 xml:space="preserve">
<g>
	<defs>
		<rect id="SVGID_1_" width="153.07" height="107.629"/>
	</defs>
	<clipPath id="SVGID_2_">
		<use xlink:href="#SVGID_1_"  overflow="visible"/>
	</clipPath>
	<path clip-path="url(#SVGID_2_)" fill="#FFFFFF" d="M103.076,1.618c-2.086-2.158-5.557-2.158-7.715,0
		c-2.086,2.085-2.086,5.556,0,7.637l39.115,39.115H5.401C2.391,48.375,0,50.766,0,53.775c0,3.009,2.391,5.479,5.401,5.479h129.075
		L95.361,98.297c-2.086,2.158-2.086,5.635,0,7.714c2.158,2.158,5.634,2.158,7.715,0l48.375-48.376c2.158-2.085,2.158-5.556,0-7.636
		L103.076,1.618z"/>
</g>
</svg>
