<?xml version="1.0" encoding="utf-8"?>
<!-- Generator: Adobe Illustrator 15.0.0, SVG Export Plug-In . SVG Version: 6.00 Build 0)  -->
<!DOCTYPE svg PUBLIC "-//W3C//DTD SVG 1.1//EN" "http://www.w3.org/Graphics/SVG/1.1/DTD/svg11.dtd">
<svg version="1.1" id="Layer_1" xmlns="http://www.w3.org/2000/svg" xmlns:xlink="http://www.w3.org/1999/xlink" x="0px" y="0px"
	 width="146.492px" height="146.492px" viewBox="0 0 146.492 146.492" enable-background="new 0 0 146.492 146.492"
	 xml:space="preserve">
<g>
	<defs>
		<rect id="SVGID_1_" width="146.492" height="146.492"/>
	</defs>
	<clipPath id="SVGID_2_">
		<use xlink:href="#SVGID_1_"  overflow="visible"/>
	</clipPath>
	<path clip-path="url(#SVGID_2_)" fill="#FFFFFF" d="M144.699,136.089L109.48,100.87c8.73-10.643,13.992-24.275,13.992-39.133
		C123.473,27.655,95.818,0,61.736,0C27.624,0,0,27.655,0,61.737c0,34.082,27.624,61.735,61.736,61.735
		c14.859,0,28.461-5.231,39.104-13.961l35.219,35.188c2.392,2.392,6.248,2.392,8.641,0
		C147.09,142.337,147.09,138.45,144.699,136.089 M61.736,111.185c-27.295,0-49.479-22.183-49.479-49.448
		c0-27.266,22.184-49.48,49.479-49.48c27.266,0,49.479,22.214,49.479,49.48C111.215,89.002,89.002,111.185,61.736,111.185"/>
</g>
</svg>
