<?xml version="1.0" encoding="utf-8"?>
<!-- Generator: Adobe Illustrator 15.0.0, SVG Export Plug-In . SVG Version: 6.00 Build 0)  -->
<!DOCTYPE svg PUBLIC "-//W3C//DTD SVG 1.1//EN" "http://www.w3.org/Graphics/SVG/1.1/DTD/svg11.dtd">
<svg version="1.1" id="Layer_1" xmlns="http://www.w3.org/2000/svg" xmlns:xlink="http://www.w3.org/1999/xlink" x="0px" y="0px"
	 width="98.598px" height="153.07px" viewBox="0 0 98.598 153.07" enable-background="new 0 0 98.598 153.07" xml:space="preserve">
<g>
	<defs>
		<rect id="SVGID_1_" width="98.598" height="153.07"/>
	</defs>
	<clipPath id="SVGID_2_">
		<use xlink:href="#SVGID_1_"  overflow="visible"/>
	</clipPath>
	<path clip-path="url(#SVGID_2_)" fill="#FFFFFF" d="M88.907,0H9.69C4.346,0,0,4.348,0,9.691v133.688c0,5.343,4.347,9.69,9.691,9.69
		h79.216c5.344,0,9.69-4.348,9.69-9.69V9.691C98.598,4.348,94.251,0,88.907,0 M4.856,24.357h88.886v101.23H4.856V24.357z
		 M9.69,4.856h79.217c2.665,0,4.835,2.169,4.835,4.835V21.12H4.856V9.691C4.856,7.025,7.025,4.856,9.69,4.856 M88.907,148.213H9.69
		c-2.665,0-4.835-2.169-4.835-4.835v-14.554h88.887v14.554C93.742,146.044,91.572,148.213,88.907,148.213"/>
	<path clip-path="url(#SVGID_2_)" fill="#FFFFFF" d="M49.299,130.971c-4.385,0-7.952,3.567-7.952,7.953
		c0,4.385,3.567,7.952,7.952,7.952c4.385,0,7.953-3.567,7.953-7.952S53.684,130.971,49.299,130.971 M49.299,143.639
		c-2.6,0-4.715-2.115-4.715-4.715c0-2.601,2.115-4.716,4.715-4.716c2.6,0,4.715,2.115,4.715,4.716
		C54.014,141.524,51.898,143.639,49.299,143.639"/>
	<path clip-path="url(#SVGID_2_)" fill="#FFFFFF" d="M38.292,15.424h22.015c0.895,0,1.618-0.725,1.618-1.618
		c0-0.895-0.724-1.619-1.618-1.619H38.292c-0.894,0-1.619,0.724-1.619,1.619C36.672,14.699,37.397,15.424,38.292,15.424"/>
	<path clip-path="url(#SVGID_2_)" fill="#FFFFFF" d="M32.465,15.424c0.424,0,0.842-0.171,1.143-0.473
		c0.301-0.303,0.476-0.718,0.476-1.145c0-0.428-0.175-0.842-0.476-1.147c-0.302-0.3-0.719-0.472-1.143-0.472
		c-0.427,0-0.842,0.172-1.146,0.472c-0.301,0.301-0.473,0.719-0.473,1.147c0,0.427,0.172,0.842,0.473,1.145
		C31.62,15.253,32.038,15.424,32.465,15.424"/>
</g>
</svg>
