<?xml version="1.0" encoding="utf-8"?>
<!-- Generator: Adobe Illustrator 22.0.0, SVG Export Plug-In . SVG Version: 6.00 Build 0)  -->
<svg version="1.1" id="Layer_1" xmlns="http://www.w3.org/2000/svg" xmlns:xlink="http://www.w3.org/1999/xlink" x="0px" y="0px"
	 viewBox="0 0 353.2 126.6" style="enable-background:new 0 0 353.2 126.6;" xml:space="preserve">
<style type="text/css">
	.st0{fill:#FAEC24;}
</style>
<g>
	<g>
		<path class="st0" d="M81.8,77.2c6.7-3.2,11.9-7.7,15.7-13.4c3.8-5.8,5.8-12.8,5.8-21.1c0-12.9-4.4-23-13.2-30.1S69.1,1.9,53.4,1.9
			H4.6c-1.3,0-2.5,0.5-3.3,1.4C0.5,4.2,0,5.3,0,6.6v70.6H81.8z M33.5,27.8h19.7c5.1,0,9,1.2,11.6,4c2.7,2.7,4,6.3,4,10.8
			s-1.3,8-4,10.6c-2.7,2.5-6.5,3.8-11.6,3.8H33.5V27.8z"/>
		<path class="st0" d="M97,105.1H61.8l8.3,16.6c1.4,3.2,3.8,4.9,7.3,4.9h25c1.1,0,2-0.5,2.7-1.3s1.1-1.7,1.1-2.6
			c0-0.6-0.2-1.3-0.5-2L97,105.1z"/>
		<path class="st0" d="M0,105.1v16.8c0,1.2,0.5,2.4,1.4,3.3s2,1.5,3.2,1.5H29c1.3,0,2.4-0.6,3.3-1.4c0.9-0.8,1.3-2,1.3-3.3v-16.8
			L0,105.1L0,105.1z"/>
	</g>
	<g>
		<path class="st0" d="M1,101.7c-0.1-0.1-0.2-0.3-0.2-0.5V80.9c0-0.2,0.1-0.4,0.2-0.6c0.1-0.1,0.3-0.2,0.5-0.2H4
			c0.4,0,0.7,0.2,0.9,0.6l6,11.1l6-11.1c0.2-0.4,0.5-0.6,0.9-0.6h2.5c0.2,0,0.4,0.1,0.6,0.2c0.1,0.1,0.2,0.3,0.2,0.6v20.2
			c0,0.2-0.1,0.4-0.2,0.5s-0.3,0.2-0.6,0.2h-2.7c-0.2,0-0.4-0.1-0.5-0.2s-0.2-0.3-0.2-0.5V87.8L12.6,96c-0.2,0.5-0.6,0.7-1,0.7h-1.3
			c-0.4,0-0.8-0.2-1.1-0.7l-4.3-8.2v13.4c0,0.2-0.1,0.4-0.2,0.5s-0.3,0.2-0.5,0.2H1.5C1.3,101.9,1.1,101.8,1,101.7z"/>
		<path class="st0" d="M48.6,100.1c-1.6-1.4-2.4-3.6-2.5-6.4c0-0.6,0-1.5,0-2.6c0-1.2,0-2.1,0-2.7c0.1-2.8,0.9-4.9,2.5-6.3
			c1.6-1.5,3.8-2.2,6.6-2.2c2.7,0,4.9,0.7,6.5,2.2s2.5,3.6,2.6,6.3c0,1.2,0.1,2.1,0.1,2.7s0,1.4-0.1,2.6c-0.1,2.8-0.9,4.9-2.5,6.4
			c-1.6,1.4-3.8,2.1-6.6,2.1C52.3,102.2,50.1,101.5,48.6,100.1z M58.5,97.4c0.8-0.8,1.2-2.1,1.3-3.8c0-1.2,0.1-2.1,0.1-2.5
			c0-0.5,0-1.3-0.1-2.5c-0.1-1.7-0.5-3-1.3-3.8s-1.9-1.3-3.3-1.3c-1.4,0-2.5,0.4-3.3,1.3c-0.8,0.8-1.3,2.1-1.3,3.8
			c0,0.6,0,1.4,0,2.5s0,1.9,0,2.5c0,1.7,0.5,3,1.3,3.8s1.9,1.3,3.3,1.3C56.6,98.6,57.7,98.2,58.5,97.4z"/>
		<path class="st0" d="M93.7,101L87,81.1c0-0.1,0-0.2,0-0.3c0-0.2,0.1-0.3,0.2-0.5c0.1-0.1,0.3-0.2,0.5-0.2h2.8
			c0.3,0,0.5,0.1,0.7,0.2s0.3,0.3,0.3,0.5l5.2,15.9l5.2-15.9c0-0.2,0.1-0.3,0.3-0.5c0.2-0.1,0.4-0.2,0.7-0.2h2.8
			c0.2,0,0.3,0.1,0.5,0.2s0.2,0.3,0.2,0.5l-0.1,0.3L99.5,101c-0.2,0.6-0.6,0.9-1.2,0.9h-3.4C94.2,101.9,93.8,101.6,93.7,101z"/>
		<path class="st0" d="M130.5,101.7c-0.1-0.1-0.2-0.3-0.2-0.5V80.9c0-0.2,0.1-0.4,0.2-0.5c0.1-0.1,0.3-0.2,0.5-0.2h3
			c0.2,0,0.4,0.1,0.5,0.2s0.2,0.3,0.2,0.5v20.3c0,0.2-0.1,0.4-0.2,0.5c-0.1,0.1-0.3,0.2-0.5,0.2h-3
			C130.9,101.9,130.7,101.8,130.5,101.7z"/>
		<path class="st0" d="M160.7,101.7c-0.1-0.1-0.2-0.3-0.2-0.5V80.9c0-0.2,0.1-0.4,0.2-0.6c0.1-0.1,0.3-0.2,0.5-0.2h2.4
			c0.4,0,0.7,0.2,0.9,0.5l8.9,13.8V80.9c0-0.2,0.1-0.4,0.2-0.6c0.1-0.1,0.3-0.2,0.5-0.2h2.7c0.2,0,0.4,0.1,0.6,0.2
			c0.1,0.1,0.2,0.3,0.2,0.6v20.2c0,0.2-0.1,0.4-0.2,0.6c-0.1,0.1-0.3,0.2-0.5,0.2h-2.5c-0.4,0-0.7-0.2-0.9-0.5l-8.9-13.5v13.3
			c0,0.2-0.1,0.4-0.2,0.5c-0.1,0.1-0.3,0.2-0.5,0.2h-2.7C161,101.9,160.8,101.8,160.7,101.7z"/>
		<path class="st0" d="M205,100c-1.6-1.5-2.4-3.5-2.5-6.2c0-0.6,0-1.6,0-2.9s0-2.3,0-2.9c0.1-2.6,0.9-4.6,2.5-6
			c1.6-1.5,3.8-2.2,6.6-2.2c1.9,0,3.5,0.3,4.9,1s2.4,1.5,3.1,2.4c0.7,1,1.1,1.9,1.1,2.8c0,0.2-0.1,0.3-0.2,0.5
			c-0.1,0.1-0.3,0.2-0.5,0.2h-3.3c-0.2,0-0.4,0-0.5-0.1s-0.2-0.2-0.3-0.4c-0.3-0.8-0.8-1.4-1.5-2c-0.7-0.5-1.7-0.8-3-0.8
			c-1.4,0-2.6,0.4-3.4,1.2c-0.8,0.8-1.2,2-1.3,3.6c0,0.6,0,1.5,0,2.7s0,2.1,0,2.7c0,1.7,0.5,2.9,1.3,3.7c0.8,0.8,2,1.2,3.4,1.2
			c1.5,0,2.7-0.4,3.5-1.2c0.9-0.8,1.3-2,1.3-3.5v-1h-3.8c-0.2,0-0.4-0.1-0.5-0.2s-0.2-0.3-0.2-0.5v-1.7c0-0.2,0.1-0.4,0.2-0.5
			c0.1-0.1,0.3-0.2,0.5-0.2h7.5c0.2,0,0.4,0.1,0.6,0.2c0.1,0.1,0.2,0.3,0.2,0.5v3.3c0,1.7-0.4,3.2-1.1,4.5c-0.8,1.3-1.9,2.3-3.3,2.9
			c-1.4,0.7-3.1,1-4.9,1C208.9,102.2,206.6,101.5,205,100z"/>
		<path class="st0" d="M276.5,100.3v1c0,0.2-0.1,0.3-0.2,0.5c-0.1,0.1-0.3,0.2-0.5,0.2h-2.1c-0.2,0-0.3-0.1-0.5-0.2
			c-0.1-0.1-0.2-0.3-0.2-0.5V83.6c0-0.2,0.1-0.4,0.2-0.5s0.3-0.2,0.5-0.2h2.3c0.2,0,0.4,0.1,0.5,0.2s0.2,0.3,0.2,0.5v5.9
			c1-1.2,2.4-1.8,4.1-1.8c1.8,0,3.2,0.6,4.1,1.7c1,1.2,1.5,2.7,1.5,4.6c0,0.2,0,0.5,0,0.9s0,0.6,0,0.9c-0.1,1.9-0.6,3.4-1.5,4.6
			c-1,1.1-2.3,1.7-4.1,1.7C278.9,102.2,277.5,101.6,276.5,100.3z M282.8,95.8c0-0.2,0-0.4,0-0.8s0-0.6,0-0.8c-0.1-2.3-1.1-3.5-3-3.5
			c-1,0-1.7,0.3-2.2,0.9s-0.8,1.4-0.8,2.3c0,0.2,0,0.6,0,1c0,0.5,0,0.8,0,1c0,0.9,0.3,1.7,0.8,2.4c0.5,0.7,1.3,1,2.3,1
			C281.6,99.3,282.7,98.1,282.8,95.8z"/>
		<path class="st0" d="M308.6,100.6c-1.1-1.1-1.7-2.5-1.8-4.4V95v-1.2c0.1-1.9,0.7-3.3,1.9-4.4c1.2-1.1,2.8-1.6,4.8-1.6
			s3.6,0.5,4.8,1.6c1.2,1.1,1.8,2.5,1.9,4.4c0,0.2,0,0.6,0,1.2s0,1,0,1.2c-0.1,1.9-0.7,3.4-1.8,4.4c-1.1,1.1-2.7,1.6-4.8,1.6
			C311.3,102.2,309.7,101.6,308.6,100.6z M315.6,98.6c0.5-0.6,0.8-1.4,0.8-2.6c0-0.2,0-0.5,0-1s0-0.9,0-1c0-1.1-0.3-2-0.8-2.6
			s-1.2-0.9-2.2-0.9c-0.9,0-1.7,0.3-2.2,0.9s-0.8,1.5-0.8,2.6v1v1c0,1.1,0.3,2,0.8,2.6s1.2,0.9,2.2,0.9
			C314.3,99.5,315.1,99.2,315.6,98.6z"/>
		<path class="st0" d="M339.5,101.7c-0.1-0.1-0.2-0.3-0.2-0.4c0-0.2,0.1-0.3,0.2-0.5l4.6-6.1l-4.2-5.7c-0.1-0.1-0.2-0.3-0.2-0.5
			s0.1-0.3,0.2-0.4s0.3-0.2,0.4-0.2h2.3c0.2,0,0.3,0,0.4,0.1s0.2,0.2,0.3,0.3l3,4l3-4c0,0,0.1-0.1,0.2-0.2s0.3-0.2,0.5-0.2h2.3
			c0.2,0,0.3,0.1,0.4,0.2s0.2,0.2,0.2,0.4c0,0.2-0.1,0.3-0.2,0.5l-4.3,5.7l4.6,6c0.1,0.1,0.2,0.3,0.2,0.5s-0.1,0.3-0.2,0.4
			s-0.3,0.2-0.4,0.2h-2.4c-0.3,0-0.5-0.1-0.7-0.4l-3.2-4.2l-3.2,4.2c-0.2,0.3-0.4,0.4-0.7,0.4H340
			C339.7,101.9,339.6,101.9,339.5,101.7z"/>
	</g>
	<g>
		<path class="st0" d="M301.9,77.2V4.7c0-1.3-0.4-2.5-1.2-3.3c-0.8-0.8-1.9-1.4-3.2-1.4h-22.2c-1.3,0-2.3,0.5-3.2,1.4
			c-0.9,0.8-1.3,2-1.3,3.3v72.5H301.9z"/>
		<path class="st0" d="M270.9,105.1v16.8c0,1.3,0.4,2.5,1.3,3.3s1.9,1.4,3.2,1.4h22.2c1.3,0,2.3-0.6,3.2-1.5
			c0.8-0.9,1.2-2.1,1.2-3.3V105L270.9,105.1L270.9,105.1z"/>
	</g>
	<g>
		<path class="st0" d="M353.2,77.2V4.7c0-1.3-0.3-2.5-1.1-3.3c-0.8-0.8-1.7-1.4-3-1.4h-22.2c-1.3,0-2.4,0.5-3.3,1.4
			c-0.9,0.8-1.4,2-1.4,3.3v72.5H353.2z"/>
		<path class="st0" d="M322.2,105.1v16.8c0,1.3,0.5,2.5,1.4,3.3s2,1.4,3.3,1.4H349c1.3,0,2.2-0.6,3-1.5s1.1-2.1,1.1-3.3V105
			L322.2,105.1L322.2,105.1z"/>
	</g>
	<g>
		<path class="st0" d="M208.3,48.1c0,0-2.5-37-25-47.7c0,0-8.2-2.2-23.3,4.5c-15.2,6.6-27.1,22.2-28.4,24.8l30.8,18.4
			C162.4,48.1,181.9,19.8,208.3,48.1z"/>
		<path class="st0" d="M159.2,62.6h11.2L141.1,45l-29.6,17.3l12,1l0.4,8.7c0.1,1.7,0.4,3.5,0.7,5.2h37.8
			C157.7,69.6,159.2,62.6,159.2,62.6z"/>
		<path class="st0" d="M143.6,110c7,6.4,22,13.1,22,13.1c7.4,3,21.6,3,21.6,3c12.1-0.4,20.9-4.5,20.9-4.5
			c10.8-4.4,18.6-11.1,23.5-16.5H139C141.6,108.1,143.6,110,143.6,110z"/>
		<path class="st0" d="M247.5,63.3C247.1,36.1,229,18.5,229,18.5c-20.4-20.3-41-18-41-18c26,10.9,23.9,62.3,23.9,62.3l-11.4,0.6
			l21.3,13.8h15.1l21.6-13.9H247.5z"/>
	</g>
</g>
</svg>
