<?xml version="1.0" encoding="utf-8"?>
<!-- Generator: Adobe Illustrator 22.0.0, SVG Export Plug-In . SVG Version: 6.00 Build 0)  -->
<svg version="1.1" id="Layer_1" xmlns="http://www.w3.org/2000/svg" xmlns:xlink="http://www.w3.org/1999/xlink" x="0px" y="0px"
	 viewBox="0 0 456.3 156.6" style="enable-background:new 0 0 456.3 156.6;" xml:space="preserve">
<style type="text/css">
	.st0{fill:#F6851F;}
</style>
<g>
	<g>
		<path class="st0" d="M187.3,93.3c1.5-4,3.7-9.3,6.4-16c3.4-8.4,6-14.6,7.8-18.6c7.6-17.4,19.8-26.1,36.7-26.1
			c7,0,11.8,1.5,14.5,4.4c2.7,2.9,4.1,6.4,4.2,10.5c0.3,1,0.8,1.7,1.4,2.2c0.6,0.5,1.6,0.7,3.1,0.7h33.7c1.3,0,2.6-0.4,3.9-1.3
			c1.3-0.9,2.2-2,2.8-3.3c2.7-7.4,2.7-14.6,0.2-21.6c-2.6-7-8.2-12.8-16.7-17.3C276.5,2.3,265.2,0,251.3,0c-20.7,0-39.2,5-55.4,15.1
			c-16.2,10.1-28.3,24.3-36.2,42.5c-1.8,4.2-4.6,10.8-8.3,19.9c-2.7,6.6-4.8,11.8-6.3,15.8L187.3,93.3L187.3,93.3z"/>
		<path class="st0" d="M291.6,68c-0.6-1.1-1.8-1.7-3.4-1.7H233c-1.6,0-3.2,0.6-4.7,1.7s-2.6,2.4-3.3,4l-6.9,17
			c-0.6,1.6-0.6,2.8,0,3.9c0.1,0.2,0.3,0.4,0.4,0.4h64.3l8.7-21.4C292.2,70.3,292.2,69.1,291.6,68z"/>
		<path class="st0" d="M139.2,127.3c0.8,6,2.7,9.9,5.7,13.8c7.8,10.2,22.2,15.4,43.2,15.4c13.9,0,27.1-2.3,39.4-7
			c12.3-4.7,23.2-11.7,32.5-20.6c0.5-0.5,1-0.6,1.5-1.6L139.2,127.3L139.2,127.3z"/>
	</g>
	<g>
		<path class="st0" d="M133.9,123.6c-0.1-0.2-0.1-0.4,0-0.6l10-24.8c0.1-0.3,0.3-0.5,0.5-0.7c0.2-0.2,0.5-0.3,0.8-0.3h3.1
			c0.5,0,0.8,0.2,0.9,0.7l1.8,13.6l12.9-13.6c0.5-0.5,1-0.7,1.4-0.7h3c0.3,0,0.5,0.1,0.6,0.3c0.1,0.2,0.1,0.4,0,0.7l-10,24.8
			c-0.1,0.3-0.3,0.5-0.5,0.7c-0.2,0.2-0.5,0.2-0.8,0.2h-3.3c-0.3,0-0.4-0.1-0.5-0.3c-0.1-0.2-0.1-0.4,0-0.6l6.6-16.4l-9.4,10.1
			c-0.5,0.6-1,0.8-1.6,0.8h-1.6c-0.5,0-0.9-0.3-1-0.8l-1.2-10.1l-6.6,16.4c-0.1,0.3-0.3,0.5-0.5,0.6s-0.5,0.3-0.8,0.3h-3.3
			C134.2,123.8,134,123.7,133.9,123.6z"/>
		<path class="st0" d="M177,121.6c-1.2-1.8-1.2-4.4,0.1-7.8c0.3-0.7,0.7-1.8,1.3-3.2c0.6-1.4,1-2.5,1.4-3.3c1.5-3.4,3.6-6,6.3-7.8
			c2.7-1.8,5.8-2.7,9.1-2.7c3.4,0,5.7,0.9,6.9,2.7c1.3,1.8,1.3,4.4,0,7.8c-0.5,1.5-1,2.6-1.2,3.3c-0.3,0.7-0.7,1.8-1.4,3.2
			c-1.5,3.5-3.6,6.1-6.2,7.8c-2.6,1.8-5.7,2.6-9.2,2.6C180.6,124.2,178.3,123.3,177,121.6z M190.5,118.3c1.4-1,2.6-2.6,3.5-4.7
			c0.7-1.5,1.1-2.6,1.3-3.1c0.2-0.6,0.6-1.6,1.2-3.1c0.8-2.1,0.8-3.6,0.2-4.7c-0.6-1-1.7-1.5-3.4-1.5c-1.7,0-3.2,0.5-4.7,1.5
			c-1.4,1-2.6,2.6-3.5,4.7c-0.3,0.7-0.8,1.8-1.3,3.1c-0.5,1.3-0.9,2.3-1.2,3.1c-0.8,2.1-0.9,3.6-0.3,4.7s1.7,1.5,3.4,1.5
			C187.6,119.8,189.1,119.3,190.5,118.3z"/>
		<path class="st0" d="M215.9,122.8l1.7-24.4c0-0.1,0-0.2,0.1-0.3c0.1-0.2,0.2-0.4,0.5-0.6c0.2-0.2,0.4-0.2,0.7-0.2h3.4
			c0.3,0,0.6,0.1,0.7,0.3c0.1,0.2,0.2,0.4,0.2,0.6l-1.5,19.5L235.8,98c0.1-0.2,0.3-0.4,0.6-0.6c0.3-0.2,0.6-0.3,0.9-0.3h3.4
			c0.2,0,0.4,0.1,0.5,0.2c0.1,0.2,0.1,0.3,0,0.6l-0.2,0.3l-18,24.4c-0.5,0.7-1.2,1.1-1.9,1.1h-4.2
			C216.2,123.8,215.8,123.5,215.9,122.8z"/>
		<path class="st0" d="M244.7,123.6c-0.1-0.2-0.1-0.4,0-0.6l10-24.8c0.1-0.3,0.3-0.5,0.5-0.7c0.2-0.2,0.5-0.2,0.7-0.2h3.7
			c0.3,0,0.5,0.1,0.6,0.2c0.1,0.2,0.1,0.4,0,0.7l-10,24.8c-0.1,0.3-0.3,0.5-0.5,0.6s-0.5,0.3-0.8,0.3h-3.7
			C245,123.8,244.8,123.7,244.7,123.6z"/>
		<path class="st0" d="M265.7,123.6c-0.1-0.2-0.1-0.4,0-0.6l10-24.8c0.1-0.3,0.3-0.5,0.5-0.7c0.2-0.2,0.5-0.3,0.8-0.3h3
			c0.5,0,0.8,0.2,0.8,0.6l4.1,16.9l6.7-16.6c0.1-0.3,0.3-0.5,0.5-0.7c0.2-0.2,0.5-0.3,0.8-0.3h3.3c0.3,0,0.5,0.1,0.6,0.3
			c0.1,0.2,0.1,0.4,0,0.7l-10,24.8c-0.1,0.3-0.3,0.5-0.5,0.7s-0.5,0.3-0.8,0.3h-3c-0.5,0-0.8-0.2-0.9-0.6l-4.2-16.5l-6.6,16.3
			c-0.1,0.3-0.3,0.5-0.5,0.6s-0.5,0.3-0.8,0.3h-3.3C266,123.8,265.8,123.7,265.7,123.6z"/>
		<path class="st0" d="M304.9,121.5c-1.2-1.8-1.2-4.3-0.1-7.5c0.3-0.7,0.7-1.9,1.4-3.5s1.1-2.8,1.5-3.5c1.4-3.1,3.4-5.6,6.1-7.4
			c2.7-1.8,5.8-2.7,9.2-2.7c2.3,0,4.2,0.4,5.5,1.2c1.4,0.8,2.2,1.8,2.6,3c0.4,1.2,0.4,2.3,0,3.5c-0.1,0.2-0.2,0.4-0.5,0.6
			c-0.2,0.2-0.4,0.2-0.7,0.2h-4c-0.3,0-0.4-0.1-0.5-0.2c-0.1-0.1-0.1-0.3-0.1-0.5c0-0.9-0.3-1.7-0.9-2.4c-0.6-0.7-1.7-1-3.2-1
			c-1.8,0-3.4,0.5-4.7,1.4c-1.4,1-2.5,2.4-3.4,4.4c-0.3,0.7-0.8,1.9-1.4,3.4c-0.6,1.5-1,2.6-1.3,3.4c-0.8,2.1-0.9,3.6-0.2,4.6
			s1.8,1.5,3.6,1.5c1.8,0,3.4-0.5,4.9-1.4c1.5-1,2.6-2.4,3.4-4.3l0.5-1.2H318c-0.3,0-0.4-0.1-0.5-0.3c-0.1-0.2-0.1-0.4,0-0.6
			l0.8-2.1c0.1-0.3,0.3-0.5,0.5-0.6c0.2-0.2,0.5-0.3,0.8-0.3h9.1c0.3,0,0.5,0.1,0.6,0.3c0.1,0.2,0.1,0.4,0,0.6l-1.6,4
			c-0.9,2.1-2.1,3.9-3.6,5.5c-1.6,1.6-3.4,2.8-5.5,3.6c-2.1,0.8-4.3,1.3-6.6,1.3C308.5,124.2,306.1,123.3,304.9,121.5z"/>
		<path class="st0" d="M360.4,121.8l-0.5,1.2c-0.1,0.2-0.2,0.4-0.5,0.6c-0.2,0.2-0.4,0.2-0.7,0.2h-2.6c-0.2,0-0.4-0.1-0.5-0.2
			c-0.1-0.2-0.1-0.3,0-0.6l8.7-21.6c0.1-0.2,0.3-0.4,0.5-0.6s0.4-0.2,0.6-0.2h2.8c0.2,0,0.4,0.1,0.5,0.2c0.1,0.1,0.1,0.3,0,0.6
			l-2.9,7.2c1.8-1.4,3.8-2.2,5.9-2.2c2.2,0,3.6,0.7,4.2,2.1c0.6,1.4,0.5,3.3-0.4,5.6c-0.1,0.3-0.2,0.6-0.4,1.1
			c-0.2,0.4-0.3,0.8-0.5,1.1c-1,2.4-2.4,4.2-4.2,5.6c-1.7,1.4-3.7,2.1-5.9,2.1C362.4,124.2,360.9,123.4,360.4,121.8z M370.3,116.3
			c0.1-0.2,0.3-0.5,0.4-1c0.2-0.4,0.3-0.8,0.4-1c1-2.9,0.3-4.3-2-4.3c-1.2,0-2.3,0.4-3.2,1.1c-0.9,0.8-1.6,1.7-2.1,2.8
			c-0.1,0.3-0.3,0.7-0.5,1.3c-0.2,0.6-0.4,1-0.5,1.2c-0.4,1.2-0.5,2.1-0.2,2.9c0.3,0.8,1,1.2,2.3,1.2
			C367.1,120.6,369,119.2,370.3,116.3z"/>
		<path class="st0" d="M385.8,122.2c-0.9-1.3-0.9-3.1-0.1-5.4l0.5-1.4l0.6-1.4c1-2.3,2.5-4.1,4.5-5.4c1.9-1.3,4.2-2,6.7-2
			c2.5,0,4.2,0.7,5.1,2s0.9,3.1,0.1,5.4c-0.1,0.3-0.3,0.7-0.5,1.4c-0.3,0.7-0.5,1.2-0.6,1.4c-1,2.3-2.5,4.1-4.4,5.4
			c-1.9,1.3-4.2,2-6.7,2C388.4,124.2,386.6,123.5,385.8,122.2z M395.4,119.8c0.9-0.7,1.7-1.8,2.3-3.2c0.1-0.2,0.3-0.6,0.5-1.3
			c0.3-0.6,0.4-1.1,0.5-1.3c0.5-1.4,0.6-2.5,0.3-3.2c-0.3-0.7-1.1-1.1-2.2-1.1c-1.2,0-2.2,0.4-3.1,1.1c-0.9,0.7-1.7,1.8-2.3,3.2
			l-0.5,1.3l-0.5,1.3c-0.5,1.4-0.6,2.4-0.3,3.2c0.3,0.7,1.1,1.1,2.2,1.1S394.4,120.5,395.4,119.8z"/>
		<path class="st0" d="M409.4,123.6c-0.1-0.1-0.1-0.3,0-0.5c0.1-0.2,0.2-0.4,0.4-0.6l8.6-7.4l-2.3-7c-0.1-0.2-0.1-0.4,0-0.6
			s0.2-0.4,0.4-0.5c0.2-0.1,0.4-0.2,0.6-0.2h2.9c0.2,0,0.4,0,0.5,0.1c0.1,0.1,0.1,0.2,0.2,0.4l1.7,4.9l5.6-4.9c0,0,0.1-0.1,0.4-0.3
			c0.2-0.2,0.5-0.3,0.8-0.3h2.8c0.2,0,0.3,0.1,0.4,0.2c0.1,0.1,0.1,0.3,0,0.5c-0.1,0.2-0.2,0.4-0.4,0.6l-8.1,7l2.6,7.4
			c0.1,0.2,0,0.4,0,0.6c-0.1,0.2-0.2,0.4-0.4,0.5c-0.2,0.1-0.4,0.2-0.6,0.2h-3c-0.3,0-0.6-0.2-0.7-0.5l-1.8-5.2l-6,5.2
			c-0.4,0.3-0.7,0.5-1.1,0.5h-2.9C409.6,123.8,409.5,123.8,409.4,123.6z"/>
	</g>
	<g>
		<path class="st0" d="M142.9,68.7c-0.8,1.6-3.8,3.6-6.5,3.6H3.5c-2.6,0-4.1-1.9-3.3-3.6l0.1-0.4c0.8-1.6,4.1-3.4,6.7-3.4L147,58.7
			c2.6,0-3.1,8-3.9,9.7L142.9,68.7z"/>
		<path class="st0" d="M132,90.1c-0.8,1.6-2.8,3.2-4.2,3.2H57.7c-1.4,0-1.8-1.6-0.9-3.2l0.1-0.4c0.8-1.6,2.9-3.4,4.3-3.4h70.1
			c1.4,0,9.1-7.3,8.3-5.6L132,90.1z"/>
		<path class="st0" d="M153.9,46.9c-0.8,1.6-3.2,3.4-5.1,3.4H54.5c-1.9,0-3.1-1.8-2.2-3.4l0.1-0.2c0.8-1.6,3.8-3.3,5.6-3.3h94.3
			c9.7-19,2.5,1.7,1.7,3.3L153.9,46.9z"/>
	</g>
	<g>
		<path class="st0" d="M344.6,93.3c1.5-4,3.5-9,6.1-15.3c3.1-7.7,5.6-13.5,7.3-17.6c4.1-9.4,9.3-16.4,15.7-21
			c6.3-4.6,13.4-6.8,21-6.8c7.5,0,12.6,2.3,15.3,6.9c2.6,4.6,2.2,11.6-1.3,21c-3,8.1-5.2,13.9-6.7,17.5c-1.3,3.2-3.5,8.3-6.6,15.3
			h42.3c2.7-6,4.8-11,6.3-14.7c1.7-4.2,4.1-10.5,7.2-18.9c7.2-19.1,6.8-33.9-1.1-44.2C442.1,5.2,428.1,0,407.9,0
			c-20.3,0-38.6,5.2-54.9,15.6c-16.3,10.4-28.6,25.1-36.9,44.3c-1.8,4.2-4.5,10.4-7.9,18.8c-2.5,6.1-4.4,10.7-5.9,14.7L344.6,93.3
			L344.6,93.3z"/>
		<path class="st0" d="M296.2,127.3c0.8,6,2.7,10.2,5.8,14.1c7.8,10,22.1,15.1,42.7,15.1c20.6,0,38.8-5.1,54.7-15.2
			c6.2-3.9,11.9-8.1,17-14.1H296.2z"/>
	</g>
</g>
</svg>
