<?xml version="1.0" encoding="utf-8"?>
<!-- Generator: Adobe Illustrator 22.0.0, SVG Export Plug-In . SVG Version: 6.00 Build 0)  -->
<svg version="1.1" id="Layer_1" xmlns="http://www.w3.org/2000/svg" xmlns:xlink="http://www.w3.org/1999/xlink" x="0px" y="0px"
	 viewBox="0 0 284 168.7" style="enable-background:new 0 0 284 168.7;" xml:space="preserve">
<style type="text/css">
	.st0{fill:#f6851f;}
</style>
<g>
	<g>
		<path class="st0" d="M124.6,162.7c0,1.6,0.6,3,1.8,4.2c1.2,1.2,2.6,1.8,4.2,1.8h30.6c1.8,0,3.3-0.6,4.5-1.7
			c1.2-1.1,1.8-2.6,1.8-4.3v-31h-42.9V162.7z"/>
		<path class="st0" d="M167.5,6.3c0-1.8-0.6-3.3-1.8-4.5C164.5,0.6,163,0,161.2,0H134c-4,0-6.9,1.8-8.7,5.3L83.6,79.5L42.2,5.3
			C40.4,1.8,37.5,0,33.5,0H6.3C4.5,0,3,0.6,1.8,1.8C0.6,3,0,4.5,0,6.3v156.4c0,1.8,0.6,3.2,1.8,4.3c1.2,1.1,2.7,1.7,4.5,1.7h30.4
			c1.8,0,3.3-0.6,4.5-1.7c1.2-1.1,1.8-2.6,1.8-4.3V74.9l25.8,47.7c2.4,3.7,5.2,5.5,8.4,5.5h13c3.5,0,6.3-1.8,8.4-5.5l26-47.7v14.6
			h42.9V6.3z"/>
	</g>
	<g>
		<path d="M126.5,125c-0.2-0.2-0.3-0.4-0.3-0.7V96.8c0-0.3,0.1-0.6,0.3-0.8c0.2-0.2,0.4-0.3,0.7-0.3h3.4c0.5,0,1,0.3,1.3,0.8
			l8.1,15.1l8.1-15.1c0.3-0.5,0.7-0.8,1.3-0.8h3.4c0.3,0,0.6,0.1,0.8,0.3c0.2,0.2,0.3,0.4,0.3,0.8v27.5c0,0.3-0.1,0.6-0.3,0.7
			c-0.2,0.2-0.5,0.3-0.8,0.3h-3.6c-0.3,0-0.5-0.1-0.7-0.3c-0.2-0.2-0.3-0.4-0.3-0.7v-18.1l-5.9,11.1c-0.3,0.6-0.8,0.9-1.4,0.9h-1.8
			c-0.6,0-1.1-0.3-1.4-0.9l-5.9-11.1v18.1c0,0.3-0.1,0.5-0.3,0.7c-0.2,0.2-0.4,0.3-0.7,0.3h-3.6C126.9,125.3,126.7,125.2,126.5,125z
			"/>
		<path d="M162.8,122.8c-2.1-1.9-3.3-4.8-3.4-8.6c0-0.8,0-2,0-3.6c0-1.6,0-2.8,0-3.6c0.1-3.7,1.3-6.6,3.5-8.6c2.2-2,5.2-3,8.9-3
			c3.7,0,6.7,1,8.9,3c2.2,2,3.4,4.9,3.5,8.6c0.1,1.6,0.1,2.8,0.1,3.6c0,0.8,0,2-0.1,3.6c-0.1,3.8-1.2,6.7-3.4,8.6
			c-2.2,1.9-5.1,2.9-9,2.9C167.9,125.7,165,124.7,162.8,122.8z M176.3,119.1c1.1-1.1,1.7-2.9,1.8-5.2c0.1-1.7,0.1-2.8,0.1-3.4
			c0-0.6,0-1.8-0.1-3.4c-0.1-2.3-0.7-4-1.8-5.2c-1.1-1.1-2.6-1.7-4.4-1.7c-1.9,0-3.3,0.6-4.5,1.7c-1.1,1.1-1.7,2.9-1.8,5.2
			c0,0.8,0,2,0,3.4c0,1.4,0,2.6,0,3.4c0.1,2.3,0.6,4,1.8,5.2c1.1,1.1,2.6,1.7,4.5,1.7C173.7,120.8,175.2,120.3,176.3,119.1z"/>
		<path d="M195.8,124.1l-9-27.1c0-0.1,0-0.2,0-0.4c0-0.3,0.1-0.5,0.3-0.6c0.2-0.2,0.4-0.3,0.6-0.3h3.8c0.4,0,0.7,0.1,0.9,0.3
			c0.2,0.2,0.4,0.4,0.5,0.6l7,21.6l7.1-21.6c0.1-0.2,0.2-0.4,0.4-0.6c0.2-0.2,0.5-0.3,0.9-0.3h3.8c0.2,0,0.4,0.1,0.6,0.3
			c0.2,0.2,0.3,0.4,0.3,0.6l-0.1,0.4l-9,27.1c-0.3,0.8-0.8,1.2-1.6,1.2h-4.7C196.6,125.3,196,124.9,195.8,124.1z"/>
		<path d="M217.6,125c-0.2-0.2-0.3-0.4-0.3-0.7V96.8c0-0.3,0.1-0.6,0.3-0.7c0.2-0.2,0.4-0.3,0.7-0.3h4c0.3,0,0.6,0.1,0.7,0.3
			c0.2,0.2,0.3,0.4,0.3,0.7v27.5c0,0.3-0.1,0.5-0.3,0.7c-0.2,0.2-0.4,0.3-0.7,0.3h-4C218,125.3,217.8,125.2,217.6,125z"/>
		<path d="M230.2,125c-0.2-0.2-0.3-0.4-0.3-0.7V96.8c0-0.3,0.1-0.6,0.3-0.8c0.2-0.2,0.4-0.3,0.7-0.3h3.3c0.5,0,0.9,0.2,1.2,0.7
			l12.1,18.7V96.8c0-0.3,0.1-0.6,0.3-0.8c0.2-0.2,0.4-0.3,0.7-0.3h3.6c0.3,0,0.6,0.1,0.8,0.3c0.2,0.2,0.3,0.4,0.3,0.8v27.4
			c0,0.3-0.1,0.6-0.3,0.8c-0.2,0.2-0.4,0.3-0.7,0.3h-3.3c-0.6,0-1-0.2-1.3-0.7l-12-18.3v18c0,0.3-0.1,0.5-0.3,0.7
			c-0.2,0.2-0.4,0.3-0.7,0.3H231C230.7,125.3,230.4,125.2,230.2,125z"/>
		<path d="M262.2,122.7c-2.2-2-3.3-4.8-3.4-8.4c0-0.8,0-2.1,0-3.9c0-1.8,0-3.1,0-3.9c0.1-3.5,1.3-6.2,3.5-8.2c2.2-2,5.2-3,9-3
			c2.6,0,4.8,0.4,6.7,1.3c1.9,0.9,3.3,2,4.2,3.3c1,1.3,1.5,2.6,1.5,3.9c0,0.3-0.1,0.5-0.3,0.6c-0.2,0.2-0.4,0.3-0.7,0.3h-4.4
			c-0.3,0-0.5-0.1-0.6-0.2c-0.1-0.1-0.3-0.3-0.4-0.5c-0.4-1-1.1-1.9-2.1-2.7c-1-0.7-2.3-1.1-4-1.1c-2,0-3.5,0.5-4.6,1.6
			c-1.1,1.1-1.7,2.7-1.8,4.9c0,0.8,0,2.1,0,3.7c0,1.6,0,2.9,0,3.7c0.1,2.3,0.6,4,1.8,5c1.1,1.1,2.7,1.6,4.6,1.6c2,0,3.6-0.5,4.8-1.6
			c1.2-1.1,1.8-2.7,1.8-4.8v-1.3h-5.1c-0.3,0-0.5-0.1-0.7-0.3c-0.2-0.2-0.3-0.4-0.3-0.7v-2.3c0-0.3,0.1-0.5,0.3-0.7
			c0.2-0.2,0.4-0.3,0.7-0.3h10.1c0.3,0,0.6,0.1,0.8,0.3c0.2,0.2,0.3,0.4,0.3,0.7v4.5c0,2.3-0.5,4.4-1.6,6.1c-1,1.7-2.5,3.1-4.4,4
			c-1.9,0.9-4.1,1.4-6.7,1.4C267.4,125.7,264.4,124.7,262.2,122.7z"/>
	</g>
	<g>
		<path d="M206.1,160.5v1.3c0,0.2-0.1,0.4-0.3,0.6c-0.2,0.2-0.4,0.3-0.7,0.3h-2.9c-0.2,0-0.4-0.1-0.6-0.3c-0.2-0.2-0.3-0.4-0.3-0.6
			v-23.9c0-0.3,0.1-0.5,0.3-0.6c0.2-0.2,0.4-0.2,0.6-0.2h3.1c0.3,0,0.5,0.1,0.6,0.2c0.2,0.2,0.2,0.4,0.2,0.6v8
			c1.3-1.6,3.2-2.4,5.5-2.4c2.4,0,4.3,0.8,5.6,2.4c1.3,1.6,2,3.6,2.1,6.2c0,0.3,0,0.7,0,1.2c0,0.5,0,0.9,0,1.2
			c-0.1,2.6-0.8,4.7-2.1,6.2c-1.3,1.6-3.2,2.3-5.6,2.3C209.3,163,207.4,162.2,206.1,160.5z M214.6,154.3c0-0.2,0-0.6,0-1.1
			c0-0.5,0-0.8,0-1.1c-0.2-3.2-1.5-4.8-4.1-4.8c-1.3,0-2.3,0.4-3,1.3c-0.7,0.8-1.1,1.9-1.1,3.1c0,0.3,0,0.8,0,1.4c0,0.6,0,1.1,0,1.4
			c0,1.3,0.4,2.4,1.1,3.3s1.7,1.3,3.1,1.3C213,159.1,214.4,157.5,214.6,154.3z"/>
		<path d="M236.2,160.9c-1.5-1.4-2.4-3.4-2.5-6l0-1.6l0-1.6c0.1-2.5,1-4.5,2.5-6c1.6-1.5,3.7-2.2,6.5-2.2c2.8,0,4.9,0.7,6.5,2.2
			c1.6,1.5,2.4,3.5,2.5,6c0,0.3,0,0.8,0,1.6c0,0.8,0,1.3,0,1.6c-0.1,2.6-1,4.6-2.5,6c-1.5,1.4-3.7,2.2-6.5,2.2
			C239.9,163,237.7,162.3,236.2,160.9z M245.7,158.2c0.7-0.8,1.1-2,1.1-3.5c0-0.2,0-0.7,0-1.4c0-0.7,0-1.2,0-1.4
			c0-1.5-0.4-2.7-1.1-3.5c-0.7-0.8-1.7-1.2-2.9-1.2c-1.3,0-2.3,0.4-3,1.2c-0.7,0.8-1.1,2-1.1,3.5l0,1.4l0,1.4c0,1.5,0.4,2.7,1.1,3.5
			c0.7,0.8,1.7,1.2,3,1.2C244,159.4,245,159,245.7,158.2z"/>
		<path d="M264.8,162.4c-0.2-0.2-0.2-0.3-0.2-0.6s0.1-0.4,0.2-0.6l6.2-8.2l-5.7-7.7c-0.1-0.2-0.2-0.4-0.2-0.6s0.1-0.4,0.2-0.6
			c0.2-0.2,0.3-0.2,0.6-0.2h3.2c0.3,0,0.5,0.1,0.6,0.2c0.1,0.1,0.3,0.3,0.4,0.5l4,5.4l4-5.4c0,0,0.1-0.1,0.3-0.3
			c0.2-0.2,0.4-0.3,0.7-0.3h3.1c0.2,0,0.4,0.1,0.5,0.2c0.1,0.2,0.2,0.3,0.2,0.5c0,0.2-0.1,0.5-0.2,0.7l-5.8,7.8l6.2,8.2
			c0.1,0.2,0.2,0.4,0.2,0.6s-0.1,0.4-0.2,0.6c-0.2,0.2-0.3,0.2-0.6,0.2h-3.3c-0.4,0-0.7-0.2-1-0.6l-4.3-5.7l-4.4,5.7
			c-0.3,0.4-0.6,0.6-1,0.6h-3.2C265.1,162.7,264.9,162.6,264.8,162.4z"/>
	</g>
</g>
</svg>
