<?xml version="1.0" encoding="utf-8"?>
<!-- Generator: Adobe Illustrator 23.1.0, SVG Export Plug-In . SVG Version: 6.00 Build 0)  -->
<svg version="1.1" id="Layer_1" xmlns="http://www.w3.org/2000/svg" xmlns:xlink="http://www.w3.org/1999/xlink" x="0px" y="0px"
	 viewBox="0 0 393.1 263" style="enable-background:new 0 0 393.1 263;" xml:space="preserve">
<style type="text/css">
	.st0{fill:#F26A21;}
	.st1{enable-background:new    ;}
	.st2{fill:#231F20;}
</style>
<path class="st0" d="M149.5,255.7c0.1,4,3.3,7.1,7.2,7.2h36.7c2,0.1,3.9-0.7,5.3-2c1.4-1.3,2.2-3.2,2.2-5.2v-37.2h-51.5V255.7z"/>
<path class="st0" d="M201,68.1c0.1-4.1-3.2-7.5-7.3-7.5c-0.1,0-0.1,0-0.2,0h-32.7c-4.4-0.2-8.6,2.3-10.4,6.4l-50,89.1L50.6,66.9
	c-1.8-4.1-6-6.6-10.4-6.4H7.5c-4.1-0.1-7.4,3.2-7.5,7.3c0,0.1,0,0.2,0,0.2v187.7c-0.1,2,0.7,3.9,2.2,5.2c1.5,1.3,3.4,2.1,5.3,2H44
	c2,0.1,3.9-0.7,5.3-2c1.4-1.3,2.2-3.2,2.2-5.2V150.5l30.9,57.3c2.9,4.4,6.3,6.7,10.1,6.6h15.6c4.2,0,7.6-2.2,10.1-6.6l31.2-57.3
	v17.5H201V68.1z"/>
<path d="M151.8,210.5c-0.2-0.2-0.4-0.5-0.4-0.9v-32.9c0-0.3,0.1-0.7,0.3-0.9c0.2-0.2,0.5-0.4,0.9-0.4h4.1c0.7,0,1.2,0.4,1.5,1
	l9.8,18.1l9.8-18.1c0.3-0.6,0.9-1,1.5-1h4.1c0.3,0,0.7,0.1,0.9,0.4c0.2,0.2,0.4,0.6,0.4,0.9v33c0,0.3-0.1,0.7-0.4,0.9
	c-0.2,0.2-0.6,0.3-0.9,0.3H179c-0.3,0-0.6-0.1-0.9-0.4c-0.2-0.2-0.4-0.5-0.4-0.9v-21.8l-7,13.4c-0.3,0.7-0.9,1.1-1.7,1.1H167
	c-0.7,0-1.4-0.5-1.7-1.1l-7-13.4v21.8c0,0.3-0.1,0.6-0.3,0.9c-0.2,0.2-0.6,0.4-0.9,0.4h-4.4C152.3,210.9,152,210.8,151.8,210.5z"/>
<path d="M195.4,207.9c-2.6-2.3-3.9-5.8-4.1-10.4c0-1-0.1-2.4-0.1-4.3s0-3.4,0.1-4.4c0.1-4.5,1.5-7.9,4.1-10.3
	c2.6-2.4,6.2-3.6,10.7-3.6c4.5,0,8,1.2,10.7,3.6c2.6,2.4,4,5.8,4.2,10.3c0.1,1.9,0.1,3.4,0.1,4.4s0,2.3-0.1,4.3
	c-0.1,4.6-1.5,8.1-4.1,10.4s-6.2,3.5-10.8,3.5C201.5,211.4,197.9,210.2,195.4,207.9z M211.5,203.5c1.3-1.3,2-3.4,2.1-6.2
	c0.1-2,0.1-3.4,0.1-4.1s0-2.1-0.1-4.1c-0.1-2.8-0.8-4.8-2.2-6.2c-3-2.7-7.6-2.7-10.7,0c-1.4,1.4-2.1,3.4-2.1,6.2
	c0,1-0.1,2.3-0.1,4.1s0,3.1,0.1,4.1c0.1,2.8,0.8,4.8,2.1,6.2C203.8,206.2,208.5,206.2,211.5,203.5L211.5,203.5z"/>
<path d="M235,209.5L224.1,177c0-0.1-0.1-0.3,0-0.4c0-0.3,0.1-0.6,0.3-0.8c0.2-0.2,0.5-0.3,0.8-0.3h4.5c0.4,0,0.8,0.1,1.1,0.4
	c0.2,0.2,0.4,0.5,0.6,0.8l8.5,25.9l8.5-25.9c0.1-0.3,0.3-0.6,0.5-0.8c0.3-0.2,0.7-0.4,1.1-0.4h4.5c0.3,0,0.5,0.1,0.7,0.3
	c0.2,0.2,0.3,0.5,0.3,0.8l-0.1,0.4l-10.8,32.5c-0.2,0.9-1.1,1.5-2,1.4h-5.6C236,210.9,235.2,210.3,235,209.5z"/>
<path d="M261.1,210.5c-0.2-0.2-0.4-0.5-0.4-0.9v-33c0-0.3,0.1-0.6,0.4-0.9c0.2-0.2,0.5-0.3,0.9-0.3h4.9c0.3,0,0.7,0.1,0.9,0.3
	c0.2,0.2,0.3,0.6,0.3,0.9v33c0,0.3-0.1,0.6-0.3,0.9c-0.2,0.2-0.6,0.4-0.9,0.4H262C261.7,210.9,261.3,210.8,261.1,210.5z"/>
<path d="M276.3,210.5c-0.2-0.2-0.4-0.5-0.4-0.9v-32.9c0-0.3,0.1-0.7,0.3-0.9c0.2-0.2,0.5-0.4,0.9-0.4h4c0.6,0,1.2,0.3,1.5,0.9
	l14.5,22.4v-22c0-0.3,0.1-0.7,0.3-0.9c0.2-0.2,0.6-0.4,0.9-0.4h4.4c0.7,0,1.2,0.5,1.3,1.1c0,0,0,0.1,0,0.1v32.9
	c0,0.3-0.1,0.7-0.4,0.9c-0.2,0.2-0.5,0.4-0.9,0.4h-4c-0.6,0-1.2-0.3-1.5-0.9l-14.4-22v21.6c0,0.3-0.1,0.6-0.3,0.9
	c-0.2,0.2-0.6,0.4-0.9,0.4h-4.4C276.8,210.9,276.5,210.8,276.3,210.5z"/>
<path d="M314.7,207.7c-2.6-2.4-4-5.7-4.1-10c0-1,0-2.5,0-4.7s0-3.7,0-4.7c0.1-4.2,1.5-7.5,4.1-9.8c2.6-2.4,6.2-3.6,10.8-3.6
	c2.8-0.1,5.5,0.5,8,1.6c2,0.9,3.8,2.3,5.1,4c1.1,1.3,1.7,2.9,1.8,4.6c0,0.3-0.1,0.6-0.3,0.8c-0.2,0.2-0.5,0.3-0.8,0.3H334
	c-0.3,0-0.5,0-0.8-0.2c-0.2-0.2-0.4-0.4-0.5-0.7c-0.5-1.3-1.4-2.4-2.5-3.2c-1.4-0.9-3.1-1.4-4.8-1.3c-2-0.1-4,0.6-5.5,1.9
	c-1.3,1.3-2,3.2-2.1,5.9c0,1,0,2.5,0,4.5c0,2,0,3.4,0,4.5c0.1,2.7,0.8,4.8,2.1,6c1.5,1.4,3.5,2.1,5.6,2c2.1,0.1,4.2-0.6,5.8-1.9
	c1.5-1.3,2.2-3.2,2.2-5.8v-1.6h-6.2c-0.3,0-0.6-0.1-0.9-0.4c-0.2-0.2-0.4-0.5-0.4-0.9v-2.8c0-0.7,0.5-1.2,1.2-1.2c0,0,0,0,0,0h12.1
	c0.3,0,0.7,0.1,0.9,0.4c0.2,0.2,0.4,0.5,0.4,0.9v5.4c0.1,2.6-0.6,5.1-1.9,7.3c-1.3,2.1-3.1,3.8-5.3,4.8c-2.5,1.2-5.3,1.7-8,1.7
	C320.9,211.4,317.3,210.2,314.7,207.7z"/>
<path d="M247.3,253.1v1.6c0,0.3-0.1,0.5-0.3,0.7c-0.2,0.2-0.5,0.3-0.8,0.3h-3.5c-0.3,0-0.5-0.1-0.7-0.3c-0.2-0.2-0.3-0.5-0.3-0.7
	V226c0-0.3,0.1-0.6,0.3-0.8c0.2-0.2,0.5-0.3,0.7-0.3h3.8c0.6,0,1,0.4,1,1v9.6c3.5-3.7,9.4-3.8,13.1-0.3c0.1,0.1,0.2,0.2,0.3,0.3
	c1.7,2.1,2.5,4.7,2.5,7.4c0,0.4,0,0.8,0,1.4s0,1.1,0,1.4c0,2.7-0.9,5.3-2.5,7.5c-3.6,3.7-9.5,3.7-13.2,0.1
	C247.5,253.3,247.4,253.2,247.3,253.1L247.3,253.1z M257.5,245.7c0-0.3,0-0.7,0-1.3s0-1,0-1.3c-0.2-3.8-1.8-5.7-4.9-5.7
	c-1.4-0.1-2.7,0.5-3.6,1.5c-0.8,1-1.3,2.3-1.3,3.7c0,0.4,0,0.9,0,1.7s0,1.3,0,1.6c0,1.4,0.5,2.8,1.3,3.9c0.9,1.1,2.3,1.7,3.7,1.6
	C255.6,251.5,257.3,249.6,257.5,245.7z"/>
<path d="M283.4,253.6c-1.9-1.9-3-4.5-3-7.2v-1.9v-1.9c0-2.7,1.1-5.3,3-7.2c1.9-1.7,4.5-2.6,7.9-2.6s6,0.9,7.8,2.6
	c1.9,1.9,3,4.5,3,7.2c0,0.3,0,1,0,1.9s0,1.6,0,1.9c0,2.7-1.1,5.3-3,7.2c-1.8,1.7-4.5,2.6-7.9,2.6
	C287.8,256.2,285.2,255.3,283.4,253.6z M294.9,250.3c0.9-1.2,1.4-2.7,1.3-4.2c0-0.3,0-0.9,0-1.7s0-1.4,0-1.7c0.1-1.5-0.4-3-1.3-4.2
	c-0.9-1-2.2-1.5-3.5-1.5c-1.3-0.1-2.7,0.5-3.6,1.5c-0.9,1.2-1.4,2.7-1.4,4.2v1.7v1.7c-0.1,1.5,0.4,3,1.4,4.2c0.9,1,2.2,1.5,3.6,1.4
	C292.7,251.9,294,251.3,294.9,250.3z"/>
<path d="M317.7,255.4c-0.2-0.2-0.3-0.4-0.3-0.7c0-0.3,0.1-0.5,0.3-0.7l7.4-9.9l-6.9-9.3c-0.2-0.2-0.3-0.5-0.3-0.7
	c0-0.3,0.1-0.5,0.3-0.7c0.2-0.2,0.4-0.3,0.7-0.3h3.8c0.3,0,0.5,0,0.7,0.2c0.2,0.2,0.4,0.3,0.5,0.5l4.9,6.5l4.8-6.5
	c0.1-0.1,0.2-0.3,0.3-0.4c0.2-0.2,0.6-0.4,0.9-0.3h3.7c0.2,0,0.5,0.1,0.6,0.3c0.2,0.2,0.3,0.4,0.3,0.6c0,0.3-0.1,0.6-0.3,0.8
	l-6.9,9.3l7.5,9.9c0.2,0.2,0.3,0.5,0.3,0.7c0,0.5-0.4,1-1,1h-4c-0.5,0-0.9-0.3-1.2-0.7l-5.2-6.9l-5.3,6.9c-0.2,0.4-0.7,0.7-1.2,0.7
	h-3.9C318.1,255.8,317.9,255.6,317.7,255.4z"/>
<g class="st1">
	<path class="st2" d="M366.6,9.4c4.5,0,8.8,1.1,13,3.4s7.5,5.6,9.9,9.8s3.6,8.7,3.6,13.3c0,4.6-1.2,9-3.5,13.2s-5.6,7.5-9.8,9.8
		s-8.6,3.5-13.2,3.5s-9-1.2-13.2-3.5s-7.5-5.6-9.8-9.8s-3.5-8.6-3.5-13.2c0-4.6,1.2-9.1,3.6-13.3s5.7-7.5,9.9-9.8
		S362.2,9.4,366.6,9.4z M366.6,13.8c-3.7,0-7.4,1-10.9,2.9s-6.3,4.6-8.3,8.2s-3,7.2-3,11.1c0,3.8,1,7.5,2.9,11s4.7,6.2,8.2,8.2
		s7.2,2.9,11,2.9s7.5-1,11-2.9s6.2-4.7,8.2-8.2s2.9-7.2,2.9-11c0-3.8-1-7.5-3-11.1s-4.7-6.3-8.3-8.2S370.3,13.8,366.6,13.8z
		 M355,50.6V22h9.8c3.4,0,5.8,0.3,7.3,0.8s2.7,1.4,3.6,2.8s1.3,2.7,1.3,4.2c0,2.1-0.7,3.9-2.2,5.4s-3.5,2.4-5.9,2.6
		c1,0.4,1.8,0.9,2.4,1.5c1.1,1.1,2.6,3,4.2,5.7l3.5,5.6h-5.6l-2.5-4.5c-2-3.5-3.6-5.8-4.8-6.6c-0.8-0.7-2.1-1-3.7-1h-2.7v12.1H355z
		 M359.6,34.5h5.6c2.7,0,4.5-0.4,5.5-1.2s1.5-1.9,1.5-3.2c0-0.8-0.2-1.6-0.7-2.3s-1.1-1.2-2-1.5s-2.4-0.5-4.6-0.5h-5.2V34.5z"/>
</g>
</svg>
