<?xml version="1.0" standalone="no"?>
<!DOCTYPE svg PUBLIC "-//W3C//DTD SVG 1.1//EN" "http://www.w3.org/Graphics/SVG/1.1/DTD/svg11.dtd" >
<svg xmlns="http://www.w3.org/2000/svg" xmlns:xlink="http://www.w3.org/1999/xlink" version="1.1">
<metadata>
Created by FontForge 20170731 at Fri Feb 20 22:11:01 2015
 By Aleksey,,,
Copyright (c) 2014 by Artimasa. All rights reserved.
</metadata>
<defs>
<font id="iCielNabila" horiz-adv-x="730" >
  <font-face 
    font-family="iCiel Nabila"
    font-weight="400"
    font-stretch="normal"
    units-per-em="1000"
    panose-1="0 0 0 0 0 0 0 0 0 0"
    ascent="800"
    descent="-200"
    x-height="570"
    cap-height="923"
    bbox="-1052 -521 2292 1414.82"
    underline-thickness="50"
    underline-position="-150"
    unicode-range="U+001D-FB01"
  />
<missing-glyph horiz-adv-x="350" 
 />
    <glyph glyph-name="uniFB01" unicode="fi" horiz-adv-x="605" 
d="M651 234q5 7 11.5 6t11.5 -7t6 -15.5t-6 -19.5q-7 -11 -27 -43t-51 -66.5t-72 -61.5t-89 -27q-29 0 -48.5 11.5t-32 32t-18.5 48.5t-7 61q-7 -10 -14.5 -21t-16.5 -22q-14 -17 -33 -36.5t-41.5 -38.5t-47.5 -35t-49 -24q-18 -46 -40 -85.5t-48.5 -69.5t-58 -48.5
t-68.5 -22.5q-57 -6 -85.5 9.5t-37 41t-0.5 53.5t24 47q62 73 178 94q23 82 41 184t34 202q-9 1 -17.5 1h-16.5q-16 0 -17 13t7 28.5t21.5 28.5t27.5 13h8q11 73 22.5 133.5t24.5 98.5q19 58 57.5 97.5t88 62t107.5 27.5t116 -5q23 -5 55 -15.5t61 -27t49 -38t20 -46.5
q0 -21 -8.5 -41t-23 -36.5t-34.5 -28.5t-42 -16q-23 -4 -42.5 1t-34 16.5t-23 28.5t-8.5 38q0 35 21.5 66t55.5 46q-45 11 -81 6t-65 -23t-51 -47.5t-39 -68.5q-5 -12 -11.5 -35.5t-14 -55t-15.5 -69t-16 -77.5q15 -1 26.5 -1.5t16.5 -0.5q12 0 11.5 -13.5t-8 -30t-20 -30
t-24.5 -13.5h-8.5t-11.5 1q-11 -52 -20.5 -98.5t-17.5 -80.5q-9 -38 -19 -74.5t-22 -71.5q32 14 59 38.5t62 62.5q20 21 35 45.5t23 38.5v6q1 1 1.5 2t1.5 2q6 54 18.5 108.5t26 99.5t26.5 75.5t19 36.5q10 10 29 14.5t41.5 4t44.5 -5.5t37 -14t20.5 -22t-4.5 -28
q-12 -18 -28 -54.5t-30 -80.5t-25 -90t-13 -84t6 -62.5t32 -24.5q19 0 38 16.5t35 38t28 41.5t17 27zM-119 -177q28 0 51 31t42 85q-33 -6 -63 -25t-47 -39.5t-15.5 -36t32.5 -15.5z" />
    <glyph glyph-name="b_z" unicode="bz" horiz-adv-x="964" 
d="M975 234q5 7 12 6t12 -7t6 -15.5t-6 -19.5q-6 -9 -21.5 -33.5t-38.5 -53.5q-21 -25 -47 -48q-1 -6 -1.5 -12t-2.5 -12q-14 -58 -46 -108t-76 -88t-98 -62.5t-111 -30.5t-86 10t-37 41.5t-0.5 53.5t24.5 46q23 25 54.5 41.5t68.5 30t77 25.5t81 28q6 22 1 41t-18.5 34
t-34.5 23.5t-47 9.5q-7 -1 -15 1q-13 3 -20 10q-10 8 -15.5 21t-7 26t1.5 24t11 17q41 30 75.5 71t58 79.5t33 68t1.5 37.5q-8 7 -16 3.5t-18 -15.5t-22.5 -31.5t-30.5 -43.5q-7 -9 -23.5 -32.5t-42 -49.5t-59.5 -48t-76 -28q-17 -57 -45 -101.5t-63.5 -75.5t-75.5 -47
t-82 -16q-86 0 -131.5 53t-44.5 156q0 108 17.5 215t43 199t55 161.5t53.5 102.5q8 12 27 17t41.5 4t45.5 -6.5t39 -15t21.5 -22.5t-6.5 -27q-20 -24 -42.5 -68.5t-45 -100.5t-42.5 -120t-35.5 -126.5t-24 -120t-7 -102t14.5 -70.5t41 -26q19 0 36.5 14t32 37t25 52t16.5 60
q-21 19 -32.5 46.5t-14.5 59t2 63.5t17.5 59t32 46t45.5 25q24 6 46.5 -7.5t38 -45t21.5 -80.5t-3 -115q29 6 57 23t52 42t50.5 64.5t55.5 76.5t62 63.5t70 26.5q40 0 69.5 -24t29.5 -73q0 -25 -14.5 -63t-37.5 -80t-52 -84.5t-57 -76.5q37 -11 67 -37t42 -64q13 12 28 30
q10 12 20 26t18 26.5t14 22.5t9 14zM526 -177q25 0 51.5 12t51 31.5t46 45t37.5 52.5q-58 -22 -110 -39.5t-88 -45.5q-23 -18 -21.5 -37t33.5 -19z" />
    <glyph glyph-name="o_z" unicode="oz" horiz-adv-x="928" 
d="M939 234q5 7 12 6t12 -7t6 -15.5t-6 -19.5q-6 -9 -21.5 -33.5t-38.5 -53.5q-21 -25 -47 -48q-1 -6 -1.5 -12t-2.5 -12q-14 -58 -46 -108t-76 -88t-98 -62.5t-111 -30.5t-86 10t-37 41.5t-0.5 53.5t24.5 46q23 25 54.5 41.5t68.5 30t77 25.5t81 28q6 22 1 41t-18.5 34
t-34.5 23.5t-47 9.5q-7 -1 -15 1q-13 3 -20 10q-10 8 -15.5 21t-7 26t1.5 24t11 17q41 30 76 71.5t58 80t33 68t1 36.5q-12 10 -32 -13.5t-55 -73.5q-6 -9 -21.5 -32.5t-40 -49.5t-57.5 -48t-74 -28q-17 -57 -45.5 -101t-63.5 -75t-75.5 -47t-82.5 -16q-50 0 -87.5 25
t-60.5 67t-29.5 97.5t5.5 116.5q10 50 32.5 96.5t49.5 82.5t56 58t53 22q14 0 26 -12.5t19 -30t7.5 -35.5t-7.5 -29q-17 -22 -35.5 -59.5t-32.5 -92.5q-9 -35 -13.5 -71t-1.5 -65.5t14 -48t34 -18.5q13 0 27.5 14t28 37t25 52.5t18.5 60.5q-20 19 -31 47t-14 59.5t2.5 63
t18 58t31.5 45.5t45 25q25 6 47.5 -8t38 -46t21 -81.5t-3.5 -116.5q31 5 59 22.5t50 46.5q25 32 51.5 72t54.5 75t59 59t66 24q40 0 69.5 -24t29.5 -73q0 -25 -14.5 -63t-37.5 -80t-52 -84.5t-57 -76.5q37 -11 67 -37t42 -64q13 12 28 30q10 12 20 26t18 26.5t14 22.5t9 14z
M490 -177q25 0 51.5 12t51 31.5t46 45t37.5 52.5q-58 -22 -110 -39.5t-88 -45.5q-23 -18 -21.5 -37t33.5 -19z" />
    <glyph glyph-name="p_z" unicode="pz" horiz-adv-x="987" 
d="M998 234q5 7 12 6t12 -7t6 -15.5t-6 -19.5q-6 -9 -21.5 -33.5t-38.5 -53.5q-21 -25 -47 -48q-1 -6 -1.5 -12t-2.5 -12q-14 -58 -46 -108t-76 -88t-98 -62.5t-111 -30.5t-86 10t-37 41.5t-0.5 53.5t24.5 46q23 25 54.5 41.5t68.5 30t77 25.5t81 28q12 44 -12 75t-77 33
q-7 -1 -15 1q-13 3 -20 10q-10 8 -15.5 21t-7 26t1.5 24t11 17q41 30 75.5 71t58 79.5t33 68t1.5 37.5q-11 10 -26 -1.5t-39 -43.5q-7 -9 -26 -38t-48 -62t-66 -61.5t-80 -37.5q-32 -115 -100 -177.5t-152 -62.5q-42 0 -69 22.5t-41 64.5q-11 -45 -22.5 -111.5t-15.5 -147.5
q0 -16 -12.5 -22.5t-22.5 -6.5q-36 0 -57 17t-32 44.5t-13 63t1 72.5q5 64 16.5 125t25.5 118q13 58 28.5 109.5t31.5 92.5t31.5 69.5t29.5 42.5q10 10 29 14.5t41.5 4.5t44.5 -5t37 -14t20.5 -22t-4.5 -28q-19 -28 -39 -66.5t-40 -88.5q-16 -47 -21 -91t0 -78t19.5 -55
t38.5 -21q19 0 36 14t31.5 36.5t25.5 52t17 59.5q-21 19 -32.5 47t-14.5 59t2 63.5t17.5 59.5t32 46t45.5 25q24 6 46.5 -7.5t38 -45t21.5 -81t-3 -115.5q29 6 57 23t52 43q23 24 50.5 63t57 76t59.5 64t59 27q40 0 69.5 -24t29.5 -73q0 -25 -14.5 -63t-37.5 -80t-52 -84.5
t-57 -76.5q37 -11 67 -37t42 -64q13 12 28 30q10 12 20 26t18 26.5t14 22.5t9 14zM549 -177q25 0 51.5 12t51 31.5t46 45t37.5 52.5q-58 -22 -110 -39.5t-88 -45.5q-23 -18 -21.5 -37t33.5 -19z" />
    <glyph glyph-name="v_z" unicode="vz" horiz-adv-x="958" 
d="M969 234q5 7 12 6t12 -7t6 -15.5t-6 -19.5q-6 -9 -21.5 -33.5t-38.5 -53.5q-21 -25 -47 -48q-1 -6 -1.5 -12t-2.5 -12q-14 -58 -46 -108t-76 -88t-98 -62.5t-111 -30.5t-86 10t-37 41.5t-0.5 53.5t24.5 46q23 25 54.5 41.5t68.5 30t77 25.5t81 28q6 22 1 41t-18.5 34
t-34.5 23.5t-47 9.5q-7 -1 -15 1q-13 3 -20 10q-10 8 -15.5 21t-7 26t1.5 24t11 17q41 30 75.5 71t57.5 79.5t33 68t2 37.5t-18.5 -2.5t-34.5 -41.5q-5 -6 -16 -22.5t-28 -38t-38.5 -45t-47 -44t-54 -35t-58.5 -17.5q-23 -50 -55.5 -94.5t-70 -77.5t-78.5 -52t-81 -19
q-59 0 -95 22.5t-55.5 60t-24 86t0 99t16 100t24.5 90t25 67.5t18 33q10 10 29.5 14.5t41.5 4.5t44 -5t37 -14t20.5 -22t-4.5 -28q-12 -18 -28 -54.5t-30.5 -80.5t-25 -90.5t-13 -84.5t6 -62.5t32.5 -24.5q12 0 28.5 17.5t33.5 45.5t33 62t28 67q-15 34 -14 77t15 82.5
t39.5 69.5t59.5 38q24 6 45.5 -8.5t33.5 -46.5t12 -80.5t-18 -112.5q29 6 56.5 23t52.5 42q13 13 30 35t36.5 47.5t41 52t43 47.5t42 34.5t39.5 13.5q40 0 69.5 -24t29.5 -73q0 -25 -14.5 -63t-37.5 -80t-52 -84.5t-57 -76.5q37 -11 67 -37t42 -64q13 12 28 30q10 12 20 26
t18 26.5t14 22.5t9 14zM520 -177q25 0 51.5 12t51 31.5t46 45t37.5 52.5q-58 -22 -110 -39.5t-88 -45.5q-23 -18 -21.5 -37t33.5 -19z" />
    <glyph glyph-name="w_z" unicode="wz" horiz-adv-x="1255" 
d="M1266 234q5 7 12 6t12 -7t6 -15.5t-6 -19.5q-6 -9 -21.5 -33.5t-38.5 -53.5q-21 -25 -47 -48q-1 -6 -1.5 -12t-2.5 -12q-14 -58 -46 -108t-76 -88t-98 -62.5t-111 -30.5t-86 10t-37 41.5t-0.5 53.5t24.5 46q23 25 54.5 41.5t68.5 30t77 25.5t81 28q6 22 1 41t-18.5 34
t-34.5 23.5t-47 9.5q-7 -1 -15 1q-13 3 -20 10q-10 8 -15.5 21t-7 26t1.5 24t11 17q41 30 76 71.5t58 80t33 68t1 36.5q-8 6 -18.5 -3.5t-34.5 -40.5q-5 -6 -16 -22.5t-28 -38t-38.5 -45t-47 -44t-53.5 -35t-58 -17.5q-24 -50 -56.5 -94.5t-70 -77.5t-78.5 -52t-81 -19
q-73 0 -111.5 34.5t-53.5 87.5q-16 -25 -36.5 -47t-46 -38.5t-55.5 -26.5t-65 -10q-40 0 -63 22.5t-33 60t-9.5 86t7.5 99t19.5 100t25 90t24 67.5t17.5 33q10 10 29.5 14.5t41.5 4.5t44 -5t37 -14t20.5 -22t-4.5 -28q-12 -18 -28 -54.5t-30 -80.5t-25 -90.5t-13 -84.5
t6 -62.5t32 -24.5q14 0 27.5 13t26 34t23 47.5t18.5 52.5q4 52 15 103t24.5 93t26 70t18.5 34q10 10 29.5 14.5t41.5 4.5t44 -5t37 -14t20.5 -22t-4.5 -28q-12 -18 -28 -54.5t-30.5 -80.5t-25 -90.5t-13 -84.5t6 -62.5t32.5 -24.5q12 0 28.5 17.5t33.5 45.5t33 62t28 67
q-15 34 -14 77t15 82.5t39.5 69.5t59.5 38q24 6 45.5 -8.5t33.5 -46.5t12 -80.5t-18 -112.5q29 6 56.5 23t52.5 42q13 13 30 35t36.5 47.5t41 52t43 47.5t42 34.5t39.5 13.5q40 0 69.5 -24t29.5 -73q0 -25 -14.5 -63t-37.5 -80t-52 -84.5t-57 -76.5q37 -11 67 -37t42 -64
q13 12 28 30q10 12 20 26t18 26.5t14 22.5t9 14zM817 -177q25 0 51.5 12t51 31.5t46 45t37.5 52.5q-58 -22 -110 -39.5t-88 -45.5q-23 -18 -21.5 -37t33.5 -19z" />
    <glyph glyph-name="c_k" unicode="ck" horiz-adv-x="1030" 
d="M1075 234q5 7 12 6t12 -7t6 -15.5t-6 -19.5q-7 -11 -27 -43t-51.5 -66.5t-72 -61.5t-88.5 -27q-31 0 -51 13t-31 34t-12.5 49t4.5 58q3 12 7.5 26.5t6.5 27t0 21t-12 8.5q-17 0 -37 -9.5t-40 -31.5t-37.5 -57.5t-27.5 -87.5q0 -5 -0.5 -10.5t-0.5 -10.5q-1 -17 -13 -23.5
t-22 -6.5q-30 0 -48.5 11.5t-29.5 32.5t-15 50.5t-4 65.5q-6 -9 -12.5 -18.5t-14.5 -19.5q-18 -23 -39.5 -45t-48.5 -39t-59 -27.5t-71 -10.5q-70 0 -122 21t-84 60.5t-42 97t5 131.5t48 129t76.5 89.5t94.5 47.5t103 4h2q17 46 43 89t57 81q55 69 123.5 106.5t143.5 49.5
q23 6 52.5 3.5t53 -11.5t34.5 -23.5t-2 -33.5q-22 -33 -45.5 -81t-46.5 -110.5t-43.5 -137t-36.5 -159.5q23 42 51 82t58.5 71.5t63 51t64.5 19.5q25 0 40 -16.5t20.5 -36t1 -35.5t-17.5 -16q-67 0 -121.5 -42.5t-108.5 -126.5q35 36 74 57t77 21q51 0 68.5 -29.5
t14.5 -77.5q-2 -21 -9 -49.5t-11 -54t0.5 -43t26.5 -17.5q19 0 38 16.5t35 38t27.5 41.5t16.5 27zM499 237q6 95 20.5 188t35 174.5t43.5 147t45 105.5q-48 -13 -90.5 -40.5t-78.5 -65t-63.5 -82.5t-44.5 -93q26 -10 44.5 -26.5t30.5 -36.5t17.5 -42.5t5.5 -44.5
q0 -25 -4 -47.5t-13 -39t-23 -26t-33 -9.5q-20 0 -36.5 9.5t-29.5 26t-20 39t-7 47.5q0 43 7 72q-26 11 -61 -31t-64 -152q-30 -115 0.5 -177.5t105.5 -62.5q19 0 37.5 3t37 12t38.5 25t43 42q20 23 34.5 48.5t20.5 33.5q2 2 2 3z" />
    <glyph glyph-name="f_f" unicode="ff" horiz-adv-x="571" 
d="M617 234q5 7 11.5 6t11.5 -7t6 -16t-6 -20q-5 -8 -20.5 -33t-38.5 -54q-13 -16 -32 -35.5t-41 -38t-46 -34t-48 -24.5q-18 -46 -40 -86t-48.5 -70t-58 -49t-68.5 -23q-57 -6 -85.5 9.5t-37 41t-0.5 53.5t24 47q61 71 176 94q8 31 16 64.5t16 69.5q-3 -5 -6.5 -9.5
t-7.5 -9.5q-13 -16 -32 -35.5t-41 -38t-46 -34t-48 -24.5q-18 -46 -40 -86t-48.5 -70t-58 -49t-68.5 -23q-57 -6 -85.5 9.5t-37 41t-0.5 53.5t24 47q61 71 176 94q24 83 43 185t34 201q-11 1 -19.5 1h-14.5q-16 0 -17 13t7 28.5t21.5 28.5t27.5 13h9q7 44 13 82.5t12 69
t11 51.5t10 29q7 12 25.5 17.5t40.5 5t45 -6.5t39 -15.5t22 -23t-4 -28.5q-5 -8 -11 -25.5t-12 -42.5t-12.5 -56t-13.5 -65q29 -2 59.5 -3t60.5 -3q7 46 13.5 87.5t12.5 73.5t11.5 54t10.5 31q7 12 25.5 17.5t40.5 5t45 -6.5t39 -15.5t22 -23t-4 -28.5q-6 -8 -12 -27
t-12.5 -46t-13 -60t-13.5 -69q22 -2 36 -2h18q12 0 11 -13.5t-8.5 -30t-19.5 -30.5t-24 -14q-3 1 -11 1t-19 1q-9 -48 -17.5 -91t-16.5 -76q-9 -37 -19 -73t-21 -71q30 14 56.5 38.5t59.5 60.5q11 12 21 26t18 26.5t14 22.5zM-119 -177q26 0 48 31t41 84q-32 -7 -61 -25.5
t-45.5 -38.5t-14.5 -35.5t32 -15.5zM268 144q21 23 37 50t23 38q6 33 12 67t11 67q-30 2 -60.5 3.5t-61.5 3.5q-10 -52 -19 -100t-18 -84q-9 -37 -19 -73t-21 -71q30 14 56.5 38.5t59.5 60.5zM168 -177q26 0 48 31t41 84q-32 -7 -61 -25.5t-45.5 -38.5t-14.5 -35.5t32 -15.5
z" />
    <glyph glyph-name="f_t" unicode="ft" horiz-adv-x="602" 
d="M647 234q5 7 12 6t12 -7t6 -15.5t-6 -19.5q-7 -11 -27 -43t-51.5 -66.5t-72 -61.5t-88.5 -27q-27 0 -46 12t-31.5 33t-18.5 50t-7 64q-15 -23 -35 -49q-13 -16 -32 -35.5t-41 -38t-46 -34t-48 -24.5q-18 -46 -40 -86t-48.5 -70t-58 -49t-68.5 -23q-57 -6 -85.5 9.5
t-37 41t-0.5 53.5t24 47q61 71 176 94q24 83 43 185.5t35 200.5q-11 1 -20 1h-15q-16 0 -17 13t7 28.5t21.5 28.5t27.5 13h9q7 44 13 82.5t12 69t11 51.5t10 29q7 12 25.5 17.5t40.5 5t45 -6.5t39 -15.5t22 -23t-4 -28.5q-5 -8 -11 -25t-12 -41.5t-12 -55t-13 -63.5
q30 0 61 -0.5t63 -1.5q14 57 29.5 109t29.5 93t25 67.5t16 31.5q10 10 29.5 14.5t41.5 4t44 -5.5t37 -14t20.5 -22t-4.5 -28q-8 -11 -19 -36t-24 -59t-27 -75t-27 -84q26 -1 43 -1h22q12 0 11 -13.5t-8.5 -30t-19.5 -30t-24 -13.5h-17t-31 1q-12 -51 -20 -97.5t-8 -82
t9.5 -56.5t31.5 -21q19 0 38 16.5t35 38t27.5 41.5t16.5 27zM-119 -177q26 0 48 31t41 84q-32 -7 -61 -25.5t-45.5 -38.5t-14.5 -35.5t32 -15.5zM268 144q11 12 21 26t18 26.5t14 22.5l9 15l2 2q2 33 7 67.5t12 69.5q-30 2 -60.5 2.5t-60.5 1.5q-10 -53 -19.5 -102
t-18.5 -86t-19 -73t-21 -71q30 14 56.5 38.5t59.5 60.5z" />
    <glyph glyph-name="f_f_t" unicode="fft" horiz-adv-x="889" 
d="M934 234q5 7 12 6t12 -7t6 -15.5t-6 -19.5q-7 -11 -27 -43t-51.5 -66.5t-72 -61.5t-88.5 -27q-27 0 -46 12t-31 33t-18 50.5t-7 64.5q-8 -11 -16.5 -23.5t-19.5 -26.5q-13 -16 -32 -35.5t-41 -38t-46 -34t-48 -24.5q-18 -46 -40 -86t-48.5 -70t-58 -49t-68.5 -23
q-57 -6 -85.5 9.5t-37 41t-0.5 53.5t24 47q61 71 176 94q8 31 16 64.5t16 69.5q-3 -5 -6.5 -9.5t-7.5 -9.5q-13 -16 -32 -35.5t-41 -38t-46 -34t-48 -24.5q-18 -46 -40 -86t-48.5 -70t-58 -49t-68.5 -23q-57 -6 -85.5 9.5t-37 41t-0.5 53.5t24 47q61 71 176 94
q24 83 43 185.5t35 201.5h-35q-16 0 -17 13t7 28.5t21.5 28.5t27.5 13h9q7 44 13 82.5t12 69t11 51.5t10 29q7 12 25.5 17.5t40.5 5t45 -6.5t39 -15.5t22 -23t-4 -28.5q-11 -15 -22.5 -66t-24.5 -117q27 -1 57 -1t62 -1q14 90 25.5 154.5t21.5 81.5q7 12 25.5 17.5t40.5 5
t45 -6.5t39 -15.5t22 -23t-4 -28.5q-5 -8 -11 -25.5t-12 -42t-12.5 -55.5t-12.5 -64q32 -1 63 -1t61 -1q13 57 28.5 109.5t30 94t26 68t16.5 31.5q10 10 29.5 14.5t41.5 4t44 -5.5t37 -14t20.5 -22t-4.5 -28q-8 -11 -19.5 -36t-24.5 -59t-27 -75t-27 -84q39 -1 62.5 -1h28.5
q12 0 11 -13.5t-8.5 -30t-19.5 -30t-24 -13.5h-23.5t-49.5 1q-13 -51 -21 -97.5t-8 -82t9.5 -56.5t31.5 -21q19 0 38 16.5t35 38t27.5 41.5t16.5 27zM-119 -177q26 0 48 31t41 84q-32 -7 -61 -25.5t-45.5 -38.5t-14.5 -35.5t32 -15.5zM268 144q21 23 37 50t23 38
q7 36 13 72.5t12 72.5q-32 1 -62.5 1t-59.5 1q-11 -54 -20.5 -103.5t-18.5 -86.5t-19 -73t-21 -71q30 14 56.5 38.5t59.5 60.5zM168 -177q26 0 48 31t41 84q-32 -7 -61 -25.5t-45.5 -38.5t-14.5 -35.5t32 -15.5zM555 144q11 12 21 26t18 26.5t14 22.5l9 15l2 2q2 32 7 66
t12 69q-29 1 -59.5 1.5t-61.5 1.5q-11 -52 -20 -100.5t-18 -84.5q-9 -37 -19 -73t-21 -71q30 14 56.5 38.5t59.5 60.5z" />
    <glyph glyph-name="c_i" unicode="ci" horiz-adv-x="765" 
d="M810 234q5 7 12 6t12 -7t6 -15.5t-6 -19.5q-7 -11 -27 -43t-51.5 -66.5t-72 -61.5t-88.5 -27q-28 0 -47.5 11.5t-32 31.5t-19 47t-7.5 59q-5 -7 -9.5 -13.5t-9.5 -13.5q-18 -23 -39.5 -45t-48.5 -39t-59 -27.5t-71 -10.5q-70 0 -122 21t-84 60.5t-42 97t5 131.5
q15 73 47 127.5t75 89t93.5 48.5t102.5 6q24 70 71.5 128t108 94.5t130.5 46.5t141 -15q28 -8 45 -30t17 -53q0 -21 -8.5 -41t-23 -36.5t-34.5 -28.5t-42 -16q-23 -4 -42.5 1t-34 16.5t-23 28.5t-8.5 38q0 29 15 56t41 44q-46 2 -94.5 -13.5t-92 -47t-78.5 -77.5t-54 -103
q27 -10 46.5 -26.5t32 -37t18.5 -43.5t6 -45q0 -25 -4 -47.5t-13 -39t-23 -26t-33 -9.5t-36 9.5t-29.5 26t-20 39t-7.5 47.5q0 43 7 72q-26 11 -61 -31t-64 -152q-30 -115 0.5 -177.5t105.5 -62.5q19 0 37.5 3t37 12t38.5 25t43 42q17 19 29.5 40t20.5 34q5 55 17.5 111.5
t26.5 103t27 78.5t19 39q10 10 29.5 14.5t41.5 4t44 -5.5t37 -14t20.5 -22t-4.5 -28q-12 -18 -27.5 -54.5t-29.5 -80.5t-25 -90t-13 -84t6 -62.5t32 -24.5q19 0 38 16.5t35 38t27.5 41.5t16.5 27z" />
    <glyph glyph-name="c_l" unicode="cl" horiz-adv-x="767" 
d="M811 234q5 7 11.5 6t11.5 -7t6 -15.5t-6 -19.5q-7 -11 -27 -43t-51 -66.5t-72 -61.5t-89 -27q-51 0 -74.5 43t-26.5 112q-5 -8 -11 -16.5t-13 -16.5q-18 -23 -39.5 -45t-48.5 -39t-59 -27.5t-71 -10.5q-70 0 -122 21t-84 60.5t-42 97t5 131.5q15 72 46.5 126t73 88.5
t90.5 49.5t100 8q17 73 53.5 138.5t89.5 113t122 70.5t152 10q11 -2 32 -7t40 -13.5t29 -21t-1 -28.5q-9 -14 -25.5 -52.5t-36.5 -92.5t-40.5 -118.5t-38 -130t-29.5 -126.5t-14.5 -108.5t7 -76t34.5 -28.5q19 0 38 16.5t35 38t28 41.5t17 27zM495 230q3 59 14.5 124.5
t26.5 131.5t33 129t35 115.5t32 92t24 58.5q-47 -3 -94 -27t-88 -64.5t-73 -95.5t-48 -120q28 -9 48.5 -25.5t33.5 -37.5t19 -44t6 -46q0 -25 -4 -47.5t-13 -39t-23 -26t-33 -9.5t-36 9.5t-29.5 26t-20 39t-7.5 47.5q0 43 7 72q-26 11 -61 -31t-64 -152q-30 -115 0.5 -177.5
t105.5 -62.5q19 0 37.5 3t37 12t38.5 25t43 42q18 21 31.5 44t21.5 34z" />
    <glyph glyph-name="c_h" unicode="ch" horiz-adv-x="1027" 
d="M1073 234q5 7 11.5 6t11.5 -7t6 -15.5t-6 -19.5q-7 -11 -27 -43t-51 -66.5t-72 -61.5t-89 -27q-51 0 -72.5 33t-23.5 84t9.5 113.5t26.5 122.5q3 13 5 26t2 23t-3.5 16.5t-11.5 6.5q-15 0 -37 -28t-44.5 -72.5t-43 -98.5t-32.5 -106q-2 -22 -3 -44.5t-2 -45.5
q-1 -17 -13.5 -23.5t-21.5 -6.5q-30 0 -48.5 11t-29.5 31.5t-15.5 49.5t-4.5 64q-5 -8 -11 -16.5t-13 -17.5q-18 -23 -39.5 -45t-48.5 -39t-59 -27.5t-71 -10.5q-70 0 -122 21t-84 60.5t-42 97t5 131.5q15 72 46 126t73 88.5t91.5 49.5t100.5 8q17 72 53 137.5t89.5 112
t122 69t151.5 9.5q11 -2 32 -7t39.5 -13.5t28.5 -20.5t0 -28q-24 -35 -49.5 -89t-50 -123.5t-46 -153t-36.5 -179.5q23 52 51.5 101t59 87.5t62 61.5t59.5 23q40 0 62 -21.5t29.5 -55t3 -75.5t-16.5 -84q-3 -10 -9.5 -30.5t-13 -45t-11 -50.5t-4.5 -47.5t6.5 -35t22.5 -13.5
q19 0 38 16.5t35 38t28 41.5t17 27zM497 233q6 106 23 209t40 190.5t49 153t49 95.5q-47 -4 -93.5 -28t-87 -64.5t-72.5 -95t-48 -119.5q28 -9 48.5 -25.5t33.5 -37t19 -44t6 -45.5q0 -51 -17.5 -86.5t-55.5 -35.5q-20 0 -36.5 9.5t-29.5 26t-20 38.5t-7 48q0 20 1.5 37.5
t5.5 33.5q-26 11 -61 -31t-64 -152q-30 -115 0.5 -177.5t105.5 -62.5q19 0 37.5 3t37 12t38.5 25t43 42q20 23 34 47.5t21 33.5z" />
    <glyph glyph-name="c_t" unicode="ct" horiz-adv-x="799" 
d="M844 234q5 7 12 6t12 -7t6 -15.5t-6 -19.5q-7 -11 -27 -43t-51.5 -66.5t-72 -61.5t-88.5 -27q-26 0 -45 11.5t-31 32t-18.5 48.5t-7.5 62q-19 -22 -46.5 -49t-63 -50t-77 -39t-88.5 -16q-70 0 -122 21t-84 60.5t-42 97t5 131.5q15 73 47 127.5t74.5 89t93 48.5t101.5 6
q21 61 61 104t93 69t118 34.5t136 -0.5q22 -3 45 -9.5t39.5 -16.5t23 -23.5t-4.5 -29.5q-8 -11 -19.5 -35.5t-24.5 -58.5t-26.5 -74.5t-26.5 -83.5q23 -2 40.5 -2.5t25.5 0.5q14 0 13.5 -13.5t-9.5 -30t-23.5 -30.5t-27.5 -14q-15 0 -43 3q-13 -51 -21 -98t-8 -82.5t9.5 -57
t31.5 -21.5q19 0 38 16.5t35 38t27.5 41.5t16.5 27zM569 465q12 50 25.5 96.5t26.5 85t24 66t18 39.5q-40 6 -85 -1.5t-86.5 -29t-76.5 -58.5t-54 -90q55 -20 79 -63t24 -88q0 -51 -17.5 -86.5t-55.5 -35.5q-20 0 -36.5 9.5t-29.5 26t-20 38.5t-7 48q0 20 1.5 37.5t5.5 33.5
q-26 11 -61 -31t-64 -152q-30 -115 0.5 -177.5t105.5 -62.5q39 0 74.5 15t66.5 37.5t56.5 49t44.5 50.5q2 38 8 78t14 81q-11 1 -22 1h-22q-18 0 -19.5 13t7.5 29t24.5 29t31.5 13q4 0 8.5 -0.5t10.5 -0.5z" />
    <glyph glyph-name="T_b" unicode="Tb" horiz-adv-x="1054" 
d="M1174 477q5 7 12 6t12 -7t6 -15.5t-6 -19.5q-6 -10 -24 -38.5t-45.5 -60.5t-63.5 -60t-78 -37q-17 -57 -45.5 -101t-63.5 -75t-75.5 -47t-82.5 -16q-85 0 -130.5 52.5t-45.5 155.5q1 115 20 227.5t47 207.5q-29 9 -57.5 19.5t-57.5 22.5q-18 -51 -32.5 -106t-25 -106
t-18 -94t-11.5 -70q-5 -29 -14 -64t-23 -71t-34 -70.5t-47 -61t-62.5 -42.5t-79.5 -16q-61 0 -97 22.5t-50 55.5q-7 18 5 32t30 10q8 -2 13.5 -7t7.5 -13q5 -17 18 -26.5t28 -9.5q30 0 53 30t40.5 77t31 106t23.5 116.5t17.5 108.5t14.5 83q14 62 35 103t44 66
q-41 16 -79 29t-71 19t-60.5 3.5t-47.5 -17.5q-12 -8 -23.5 -5t-20 11.5t-11.5 20t3 21.5q6 9 21 25.5t39 32.5t56 28t72 12q33 0 81.5 -14.5t104.5 -35.5t115.5 -45.5t114.5 -43.5q15 35 29 62.5t27 44.5q8 12 27.5 17t42 4t45 -6.5t38.5 -15t21.5 -22.5t-6.5 -27
q-13 -15 -27 -40t-29 -56q46 1 65 10.5t23.5 23t0 27.5t-5.5 24q-2 8 4 16t15.5 11t19.5 -2.5t18 -24.5q5 -13 5 -33t-6.5 -42.5t-20 -46t-36 -43t-55.5 -32t-77 -13.5q-20 -55 -37.5 -114.5t-30 -116t-19 -108t-3.5 -90t16 -61t39 -22.5q19 0 36.5 14t32 36.5t25.5 52
t17 59.5q-21 19 -32.5 46.5t-15 59t1.5 63.5t17.5 59t32 46.5t45.5 25.5q25 6 47.5 -8t38 -45.5t21 -81t-3.5 -115.5q30 6 58 23t52 43q11 12 20.5 26t17.5 27t14 23t9 14z" />
    <glyph glyph-name="T_h" unicode="Th" horiz-adv-x="1077" 
d="M1123 234q5 7 11.5 6t11.5 -7t6 -15.5t-6 -19.5q-7 -11 -27 -43t-51.5 -66.5t-72 -61.5t-87.5 -27q-52 0 -73.5 33t-23.5 84t9.5 114t26.5 123q3 13 5 25.5t2 22.5t-3 16.5t-11 6.5q-16 0 -38 -28t-44.5 -72t-42.5 -98.5t-32 -106.5q-2 -22 -3.5 -45t-2.5 -46
q-1 -16 -13 -22.5t-23 -6.5q-36 0 -56 16.5t-29.5 46t-10.5 70.5t1 90q6 113 24.5 222.5t44.5 201.5q-30 8 -60 19.5t-59 23.5q-18 -51 -32.5 -106t-25 -106t-18 -94.5t-11.5 -70.5q-5 -29 -14 -64t-23 -71t-34 -70t-47 -60.5t-62.5 -42.5t-79.5 -16q-61 0 -97 22t-50 56
q-7 18 5 32t30 10q8 -2 13.5 -7.5t7.5 -13.5q5 -17 18 -26t28 -9q30 0 53 30t40.5 77t31 106t23.5 116.5t17.5 108.5t14.5 83q14 62 35 103t44 66q-41 16 -79 28.5t-71 18.5t-60.5 3.5t-47.5 -16.5q-12 -8 -23.5 -5t-20 11.5t-11.5 20t3 20.5q6 10 21 26.5t39 32.5t56 27.5
t72 11.5q33 0 81.5 -14.5t105 -35.5t116 -45.5t114.5 -44.5q32 81 60 109q10 10 29 14.5t41.5 4.5t44 -5t37 -14t21 -22t-5.5 -28q-12 -19 -25 -43t-27 -54q43 2 60.5 12t21 23t-1 27t-5.5 23q-2 8 4 16.5t15.5 11.5t19.5 -3t18 -25q5 -12 5 -31.5t-6 -42t-19 -45.5
t-34.5 -42t-53 -32t-73.5 -15q-24 -69 -44.5 -150t-35.5 -174q23 51 51.5 100.5t59.5 87.5t62 61.5t59 23.5q40 0 62 -21.5t29.5 -56t3 -76.5t-16.5 -84l-9 -30t-12.5 -44.5t-11.5 -50.5t-5.5 -47.5t6 -35t23.5 -13.5q19 0 38 16.5t35 38t28 41.5t17 27z" />
    <glyph glyph-name="T_k" unicode="Tk" horiz-adv-x="1077" 
d="M1123 234q5 7 11.5 6t11.5 -7t6 -15.5t-6 -19.5q-7 -11 -27 -43t-51.5 -66.5t-72 -61.5t-87.5 -27q-31 0 -51.5 13t-31 34t-12.5 49t5 58q3 12 7.5 26.5t6.5 27t-0.5 21t-12.5 8.5q-16 0 -36.5 -9.5t-40 -31.5t-37 -58t-27.5 -88q-1 -5 -1 -10v-11q-1 -16 -13 -22.5
t-23 -6.5q-36 0 -56 16.5t-29.5 46t-10.5 70.5t1 90q6 113 24.5 222.5t44.5 201.5q-30 8 -60 19.5t-59 23.5q-18 -51 -32.5 -106t-25 -106t-18 -94.5t-11.5 -70.5q-5 -29 -14 -64t-23 -71t-34 -70t-47 -60.5t-62.5 -42.5t-79.5 -16q-61 0 -97 22t-50 56q-7 18 5 32t30 10
q8 -2 13.5 -7.5t7.5 -13.5q5 -17 18 -26t28 -9q30 0 53 30t40.5 77t31 106t23.5 116.5t17.5 108.5t14.5 83q14 62 35 103t44 66q-41 16 -79 28.5t-71 18.5t-60.5 3.5t-47.5 -16.5q-12 -8 -23.5 -5t-20 11.5t-11.5 20t3 20.5q6 10 21 26.5t39 32.5t56 27.5t72 11.5
q33 0 81.5 -14.5t105 -35.5t116 -45.5t114.5 -44.5q32 81 60 109q10 10 29 14.5t41.5 4.5t44 -5t37 -14t21 -22t-5.5 -28q-12 -19 -25 -43t-27 -54q43 2 60.5 12t21 23t-1 27t-5.5 23q-2 8 4 16.5t15.5 11.5t19.5 -3t18 -25q5 -12 5 -31.5t-6 -42t-19 -45.5t-34.5 -42
t-53 -32t-73.5 -15q-20 -58 -38 -125t-32 -142q23 42 51 82t58 71.5t62.5 51t64.5 19.5q25 0 40.5 -16.5t21 -36t1 -35.5t-17.5 -16q-67 0 -122 -43t-108 -127q35 37 74 57.5t77 20.5q51 0 68.5 -29.5t14.5 -77.5q-2 -21 -9 -49.5t-11 -54t0.5 -43t25.5 -17.5q19 0 38 16.5
t35 38t28 41.5t17 27z" />
    <glyph glyph-name="T_l" unicode="Tl" horiz-adv-x="803" 
d="M965 829q7 -19 3 -53.5t-25 -69t-62.5 -60t-109.5 -26.5q-18 -54 -35 -113t-30.5 -115.5t-22 -107.5t-8.5 -89.5t10 -61t33 -22.5q19 0 38 16.5t35 38t27.5 41.5t16.5 27t12 6t12 -7t6 -15.5t-6 -19.5q-7 -11 -27 -43t-51.5 -66.5t-72.5 -61.5t-89 -27q-42 0 -65 29.5
t-31.5 80t-4 116t16.5 138t30 146.5t38 140q-26 9 -53 19t-54 21q-18 -51 -32.5 -106t-25 -106t-18 -94.5t-11.5 -70.5q-5 -29 -14 -64t-23 -71t-34 -70t-47 -60.5t-62.5 -42.5t-79.5 -16q-61 0 -97 22t-50 56q-7 18 5 32t30 10q8 -2 13.5 -7.5t7.5 -13.5q5 -17 18 -26
t28 -9q30 0 53 30t40.5 77t31 106t23.5 116.5t17.5 108.5t14.5 83q14 62 35 103t44 66q-41 16 -79 28.5t-71 18.5t-60.5 3.5t-47.5 -16.5q-12 -8 -23.5 -5t-20 11.5t-11.5 20t3 20.5q6 10 21 26.5t39 32.5t56 27.5t72 11.5q32 0 79.5 -13.5t102 -34t112.5 -44t112 -43.5
q16 45 28.5 74t17.5 33q10 10 29 15t41.5 4.5t44 -5.5t37 -14t21 -21.5t-4.5 -28.5q-8 -10 -19.5 -36t-26.5 -64h2q49 0 70 9.5t26 23t0.5 28t-5.5 24.5q-2 8 4 16.5t15.5 11.5t19.5 -3t18 -25z" />
    <glyph glyph-name="F_b" unicode="Fb" horiz-adv-x="1154" 
d="M1275 461q5 7 11.5 6t11.5 -7t6 -15.5t-6 -19.5q-4 -6 -13.5 -21.5t-23.5 -35.5t-32.5 -42t-40 -41.5t-47 -34.5t-53.5 -20q-17 -57 -45.5 -101.5t-64 -75.5t-76 -47t-82.5 -16q-85 0 -130.5 52.5t-45.5 155.5q2 125 24 247t54 222q-61 15 -125 38.5t-127 46.5
q-15 -20 -29 -55t-26.5 -78.5t-23 -91.5t-19.5 -93q41 7 78 21t64.5 30.5t44 33t16.5 28.5q0 15 6 21.5t13.5 6t13.5 -8t6 -20.5q0 -8 -2.5 -27t-12 -42t-26.5 -48t-46 -46.5t-71.5 -35.5t-101.5 -16q-1 -4 -1.5 -8t-1.5 -8q-5 -29 -13 -64t-20.5 -71t-31 -70.5t-44.5 -61
t-60.5 -42.5t-78.5 -16q-41 0 -70.5 10.5t-48.5 28.5t-28 41.5t-9 49.5q0 57 20.5 106t56 87.5t84 65t104.5 39.5q8 48 14.5 89.5t12.5 67.5q12 57 24.5 96.5t25.5 65t26 39.5t26 21q-64 20 -115 24.5t-82 -17.5q-11 -9 -23 -6t-20 11.5t-11 20t3 21.5t20.5 26.5t38.5 32.5
t56 27.5t73 11.5q35 0 92.5 -16.5t125 -40t139 -49.5t133.5 -45q11 26 22 45.5t20 33.5q8 12 27.5 16.5t42 4t45 -6.5t38.5 -15.5t21.5 -22.5t-6.5 -27q-8 -10 -16.5 -23.5t-17.5 -30.5q33 4 48.5 14.5t21 23t3.5 25t-3 21.5q-1 8 5 16.5t15 11t19 -3t18 -24.5q7 -18 1 -50
t-27.5 -64.5t-60 -59t-96.5 -33.5q-22 -56 -42 -119t-34.5 -125t-22.5 -118.5t-6.5 -99.5t14.5 -68.5t40 -25.5q19 0 37 14t32 36.5t25 52t17 59.5q-21 19 -32.5 47t-15 59t1.5 63.5t17.5 59.5t32 46t45.5 25q25 6 47.5 -8t38 -45.5t21 -80.5t-3.5 -115q31 5 59 22.5
t51 43.5q11 12 20.5 26t18 26.5t14.5 22.5t9 14zM58 54q25 0 45.5 21.5t36.5 57t29 81.5t23 95q-83 -26 -132 -79.5t-49 -124.5q0 -23 14.5 -37t32.5 -14z" />
    <glyph glyph-name="F_h" unicode="Fh" horiz-adv-x="1179" 
d="M1224 235q5 7 11.5 6t11.5 -7t6 -15.5t-5 -19.5q-7 -11 -27 -43t-51.5 -66.5t-72 -61.5t-88.5 -27q-52 0 -73.5 31t-23.5 80.5t9.5 111t26.5 121.5q3 13 5 25.5t2 22.5t-3.5 16.5t-11.5 6.5q-15 0 -37 -26.5t-44 -68.5t-42.5 -95t-32.5 -105q-2 -22 -3.5 -45t-3.5 -46
q0 -16 -12 -22.5t-22 -6.5q-36 0 -56 16.5t-29.5 46t-11 70.5t1.5 90q5 122 26.5 235.5t49.5 208.5q-61 15 -125 38.5t-127 46.5q-15 -20 -29 -55t-26.5 -78.5t-23 -91.5t-19.5 -93q41 7 78 21t64.5 30.5t44 33t16.5 28.5q0 15 6 21.5t13.5 6t13.5 -8t6 -20.5q0 -8 -2.5 -27
t-12 -42t-26.5 -48t-46 -46.5t-71.5 -35.5t-101.5 -16q-1 -4 -1.5 -8t-1.5 -8q-5 -29 -13 -64t-20.5 -71t-31 -70.5t-44.5 -61t-60.5 -42.5t-78.5 -16q-41 0 -70.5 10.5t-48.5 28.5t-28 41.5t-9 49.5q0 57 20.5 106t56 87.5t84 65t104.5 39.5q8 48 14.5 89.5t12.5 67.5
q12 57 24.5 96.5t25.5 65t26 39.5t26 21q-64 20 -115 24.5t-82 -17.5q-11 -9 -23 -6t-20 11.5t-11 20t3 21.5t20.5 26.5t38.5 32.5t56 27.5t73 11.5q35 0 92.5 -16.5t124.5 -39.5t138 -49t133 -45q24 59 48 82q10 10 29 14.5t41.5 4.5t44 -5t37 -14t21 -22t-4.5 -28
q-17 -25 -35 -59q32 5 47 15.5t20 23t3 24.5t-3 21q-1 8 5 16.5t15 11t19 -3t18 -24.5q7 -18 1.5 -49.5t-26.5 -63.5t-58.5 -59t-94.5 -35q-27 -73 -51.5 -164.5t-41.5 -197.5q23 52 51.5 101t59.5 87t62 61.5t59 23.5q41 0 62.5 -21.5t29 -55.5t3 -76t-16.5 -83
q-3 -10 -9.5 -30t-13 -43.5t-11.5 -48.5t-5 -45t6.5 -33t23.5 -13q19 0 38.5 16.5t35.5 38t27.5 41.5t16.5 27zM60 55q25 0 45.5 21.5t36.5 57t29 81.5t23 95q-83 -26 -132 -79.5t-49 -124.5q0 -23 14.5 -37t32.5 -14z" />
    <glyph glyph-name="F_k" unicode="Fk" horiz-adv-x="1166" 
d="M1212 234q5 7 11.5 6t11.5 -7t6 -15.5t-6 -19.5q-7 -11 -27 -43t-51 -66.5t-71.5 -61.5t-88.5 -27q-31 0 -51.5 13t-31 34.5t-12.5 49t5 57.5q3 12 7.5 26.5t6.5 27t-0.5 21t-12.5 8.5q-16 0 -36.5 -9.5t-40 -31.5t-37 -58t-27.5 -88q-1 -5 -1 -10v-11q-1 -16 -13 -22.5
t-23 -6.5q-36 0 -56 16.5t-29.5 46t-11 70.5t1.5 90q7 128 29.5 239.5t51.5 208.5q-60 16 -122 38.5t-122 45.5q-15 -20 -29 -55.5t-26.5 -79t-23 -91.5t-19.5 -92q41 7 78 21t64.5 30t44 32.5t16.5 29.5q0 14 6 20.5t13.5 6t13.5 -7.5t6 -20q0 -9 -2.5 -27.5t-12 -42
t-26.5 -48.5t-46 -46t-71.5 -35.5t-101.5 -15.5q-2 -12 -3 -17q-5 -29 -13 -64t-20.5 -71t-31 -70t-44.5 -61t-60.5 -43t-78.5 -16q-41 0 -70.5 10.5t-48.5 28.5t-28 41.5t-9 49.5q0 57 20.5 106t56 87.5t84 65t104.5 39.5q8 48 14.5 89.5t12.5 68.5q12 57 24.5 96
t25.5 64.5t26 40t26 20.5q-64 20 -115 24.5t-82 -17.5q-11 -8 -23 -5.5t-20 11t-11 20t3 21.5t20.5 26.5t38.5 32.5t56 28t73 12q34 0 90.5 -16t123 -39.5t136.5 -49t132 -44.5q11 24 21.5 41.5t19.5 26.5q10 10 30 14.5t42 4.5t44 -5t37 -14t20.5 -22t-5.5 -28
q-7 -11 -13.5 -22t-14.5 -24q34 4 50.5 14t22 22.5t3.5 25.5t-3 22q-1 8 5 16t15 10.5t19 -2.5t18 -24q7 -18 1 -50.5t-28 -65.5t-61 -59.5t-98 -32.5q-24 -66 -46.5 -145t-40.5 -172q23 42 51 82t58 71.5t62.5 51t64.5 19.5q25 0 40.5 -16.5t21 -36t1 -35.5t-17.5 -16
q-67 0 -122 -43t-109 -127q36 37 75.5 57.5t77.5 20.5q50 0 67.5 -29.5t13.5 -77.5q-1 -21 -8 -46.5t-11 -47t0.5 -36t25.5 -14.5q19 0 38 16.5t35 38t28 41.5t17 27zM60 56q25 0 45.5 21.5t36.5 57t29 81.5t23 95q-83 -26 -132 -79t-49 -124q0 -24 14.5 -38t32.5 -14z" />
    <glyph glyph-name="F_i" unicode="Fi" horiz-adv-x="882" 
d="M927 234q5 7 12 6t12 -7t6 -15.5t-6 -19.5q-7 -11 -27 -43t-51.5 -66.5t-72 -61.5t-87.5 -27q-40 0 -63.5 22t-33.5 59t-9.5 84t7.5 97t19 98.5t25 88t24 66t17 32.5q10 10 30 15t42 4.5t44 -5.5t37 -14t20.5 -21.5t-5.5 -28.5q-12 -18 -27.5 -53.5t-29.5 -78.5t-25 -88
t-13 -82t6 -60.5t32 -23.5q19 0 38 16.5t35 38t27.5 41.5t16.5 27zM576 547q0 15 6 21.5t13.5 6t13.5 -8t6 -20.5q0 -8 -2.5 -27t-12 -42t-26.5 -48t-46 -46.5t-71.5 -35.5t-101.5 -16q-1 -4 -1.5 -8t-1.5 -8q-5 -29 -13 -64t-20.5 -71t-31 -70.5t-44.5 -61t-60.5 -42.5
t-78.5 -16q-41 0 -70.5 10.5t-48.5 28.5t-28 41.5t-9 49.5q0 57 20.5 106t56 87.5t84 65t104.5 39.5q8 48 14.5 89.5t12.5 67.5q20 100 43 148t47 65q-60 22 -108 29t-77 -13q-11 -9 -23 -6t-20 11.5t-11 20t3 21.5t20.5 26.5t38.5 32.5t56 27.5t73 11.5q63 0 125.5 -23.5
t122 -56.5t114.5 -68.5t103 -59.5q12 32 39.5 55.5t62.5 29.5q22 4 41.5 -0.5t34.5 -16t23.5 -29t8.5 -38.5t-8.5 -41.5t-23.5 -37t-34.5 -28t-41.5 -15.5q-37 -6 -82.5 2t-96.5 25.5t-104.5 40.5t-105.5 46q-13 -23 -25 -57.5t-23 -75t-21 -84t-18 -83.5q41 7 78 21
t64.5 30.5t44 33t16.5 28.5zM59 54q25 0 45.5 21.5t36.5 57t29 81.5t23 95q-83 -26 -132 -79.5t-49 -124.5q0 -23 14.5 -37t32.5 -14z" />
    <glyph glyph-name="F_j" unicode="Fj" horiz-adv-x="871" 
d="M617 548q0 -8 -2.5 -27t-12 -42t-26.5 -48t-46 -46.5t-71.5 -35.5t-101.5 -16q-1 -4 -1.5 -8t-1.5 -8q-5 -29 -13 -64t-20.5 -71t-31 -70.5t-44.5 -61t-60.5 -42.5t-78.5 -16q-41 0 -70.5 10.5t-48.5 28.5t-28 41.5t-9 49.5q0 57 20.5 106t56 87.5t84 65t104.5 39.5
q8 48 14.5 89.5t12.5 67.5q20 100 43 148.5t47 65.5q-60 22 -108 29t-77 -14q-11 -9 -23 -6t-20 11.5t-11 20t3 21.5t20.5 26.5t38.5 32.5t56 27.5t73 11.5q62 0 121 -22t114 -53t106 -64.5t96 -56.5q11 32 38.5 56t62.5 30q22 4 42 -1t35 -16t23.5 -28.5t8.5 -38.5
q0 -22 -8.5 -42t-23.5 -36.5t-34.5 -28t-41.5 -15.5q-36 -6 -78.5 1t-89.5 22t-96 36t-97 42q-13 -23 -25 -57.5t-23 -75t-21 -84t-18 -83.5q41 7 78 21t64.5 30.5t44 33t16.5 28.5q0 15 6 21.5t13.5 6t13.5 -8t6 -20.5zM61 56q25 0 45.5 21.5t36.5 57t29 81.5t23 95
q-83 -26 -132 -79.5t-49 -124.5q0 -23 14.5 -37t32.5 -14zM917 236q6 7 13 6t12 -7t5.5 -15.5t-6.5 -19.5q-5 -8 -20.5 -33t-39.5 -54q-12 -16 -29.5 -34.5t-38 -36t-43.5 -33t-45 -25.5q-36 -97 -90 -159.5t-135 -72.5q-57 -6 -86 10t-37.5 41t-0.5 53t25 47
q32 38 76.5 61.5t103.5 34.5q15 50 27 107t22.5 114.5t19 111.5t16.5 98.5t15 75.5t15 43q7 12 25.5 18t40.5 5.5t44.5 -6t39 -15.5t22.5 -23t-5 -29q-11 -15 -21.5 -53t-21.5 -86.5t-22 -103.5t-23 -104q-7 -26 -13.5 -51t-14.5 -50q28 14 53 38t57 57q11 12 20.5 26
t17.5 27t13.5 23t8.5 14zM468 -175q29 0 52.5 32t42.5 85q-22 -4 -43 -14t-38.5 -23t-29.5 -27t-15.5 -26t3.5 -19.5t28 -7.5z" />
    <glyph glyph-name="F_l" unicode="Fl" horiz-adv-x="896" 
d="M1077 862q7 -18 1 -49.5t-27 -64t-59 -59.5t-95 -34q-19 -55 -39 -116.5t-36 -122t-27 -115.5t-12.5 -97.5t8 -67.5t33.5 -25q19 0 38 16.5t35 38t28 41.5t17 27t11.5 6t11.5 -7t6 -15.5t-6 -19.5q-7 -11 -27 -43t-51 -66.5t-71.5 -61.5t-88.5 -27q-45 0 -68 31.5
t-30.5 84.5t-1 121.5t21 143.5t34.5 150.5t41 141.5q-61 16 -124.5 39t-126.5 46q-15 -20 -29 -55.5t-26.5 -79t-23 -91t-19.5 -92.5q41 7 78 21t64.5 30.5t44 33t16.5 28.5q0 14 6 20.5t13.5 6t13.5 -7.5t6 -20q0 -9 -2.5 -27.5t-12 -42t-26.5 -48.5t-46 -46t-71.5 -35
t-101.5 -16q-1 -5 -1.5 -8.5t-1.5 -8.5q-5 -28 -13 -63.5t-20.5 -71.5t-31 -70t-44.5 -60.5t-60.5 -42.5t-78.5 -16q-41 0 -70.5 10.5t-48.5 28.5t-28 41.5t-9 49.5q0 57 20.5 106t56 87t84 65t104.5 39q8 49 14.5 90t12.5 69q12 57 24.5 96t25.5 64.5t26 39.5t26 21
q-64 20 -115 24.5t-82 -18.5q-11 -8 -23 -5.5t-20 11.5t-11 20.5t3 21.5q6 9 20.5 25.5t38.5 32.5t56 28t73 12q34 0 91 -16t124 -39.5t137.5 -49t132.5 -44.5q11 29 19 47t12 23q10 10 29.5 14.5t41.5 4t44 -6t37 -14.5t20.5 -21.5t-4.5 -28.5q-5 -6 -10.5 -18t-12.5 -28
q35 3 51.5 13t22.5 23t4 26t-3 22q-1 8 5 16t15 11t19 -2.5t18 -24.5zM61 59q25 0 45.5 21.5t36.5 57.5t29 82t23 95q-83 -26 -132 -79.5t-49 -124.5q0 -23 14.5 -37.5t32.5 -14.5z" />
    <glyph glyph-name=".notdef" horiz-adv-x="350" 
 />
    <glyph glyph-name=".null" horiz-adv-x="0" 
 />
    <glyph glyph-name=".null" horiz-adv-x="0" 
 />
    <glyph glyph-name="nonmarkingreturn" horiz-adv-x="350" 
 />
    <glyph glyph-name="space" unicode=" " horiz-adv-x="350" 
 />
    <glyph glyph-name="exclam" unicode="!" horiz-adv-x="487" 
d="M306 107q4 21 1 40t-12 33.5t-23 22.5t-32 8t-35.5 -8t-32.5 -22.5t-26 -33.5t-15 -40q-9 -44 10 -74t55 -30q18 0 36 8t33 22t25.5 33t15.5 41zM255 264q-16 1 -26.5 12t-10.5 27q0 98 12.5 195t32 178t43.5 139.5t46 81.5q10 10 29.5 14.5t41.5 4t44 -5.5t37 -14
t20.5 -22t-4.5 -28q-30 -45 -60 -104.5t-58.5 -130.5t-55 -151.5t-48.5 -166.5q-3 -14 -14.5 -22t-25.5 -7h-3z" />
    <glyph glyph-name="quotedbl" unicode="&#x22;" horiz-adv-x="453" 
d="M172 743q-1 17 8 30t23 12q36 -3 58 -28t23 -66t-24 -95.5t-82 -116.5q-15 -16 -32 -4q-11 8 -14 24t2 30q6 16 13.5 39t13 50.5t9 59t2.5 65.5zM334 745q1 18 10.5 30t22.5 10q36 -6 56.5 -32.5t18 -67.5t-31 -93.5t-90.5 -110.5q-8 -7 -16.5 -7t-15.5 6q-10 9 -12.5 25
t4.5 30q15 32 33 87t21 123z" />
    <glyph glyph-name="numbersign" unicode="#" horiz-adv-x="1062" 
d="M995 577q7 -13 6 -27t-7.5 -25.5t-18.5 -19t-27 -7.5l-175 1l-37 -76l99 7q17 2 30.5 -6t21.5 -22l30 -57q7 -13 6 -27t-7.5 -25.5t-18.5 -19t-27 -7.5l-209 1l-84 -175q-7 -14 -20 -22.5t-28 -8.5q-14 0 -25.5 6.5t-19 17t-9 23.5t3.5 27l51 132l-180 1l-85 -176
q-7 -14 -20 -22.5t-28 -8.5q-14 0 -25.5 6.5t-19 17t-9 23.5t3.5 27l52 133h-124q-16 0 -29 8.5t-20 22.5q-6 13 -5 26t7.5 24t17.5 18.5t25 8.5l175 12l44 112h-137q-16 0 -29 8.5t-20 22.5q-6 13 -5 26t7.5 24t17.5 18.5t25 8.5l188 13l82 209q13 32 47 34l64 3
q15 1 27.5 -6t20 -18t9 -25t-5.5 -28l-75 -156l152 11l73 185q13 32 47 34l64 3q15 1 27.5 -6t20 -18t9 -25t-5.5 -28l-64 -133l64 5q17 2 30.5 -6t21.5 -22zM621 499h-160l-48 -100l174 13z" />
    <glyph glyph-name="dollar" unicode="$" horiz-adv-x="496" 
d="M355 438q-1 14 -5 32.5t-18 32.5q-9 -37 -19 -76.5t-20 -81.5q22 -20 46 -40.5t44 -42.5t33.5 -46.5t14.5 -51.5q1 -29 -6.5 -60t-29 -58t-60 -45.5t-99.5 -21.5h-13t-12 1q-2 -7 -3 -13l-2 -12q-3 -14 -15 -21t-26 -3q-13 4 -19.5 15t-2.5 24q2 7 3.5 14t3.5 15
q-24 12 -43 29.5t-33 38t-22 41t-9 38.5q-2 25 11.5 38.5t30.5 19.5q19 7 45 7q1 -24 6 -47q4 -20 12.5 -41t24.5 -37q8 32 17 67t17 71q-19 15 -38 32.5t-35 39t-26.5 48t-11.5 60.5q-1 33 13 65t38.5 57t57.5 41t71 18h11q2 11 3.5 21t2.5 19q2 14 15.5 22t27.5 4
q14 -3 21.5 -15.5t3.5 -26.5q-2 -8 -4.5 -16t-4.5 -16q42 -11 70 -33.5t30 -55.5q1 -24 -14.5 -34.5t-33.5 -14.5q-22 -4 -49 -1zM225 447q0 -14 6 -27t16 -27q8 34 15 65.5t13 60.5q-20 -4 -36 -20.5t-14 -51.5zM284 122q-1 17 -8.5 31.5t-20.5 28.5q-7 -32 -13.5 -61.5
t-12.5 -58.5h5q23 2 37 21t13 39z" />
    <glyph glyph-name="percent" unicode="%" horiz-adv-x="837" 
d="M710 517q-74 -69 -137 -148.5t-122.5 -155t-119 -140t-125.5 -102.5q-22 -13 -44 -6t-27 31l-6 26q-3 12 1.5 24.5t14.5 22.5q23 21 69 70t105.5 116.5t126.5 148t131 165.5q18 24 44.5 35.5t52.5 -1.5l12 -5q11 -5 20 -15t13 -21.5t2.5 -23.5t-11.5 -21zM392 447
q-9 -37 -29 -69.5t-47 -57t-58.5 -38.5t-64.5 -14t-58.5 14t-41 38.5t-20.5 57t4 69.5t28.5 69.5t46.5 57t59 38.5t65 14t58 -14t41 -38.5t21 -57t-4 -69.5zM182 373q12 -7 36 9.5t46 47.5q23 30 29.5 56.5t-5.5 33.5q-13 7 -37 -9.5t-46 -46.5q-22 -31 -29 -57t6 -34z
M649 290q33 0 58 -14t41 -38.5t21 -57t-4 -69.5t-29 -69.5t-47 -57t-58.5 -38.5t-64.5 -14t-58 14t-41 38.5t-20.5 57t3.5 69.5q9 37 28.5 69.5t46.5 57t59 38.5t65 14zM637 94q23 30 29.5 56.5t-5.5 33.5q-13 7 -37 -9.5t-46 -46.5q-22 -31 -28.5 -57t5.5 -33
q6 -4 15.5 -1.5t20.5 10t23 20t23 27.5z" />
    <glyph glyph-name="ampersand" unicode="&#x26;" horiz-adv-x="786" 
d="M782 502q3 -19 3.5 -40t-7 -39t-25.5 -29.5t-51 -11.5q-8 0 -15.5 0.5t-15.5 1.5q-17 -74 -48 -139q19 -29 30 -60t11 -66q0 -63 -30 -116t-71.5 -94.5t-85 -70t-69.5 -42.5q-10 -5 -20 -1t-14 15q-5 19 12 28q15 8 38.5 24.5t45 42t37 60.5t15.5 81q0 11 -2 20.5
t-5 20.5q-49 -48 -110.5 -76t-136.5 -28q-68 0 -118 17t-83.5 45t-50 63t-16.5 71q0 52 19 90.5t50.5 68.5t72 54t84.5 47q-30 45 -49 92t-19 98t12.5 90t32.5 67.5t45 48t50 32t47.5 19.5t37.5 10q9 2 17 -2.5t11 -12.5l6 -19q3 -8 0 -16t-11 -12q-12 -7 -25.5 -21
t-25 -34.5t-19 -48t-7.5 -60.5q0 -42 13 -78t35 -69q28 19 52 42t42 51t28 61.5t10 75.5q0 23 -12 47.5t-29 35.5q-8 5 -14.5 11t-8.5 16v4q-3 17 9 29.5t29 10.5q47 -6 81.5 -22.5t57.5 -40.5t34.5 -54t11.5 -63q0 -46 -22 -82t-57 -66.5t-79.5 -57.5t-90.5 -54
q32 -38 69.5 -73.5t71.5 -71.5q7 26 11.5 48.5t7.5 42.5q-11 5 -21.5 9t-20.5 7q-14 4 -20.5 17.5t0.5 27.5l8 16q5 10 14.5 14.5t20.5 2.5q21 -4 43.5 -11.5t46.5 -10.5t49 2.5t49 26.5q10 8 21 3.5t13 -15.5zM323 73q51 0 89.5 22t66.5 57q-36 50 -90.5 103.5
t-106.5 112.5q-36 -35 -58 -77.5t-22 -97.5q0 -27 9.5 -49.5t26 -38t38.5 -24t47 -8.5z" />
    <glyph glyph-name="quotesingle" unicode="'" horiz-adv-x="254" 
d="M131 743q-1 17 8 30t23 12q36 -3 58 -28t23 -66t-24 -95.5t-82 -116.5q-15 -16 -32 -4q-11 8 -14 24t2 30q6 16 13.5 39t13 50.5t9 59t2.5 65.5z" />
    <glyph glyph-name="parenleft" unicode="(" horiz-adv-x="833" 
d="M471 1059q-51 -29 -95 -81.5t-78.5 -121.5t-59.5 -149t-39 -163.5t-17 -165.5t7 -154.5t33.5 -130.5t61.5 -94q14 -13 11.5 -31.5t-18.5 -26.5q-15 -9 -32 -2q-82 35 -135 101t-80 151t-29.5 182.5t16 196t57 191.5t94 169t125.5 128.5t153 69.5q11 2 21 -2.5t17 -13.5
v-2q8 -13 4.5 -28t-17.5 -23z" />
    <glyph glyph-name="parenright" unicode=")" horiz-adv-x="644" 
d="M19 5q68 38 123 118t92.5 182t56.5 215.5t17 219t-27 192t-75 134.5q-14 13 -11.5 31t18.5 27q16 8 32 2q82 -35 135 -101t80 -151t29.5 -182.5t-16 -196t-57 -191.5t-94 -169t-126 -128.5t-152.5 -69.5q-11 -2 -21.5 2t-16.5 14v1q-9 14 -5 28.5t18 22.5z" />
    <glyph glyph-name="asterisk" unicode="*" horiz-adv-x="400" 
d="M361 637q14 -5 20 -19t0 -28l-6 -14q-6 -15 -21.5 -19.5t-29.5 4.5q-22 14 -52 32q1 -13 1.5 -26t2.5 -27q1 -16 -9.5 -27.5t-26.5 -10.5h-18q-16 0 -26 12t-8 27q2 11 2.5 21t2.5 21q-8 -5 -17 -11.5t-18 -12.5q-13 -9 -28 -6t-23 17l-9 15q-8 14 -3 28.5t19 21.5
q16 6 33 15q-8 3 -16.5 6t-17.5 6q-15 5 -21 20t1 29l8 16q7 14 22 18t29 -4q11 -7 22.5 -14t22.5 -13q0 29 -3 61q-2 15 8.5 26.5t25.5 11.5l15 1q17 0 27.5 -12t7.5 -29q-2 -12 -3 -25.5t-3 -27.5q12 7 23.5 14.5t22.5 15.5q12 9 27 6.5t23 -15.5l8 -13q9 -14 4 -29.5
t-20 -21.5q-20 -8 -46 -21q11 -5 23 -9.5t24 -9.5z" />
    <glyph glyph-name="plus" unicode="+" horiz-adv-x="655" 
d="M590 302q4 -10 4 -21t-4.5 -20t-12 -14.5t-17.5 -5.5l-204 1l-55 -172q-2 -9 -11 -14.5t-21 -5.5q-22 0 -38 15t-13 32l30 145l-173 1q-21 0 -31 23q-4 10 -3 20.5t5 18.5t10.5 13.5t15.5 6.5l197 18l39 192q2 9 10.5 15t20.5 6l49 2q12 0 22.5 -4t18 -11t11 -15.5
t0.5 -17.5l-49 -156l148 13q22 2 32 -21z" />
    <glyph glyph-name="comma" unicode="," horiz-adv-x="379" 
d="M196 -3q-36 1 -55 30.5t-10 73.5q4 21 15 40t26 33.5t32.5 22.5t35.5 8q36 0 55 -30t11 -74q-8 -42 -27 -79t-41.5 -65.5t-44.5 -46t-35 -20.5l-25 36q16 9 29 20q11 10 21 23t13 28z" />
    <glyph glyph-name="hyphen" unicode="-" horiz-adv-x="515" 
d="M451 302q3 -10 3 -21t-3.5 -20t-9 -14.5t-12.5 -5.5l-363 2q-15 0 -23 23q-5 20 1.5 38.5t19.5 20.5l349 42q16 2 24 -21z" />
    <glyph glyph-name="period" unicode="." horiz-adv-x="379" 
d="M306 103q-5 -22 -15.5 -41t-25.5 -33t-33 -22t-36 -8q-36 0 -55 30t-10 74q4 21 15 40t26 33.5t32.5 22.5t35.5 8t32 -8t23 -22.5t12 -33.5t-1 -40z" />
    <glyph glyph-name="slash" unicode="/" horiz-adv-x="702" 
d="M12 0q-11 10 -12.5 23.5t6.5 24.5q20 29 58 85.5t87 131.5t106 164t115 182.5t113.5 187.5t101.5 179q7 14 21.5 18.5t28.5 -2.5l49 -27q14 -8 18.5 -22.5t-3.5 -28.5q-44 -72 -101 -158.5t-119 -176.5t-125.5 -179t-119.5 -166t-100.5 -137.5t-69.5 -93.5
q-10 -14 -26 -15t-28 10z" />
    <glyph glyph-name="zero" unicode="0" horiz-adv-x="529" 
d="M323 574q40 -5 73 -27.5t56 -58t34.5 -83t7.5 -102.5q-5 -78 -34.5 -138t-73 -99t-96.5 -56t-107 -9q-44 7 -75.5 29.5t-51.5 55t-29 72t-7 80.5q3 72 28.5 133.5t65 104.5t89 63.5t101.5 8.5q-2 3 -4 2.5t-4 1.5q-5 6 -4.5 11t5 7.5t11.5 3.5t15 0zM324 295q5 32 9 65.5
t4 61.5t-4 47t-16 21q-26 5 -58.5 -43t-51.5 -148q-8 -42 -11.5 -82t-1 -71.5t10 -51.5t21.5 -21q26 -4 54 51t44 171z" />
    <glyph glyph-name="one" unicode="1" horiz-adv-x="283" 
d="M172 571q49 0 73 -12t31 -38t0.5 -69t-18.5 -104q-11 -56 -21.5 -113t-19.5 -104t-17 -79t-15 -38q-15 -15 -43 -19t-53.5 2.5t-41 23.5t-6.5 43q34 95 53.5 193.5t31.5 195.5q-15 -24 -29.5 -47.5t-25.5 -31.5q-14 -11 -33.5 -7.5t-30.5 23.5q-4 7 -6 17t-1 20.5t6.5 21
t17.5 17.5q13 8 28.5 18.5t31.5 23t31 25.5t27 25v-1q6 8 14 11t16 3z" />
    <glyph glyph-name="two" unicode="2" horiz-adv-x="516" 
d="M415 159q8 9 20.5 5.5t15.5 -16.5q5 -19 5.5 -45.5t-9.5 -51t-34.5 -41.5t-70.5 -17q-44 0 -80.5 7t-71.5 12.5t-71.5 5t-81.5 -16.5q-6 -2 -11.5 3t-10 13.5t-8 19.5t-6.5 20q-6 23 12 40q6 6 14 11q62 56 122.5 109t104.5 97.5t63.5 79t-0.5 54.5q-12 11 -30.5 7
t-40 -23t-44.5 -52t-44 -79q-8 -17 -26 -21.5t-35 6.5q-6 4 -12 18.5t-10.5 33t-7 37.5t-1.5 31q1 18 18.5 47t50 56t79.5 47t107 20q30 0 58.5 -7t51 -22t36 -39.5t13.5 -59.5q0 -41 -25 -84t-64 -84.5t-87.5 -80t-96.5 -70.5q31 -2 62 -3t58 1t50 9t38 23z" />
    <glyph glyph-name="three" unicode="3" horiz-adv-x="528" 
d="M488 432q0 -60 -44 -121t-128 -111q63 -13 103 -56.5t40 -109.5q0 -45 -20.5 -85t-56.5 -70.5t-85 -48t-106 -17.5t-101 16.5t-73 43.5t-40.5 61.5t-3.5 69.5q11 46 35.5 62t49.5 17q29 1 63 -13q-17 -26 -20 -51.5t3.5 -47t22.5 -36.5t38 -20q25 -5 45.5 3.5t36 25
t25 38.5t12.5 44q7 60 -29.5 87.5t-101.5 17.5q-11 -3 -23 -6l-24 -6q-6 -1 -12 3t-10.5 10.5t-7.5 13.5t-4 13l-1 1q-2 20 15 28q68 32 119.5 77t83 90t41.5 82t-6 53q-11 12 -30.5 1t-42 -37.5t-46 -66.5t-42.5 -86q-8 -17 -26 -21.5t-35 6.5q-6 4 -12.5 18.5t-11 33
t-7 37.5t-2.5 31q0 18 18.5 47.5t51.5 57t78.5 48t101.5 20.5q36 0 67 -8.5t53.5 -26t35.5 -45.5t13 -67z" />
    <glyph glyph-name="four" unicode="4" horiz-adv-x="525" 
d="M459 205q10 1 17.5 -5.5t12 -16.5t5.5 -22t0 -22q-1 -7 -4.5 -16t-9 -17.5t-11.5 -14t-13 -5.5h-17t-20 -1q-17 -103 -29.5 -165.5t-24.5 -75.5q-15 -15 -42.5 -19t-53.5 3t-42.5 23.5t-7.5 43.5q14 42 27 86t26 90q-54 -8 -112.5 -22t-115.5 -37q-16 -14 -33 -8.5
t-28 22.5t-13 41.5t13 48.5q65 104 110 218.5t81 223.5q5 15 18 18.5t22 1.5q48 -12 69 -28.5t22.5 -43.5t-13.5 -67t-38 -97q-23 -59 -50 -108t-53 -90q35 11 72.5 20t74.5 17q24 105 32 202q2 16 13.5 22.5t21.5 6.5q39 0 58.5 -16t26 -43.5t2.5 -66t-12 -83.5
q5 1 9.5 1.5t9.5 0.5z" />
    <glyph glyph-name="five" unicode="5" horiz-adv-x="505" 
d="M442 537q16 7 30.5 -1t16.5 -25q5 -28 4 -58t-14 -54.5t-41 -40t-78 -15.5q-66 0 -125 17q-1 -31 -5.5 -65t-14.5 -69q46 9 90.5 2t79 -28t55.5 -53.5t21 -74.5q0 -61 -21.5 -109t-59 -81.5t-87.5 -51t-107 -17.5t-101 16.5t-71.5 43.5t-38 61.5t-1.5 69.5q13 46 38 62
t50 17q29 1 62 -13q-18 -33 -24.5 -63t-2 -54.5t18.5 -41t36 -21.5q25 -5 47.5 5.5t40 31.5t28 50t10.5 61q0 37 -14 59.5t-39 33t-58 10t-72 -8.5q-16 -3 -26 8.5t-5 26.5q13 39 20.5 78.5t11 75t3.5 65.5t-2 51q-26 29 -30.5 59t20.5 58q34 37 67 24t55 -61
q59 -16 120 -10t113 30z" />
    <glyph glyph-name="six" unicode="6" horiz-adv-x="522" 
d="M320 473q51 0 86 -22t56 -56t28.5 -75t2.5 -78q-8 -56 -29 -102t-54 -78.5t-77.5 -50.5t-100.5 -18q-82 0 -129 37t-67.5 95.5t-18.5 131.5t19 144q19 80 52.5 140t75.5 100.5t88.5 61t91.5 20.5q24 0 54.5 -9t56 -27.5t40 -48t7.5 -69.5q-3 -18 -16.5 -34t-32.5 -24
t-41 -5.5t-43 19.5q4 29 0 52q-3 20 -13 36.5t-34 16.5q-20 0 -38 -17t-34 -45.5t-29 -67t-23 -80.5q25 28 57 40.5t65 12.5zM335 208q4 31 2.5 61.5t-9.5 54.5t-22 39t-34 15q-36 0 -61.5 -38t-36.5 -98q-1 -36 2 -67.5t10.5 -54.5t19.5 -36.5t29 -13.5q16 0 32.5 11
t30 29.5t23.5 43.5t14 54z" />
    <glyph glyph-name="seven" unicode="7" horiz-adv-x="485" 
d="M511 575q19 -19 16.5 -50t-18 -61.5t-40.5 -55.5t-50 -32q-49 -68 -127.5 -196t-166.5 -317q-6 -13 -18 -21.5t-26 -12.5t-29 -3.5t-28 6.5l-14 6q-26 12 -35.5 38t1.5 52q26 58 61.5 120.5t76.5 124t85 119t87 107.5q-25 7 -51 11.5t-52.5 2.5t-53 -12t-53.5 -33
q-14 -12 -31.5 -5.5t-20.5 24.5q-5 28 -5 60t11.5 59t39 45t77.5 18q37 0 70 -7.5t62 -18t55 -22t49 -19.5q47 45 81 65.5t47 7.5z" />
    <glyph glyph-name="eight" unicode="8" horiz-adv-x="541" 
d="M523 585q0 -44 -17 -77t-40.5 -55t-48 -33t-40.5 -11q22 0 46.5 -10.5t45.5 -29.5t34.5 -46t13.5 -59q0 -49 -15 -88.5t-39 -69t-54 -50.5t-60.5 -34.5t-58.5 -19.5t-47 -6q-51 0 -93 11t-73 34t-48 59.5t-17 86.5q0 55 21 97t48.5 70t55.5 42t42 14q-10 0 -23 10t-25 26
t-20 36t-8 40q0 54 23.5 92t59.5 63t78.5 36.5t80.5 11.5q37 0 69.5 -11.5t56.5 -31t38 -44.5t14 -53zM346 207q6 33 5.5 63t-7.5 53.5t-19.5 38.5t-29.5 18t-34 -6t-32.5 -28.5t-27.5 -46.5t-18 -60t-5.5 -63t7 -53.5t19 -39t29.5 -18.5t34.5 6.5t32.5 29t27.5 46.5
t18.5 60zM386 546q4 22 3 42t-6 35.5t-14.5 26t-21.5 13.5q-25 4 -48.5 -22.5t-32.5 -69.5q-8 -44 3 -77.5t36 -38.5t48.5 21.5t32.5 69.5z" />
    <glyph glyph-name="nine" unicode="9" horiz-adv-x="514" 
d="M282 576q82 0 129 -37t67.5 -96t18.5 -131.5t-19 -144.5q-19 -80 -52.5 -140t-75.5 -100.5t-88.5 -61t-91.5 -20.5q-24 0 -54.5 9t-56 27.5t-40.5 47.5t-7 70q4 19 17.5 34.5t32 24t40.5 6t43 -19.5q-4 -30 0 -53q3 -20 13.5 -36.5t34.5 -16.5q19 0 37.5 17t34.5 46
t29 67.5t23 80.5q-26 -29 -58 -41t-65 -12q-51 0 -86 22t-56 56t-28 74.5t-2 77.5q7 56 28 102t54 79t77.5 51t100.5 18zM242 191q36 0 61.5 38t36.5 97q1 36 -2 67.5t-10.5 54.5t-19.5 36.5t-29 13.5t-32.5 -11t-29 -29.5t-23.5 -44t-14 -53.5q-5 -31 -3 -61t10 -54
t21.5 -39t33.5 -15z" />
    <glyph glyph-name="colon" unicode=":" horiz-adv-x="403" 
d="M298 163q-5 -22 -15.5 -41t-25.5 -33t-33 -22t-36 -8q-36 0 -55 30t-10 74q4 21 15 40t26 33.5t32.5 22.5t35.5 8t32 -8t23 -22.5t12 -33.5t-1 -40zM340 475q-5 -22 -15.5 -41t-25.5 -33t-33 -22t-36 -8q-36 0 -55 30t-10 74q4 21 15 40t26 33.5t32.5 22.5t35.5 8t32 -8
t23 -22.5t12 -33.5t-1 -40z" />
    <glyph glyph-name="semicolon" unicode=";" horiz-adv-x="402" 
d="M338 475q-5 -22 -15.5 -41t-25.5 -33t-32.5 -22t-35.5 -8q-36 0 -55.5 30t-10.5 74q4 21 15 40t26 33.5t33 22.5t36 8t32 -8t23 -22.5t12 -33.5t-2 -40zM188 59q-36 1 -55 30.5t-10 73.5q4 21 15 40t26 33.5t32.5 22.5t35.5 8q36 0 55 -30t11 -74q-8 -42 -27 -79
t-41.5 -65.5t-44.5 -46t-35 -20.5l-25 36q16 9 29 20q11 10 21 23t13 28z" />
    <glyph glyph-name="less" unicode="&#x3c;" horiz-adv-x="439" 
d="M201 296q-10 -6 -11 -17t7 -19q13 -13 33 -34t41.5 -45t41 -49.5t31.5 -48t14.5 -40.5t-11.5 -27q-11 -8 -30 -11.5t-36 -5.5q-10 -2 -17.5 4.5t-8.5 17.5q-1 22 -24 55t-54 67.5t-63.5 65.5t-53.5 48q-11 8 -9 21t13 18q23 11 48.5 30t50.5 42t47.5 48t40.5 49t29 44.5
t13 34.5q2 12 12.5 18t21.5 0q22 -12 35.5 -25.5t15.5 -23.5q4 -25 -17.5 -58.5t-52.5 -66t-62 -58t-45 -34.5z" />
    <glyph glyph-name="equal" unicode="=" horiz-adv-x="544" 
d="M60 353q-5 20 3 38.5t22 20.5l351 42q16 2 22 -21l11 -44q5 -21 -3.5 -41t-22.5 -20l-363 2q-15 0 -20 23zM456 213q2 -11 0 -21.5t-6.5 -19t-11 -13.5t-13.5 -5l-359 34q-16 2 -19 25q-2 20 7 38.5t23 18.5l352 11q8 1 13 -5.5t7 -17.5z" />
    <glyph glyph-name="greater" unicode="&#x3e;" horiz-adv-x="473" 
d="M262 267q10 6 11 17t-7 19q-13 13 -33 34t-41.5 45.5t-41 50t-31.5 48t-14.5 40t11.5 26.5q11 8 30 12t36 6q10 1 17.5 -5.5t8.5 -16.5q1 -22 24 -55t54 -68t63.5 -66t53.5 -48q11 -8 9 -21t-13 -18q-35 -16 -74 -49t-72.5 -70.5t-56.5 -72.5t-26 -56q-2 -12 -12.5 -17.5
t-21.5 0.5q-22 12 -35.5 25.5t-15.5 22.5q-3 16 6.5 37t26 43.5t37.5 44.5t42 40.5t38.5 32t26.5 19.5z" />
    <glyph glyph-name="question" unicode="?" horiz-adv-x="516" 
d="M306 104q-5 -22 -15.5 -41t-25.5 -33t-33 -22t-36 -8q-36 0 -55 30t-10 74q4 21 15 40t26 33.5t32.5 22.5t35.5 8t32 -8t23 -22.5t12 -33.5t-1 -40zM307 618q-16 1 -35 3t-35 12t-27 30.5t-11 58.5q0 37 19.5 69t52.5 55.5t76.5 36.5t91.5 13t89 -17.5t68.5 -47t40 -69
t3.5 -83.5q-10 -53 -37 -92t-61.5 -70t-73 -56.5t-72.5 -51.5t-59.5 -54.5t-34.5 -64.5q-3 -14 -14.5 -22t-25.5 -7h-5q-15 1 -25.5 12.5t-9.5 27.5q3 54 20.5 93t42.5 70t54.5 57.5t56.5 54.5t48.5 61.5t30.5 78.5q3 18 4.5 37t-3 34.5t-15.5 25t-32 9.5q-19 0 -32 -12.5
t-22 -34.5t-14 -52t-8 -65q-2 -18 -15 -29.5t-31 -10.5z" />
    <glyph glyph-name="at" unicode="@" horiz-adv-x="1342" 
d="M828 1026q112 0 205 -30t157.5 -88t96 -141.5t21.5 -189.5q-7 -74 -32 -144.5t-62 -132t-83 -110.5t-94.5 -81.5t-96 -46t-87.5 -1.5q-36 11 -58 37t-33 63q-58 -99 -159 -99q-43 0 -79 19.5t-58.5 57.5t-28.5 94t11 128q19 80 50 129.5t65.5 76.5t68.5 36.5t60 9.5
q41 0 73 -20.5t41 -49.5q11 31 20 51t15 25q10 10 29.5 14.5t41.5 4.5t44 -5t37 -14t20.5 -22t-4.5 -28q-12 -18 -27 -52t-29 -74.5t-24 -84.5t-12.5 -82t5 -66.5t29.5 -37.5t45.5 5t47 44t45.5 73t40 91.5t30 99.5t17 98q7 76 -7 143.5t-53.5 117t-107.5 78.5t-168 29
t-193.5 -35t-172 -101t-138 -160.5t-90.5 -213.5q-24 -91 -22.5 -175.5t27.5 -156t75.5 -126.5t121 -88.5t164.5 -42.5t207 13q12 2 20.5 -9t9.5 -25.5t-7 -28t-29 -16.5q-156 -20 -280.5 -4.5t-217 59t-154 111.5t-91.5 153.5t-29 185.5t33 208q40 135 120.5 234.5
t184 164.5t220 96.5t229.5 31.5zM630 178q14 -4 30.5 5t32 28t30 47t24.5 61t13.5 64t1 56t-11 41.5t-22.5 20.5t-30.5 -4.5t-32 -27.5t-30 -47t-24.5 -62q-10 -33 -13.5 -64t-1 -56t11 -41.5t22.5 -20.5z" />
    <glyph glyph-name="A" unicode="A" horiz-adv-x="739" 
d="M784 233q5 7 11.5 6t11.5 -7t6 -15.5t-5 -19.5q-6 -11 -25.5 -43t-49.5 -66.5t-70 -61.5t-88 -27q-32 0 -53 17t-33.5 47.5t-17.5 72.5t-3 91q-5 -11 -20 -42t-42.5 -63.5t-68 -58t-94.5 -25.5q-66 0 -110 37t-67 98t-25.5 139.5t15.5 162.5q27 122 73.5 206.5t100.5 137
t108.5 75.5t98.5 23q36 0 62.5 -10.5t45 -27t28.5 -37t13 -41.5q14 39 23.5 63.5t13.5 29.5q10 10 29.5 14.5t41.5 4t44 -5.5t37.5 -14t21.5 -22t-4 -28q-9 -14 -24.5 -52.5t-33.5 -92.5t-37.5 -118.5t-35 -130t-26 -126.5t-11.5 -108.5t9 -76t35 -28.5q19 0 38 16.5
t34.5 38t26.5 41.5t16 27zM283 173q23 -7 50.5 11t55.5 54.5t53 88.5t44 115t27 121t5.5 103.5t-16 75.5t-36.5 37t-50.5 -10.5t-55 -54t-53 -89t-44.5 -115.5t-26.5 -120.5t-5 -103.5t15.5 -76t36 -37z" />
    <glyph glyph-name="B" unicode="B" horiz-adv-x="845" 
d="M611 530q44 -3 83 -21.5t65.5 -51.5t38.5 -80t2 -108q-10 -62 -40 -110.5t-70 -81.5t-84 -50t-83 -17t-72 8.5t-63 21.5t-58.5 29t-57.5 31q-5 2 -10 4.5t-10 4.5q-23 -47 -58 -78.5t-83 -31.5q-50 0 -75.5 21t-32.5 51t2.5 61.5t30.5 52.5q17 17 44.5 22.5t59.5 1.5
q10 41 16 88.5t10.5 92.5t8 84t7.5 63q6 38 20.5 61.5t33.5 37t40 18t39 4.5q24 0 44.5 -3.5t34 -9.5t18.5 -14t-4 -16q-23 -21 -37.5 -54.5t-24.5 -74t-17.5 -84.5t-14.5 -87q-5 -30 -13.5 -66.5t-21.5 -73.5q11 -3 20 -6.5t18 -6.5q31 -12 75.5 -9.5t87.5 20.5t78 53.5
t48 90.5q10 42 4.5 70t-21 45.5t-38.5 24t-50 5.5l-45.5 -21t-31.5 -14q-23 -11 -40.5 -2.5t-23.5 24.5t1.5 33t35.5 24q18 5 44.5 27.5t53 55t49.5 71.5t35.5 75t10.5 66t-25 46q-28 19 -66 13t-76.5 -27.5t-72.5 -55t-53 -70.5q-8 -15 -24 -14t-30 12.5t-22 29.5t0 36
q18 45 53 81t78.5 61.5t91.5 39.5t91 14q24 0 52.5 -3.5t56 -12.5t52 -24.5t41.5 -38.5t24 -55t0 -74q-7 -38 -22 -71t-35 -61.5t-44 -52.5t-49 -44zM78 91q13 7 23 20.5t19 33.5q-15 0 -27 -2.5t-19 -8.5q-11 -9 -13.5 -18t0 -15t8 -9t9.5 -1z" />
    <glyph glyph-name="C" unicode="C" horiz-adv-x="667" 
d="M711 233q4 7 11 6.5t12.5 -6.5t7 -16t-4.5 -20q-11 -19 -38.5 -57t-70.5 -76.5t-101.5 -67.5t-133.5 -29q-107 0 -181.5 40t-116.5 109.5t-51.5 163t14.5 200.5q24 110 69.5 192t102.5 136.5t121 81.5t126 27q53 0 98.5 -18t76.5 -50t43 -76t-1 -96q-11 -42 -32 -66.5
t-46 -36t-50 -11t-44 7.5t-27.5 19t-0.5 25q12 19 22.5 50.5t14.5 61.5t-3.5 51.5t-31.5 21.5q-19 0 -54 -16.5t-74 -57.5t-75.5 -110.5t-57.5 -175.5q-15 -76 -8 -144.5t34 -121t74 -83.5t113 -31q62 0 109 24.5t79.5 55t51 58.5t23.5 35z" />
    <glyph glyph-name="D" unicode="D" horiz-adv-x="828" 
d="M535 967q71 0 134 -34t103.5 -103t51.5 -173t-23 -243q-18 -73 -52 -145.5t-79 -130t-98 -93t-109 -35.5q-26 0 -48 8.5t-44 21.5t-46 29t-53 31q-5 2 -10 4.5t-10 4.5q-23 -47 -58 -78.5t-83 -31.5q-50 0 -75.5 21t-32.5 51t2.5 61.5t30.5 52.5q17 17 44.5 22t59.5 1
q10 41 16 88t10.5 92.5t8 84.5t7.5 64q6 38 20.5 61.5t33.5 37t40 18t39 4.5q24 0 44.5 -3.5t34 -9.5t18.5 -14t-4 -16q-23 -21 -37.5 -54.5t-24.5 -74t-17.5 -84.5t-14.5 -87q-5 -30 -13.5 -67t-21.5 -74q10 -3 19.5 -6.5t18.5 -5.5q46 -14 88 -7t77 32.5t63.5 67
t49.5 97.5q28 77 43.5 158.5t13.5 151t-23 120t-64 65.5q-32 11 -70.5 4t-76 -26.5t-70 -50t-51.5 -67.5q-8 -15 -24 -14t-30 12.5t-22 29.5t0 36q18 45 53 81t78.5 61.5t91.5 39.5t91 14zM78 91q13 7 23 20.5t19 33.5q-15 0 -27 -2.5t-19 -8.5q-11 -9 -13.5 -18t0 -15t8 -9
t9.5 -1z" />
    <glyph glyph-name="E" unicode="E" horiz-adv-x="625" 
d="M669 233q4 7 11 6.5t12.5 -6.5t6.5 -16t-5 -20q-11 -19 -38 -57t-70 -76.5t-101.5 -67.5t-133.5 -29q-63 0 -118 15t-96.5 46t-66.5 79t-29 115q-4 56 11 106.5t43.5 91.5t68 71t84.5 44q-25 14 -40 40t-21 57.5t-3 64.5t13 62q15 40 42 70t60 49.5t69.5 29t70.5 9.5
q57 0 101.5 -19.5t74 -52.5t40.5 -76.5t1 -91.5q-9 -43 -29.5 -67.5t-45.5 -36t-50.5 -11t-44.5 8t-28.5 19.5t-1.5 25q12 19 22 46.5t13 54.5t-4 50t-29 34q-12 5 -26 4.5t-28 -8t-26.5 -21t-21.5 -33.5q-8 -18 -12.5 -46t-2.5 -62.5t13 -74t34 -81.5q4 -11 6.5 -20.5
t-11.5 -16.5q-22 -10 -50 -29.5t-52 -49.5t-39.5 -69.5t-12.5 -89.5q2 -38 17.5 -65.5t40 -44.5t55.5 -25t64 -8q62 0 109 24.5t79.5 55t51 58.5t23.5 35z" />
    <glyph glyph-name="F" unicode="F" horiz-adv-x="642" 
d="M808 921q-1 8 5 16t15 11t19 -2.5t18 -24.5q5 -13 3.5 -34.5t-10 -46t-24.5 -50t-41.5 -46t-61 -33.5t-81.5 -13q-47 0 -94 12t-95 28q-13 -23 -25 -56.5t-23 -73t-20.5 -82.5t-17.5 -83q49 2 94.5 15.5t80.5 31.5t56.5 37.5t21.5 33.5q0 15 6 21.5t13 6t13 -7.5t6 -20
q0 -9 -3 -28.5t-12.5 -43.5t-27.5 -49.5t-48.5 -46.5t-75 -34.5t-107.5 -13.5h-35q-2 -8 -2.5 -15.5t-2.5 -14.5q-5 -28 -13 -63.5t-20.5 -71.5t-31 -70t-44.5 -61t-60.5 -43t-78.5 -16q-41 0 -70.5 10.5t-48.5 28.5t-28 41.5t-9 49.5q0 111 68.5 193t198.5 114q8 45 14 84
t11 65q10 48 20 83t21 60t22 41t22 25q-53 16 -98.5 18t-81.5 -24q-12 -8 -23.5 -5.5t-20 11t-11.5 20.5t3 21q6 10 21.5 26.5t39 32.5t55.5 27.5t72 11.5q47 0 89.5 -11t84.5 -23.5t85.5 -23.5t93.5 -11q49 0 83 6.5t55 16.5t29 21.5t7 21.5zM59 54q25 0 46 22t37.5 59
t29.5 84.5t23 97.5q-91 -31 -137 -87t-46 -125q0 -23 14.5 -37t32.5 -14z" />
    <glyph glyph-name="G" unicode="G" horiz-adv-x="689" 
d="M507 463q9 11 27.5 14.5t40.5 2t43.5 -8.5t36.5 -18t21 -24.5t-4 -29.5q-21 -33 -40 -76.5t-35.5 -89.5t-29.5 -90.5t-22 -78.5q-7 -25 -17.5 -60t-26 -72.5t-37 -74t-50 -65t-64.5 -44.5t-80 -12q-57 5 -90 27.5t-46 54.5q-4 8 -0.5 15.5t11.5 10.5l19 7q8 2 15.5 -2
t9.5 -12q5 -14 16 -23t25 -10q34 -3 63 25.5t53.5 76.5t44 110.5t33.5 128.5q-14 -19 -31.5 -38t-40 -34.5t-50 -25t-59.5 -9.5q-66 0 -110 37t-67 98t-25.5 139.5t15.5 162.5q27 122 73.5 206.5t100.5 137t108.5 75.5t98.5 23q43 0 79 -14t61.5 -38t39.5 -56t14 -67
q0 -36 -7.5 -65.5t-18.5 -53t-23 -40.5t-22 -28q-8 -8 -18.5 -10.5t-21.5 2.5l-24 10q-13 5 -18.5 17.5t-0.5 26.5q12 33 17 63.5t3.5 54.5t-9.5 40t-22 20q-23 7 -50.5 -10.5t-55 -54t-53 -89t-44.5 -115.5t-26.5 -120.5t-5 -103.5t15.5 -76t36 -37q19 -6 41.5 5t46 35
t46.5 60t43 81q8 32 20 62t27 47z" />
    <glyph glyph-name="H" unicode="H" horiz-adv-x="800" 
d="M845 233q5 7 11.5 6t11.5 -7t6 -15.5t-5 -19.5q-6 -11 -25.5 -43t-49.5 -66.5t-70 -61.5t-88 -27q-44 0 -68 31t-33 83t-6 120t14 142q-28 -14 -65.5 -22t-85.5 -8h-35q-2 -8 -3 -15.5t-2 -14.5q-5 -28 -13 -63.5t-20.5 -71.5t-31 -70t-44.5 -61t-60.5 -43t-78.5 -16
q-41 0 -70.5 10.5t-48.5 28.5t-28 41.5t-9 49.5q0 111 68.5 193t198.5 114q8 45 14 84t11 65q16 80 37 144.5t46.5 109.5t56.5 69t69 24q24 0 47 -7.5t39 -18t22 -20.5t-4 -16q-36 -18 -64 -64t-50 -105.5t-37.5 -125t-26.5 -123.5q54 2 104.5 18.5t86.5 37.5
q15 74 33.5 143t35.5 123t30.5 89t18.5 40q10 10 29.5 14.5t41.5 4t44 -5.5t37.5 -14t21.5 -22t-4 -28q-9 -14 -24.5 -52.5t-33.5 -92.5t-37.5 -118.5t-35 -130t-26 -126.5t-11.5 -108.5t9 -76t35 -28.5q19 0 38 16.5t34.5 38t26.5 41.5t16 27zM59 54q25 0 46 22t37.5 59
t29.5 84.5t23 97.5q-91 -31 -137 -87t-46 -125q0 -23 14.5 -37t32.5 -14z" />
    <glyph glyph-name="I" unicode="I" horiz-adv-x="532" 
d="M645 861q-32 -17 -58 -56t-46.5 -90t-36.5 -109.5t-27.5 -113.5t-19.5 -102t-13 -75t-13 -63.5t-20.5 -71.5t-31 -70t-44.5 -61t-60.5 -43t-78.5 -16q-60 0 -96 22.5t-50 56.5q-3 9 -1.5 17t6.5 14t13 9t17 1q8 -2 13.5 -7t7.5 -13q5 -17 18 -26.5t27 -9.5q30 0 53 30
t41 77t31.5 106t23.5 117t17.5 109t14.5 83q10 48 21 89t23 76q-40 -10 -78.5 -29.5t-68.5 -44.5t-46 -54t-11 -57q2 -12 -6 -21.5t-21 -7.5q-19 3 -41 12.5t-40 32.5q-18 24 -22 51t5 52.5t29.5 47.5t50.5 36q34 16 74.5 25.5t83.5 20.5t87 28.5t85 51.5q38 38 84 38
q24 0 47 -7.5t39.5 -18t22.5 -20.5t-5 -16z" />
    <glyph glyph-name="J" unicode="J" horiz-adv-x="612" 
d="M621 923q24 0 47 -7.5t39.5 -18t22.5 -20.5t-5 -16q-32 -17 -57.5 -56t-46 -90t-36 -109.5t-27 -113.5t-20 -102t-14.5 -75q-27 -130 -60.5 -232t-77 -172t-97 -106.5t-120.5 -36.5q-52 0 -93 14.5t-69.5 39t-43.5 56t-15 66.5q0 34 7 60.5t18.5 47t24.5 35t25 24.5
q14 11 31 12t32 -7q23 -13 28.5 -38.5t-10.5 -46.5q-17 -21 -30 -51.5t-13 -72.5q0 -13 3.5 -26.5t11 -24t19.5 -17.5t29 -7q45 0 82.5 53.5t72 151t67 235t66.5 304.5q10 48 21 89t23 76q-40 -10 -78.5 -29.5t-68.5 -44.5t-46 -54t-11 -57q2 -12 -6 -21.5t-20 -7.5
q-19 3 -41.5 12.5t-40.5 32.5q-18 24 -22 51t5 52.5t29.5 47.5t50.5 36q34 16 74.5 25.5t83.5 20.5t86.5 28.5t84.5 51.5q38 38 85 38z" />
    <glyph glyph-name="K" unicode="K" horiz-adv-x="840" 
d="M885 233q5 7 12 6t12 -7t6 -15.5t-6 -19.5q-6 -11 -25.5 -43t-49.5 -66.5t-70 -61.5t-88 -27q-38 0 -61 24t-34.5 65t-12 96t5.5 118q3 24 -5.5 43t-25 27.5t-40.5 4.5t-52 -26q-2 -11 -3.5 -19.5t-3.5 -16.5q-5 -28 -13 -63.5t-20.5 -71.5t-31 -70t-44.5 -61t-60.5 -43
t-78.5 -16q-60 0 -96 22.5t-50 56.5q-3 9 -1.5 17t6.5 14t13 9t17 1q8 -2 13.5 -7t7.5 -13q5 -17 18 -26.5t27 -9.5q30 0 53 30t41 77t31.5 106t23.5 117t17.5 109t14.5 83q10 48 21 89t23 76q-40 -10 -78.5 -29.5t-68.5 -44.5t-46 -54t-11 -57q2 -12 -6 -21.5t-21 -7.5
q-19 3 -41 12.5t-40 32.5q-18 24 -22 51t5 52.5t29.5 47.5t50.5 36q34 16 74.5 25.5t83.5 20.5t87 28.5t85 51.5q38 38 84 38q24 0 47 -7.5t39.5 -18t22.5 -20.5t-5 -16q-32 -17 -57.5 -55t-46 -88.5t-36 -108t-27.5 -112.5q15 30 35 64.5t43.5 69.5t49 68t52.5 61
q42 43 82.5 52t70.5 -4t45.5 -41.5t7.5 -59.5q-4 -14 -16 -21t-26 -4q-31 8 -61.5 -5t-60.5 -40.5t-60 -66.5t-61 -82q17 2 33 2t31 -4q24 -5 44.5 -17.5t34 -33.5t18 -49.5t-3.5 -65.5q-22 -102 -14.5 -156t49.5 -54q19 0 37.5 16.5t34 38t26.5 41.5t16 27z" />
    <glyph glyph-name="L" unicode="L" horiz-adv-x="810" 
d="M757 174q5 -13 3.5 -34.5t-10 -46t-24.5 -50t-41.5 -46t-61 -33.5t-81.5 -13t-88.5 12t-82.5 28t-76.5 32t-70.5 25t-66 7t-61 -23q-12 -8 -24 -5.5t-20 11t-11 20.5t3 21q6 10 21 26.5t39 32.5t56 27.5t72 11.5q26 0 49 -3q17 47 29.5 104.5t22 113t17 104.5t13.5 80
q10 48 21 89t23 76q-40 -10 -78.5 -29.5t-68.5 -44.5t-46 -54t-11 -57q2 -12 -6 -21.5t-21 -7.5q-19 3 -41 12.5t-40 32.5q-19 24 -22.5 51t5.5 52.5t29.5 47.5t50.5 36q34 16 74.5 25.5t83.5 20.5t86.5 28.5t84.5 51.5q38 38 85 38q24 0 47 -7.5t39 -18t22 -20.5t-4 -16
q-32 -17 -58 -56t-46.5 -90t-36 -109.5t-27.5 -113.5t-20 -102t-13 -75q-9 -49 -28 -97.5t-45 -85.5q26 -10 55 -17t68 -7q49 0 83 6.5t55 16.5t29 21.5t7 21.5q-1 8 5 16t15 11t19 -2.5t18 -24.5z" />
    <glyph glyph-name="M" unicode="M" horiz-adv-x="1040" 
d="M1085 233q5 7 12 6t12 -7t6 -15.5t-6 -19.5q-6 -11 -25.5 -43t-49.5 -66.5t-70 -61.5t-88 -27q-40 0 -63.5 26.5t-34 71.5t-10 104.5t8.5 126.5t22 137t31 135q-35 -61 -65 -123t-55 -117.5t-43.5 -101t-29.5 -75.5q-7 -17 -23.5 -23t-32.5 3l-27 14q-27 16 -29 47
q-2 32 -4.5 89t-3 123.5t3 135t12.5 123.5q-19 -51 -33.5 -106.5t-25 -107t-18 -95.5t-12.5 -71q-5 -28 -13 -63.5t-20.5 -71.5t-31 -70t-44.5 -61t-60.5 -43t-78.5 -16q-60 0 -96 22.5t-50 56.5q-3 9 -1.5 17t6.5 14t13 9t17 1q8 -2 13.5 -7t7.5 -13q5 -17 18 -26.5
t27 -9.5q30 0 53 30t41 77t31.5 106t23.5 117t17.5 109t14.5 83q10 48 21 89t23 76q-40 -10 -78.5 -29.5t-68.5 -44.5t-46 -54t-11 -57q2 -12 -6 -21.5t-21 -7.5q-19 3 -41 12.5t-40 32.5q-18 24 -22 51t5 52.5t29.5 47.5t50.5 36q34 16 74.5 25.5t83.5 20.5t87 28.5
t85 51.5q38 38 84 38q24 0 47 -7.5t39.5 -18t22.5 -20.5t-5 -16q-22 -81 -31.5 -162t-11.5 -153t1 -130t6 -93q41 110 90 215q21 45 46 92.5t53.5 94.5t60.5 90t66 79q15 15 48.5 17.5t65.5 -5t51 -24t4 -39.5q-9 -14 -24.5 -52.5t-33.5 -92.5t-37 -118.5t-34.5 -130
t-26 -126.5t-11.5 -108.5t9 -76t35 -28.5q19 0 37.5 16.5t34 38t26.5 41.5t16 27z" />
    <glyph glyph-name="N" unicode="N" horiz-adv-x="948" 
d="M993 233q5 7 12 6t12 -7t6 -15.5t-6 -19.5q-6 -11 -25.5 -43t-49.5 -66.5t-70 -61.5t-88 -27q-44 0 -69 29t-34.5 78.5t-6.5 114.5t14 136.5t28 145t35 139.5q6 24 8.5 45.5t-0.5 37.5t-13 25.5t-29 9.5t-43 -24t-50.5 -63.5t-53.5 -90t-52 -104t-46 -105.5t-35 -94
q-9 -44 -25 -94.5t-44 -94t-70 -72t-102 -28.5t-96 22.5t-50 56.5q-3 9 -1.5 17t6.5 14t13 9t17 1q8 -2 13.5 -7t7.5 -13q5 -17 18 -26.5t27 -9.5q30 0 53 30t41 77t31.5 106t23.5 117t17.5 109t14.5 83q10 48 21 89t23 76q-40 -10 -78.5 -29.5t-68.5 -44.5t-46 -54t-11 -57
q2 -12 -6 -21.5t-21 -7.5q-19 3 -41 12.5t-40 32.5q-18 24 -22 51t5 52.5t29.5 47.5t50.5 36q34 16 74.5 25.5t83.5 20.5t87 28.5t85 51.5q38 38 84 38q24 0 47 -7.5t39.5 -18t22.5 -20.5t-5 -16q-29 -15 -52.5 -48t-43 -77t-35 -94.5t-27.5 -101.5q31 67 67.5 129t77.5 110
t85 77t90 29q35 0 65 -17t49 -47t23 -71.5t-13 -90.5q-19 -55 -36.5 -116.5t-31 -122.5t-22 -117t-8 -99t11 -68.5t34.5 -25.5q19 0 37.5 16.5t34 38t26.5 41.5t16 27z" />
    <glyph glyph-name="O" unicode="O" 
d="M476 915q67 0 117.5 -36t81 -98.5t40.5 -146.5t-4 -181q-15 -97 -55 -181t-95 -146t-119.5 -97.5t-127.5 -35.5q-83 0 -140 38.5t-90 102.5t-41 146.5t9 170.5q24 125 69.5 213.5t103 144t123 81t128.5 25.5zM520 411q18 76 24 147t0.5 126.5t-21.5 92t-42 45.5
t-57 -12.5t-61.5 -66.5t-57.5 -109t-45 -141t-22.5 -147.5t2.5 -126t24.5 -92t43.5 -44.5q26 -9 55.5 12.5t58.5 66t54.5 108.5t43.5 141z" />
    <glyph glyph-name="P" unicode="P" horiz-adv-x="755" 
d="M576 965q36 0 86 -14t94 -45t73 -80.5t25 -120.5q-4 -62 -28 -113.5t-61 -91.5t-84 -69.5t-97 -48.5t-100 -28.5t-92 -9.5q-9 0 -17.5 -0.5t-17.5 -0.5q-2 -8 -2.5 -15.5t-2.5 -14.5q-5 -29 -13 -64t-20.5 -71t-31 -70t-44.5 -60.5t-60.5 -42.5t-78.5 -16
q-41 0 -70.5 10.5t-48.5 28.5t-28 41.5t-9 49.5q0 55 17.5 103.5t51.5 88.5t83.5 69t114.5 45q8 45 14 84.5t11 65.5q15 73 31 116q-11 0 -22.5 7t-20.5 18.5t-12.5 25t2.5 27.5q18 45 53.5 81t83.5 61.5t104.5 39.5t116.5 14zM59 53q25 0 46 22t37.5 58.5t29.5 84t23 97.5
q-91 -30 -137 -86t-46 -125q0 -24 14.5 -37.5t32.5 -13.5zM671 710q9 81 -27 123.5t-111 42.5q-42 0 -84 -19.5t-79 -53.5q5 1 8.5 1h7.5q24 0 44.5 -3.5t34 -9.5t18.5 -14t-4 -16q-16 -15 -30.5 -49.5t-27.5 -78.5t-24.5 -94t-20.5 -97q21 2 49.5 8.5t59.5 20t62 34
t57 49.5t44 67.5t23 88.5z" />
    <glyph glyph-name="Q" unicode="Q" 
d="M476 915q67 0 117.5 -36t81 -98.5t40.5 -146.5t-4 -181q-16 -106 -61.5 -195.5t-107.5 -152.5q0 -32 5 -63t15.5 -56.5t26.5 -43t37 -23.5q12 -3 16.5 -14.5t-2.5 -21.5q-11 -16 -29.5 -31.5t-47.5 -21.5q-30 -6 -55.5 2.5t-44.5 28t-29 47.5t-10 61q0 13 1.5 26t3.5 27
q-58 -29 -115 -29q-83 0 -140 38.5t-90 102.5t-41 146.5t9 170.5q24 125 69.5 213.5t103 144t123 81t128.5 25.5zM308 83q20 -8 43.5 5t46.5 41q-17 5 -26 21.5t-1 42.5q4 16 14.5 29t24 21t29 11t30.5 -1q15 35 27.5 74.5t23.5 83.5q18 76 24 147t0.5 126.5t-21.5 92
t-42 45.5t-57 -12.5t-61.5 -66.5t-57.5 -109t-45 -141t-22.5 -147.5t2.5 -126t24.5 -92t43.5 -44.5z" />
    <glyph glyph-name="R" unicode="R" horiz-adv-x="769" 
d="M813 232q5 7 12 6t12 -7t6 -16t-5 -20q-5 -7 -15 -24t-25.5 -39t-35.5 -46t-44.5 -43.5t-53 -32.5t-60.5 -13q-48 0 -70.5 31.5t-29 81.5t-2 112.5t11.5 124.5q2 21 -2.5 38t-15.5 27t-28.5 11.5t-40.5 -9.5q-11 -6 -22.5 0.5t-12.5 20.5q0 8 4 13q23 39 63 61v1
q20 11 44.5 36t47 57.5t41.5 68.5t28 69.5t5.5 61t-25.5 42.5q-28 19 -66 13t-76.5 -27.5t-72.5 -55t-53 -70.5q-8 -15 -23.5 -14t-30 12.5t-22.5 29.5t0 36q18 45 53 81t78.5 61.5t91.5 39.5t91 14q36 0 80.5 -8.5t80.5 -32t56 -63.5t9 -103q-8 -42 -24 -77t-38 -65
t-48.5 -54.5t-54.5 -43.5q34 -19 51 -56.5t4 -95.5q-11 -51 -18 -97.5t-7 -82.5t8.5 -57t29.5 -21q19 0 37.5 16.5t34 38t26.5 42t16 27.5zM342 657q24 0 44 -3t33.5 -9t18 -14t-2.5 -18q-27 -36 -42 -79.5t-23 -85.5t-11 -78t-7 -57q-5 -29 -13 -64t-20.5 -71t-31 -70
t-44.5 -60.5t-60.5 -42.5t-78.5 -16q-41 0 -70.5 10.5t-48.5 28.5t-28 41.5t-9 49.5q0 107 65 187.5t186 114.5q5 34 9 63.5t9 51.5q7 37 21 60.5t31 37t36 18.5t37 5zM59 53q27 0 47 22t34.5 58t25 82.5t18.5 95.5q-86 -31 -129 -86t-43 -121q0 -24 14.5 -37.5t32.5 -13.5z
" />
    <glyph glyph-name="S" unicode="S" horiz-adv-x="646" 
d="M443 962q40 0 77 -13t68 -35t54.5 -49.5t36.5 -56.5t2.5 -60t-38.5 -47q-15 -8 -31 -10t-31 2t-28.5 13.5t-22.5 24.5q-17 28 -39.5 50.5t-45 34t-43 9t-33.5 -24.5q-14 -24 -3.5 -66t34 -94.5t54 -112.5t57 -120t43.5 -116t13 -100t-23.5 -83.5t-53.5 -69.5t-81.5 -47.5
t-107.5 -17.5q-45 0 -89.5 16t-83.5 42.5t-70 62t-49 74.5q-15 32 -6 65.5t36 54.5q21 16 46 19t47.5 -4.5t40 -25.5t23.5 -44q7 -27 22 -57t34.5 -55t42 -41.5t43.5 -16.5q17 0 27 6.5t15 17t6.5 25t1.5 29.5q0 36 -14 79t-34.5 90t-45 96t-45 98t-34.5 96.5t-14 90.5
q0 59 20 108.5t53 85.5t77 56.5t92 20.5z" />
    <glyph glyph-name="T" unicode="T" horiz-adv-x="523" 
d="M798 920q-1 8 5 16t15 11t19 -2.5t18 -24.5q5 -13 3.5 -34.5t-10 -46.5t-24.5 -50.5t-41.5 -46t-61 -33.5t-81.5 -13q-33 0 -66 6t-67 16q-21 -51 -37 -110t-28 -115t-20 -103.5t-13 -76.5t-14 -64t-23 -71t-34 -70t-47 -60.5t-62.5 -42.5t-79.5 -16q-61 0 -97 22t-50 56
q-3 9 -1.5 17t6.5 14t13 9t17 1q17 -3 22 -20t17.5 -26t27.5 -9q30 0 53 30t40.5 77t31 106t23.5 117t18 109t15 83q16 74 42.5 118.5t55.5 67.5q-36 13 -70.5 23.5t-66 14.5t-59.5 -0.5t-52 -21.5q-12 -8 -24 -5.5t-20 11t-11 20.5t3 21q6 10 21 26.5t39 32.5t56 28t72 12
q47 0 89.5 -11t84.5 -23.5t85.5 -23.5t93.5 -11q49 0 83 6.5t54.5 16.5t29 21.5t7.5 21.5z" />
    <glyph glyph-name="U" unicode="U" horiz-adv-x="892" 
d="M936 232q5 7 12 6t12 -7t6 -16t-5 -20q-5 -7 -15 -24t-25.5 -39t-35.5 -46t-44.5 -43.5t-53 -32.5t-60.5 -13t-53 17t-33.5 47.5t-17.5 72t-3 90.5q-18 -42 -41 -79.5t-51.5 -66t-63 -45t-75.5 -16.5q-107 0 -133.5 137t35.5 421q11 47 22 88t24 77q-40 -10 -79 -29.5
t-69 -45t-46.5 -54.5t-11.5 -57q2 -12 -6 -21t-21 -7q-19 2 -41 12t-40 33q-18 24 -22 51t5 52.5t29.5 47t50.5 35.5q34 17 74.5 26t83.5 20.5t87 29t85 50.5l-1 -1q38 40 85 40q24 0 47 -7.5t39.5 -18t22.5 -21t-5 -15.5q-32 -17 -58 -56t-47 -90t-37.5 -109.5t-28 -113.5
t-19 -102t-11.5 -76q-5 -41 -5 -76t6 -61t17 -40.5t28 -14.5q26 0 50.5 22.5t46 58t40.5 80t33.5 89.5t25.5 85.5t18 68.5q16 70 33.5 134t33.5 114t28.5 82t17.5 37q10 10 29 14.5t41 4.5t44.5 -5t38 -14t21 -22t-4.5 -28q-9 -14 -24.5 -52.5t-33.5 -93t-37 -119
t-34.5 -130t-26 -126.5t-11.5 -108.5t9 -76t35 -28.5q19 0 37.5 16.5t34 38t26.5 42t16 27.5z" />
    <glyph glyph-name="V" unicode="V" horiz-adv-x="881" 
d="M857 884q38 -16 63.5 -52t32.5 -89.5t-7 -122.5t-53 -150t-88 -165t-107.5 -152.5t-127.5 -112t-148 -43.5q-63 0 -97.5 37.5t-48 99.5t-9.5 141.5t18 162.5t35 163t41 144q-42 -7 -85.5 -26t-77.5 -45.5t-53.5 -58t-13.5 -61.5q2 -12 -6 -21t-21 -7q-19 2 -41 12t-40 33
q-18 24 -22 51t5 52.5t29.5 47t50.5 35.5q34 16 74 25.5t82.5 20.5t85.5 28t84 50q2 4 3.5 6.5t3.5 4.5q10 10 29 14.5t41 4.5t44.5 -5t38 -14t21 -22t-4.5 -28q-9 -14 -24.5 -52.5t-33.5 -93t-37 -119t-34.5 -130t-26 -126.5t-11.5 -108.5t9 -76t35 -28.5q18 0 42 18.5
t49.5 51.5t52 77t50.5 95t44 106t34 110q12 48 14 86.5t-2 69t-12.5 53t-18.5 37.5q-14 23 -4.5 47t35.5 32q22 6 49 6t59 -13z" />
    <glyph glyph-name="W" unicode="W" horiz-adv-x="1238" 
d="M1214 884q38 -16 63.5 -52t32.5 -89.5t-7 -122.5t-53 -150t-88 -165t-107.5 -152.5t-127.5 -112t-148 -43.5q-42 0 -71.5 17.5t-48 49t-27 74.5t-9.5 93q-18 -43 -41 -81.5t-52 -68t-64 -47t-77 -17.5q-107 0 -133.5 137t35.5 421q11 47 22 88t24 77q-40 -10 -79 -29.5
t-69 -45t-46.5 -54.5t-11.5 -57q2 -12 -6 -21t-21 -7q-19 2 -41 12t-40 33q-18 24 -22 51t5 52.5t29.5 47t50.5 35.5q34 17 74.5 26t83.5 20.5t87 29t85 50.5l-1 -1q38 40 85 40q24 0 47 -7.5t39.5 -18t22.5 -21t-5 -15.5q-32 -17 -58 -56t-47 -90t-37.5 -109.5t-28 -113.5
t-19 -102t-11.5 -76q-5 -41 -5 -76t6 -61t17 -40.5t28 -14.5q33 0 62.5 33.5t54.5 83.5t45 108t34 108q14 80 34.5 156t40 137t35 100t21.5 45q10 10 29 14.5t41 4.5t44.5 -5t38 -14t21 -22t-4.5 -28q-9 -14 -24.5 -52.5t-33.5 -93t-37 -119t-34.5 -130t-26 -126.5
t-11.5 -108.5t9 -76t35 -28.5q18 0 42 18.5t49.5 51.5t52 77t50.5 95t44 106t34 110q12 48 14 86.5t-2 69t-12.5 53t-18.5 37.5q-14 23 -4.5 47t35.5 32q22 6 49 6t59 -13z" />
    <glyph glyph-name="X" unicode="X" horiz-adv-x="726" 
d="M774 865q45 0 71 -14.5t39.5 -34.5t17 -41.5t3.5 -36.5q0 -6 -5 -10t-11 -2q-41 15 -82.5 1t-83.5 -48.5t-84.5 -85.5t-84.5 -111q12 -71 21 -138t19 -119.5t24 -84.5t36 -32q19 0 37.5 16.5t34 38t26.5 42t16 27.5t12 6t12 -7t6 -16t-6 -20l-14 -24.5t-25.5 -40
t-35.5 -46.5t-44.5 -43.5t-53 -32t-60.5 -11.5q-33 1 -57 22.5t-42 57.5t-31.5 84t-24.5 103q-40 -58 -80 -110t-79.5 -92.5t-79.5 -65t-79 -27.5h-3q-14 0 -28.5 10.5t-25.5 27t-19 35.5t-9.5 36.5t3.5 30.5t19 16q43 10 87.5 39t88.5 71t87.5 93.5t86.5 107.5
q-11 62 -23.5 121t-30.5 107t-43 82t-59 46q-10 3 -15.5 11t-6 18t3 19.5t11.5 16.5q13 11 32 19t45 8q48 0 85 -19.5t65.5 -53.5t48.5 -80t35 -98q36 48 70.5 90.5t66.5 74t61 49.5t55 18z" />
    <glyph glyph-name="Y" unicode="Y" horiz-adv-x="849" 
d="M758 892q6 13 23 19t38.5 6t43.5 -5.5t39 -15.5t24.5 -23.5t0.5 -30.5q-12 -28 -28 -80t-34.5 -119t-37.5 -144t-38 -154.5t-36.5 -150.5t-31.5 -131q-6 -25 -16.5 -60.5t-26.5 -73t-37.5 -74t-50 -64.5t-65 -44t-80.5 -12q-57 5 -89.5 27t-46.5 54q-3 8 0.5 16t11.5 10
l19 7q8 2 15.5 -2t9.5 -12q5 -14 16 -23t25 -10q37 -3 69 32t58 93t45.5 131t33.5 146q-18 -38 -41 -72t-50.5 -59.5t-60 -40.5t-71.5 -15q-107 0 -133.5 137t35.5 421q11 47 22 88t24 77q-40 -10 -79 -29.5t-69 -45t-46.5 -54.5t-11.5 -57q2 -12 -6 -21t-21 -7
q-19 2 -41 12t-40 33q-18 24 -22 51t5 52.5t29.5 47t50.5 35.5q34 17 74.5 26t83.5 20.5t87 29t85 50.5l-1 -1q38 40 85 40q24 0 47 -7.5t39.5 -18t22.5 -21t-5 -15.5q-32 -17 -58 -56t-47 -90t-37.5 -109.5t-28 -113.5t-19 -102t-11.5 -76q-5 -41 -5 -76t6 -61t17 -40.5
t28 -14.5q25 0 48.5 20.5t44.5 54t39 75.5t33 85t26.5 83.5t19.5 70.5q12 62 25 122.5t26 111.5t25 89.5t22 58.5z" />
    <glyph glyph-name="Z" unicode="Z" horiz-adv-x="778" 
d="M21 -57q11 4 22.5 -0.5t16.5 -15.5q28 -59 67 -79t92 -20q63 0 116.5 28t92.5 72.5t61 99.5t22 109q0 31 -13.5 50.5t-37 28t-55 5.5t-66.5 -15q-11 -4 -20.5 0t-16.5 12.5t-11 20t-3 22.5q3 23 19 36q42 34 83 81t76 99t62 104.5t42 97.5t15.5 78t-16.5 46
q-27 19 -65.5 8t-80.5 -44t-83 -83.5t-73 -108.5q-28 8 -49 21q-19 11 -34 28.5t-15 42.5q0 16 12.5 40t35 50t54.5 51.5t71.5 46.5t86 33.5t97.5 12.5q37 0 77.5 -9t74.5 -32t56.5 -63t22.5 -102q0 -37 -12 -73.5t-32 -71t-45.5 -66.5t-52.5 -60q-62 -65 -142 -123
q56 10 99 -2t72 -38t44 -63t15 -77q0 -58 -19 -110.5t-51.5 -97.5t-76 -82t-93 -62.5t-102.5 -39.5t-103 -14q-55 0 -97.5 17t-74 44t-52.5 60.5t-32 66.5q-5 12 1 23.5t18 16.5z" />
    <glyph glyph-name="bracketleft" unicode="[" horiz-adv-x="833" 
d="M400 -50q-113 0 -197.5 36.5t-134.5 111.5t-63.5 188.5t15.5 266.5t74 257.5t113 168t162.5 90t222.5 24.5l-16 -50q-68 0 -124 -19.5t-102.5 -72.5t-83.5 -149t-66 -249t-28 -261t28.5 -176t81 -99t128.5 -31z" />
    <glyph glyph-name="backslash" unicode="\" horiz-adv-x="833" 
d="M395 -1q-14 -11 -31 -6t-24 21q-16 36 -41.5 97.5t-56.5 139t-65 165t-66.5 176t-61 173t-48.5 154.5q-4 13 2 25.5t19 17.5l66 30q16 8 31.5 -0.5t19.5 -25.5q19 -85 44 -178t52.5 -185.5t55.5 -180t53 -161t44.5 -129.5t29.5 -84q4 -11 0.5 -23t-13.5 -19l-10 -7v0z
" />
    <glyph glyph-name="bracketright" unicode="]" horiz-adv-x="692" 
d="M173 1081q114 9 199.5 -20t137 -99t67 -182t-11.5 -267t-70 -262.5t-110.5 -176t-161.5 -102.5t-223 -43l15 51q68 6 124 29.5t102 80.5t81.5 155t62.5 253t24 262t-32 172.5t-83 92t-130 20.5z" />
    <glyph glyph-name="asciicircum" unicode="^" horiz-adv-x="535" 
d="M328 635q-6 10 -17 11t-19 -7q-20 -20 -46.5 -39t-52.5 -29.5t-49.5 -9t-36.5 21.5q-8 11 -11.5 30t-5.5 36q-1 10 5.5 17.5t16.5 8.5q22 1 49.5 9.5t55 22t53 32t42.5 39.5q8 10 21 8.5t18 -13.5q33 -69 69 -101t78 -37q12 -2 18 -13t0 -22q-12 -22 -26 -35.5t-23 -15.5
q-25 -5 -46.5 3t-39 21.5t-31 30.5t-22.5 31z" />
    <glyph glyph-name="underscore" unicode="_" horiz-adv-x="939" 
d="M828 0l-736 2q-15 0 -27.5 4.5t-18.5 12.5q-12 14 1.5 27.5t40.5 15.5l707 30q15 1 28 -3.5t21 -12.5l29 -31q7 -8 6 -15.5t-7.5 -14.5t-18 -11t-25.5 -4z" />
    <glyph glyph-name="grave" unicode="`" horiz-adv-x="276" 
d="M59 735q-12 6 -16.5 19t1.5 24q18 31 43.5 41.5t53 -4.5t52.5 -58t42 -118q2 -9 -1 -17t-11 -13q-9 -6 -20.5 -3.5t-19.5 13.5q-16 24 -47 58t-77 58z" />
    <glyph glyph-name="a" unicode="a" horiz-adv-x="588" 
d="M633 234q5 7 12 6t12 -7t6 -15.5t-6 -19.5q-7 -11 -27 -43t-51.5 -66.5t-72 -61.5t-88.5 -27q-42 0 -65 24t-33 64q-28 -43 -66.5 -65.5t-86.5 -22.5q-43 0 -79 19.5t-58.5 57.5t-28.5 94t11 128q19 80 50 129.5t65.5 76.5t68.5 36.5t60 9.5q42 0 74.5 -20.5t40.5 -50.5
q11 32 20 52.5t14 25.5q10 10 29.5 14.5t41.5 4t44 -5.5t37 -14t20.5 -22t-4.5 -28q-12 -18 -27.5 -54.5t-29.5 -80.5t-25 -90t-13 -84t6 -62.5t32 -24.5q19 0 38 16.5t35 38t27.5 41.5t16.5 27zM195 117q14 -5 30.5 4t32 28.5t30 47.5t24.5 61t13.5 64t1 56t-11 41.5
t-22.5 20.5t-30.5 -5t-32.5 -28t-30 -47t-24 -61t-13.5 -64.5t-1 -56t11 -41t22.5 -20.5z" />
    <glyph glyph-name="b" unicode="b" horiz-adv-x="542" 
d="M662 476q5 7 12 6t12 -7t6 -16t-6 -20q-4 -6 -13.5 -21.5t-23.5 -35.5t-32.5 -42t-40.5 -41.5t-47.5 -34.5t-53.5 -20q-17 -57 -45 -101.5t-63.5 -75t-75.5 -47t-82 -16.5q-86 0 -131.5 53t-44.5 156q0 108 17.5 215t43 199t55 161.5t53.5 102.5q8 12 27 17t41.5 4
t45.5 -6.5t39 -15t21.5 -22.5t-6.5 -27q-20 -24 -42.5 -68.5t-45 -100.5t-42.5 -120t-35.5 -126.5t-24 -120t-7 -102t14.5 -70.5t41 -26q19 0 36.5 14t32 37t25 52t16.5 60q-21 19 -32.5 46.5t-14.5 59t2 63.5t17.5 59t32 46t45.5 25q25 6 47.5 -7.5t38 -45t21 -81
t-3.5 -115.5q30 5 57.5 22.5t51.5 43.5q11 12 20.5 26t17.5 27t14 22.5t9 14.5z" />
    <glyph glyph-name="c" unicode="c" horiz-adv-x="484" 
d="M429 325q-10 -26 -26.5 -37.5t-34.5 -12t-35.5 8.5t-28.5 24.5t-13.5 35.5t8.5 42q9 18 13.5 35.5t5 32.5t-3 25t-9.5 13q-12 6 -28 -1t-32.5 -29t-33.5 -59.5t-31 -92.5q-30 -115 0.5 -177.5t105.5 -62.5q19 0 37.5 3t37 12t38.5 25t43 42q20 23 34.5 48.5t20.5 33.5
q5 7 12 6t12 -7t6 -15.5t-6 -19.5q-5 -8 -18 -29t-33 -47q-18 -23 -39.5 -45t-48.5 -39t-59 -27.5t-71 -10.5q-70 0 -122 21t-84 60.5t-42 97t5 131.5t48 129.5t77 91t95 48.5t102 1q35 -8 62.5 -28.5t42.5 -52.5t14.5 -76t-21.5 -98z" />
    <glyph glyph-name="d" unicode="d" horiz-adv-x="590" 
d="M632 234q5 7 12 6t12 -7t6 -15.5t-6 -19.5q-7 -11 -27 -43t-51.5 -66.5t-72 -61.5t-88.5 -27q-39 0 -61.5 25t-32.5 68q-56 -93 -156 -93q-43 0 -79 19.5t-58.5 57.5t-28.5 94t11 128q19 80 50 129.5t65.5 76.5t68.5 36.5t60 9.5q35 0 63 -13.5t42 -35.5q18 73 38 142
t38.5 123t33 88.5t19.5 39.5q10 10 29.5 14.5t41.5 4t44 -5.5t37 -14t20.5 -22t-4.5 -28q-9 -14 -25.5 -52.5t-36.5 -92.5t-40.5 -118.5t-38 -130t-29.5 -126.5t-14.5 -108.5t7 -76t34.5 -28.5q19 0 38 16.5t35 38t27.5 41.5t16.5 27zM195 117q14 -5 30.5 4t32 28.5t30 47.5
t24.5 61t13.5 64t1 56t-11 41.5t-22.5 20.5t-30.5 -5t-32.5 -28t-30 -47t-24 -61t-13.5 -64.5t-1 -56t11 -41t22.5 -20.5z" />
    <glyph glyph-name="e" unicode="e" horiz-adv-x="484" 
d="M497 234q5 7 12 6t12 -7t6 -15.5t-6 -19.5q-5 -8 -18 -29t-33 -47q-18 -23 -39.5 -45t-48.5 -39t-59 -27.5t-71 -10.5q-70 0 -122 21t-84 60.5t-42 97t5 131.5t48 129.5t77 91t95 48.5t102 1q35 -8 62.5 -28.5t42.5 -52.5t14.5 -76t-21.5 -98q-20 -50 -48 -82.5
t-59.5 -51.5t-64.5 -25t-62 -3q-16 3 -26 7q9 -49 39 -74.5t78 -25.5q19 0 37.5 3t37 12t38.5 25t43 42q20 23 34.5 48.5t20.5 33.5zM305 492q-12 6 -28 -1t-32.5 -29t-33.5 -59.5t-31 -92.5q-7 -30 -12 -59q3 -2 5.5 -3t5.5 -2q19 -5 38.5 10t37 40.5t31.5 57.5t22 61
t7.5 50.5t-10.5 26.5z" />
    <glyph glyph-name="f" unicode="f" horiz-adv-x="284" 
d="M330 234q5 7 11.5 6t11.5 -7t6 -15.5t-6 -19.5q-5 -9 -20.5 -33.5t-38.5 -53.5q-14 -17 -33.5 -37.5t-43 -39.5t-48.5 -35t-50 -23q-17 -46 -37.5 -85.5t-46 -69.5t-56 -48.5t-67.5 -22.5q-57 -6 -85.5 9.5t-37 41t-0.5 53.5t24 47q61 71 176 94q24 83 43 185.5t34 201.5
h-34q-16 0 -17 13t7 29t21.5 29t27.5 13q5 0 9 -1q14 89 25 152.5t21 79.5q7 12 25.5 17.5t40.5 5t45 -6t39 -15t22 -23t-4 -28.5q-5 -8 -11.5 -26t-13.5 -43t-14.5 -56t-14.5 -65q18 -2 31.5 -2.5t19.5 0.5q12 0 11.5 -13.5t-8 -30t-20 -30.5t-24.5 -14q-5 0 -12 0.5
t-17 1.5q-11 -51 -21 -98t-18 -82q-9 -38 -19 -75t-21 -73q33 14 62 39t64 65q11 12 21 26t18 26.5t14 22.5t9 14zM-119 -177q26 0 48 31.5t41 84.5q-32 -7 -61 -26t-45.5 -39t-14.5 -35.5t32 -15.5z" />
    <glyph glyph-name="g" unicode="g" horiz-adv-x="555" 
d="M600 234q5 7 12 6t12 -7t6 -15.5t-6 -19.5q-6 -9 -21.5 -33.5t-38.5 -53.5q-13 -17 -32 -36.5t-40.5 -38t-45.5 -34t-48 -24.5q-18 -46 -40.5 -85.5t-49 -69.5t-58 -49.5t-68.5 -23.5q-57 -6 -85.5 9.5t-37 41t-0.5 53.5t24 47q62 74 181 95q3 11 6 21t5 21
q-46 -38 -108 -38q-43 0 -79 19.5t-58.5 57.5t-28.5 94t11 128q19 80 50 129.5t65.5 76.5t68.5 36.5t60 9.5q34 0 62 -13.5t43 -36.5q5 21 8.5 35.5t8.5 21.5q7 12 25.5 17.5t40.5 5t45 -6.5t39 -15.5t22 -23t-4 -28.5q-11 -15 -20.5 -48t-20 -76.5t-21 -94t-22.5 -99.5
q-9 -36 -19 -72.5t-21 -71.5q30 14 56.5 38.5t60.5 61.5q11 12 20.5 26t17.5 26.5t14 22.5t9 14zM194 117q14 -5 30.5 4t32 28.5t30 47.5t24.5 61t13.5 64t1 56t-11 41.5t-22.5 20.5t-30.5 -5t-32 -28t-30 -47t-24.5 -61t-13.5 -64.5t-1 -56t11 -41t22.5 -20.5zM151 -177
q29 0 52 32t43 85q-33 -6 -63.5 -25t-48 -39.5t-16 -36.5t32.5 -16z" />
    <glyph glyph-name="h" unicode="h" horiz-adv-x="533" 
d="M578 234q5 7 12 6t12 -7t6 -15.5t-6 -19.5q-7 -11 -27 -43t-51.5 -66.5t-72 -61.5t-88.5 -27q-34 0 -54.5 15t-30.5 41t-11 61t3.5 74t13 80.5t18.5 81.5q3 13 5.5 26t2.5 23t-3.5 16.5t-11.5 6.5q-15 0 -37 -28t-44.5 -72.5t-43 -98.5t-32.5 -106q-2 -22 -3 -44.5
t-3 -45.5q-1 -17 -13 -23.5t-22 -6.5q-36 0 -56 16.5t-29.5 45.5t-11 70t1.5 91q6 112 24.5 221.5t43.5 201t52.5 157t50.5 88.5q10 10 29.5 14.5t41.5 4.5t44 -5t37 -14t20.5 -22t-4.5 -28q-24 -35 -49.5 -89t-49.5 -123.5t-45.5 -153t-36.5 -179.5q23 52 51.5 101t59 87.5
t61.5 61.5t59 23q41 0 62.5 -21.5t29 -55t3.5 -75.5t-16 -84q-3 -10 -9.5 -30.5t-13 -45t-11.5 -50.5t-5 -47.5t6.5 -35t23.5 -13.5q19 0 38 16.5t35 38t27.5 41.5t16.5 27z" />
    <glyph glyph-name="i" unicode="i" horiz-adv-x="296" 
d="M342 234q5 7 11.5 6t11.5 -7t6 -15.5t-6 -19.5q-7 -11 -27 -43t-51 -66.5t-72 -61.5t-89 -27q-53 0 -77 39t-28 98.5t7 129.5t27.5 132t33.5 106.5t25 52.5q10 10 29 14.5t41.5 4t44.5 -5.5t37 -14t20.5 -22t-4.5 -28q-12 -18 -28 -54.5t-30 -80.5t-25 -90t-13 -84
t6 -62.5t32 -24.5q19 0 38 16.5t35 38t28 41.5t17 27zM263 630q-23 -4 -42.5 1t-34 16.5t-23 28.5t-8.5 38t8.5 41.5t23 37t34 28t42.5 15.5q45 8 76.5 -16.5t31.5 -67.5q0 -21 -8.5 -41t-23 -36.5t-34.5 -28.5t-42 -16z" />
    <glyph glyph-name="j" unicode="j" horiz-adv-x="323" 
d="M350 234q5 7 11.5 6t11.5 -7t6 -15.5t-6 -19.5q-5 -9 -20.5 -33.5t-38.5 -53.5q-14 -18 -34.5 -39t-44.5 -40.5t-50 -35t-51 -22.5q-18 -47 -40.5 -86t-49.5 -68t-59.5 -47.5t-72.5 -22.5q-57 -6 -85.5 9.5t-37 41t-0.5 53.5t24 47q62 74 181 95q15 50 27 108.5t22 117
t19 114t16.5 101t15 77.5t14.5 44t25.5 17.5t40.5 5t45 -6.5t39 -15.5t22 -23t-4 -28.5q-11 -15 -21.5 -54.5t-21.5 -90t-22.5 -107t-23.5 -105.5q-7 -29 -14.5 -57t-16.5 -54q36 13 65.5 38.5t66.5 67.5q11 12 21 26t18 26.5t14 22.5t9 14zM-119 -177q29 0 52 32t43 85
q-33 -6 -63.5 -25t-48 -39.5t-16 -36.5t32.5 -16zM234 642q-22 -4 -41.5 1t-34.5 16.5t-23.5 28.5t-8.5 38t8.5 41.5t23.5 37t34.5 28t41.5 15.5q45 8 76.5 -16.5t31.5 -67.5q0 -21 -8.5 -41t-23 -36.5t-34.5 -28.5t-42 -16z" />
    <glyph glyph-name="k" unicode="k" horiz-adv-x="533" 
d="M578 234q5 7 12 6t12 -7t6 -15.5t-6 -19.5q-7 -11 -27 -43t-51.5 -66.5t-72 -61.5t-88.5 -27q-31 0 -51 13t-31 34t-12.5 49t5.5 58q3 12 7 26.5t6 27t0 21t-12 8.5q-16 0 -36.5 -9.5t-40.5 -31.5t-37.5 -57.5t-27.5 -87.5v-10.5t-1 -10.5q-1 -17 -13 -23.5t-22 -6.5
q-36 0 -56 16.5t-29.5 45.5t-11 70t1.5 91q6 112 24.5 221.5t43.5 201t52.5 157t50.5 88.5q10 10 29.5 14.5t41.5 4.5t44 -5t37 -14t20.5 -22t-4.5 -28q-44 -66 -91.5 -191.5t-79.5 -296.5q23 42 50.5 82t58 71.5t63 51t64.5 19.5q25 0 40.5 -16.5t21 -36t1 -35.5t-17.5 -16
q-68 0 -122.5 -42.5t-108.5 -126.5q35 36 74.5 56.5t77.5 20.5q51 0 68.5 -29t13.5 -77q-2 -21 -9 -49.5t-11 -54t0.5 -43t26.5 -17.5q19 0 38 16.5t35 38t27.5 41.5t16.5 27z" />
    <glyph glyph-name="l" unicode="l" horiz-adv-x="293" 
d="M361 844q-9 -14 -25.5 -52.5t-36.5 -92.5t-40.5 -118.5t-38 -130t-29.5 -126.5t-14.5 -108.5t7 -76t34.5 -28.5q19 0 38 16.5t35 38t27.5 41.5t16.5 27t12 6t12 -7t6 -15.5t-6 -19.5q-7 -11 -27 -43t-51.5 -66.5t-72 -61.5t-88.5 -27t-71.5 37t-29 98t3.5 139.5t26 161
t39.5 162.5t44 144t38 105.5t22.5 47.5q10 10 29.5 14.5t41.5 4t44 -5.5t37 -14t20.5 -22t-4.5 -28z" />
    <glyph glyph-name="m" unicode="m" horiz-adv-x="814" 
d="M860 234q5 7 11.5 6t11.5 -7t6 -15.5t-6 -19.5q-7 -11 -27 -43t-51 -66.5t-71.5 -61.5t-88.5 -27q-52 0 -73.5 33t-23.5 84t9.5 113.5t26.5 122.5q3 13 5 26t2 23t-3.5 16.5t-11.5 6.5q-14 0 -32.5 -22t-38 -57.5t-38.5 -81t-33 -92.5q-9 -35 -15.5 -71t-8.5 -71
q-1 -17 -13 -23.5t-22 -6.5q-52 0 -73.5 33t-23.5 84t9.5 113.5t26.5 122.5q3 13 5 26t2 23t-3.5 16.5t-11.5 6.5q-16 0 -39 -30t-46 -77t-43.5 -104t-31.5 -110q-4 -37 -6 -74q-1 -17 -13 -23.5t-22 -6.5q-36 0 -58 18t-33.5 49t-13.5 71.5t3 84.5q6 55 19 112t27.5 104
t28 79.5t19.5 39.5q10 10 29.5 14.5t41.5 4t44 -5.5t37 -14t20.5 -22t-4.5 -28q-13 -19 -29.5 -57t-33.5 -89q22 42 47.5 80t51.5 66.5t52 45t50 16.5q32 0 52.5 -13.5t31 -36.5t12 -53t-2.5 -63q21 35 43 65.5t45 53t45.5 35t43.5 12.5q40 0 62 -21.5t29.5 -55t3 -75.5
t-16.5 -84q-3 -10 -9 -30.5t-12.5 -45t-11.5 -50.5t-5 -47.5t6.5 -35t22.5 -13.5q19 0 38 16.5t35 38t28 41.5t17 27z" />
    <glyph glyph-name="n" unicode="n" horiz-adv-x="544" 
d="M590 234q5 7 11.5 6t11.5 -7t6 -15.5t-6 -19.5q-7 -11 -27 -43t-51 -66.5t-71.5 -61.5t-88.5 -27q-52 0 -73.5 33t-23.5 84t9.5 113.5t26.5 122.5q3 13 5 26t2 23t-3.5 16.5t-11.5 6.5q-16 0 -39 -30t-46 -77t-43.5 -104t-31.5 -110q-2 -18 -3.5 -37t-2.5 -37
q-1 -17 -13 -23.5t-22 -6.5q-36 0 -58 18t-33.5 49t-13.5 71.5t3 84.5q6 55 19 112t27.5 104t28 79.5t19.5 39.5q10 10 29.5 14.5t41.5 4t44 -5.5t37 -14t20.5 -22t-4.5 -28q-13 -19 -29.5 -57t-33.5 -89q22 42 47.5 80t51.5 66.5t52 45t50 16.5q40 0 62 -21.5t29.5 -55
t3 -75.5t-16.5 -84q-3 -10 -9 -30.5t-12.5 -45t-11.5 -50.5t-5 -47.5t6.5 -35t22.5 -13.5q19 0 38 16.5t35 38t28 41.5t17 27z" />
    <glyph glyph-name="o" unicode="o" horiz-adv-x="513" 
d="M634 476q5 7 11.5 6t11.5 -7t6 -16t-6 -20q-6 -9 -24 -37.5t-45 -61t-63 -60.5t-78 -36q-17 -57 -45.5 -101.5t-63.5 -75t-75.5 -47t-82.5 -16.5q-50 0 -87.5 25t-60.5 67.5t-29.5 98t5.5 115.5q10 50 32.5 97t49.5 83t56 58t53 22q14 0 26 -12.5t19 -30t7.5 -35.5
t-7.5 -29q-17 -23 -35.5 -60t-32.5 -93q-9 -35 -13.5 -71t-1.5 -65t14 -48t34 -19q13 0 27.5 14t28 37.5t25 53t18.5 60.5q-30 29 -40 75.5t-2.5 93t32 83t62.5 45.5q25 6 47.5 -7.5t38 -45t21 -81t-3.5 -115.5q30 5 58 22.5t51 43.5q11 12 21 26t18 27t14 22.5t9 14.5z" />
    <glyph glyph-name="p" unicode="p" horiz-adv-x="577" 
d="M697 476q5 7 12 6t12 -7t6 -16t-6 -20q-6 -9 -24 -37.5t-45.5 -60.5t-63 -60t-77.5 -37q-16 -57 -41.5 -101.5t-58.5 -75t-71.5 -47t-80.5 -16.5t-69 23t-41 65q-11 -46 -22.5 -112t-15.5 -147q-1 -17 -13 -23.5t-22 -6.5q-36 0 -57 17t-32 45t-13 63.5t1 72.5
q5 64 16.5 124.5t24.5 117.5q14 58 29.5 109.5t31.5 92.5t31 70t29 43q10 10 29.5 14.5t41.5 4t44 -5.5t37 -14t20.5 -22t-4.5 -28q-39 -56 -78 -155q-16 -46 -21 -90t0 -78.5t19.5 -55.5t38.5 -21q19 0 36 14t31.5 37t25.5 52t17 60q-21 19 -32.5 46.5t-14.5 59t2 63.5
t17.5 59t32 46t45.5 25q24 6 46.5 -7.5t38 -45t21 -81t-3.5 -115.5q30 5 58 22.5t52 43.5q11 12 20.5 26t17.5 27t14 22.5t9 14.5z" />
    <glyph glyph-name="q" unicode="q" horiz-adv-x="575" 
d="M621 234q5 7 11.5 6t11.5 -7t6 -15.5t-6 -19.5q-6 -10 -24 -39t-47 -62q-12 -14 -28.5 -29.5t-36 -30.5t-42 -28t-45.5 -22q-5 -34 -9.5 -72.5t-6.5 -81.5q-1 -17 -13 -23.5t-22 -6.5q-36 0 -57.5 17t-32 45t-12.5 63.5t1 72.5q1 8 1.5 17t1.5 17q-46 -35 -105 -35
q-43 0 -79 19.5t-58.5 57.5t-28.5 94t11 128q19 80 50 129.5t65.5 76.5t68.5 36.5t60 9.5q25 0 48 -8t39 -22t24 -32t5 -37v-2q16 39 30.5 66.5t28.5 41.5q10 10 29.5 14.5t41.5 4t44 -5.5t37 -14t20.5 -22t-4.5 -28q-38 -57 -79.5 -159t-73.5 -241q-3 -14 -6.5 -29
t-7.5 -32q24 7 48 24t44 37t35.5 38.5t22.5 28.5q14 20 24 37t15 23zM195 117q14 -5 30.5 4t32 28.5t30 47.5t24.5 61t13.5 64t1 56t-11 41.5t-22.5 20.5t-30.5 -5t-32.5 -28t-30 -47t-24 -61t-13.5 -64.5t-1 -56t11 -41t22.5 -20.5z" />
    <glyph glyph-name="r" unicode="r" horiz-adv-x="435" 
d="M480 234q5 7 12 6t12 -7t6 -15.5t-6 -19.5q-7 -11 -27 -43t-51.5 -66.5t-72 -61.5t-88.5 -27q-33 0 -52 16t-27.5 43t-8.5 63t5.5 76.5t14.5 83.5t18 84q5 24 -4.5 38.5t-26.5 25.5q-21 -51 -50.5 -111t-63.5 -119q-8 -14 -16.5 -16.5t-14 2.5t-7 14.5t3.5 18.5
q30 55 54.5 117.5t34.5 122.5q-14 8 -26 18t-17 24q-9 24 -8 58t10 64.5t25.5 52t38.5 21.5q45 0 67 -43t4 -125q-3 -13 -11 -38q29 -8 59.5 -12.5t56.5 -9.5q25 -4 40 -16.5t22 -28.5t7 -32.5t-4 -28.5q-14 -44 -28 -88.5t-21.5 -81t-3.5 -59.5t27 -23q19 0 38 16.5t35 38
t27.5 41.5t16.5 27z" />
    <glyph glyph-name="s" unicode="s" horiz-adv-x="360" 
d="M394 234q5 7 11.5 6t11.5 -7t6 -15.5t-6 -19.5q-6 -10 -24 -39t-47 -62q-16 -18 -39.5 -39.5t-52 -40t-59.5 -30.5t-62 -12q-24 0 -42 5t-31.5 13.5t-23 19t-16.5 20.5q-13 18 -12 32t7.5 22t16.5 9t15 -5q4 -5 10.5 -14t15 -16t19 -10.5t21.5 1.5q9 4 11 24t-1 48.5
t-8.5 64t-10.5 71.5q-8 -15 -16.5 -30.5t-16.5 -29.5t-16.5 -16.5t-14 2.5t-7 14.5t3.5 18.5q34 61 58 126q-4 70 3.5 133.5t25.5 108t46.5 65t66.5 5.5q19 -8 26 -31t6 -50.5t-6.5 -54.5t-11.5 -42h-1q2 -28 7 -63.5t15 -80.5q16 -69 18.5 -132.5t-12.5 -114.5q10 7 21 18
t21.5 23t19.5 24t15 21q14 20 24 37t15 23z" />
    <glyph glyph-name="t" unicode="t" horiz-adv-x="313" 
d="M358 234q5 7 12 6t12 -7t6 -15.5t-6 -19.5q-7 -11 -27 -43t-51.5 -66.5t-72 -61.5t-88.5 -27q-45 0 -68.5 33t-30.5 86.5t-0.5 122t20.5 139.5q-11 1 -22 1h-22q-18 0 -19.5 13t7.5 29t24.5 29t31.5 13q4 0 8.5 -0.5t10.5 -0.5q13 56 28.5 107.5t29.5 91.5t25 65.5
t16 30.5q10 10 29 14.5t41.5 4t44.5 -5.5t37 -14t20.5 -22t-4.5 -28q-8 -11 -19.5 -35.5t-24.5 -58.5t-26.5 -74.5t-26.5 -83.5q23 -2 40.5 -2.5t25.5 0.5q14 0 13.5 -13.5t-9.5 -30t-23.5 -30.5t-27.5 -14q-15 0 -43 3q-13 -51 -21 -98t-8 -82.5t9.5 -57t31.5 -21.5
q19 0 38 16.5t35 38t27.5 41.5t16.5 27z" />
    <glyph glyph-name="u" unicode="u" horiz-adv-x="573" 
d="M619 234q5 7 11.5 6t11.5 -7t6 -15.5t-6 -19.5q-7 -11 -27 -43t-51 -66.5t-72 -61.5t-89 -27q-47 0 -70.5 30.5t-31.5 79.5q-32 -46 -80.5 -78t-114.5 -32q-53 0 -77 39t-28 98.5t7 129.5t27.5 132t33.5 106.5t25 52.5q10 10 29.5 14.5t41.5 4t44 -5.5t37 -14t20.5 -22
t-4.5 -28q-12 -18 -28 -54.5t-30 -80.5t-25 -90t-13 -84t6 -62.5t32 -24.5q17 0 33 18t29.5 45.5t24.5 59.5t18 61q8 47 20 92t24 81t22 60t16 30q10 10 29.5 14.5t41.5 4t44 -5.5t37 -14t20.5 -22t-4.5 -28q-12 -18 -28 -54.5t-30 -80.5t-25 -90t-13 -84t6 -62.5t32 -24.5
q19 0 38 16.5t35 38t28 41.5t17 27z" />
    <glyph glyph-name="v" unicode="v" horiz-adv-x="542" 
d="M662 476q5 7 12 6t12 -7t6 -16t-6 -20t-26 -40t-48 -63.5t-67 -61t-83 -32.5q-23 -50 -55.5 -94.5t-70 -77.5t-78.5 -52t-81 -19q-59 0 -95 22.5t-55.5 60t-24 86t0 99t16 100.5t24.5 90.5t25 67.5t18 33q10 10 29.5 14.5t41.5 4t44 -5.5t37 -14t20.5 -22t-4.5 -28
q-12 -18 -28 -54.5t-30.5 -80.5t-25 -90.5t-13 -84.5t6 -62.5t32.5 -24.5q12 0 28.5 17.5t33.5 45.5t33 62.5t28 67.5q-15 33 -14 76t15 83t39.5 69.5t59.5 37.5q24 6 45.5 -8.5t33.5 -46.5t12 -81t-18 -113q29 5 57 22.5t52 43.5q11 12 20.5 26t17.5 27t14 22.5t9 14.5z
" />
    <glyph glyph-name="w" unicode="w" horiz-adv-x="839" 
d="M959 476q5 7 12 6t12 -7t6 -16t-6 -20t-26 -40t-48 -63.5t-67 -61t-83 -32.5q-23 -50 -55.5 -94.5t-70 -77.5t-78.5 -52t-81 -19q-73 0 -112 34t-54 88q-16 -25 -36.5 -47t-45.5 -38.5t-55 -26t-65 -9.5q-53 0 -77 39t-28 98.5t7 129.5t27.5 132t33.5 106.5t25 52.5
q10 10 29.5 14.5t41.5 4t44 -5.5t37 -14t20.5 -22t-4.5 -28q-12 -18 -28 -54.5t-30 -80.5t-25 -90t-13 -84t6 -62.5t32 -24.5q14 0 27.5 13t26 34t23 47t18.5 52q4 52 15 103.5t24.5 93.5t26 70t18.5 34q10 10 29.5 14.5t41.5 4t44 -5.5t37 -14t20.5 -22t-4.5 -28
q-12 -18 -28 -54.5t-30.5 -80.5t-25 -90.5t-13 -84.5t6 -62.5t32.5 -24.5q12 0 28.5 17.5t33.5 45.5t33 62.5t28 67.5q-15 33 -14 76t15 83t39.5 69.5t59.5 37.5q24 6 45.5 -8.5t33.5 -46.5t12 -81t-18 -113q29 5 57 22.5t52 43.5q11 12 20.5 26t17.5 27t14 22.5t9 14.5z
" />
    <glyph glyph-name="x" unicode="x" horiz-adv-x="492" 
d="M537 234q5 7 12 6t12 -7t6 -15.5t-6 -19.5q-7 -11 -27 -43t-51.5 -66.5t-72 -61.5t-88.5 -27q-33 0 -61 15.5t-52 42.5q-37 -32 -72.5 -50.5t-67.5 -18.5q-16 0 -28.5 12.5t-18 28t-2 30t19.5 18.5q27 7 55 25t57 44q-14 28 -25 58.5t-20 62.5l-18 -34t-19 -34
q-8 -14 -16.5 -16.5t-14 2.5t-7 14.5t3.5 18.5q15 28 29 57.5t26 59.5q-9 42 -14 80t-6.5 68t0.5 49.5t7 24.5q15 15 46.5 19.5t62 -2t52 -23.5t17.5 -45q-7 -40 -2 -98t20 -115q42 64 72.5 130.5t41.5 119.5q2 11 22 15.5t43 2t42 -11.5t19 -25q-1 -21 -16.5 -59.5
t-41.5 -87t-61.5 -102t-75.5 -102.5q17 -29 36 -46t40 -17q29 0 53 16.5t42 38t30 41.5t17 27z" />
    <glyph glyph-name="y" unicode="y" horiz-adv-x="540" 
d="M586 234q5 7 11.5 6t11.5 -7t6 -15.5t-6 -19.5q-5 -9 -20.5 -33.5t-38.5 -53.5q-13 -17 -32 -36.5t-41 -38t-46 -34t-48 -24.5q-18 -46 -40 -85.5t-48.5 -69.5t-58 -49.5t-68.5 -23.5q-57 -6 -85.5 9.5t-37 41t-0.5 53.5t24 47q62 74 181 95q5 18 9.5 36.5t9.5 38.5
q-31 -32 -71.5 -51.5t-91.5 -19.5q-53 0 -77 39t-28 98.5t7 129.5t27.5 132t33.5 106.5t25 52.5q10 10 29.5 14.5t41.5 4t44 -5.5t37 -14t20.5 -22t-4.5 -28q-12 -18 -28 -54.5t-30 -80.5t-25 -90t-13 -84t6 -62.5t32 -24.5q19 0 36 21.5t31.5 52.5t25.5 66.5t18 64.5
q7 44 13.5 84t12.5 72t11.5 54.5t11.5 31.5q7 12 25.5 17.5t40.5 5t44.5 -6.5t39 -15.5t22.5 -23t-4 -28.5q-11 -15 -21 -48t-20 -76.5t-20.5 -94t-22.5 -99.5q-9 -36 -19 -72.5t-21 -71.5q29 14 56 38.5t60 61.5q11 12 21 26t18 26.5t14 22.5t9 14zM137 -177q29 0 52 32
t43 85q-33 -6 -63.5 -25t-48 -39.5t-16 -36.5t32.5 -16z" />
    <glyph glyph-name="z" unicode="z" horiz-adv-x="493" 
d="M504 234q5 7 12 6t12 -7t6 -15.5t-6 -19.5q-6 -9 -21.5 -33.5t-38.5 -53.5q-23 -27 -48 -48q0 -12 -3 -24q-14 -58 -46 -108t-76 -88t-98 -62.5t-111 -30.5t-86 10t-37 41.5t-0.5 53.5t24.5 46q22 24 51.5 40t64 28.5t72.5 24t76 25.5q8 23 10 43.5t-4 36.5t-20.5 25
t-39.5 10q-23 -2 -41.5 10.5t-29 29.5t-12 34t9.5 25q41 30 75.5 71t58 79.5t33 68t1.5 37.5q-10 9 -25.5 0t-34 -30.5t-39.5 -52.5t-42.5 -66.5t-42.5 -71.5t-39 -68q-8 -14 -16.5 -16.5t-14 2.5t-7 14.5t3.5 18.5q30 60 63 129.5t72.5 129.5t88 99.5t109.5 39.5
q40 0 69.5 -24t29.5 -73q0 -33 -14 -73t-36.5 -81t-50.5 -80.5t-56 -70.5q35 -12 64.5 -37t40.5 -63q13 12 28 30q10 12 20 26t18 26.5t14 22.5t9 14zM55 -177q21 0 44 11t45 29.5t42 43t36 50.5q-53 -19 -99.5 -35.5t-79.5 -42.5q-23 -18 -21.5 -37t33.5 -19z" />
    <glyph glyph-name="braceleft" unicode="{" horiz-adv-x="833" 
d="M440 -50q-99 0 -176 28t-128.5 85t-76 143t-18.5 202q1 17 -1 39.5t-7 44t-13 38.5t-20 23q16 5 30.5 20t26.5 34.5t20.5 39.5t12.5 35q32 116 78 195t111 127.5t152 69t201 19.5l-16 -50q-59 0 -109.5 -14.5t-93 -53t-78 -107t-64.5 -176.5q-4 -15 -14.5 -36
t-23.5 -41.5t-27 -37.5t-26 -24q11 -9 19 -28.5t12.5 -43.5t5.5 -48.5t-1 -43.5q-10 -108 1.5 -184.5t41.5 -125t78 -71t113 -22.5z" />
    <glyph glyph-name="bar" unicode="|" horiz-adv-x="322" 
d="M112 -198q-13 4 -20.5 14.5t-6.5 24.5q3 37 8.5 115.5t12.5 183t13.5 229t12 254.5t8 259t1.5 243q-1 15 10 26t26 11l56 2q17 0 28 -11t10 -27q-2 -74 -7 -161t-12 -180.5t-15.5 -191t-17.5 -191.5t-18 -182t-17 -162t-14.5 -132t-10.5 -93q-2 -17 -16.5 -26.5
t-30.5 -4.5z" />
    <glyph glyph-name="braceright" unicode="}" horiz-adv-x="833" 
d="M192 1093q99 0 176 -28t128.5 -84.5t76 -142.5t18.5 -202q-1 -17 1 -39.5t7 -44t13 -38.5t20 -23q-16 -5 -30.5 -20t-26.5 -34.5t-20 -39.5t-12 -35q-32 -116 -78.5 -195.5t-111.5 -128t-152 -69.5t-201 -19l16 50q59 0 109.5 14.5t93 53t78 107t64.5 176.5q4 16 14.5 37
t23.5 41.5t27 37t26 24.5q-11 9 -18.5 28.5t-12 43.5t-6 48.5t0.5 42.5q10 108 -1 185t-41.5 125.5t-79 71t-112.5 22.5z" />
    <glyph glyph-name="asciitilde" unicode="~" horiz-adv-x="614" 
d="M562 316q-3 -20 -11 -39.5t-21.5 -35.5t-33.5 -26t-49 -11q-36 -1 -64.5 9t-56 22t-57 22t-66.5 9q-26 -1 -50.5 -5t-44.5 -9q-9 -2 -16 2.5t-10.5 12.5t-3.5 17.5t5 18.5q8 13 19 26t25 23t32 16.5t40 7.5q42 1 72 -7t55.5 -17.5t52 -18t62.5 -7.5q20 1 42.5 6.5
t41.5 18.5q7 5 14.5 4t13 -6t8.5 -14t1 -19z" />
    <glyph glyph-name="yen" unicode="&#xa5;" horiz-adv-x="474" 
d="M446 546q17 -14 19 -36t-12 -40l-148 -182q25 0 45 3q6 1 8 -9.5t0 -24.5t-7.5 -23.5t-10.5 -8.5q-31 6 -75 9l-7 -32q21 0 38.5 0.5t30.5 2.5q6 1 8.5 -9.5t0.5 -24.5t-7.5 -23.5t-11.5 -8.5q-14 3 -32 5t-38 4l-20 -99q-3 -21 -19 -35t-37 -14h-41q-26 0 -42.5 19
t-12.5 44l41 93q-19 1 -36 1h-31q-6 0 -8 10t0 24q2 12 7 20.5t10 7.5q17 -2 38.5 -4.5t44.5 -4.5l14 31q-24 1 -45.5 1.5t-38.5 0.5q-5 0 -7.5 10t-0.5 24q2 12 7.5 20.5t10.5 7.5q17 -2 38.5 -5t45.5 -5l-119 170q-8 20 0 41t28 30l42 20q22 11 44.5 2t31.5 -32l45 -123
l101 154q14 21 39 24.5t45 -13.5l24 -22v0z" />
    <glyph glyph-name="dieresis" unicode="&#xa8;" horiz-adv-x="481" 
d="M194 719q-8 -38 -35.5 -64t-58.5 -26q-32 0 -48.5 26t-8.5 64q4 18 13.5 34.5t22 28.5t28 19t30.5 7q32 0 48.5 -26t8.5 -63zM438 719q-8 -38 -35 -64t-59 -26q-31 0 -47.5 26t-8.5 64q8 37 35 63t59 26q31 0 47.5 -26t8.5 -63z" />
    <glyph glyph-name="copyright" unicode="&#xa9;" horiz-adv-x="1170" 
d="M559 204q-64 0 -109 24t-70.5 66t-31 98.5t8.5 121.5q15 66 42 115.5t61.5 82t73 49t76.5 16.5q32 0 59.5 -11t46 -30t25.5 -46t-1 -58q-10 -38 -32.5 -53t-44.5 -15.5t-36 9.5t-7 22t13.5 30.5t8.5 36.5t-2 31t-19 13q-11 0 -32.5 -10t-45 -34.5t-45.5 -66.5t-34 -105
q-9 -46 -5 -88.5t20.5 -75t45 -50.5t67.5 -15q21 2 36 14t26 29.5t19 37t15.5 36t15 27.5t17.5 11q14 0 25.5 -6t19.5 -14t11 -17t1 -16q-5 -17 -23 -44t-46.5 -52.5t-66.5 -44t-83 -18.5zM612 981q101 0 186.5 -38.5t145.5 -105.5t89.5 -156t19.5 -191
q-10 -101 -57.5 -190.5t-120.5 -156t-166 -105t-195 -38.5t-187 38.5t-145 105t-90 156t-20 190.5q10 102 57.5 191t121 156t166.5 105.5t195 38.5zM923 456q20 90 10.5 172t-43 145.5t-89 104t-127.5 48.5q-72 7 -143.5 -20.5t-132 -81.5t-106 -130t-65.5 -166
q-21 -90 -11.5 -171.5t43 -145.5t89.5 -105t128 -48q72 -8 143 19.5t132 81.5t106 130.5t66 166.5z" />
    <glyph glyph-name="degree" unicode="&#xb0;" horiz-adv-x="328" 
d="M185 864q25 0 45.5 -11t34.5 -30t19.5 -44.5t1.5 -53.5q-4 -29 -17.5 -54.5t-33 -44t-43.5 -29.5t-49 -11t-45.5 11t-34.5 29.5t-20 44t-1 54.5q4 28 17.5 53.5t33 44.5t43 30t49.5 11zM197 714q14 32 13.5 58t-14.5 31t-32.5 -15t-32.5 -52q-14 -33 -13.5 -59t14.5 -31
t32.5 15t32.5 53z" />
    <glyph glyph-name="acute" unicode="&#xb4;" horiz-adv-x="275" 
d="M216 737q-45 -24 -76 -58t-48 -58q-7 -11 -18.5 -13.5t-21.5 3.5q-7 5 -10 13t-1 17q16 75 41.5 118t52.5 58t53 4.5t43 -41.5q6 -11 1.5 -24t-16.5 -19z" />
    <glyph glyph-name="cedilla" unicode="&#xb8;" horiz-adv-x="377" 
d="M194 -44q56 -10 82.5 -40.5t12.5 -73.5q-13 -40 -57.5 -75.5t-104.5 -57.5q-17 -6 -32.5 -5.5t-26.5 5.5t-16 14.5t1 20.5l11 22q8 17 36 27q45 14 74 31.5t27 31.5q-2 10 -18.5 14t-43.5 2t-42 10.5t-7 29.5l8 16q1 1 1.5 2t1.5 2l74 125h84l-65 -101v0z" />
    <glyph glyph-name="Agrave" unicode="&#xc0;" horiz-adv-x="739" 
d="M784 233q5 7 11.5 6t11.5 -7t6 -15.5t-5 -19.5q-6 -11 -25.5 -43t-49.5 -66.5t-70 -61.5t-88 -27q-32 0 -53 17t-33.5 47.5t-17.5 72.5t-3 91q-5 -11 -20 -42t-42.5 -63.5t-68 -58t-94.5 -25.5q-66 0 -110 37t-67 98t-25.5 139.5t15.5 162.5q27 122 73.5 206.5t100.5 137
t108.5 75.5t98.5 23q36 0 62.5 -10.5t45 -27t28.5 -37t13 -41.5q14 39 23.5 63.5t13.5 29.5q10 10 29.5 14.5t41.5 4t44 -5.5t37.5 -14t21.5 -22t-4 -28q-9 -14 -24.5 -52.5t-33.5 -92.5t-37.5 -118.5t-35 -130t-26 -126.5t-11.5 -108.5t9 -76t35 -28.5q19 0 38 16.5
t34.5 38t26.5 41.5t16 27zM283 173q23 -7 50.5 11t55.5 54.5t53 88.5t44 115t27 121t5.5 103.5t-16 75.5t-36.5 37t-50.5 -10.5t-55 -54t-53 -89t-44.5 -115.5t-26.5 -120.5t-5 -103.5t15.5 -76t36 -37zM387 1110q-12 6 -16.5 19t1.5 24q18 31 43.5 41.5t53 -4.5t52.5 -58
t42 -118q2 -9 -1 -17t-11 -13q-9 -6 -20.5 -3.5t-19.5 13.5q-16 24 -47 58t-77 58z" />
    <glyph glyph-name="Aacute" unicode="&#xc1;" horiz-adv-x="739" 
d="M784 233q5 7 11.5 6t11.5 -7t6 -15.5t-5 -19.5q-6 -11 -25.5 -43t-49.5 -66.5t-70 -61.5t-88 -27q-32 0 -53 17t-33.5 47.5t-17.5 72.5t-3 91q-5 -11 -20 -42t-42.5 -63.5t-68 -58t-94.5 -25.5q-66 0 -110 37t-67 98t-25.5 139.5t15.5 162.5q27 122 73.5 206.5t100.5 137
t108.5 75.5t98.5 23q36 0 62.5 -10.5t45 -27t28.5 -37t13 -41.5q14 39 23.5 63.5t13.5 29.5q10 10 29.5 14.5t41.5 4t44 -5.5t37.5 -14t21.5 -22t-4 -28q-9 -14 -24.5 -52.5t-33.5 -92.5t-37.5 -118.5t-35 -130t-26 -126.5t-11.5 -108.5t9 -76t35 -28.5q19 0 38 16.5
t34.5 38t26.5 41.5t16 27zM283 173q23 -7 50.5 11t55.5 54.5t53 88.5t44 115t27 121t5.5 103.5t-16 75.5t-36.5 37t-50.5 -10.5t-55 -54t-53 -89t-44.5 -115.5t-26.5 -120.5t-5 -103.5t15.5 -76t36 -37zM668 1114q-45 -24 -76 -58t-48 -58q-7 -11 -18.5 -13.5t-21.5 3.5
q-7 5 -10 13t-1 17q16 75 41.5 118t52.5 58t53 4.5t43 -41.5q6 -11 1.5 -24t-16.5 -19z" />
    <glyph glyph-name="Acircumflex" unicode="&#xc2;" horiz-adv-x="739" 
d="M784 233q5 7 11.5 6t11.5 -7t6 -15.5t-5 -19.5q-6 -11 -25.5 -43t-49.5 -66.5t-70 -61.5t-88 -27q-32 0 -53 17t-33.5 47.5t-17.5 72.5t-3 91q-5 -11 -20 -42t-42.5 -63.5t-68 -58t-94.5 -25.5q-66 0 -110 37t-67 98t-25.5 139.5t15.5 162.5q27 122 73.5 206.5t100.5 137
t108.5 75.5t98.5 23q36 0 62.5 -10.5t45 -27t28.5 -37t13 -41.5q14 39 23.5 63.5t13.5 29.5q10 10 29.5 14.5t41.5 4t44 -5.5t37.5 -14t21.5 -22t-4 -28q-9 -14 -24.5 -52.5t-33.5 -92.5t-37.5 -118.5t-35 -130t-26 -126.5t-11.5 -108.5t9 -76t35 -28.5q19 0 38 16.5
t34.5 38t26.5 41.5t16 27zM283 173q23 -7 50.5 11t55.5 54.5t53 88.5t44 115t27 121t5.5 103.5t-16 75.5t-36.5 37t-50.5 -10.5t-55 -54t-53 -89t-44.5 -115.5t-26.5 -120.5t-5 -103.5t15.5 -76t36 -37zM588 1068q-6 10 -17 11t-19 -7q-20 -20 -46.5 -39t-52.5 -29.5
t-49.5 -9t-36.5 21.5q-8 11 -11.5 30t-5.5 36q-1 10 5.5 17.5t16.5 8.5q22 1 49.5 9.5t55 22t53 32t42.5 39.5q8 10 21 8t18 -13q33 -69 69 -101.5t78 -37.5q12 -2 18 -12.5t0 -21.5q-12 -22 -26 -35.5t-23 -15.5q-25 -5 -46.5 3t-39 21.5t-31 30.5t-22.5 31z" />
    <glyph glyph-name="Atilde" unicode="&#xc3;" horiz-adv-x="739" 
d="M784 233q5 7 11.5 6t11.5 -7t6 -15.5t-5 -19.5q-6 -11 -25.5 -43t-49.5 -66.5t-70 -61.5t-88 -27q-32 0 -53 17t-33.5 47.5t-17.5 72.5t-3 91q-5 -11 -20 -42t-42.5 -63.5t-68 -58t-94.5 -25.5q-66 0 -110 37t-67 98t-25.5 139.5t15.5 162.5q27 122 73.5 206.5t100.5 137
t108.5 75.5t98.5 23q36 0 62.5 -10.5t45 -27t28.5 -37t13 -41.5q14 39 23.5 63.5t13.5 29.5q10 10 29.5 14.5t41.5 4t44 -5.5t37.5 -14t21.5 -22t-4 -28q-9 -14 -24.5 -52.5t-33.5 -92.5t-37.5 -118.5t-35 -130t-26 -126.5t-11.5 -108.5t9 -76t35 -28.5q19 0 38 16.5
t34.5 38t26.5 41.5t16 27zM283 173q23 -7 50.5 11t55.5 54.5t53 88.5t44 115t27 121t5.5 103.5t-16 75.5t-36.5 37t-50.5 -10.5t-55 -54t-53 -89t-44.5 -115.5t-26.5 -120.5t-5 -103.5t15.5 -76t36 -37zM781 1092q-3 -21 -11 -40.5t-21.5 -35.5t-33.5 -25.5t-49 -10.5
q-36 -1 -64.5 8.5t-56 21.5t-57 22t-66.5 9q-26 -1 -50.5 -4.5t-44.5 -8.5q-9 -2 -16 2.5t-10.5 12t-3.5 17t5 18.5q8 13 19 26t25 23.5t32 17t40 6.5q42 1 72 -6.5t55.5 -17.5t52 -18t62.5 -7q20 1 42.5 6t41.5 19q7 5 14.5 4t13 -6.5t8.5 -14t1 -18.5z" />
    <glyph glyph-name="Adieresis" unicode="&#xc4;" horiz-adv-x="739" 
d="M784 233q5 7 11.5 6t11.5 -7t6 -15.5t-5 -19.5q-6 -11 -25.5 -43t-49.5 -66.5t-70 -61.5t-88 -27q-32 0 -53 17t-33.5 47.5t-17.5 72.5t-3 91q-5 -11 -20 -42t-42.5 -63.5t-68 -58t-94.5 -25.5q-66 0 -110 37t-67 98t-25.5 139.5t15.5 162.5q27 122 73.5 206.5t100.5 137
t108.5 75.5t98.5 23q36 0 62.5 -10.5t45 -27t28.5 -37t13 -41.5q14 39 23.5 63.5t13.5 29.5q10 10 29.5 14.5t41.5 4t44 -5.5t37.5 -14t21.5 -22t-4 -28q-9 -14 -24.5 -52.5t-33.5 -92.5t-37.5 -118.5t-35 -130t-26 -126.5t-11.5 -108.5t9 -76t35 -28.5q19 0 38 16.5
t34.5 38t26.5 41.5t16 27zM283 173q23 -7 50.5 11t55.5 54.5t53 88.5t44 115t27 121t5.5 103.5t-16 75.5t-36.5 37t-50.5 -10.5t-55 -54t-53 -89t-44.5 -115.5t-26.5 -120.5t-5 -103.5t15.5 -76t36 -37zM517 1066q-8 -38 -35.5 -64t-58.5 -26q-32 0 -48.5 26t-8.5 64
q4 18 13.5 34.5t22 28.5t28 19t30.5 7q32 0 48.5 -26t8.5 -63zM761 1066q-8 -38 -35 -64t-59 -26q-31 0 -47.5 26t-8.5 64q8 37 35 63t59 26q31 0 47.5 -26t8.5 -63z" />
    <glyph glyph-name="Ccedilla" unicode="&#xc7;" horiz-adv-x="667" 
d="M360 -72q56 -10 82.5 -40.5t12.5 -73.5q-13 -40 -57.5 -75.5t-104.5 -57.5q-17 -6 -32.5 -5.5t-26.5 5.5t-16 14.5t1 20.5l11 22q8 17 36 27q45 14 74 31.5t27 31.5q-2 10 -18.5 14t-43.5 2t-42 10.5t-7 29.5l8 16l3 4l41 71q-83 15 -140.5 60t-89 112t-36.5 152t16 181
q24 110 69.5 192t102.5 136.5t121 81.5t126 27q53 0 98.5 -18t76.5 -50t43 -76t-1 -96q-11 -42 -32 -66.5t-46 -36t-50 -11t-44 7.5t-27.5 19t-0.5 25q12 19 22.5 50.5t14.5 61.5t-3.5 51.5t-31.5 21.5q-19 0 -54 -16.5t-74 -57.5t-75.5 -110.5t-57.5 -175.5
q-15 -76 -8 -144.5t34 -121t74 -83.5t113 -31q62 0 109 24.5t79.5 55t51 58.5t23.5 35q4 7 11 6.5t12.5 -6.5t7 -16t-4.5 -20q-11 -19 -38.5 -57t-70.5 -76.5t-101.5 -67.5t-133.5 -29h-8l-25 -39v0z" />
    <glyph glyph-name="Egrave" unicode="&#xc8;" horiz-adv-x="625" 
d="M669 233q4 7 11 6.5t12.5 -6.5t6.5 -16t-5 -20q-11 -19 -38 -57t-70 -76.5t-101.5 -67.5t-133.5 -29q-63 0 -118 15t-96.5 46t-66.5 79t-29 115q-4 56 11 106.5t43.5 91.5t68 71t84.5 44q-25 14 -40 40t-21 57.5t-3 64.5t13 62q15 40 42 70t60 49.5t69.5 29t70.5 9.5
q57 0 101.5 -19.5t74 -52.5t40.5 -76.5t1 -91.5q-9 -43 -29.5 -67.5t-45.5 -36t-50.5 -11t-44.5 8t-28.5 19.5t-1.5 25q12 19 22 46.5t13 54.5t-4 50t-29 34q-12 5 -26 4.5t-28 -8t-26.5 -21t-21.5 -33.5q-8 -18 -12.5 -46t-2.5 -62.5t13 -74t34 -81.5q4 -11 6.5 -20.5
t-11.5 -16.5q-22 -10 -50 -29.5t-52 -49.5t-39.5 -69.5t-12.5 -89.5q2 -38 17.5 -65.5t40 -44.5t55.5 -25t64 -8q62 0 109 24.5t79.5 55t51 58.5t23.5 35zM258 1121q-12 6 -16.5 19t1.5 24q18 31 43.5 41.5t53 -4.5t52.5 -58t42 -118q2 -9 -1 -17t-11 -13q-9 -6 -20.5 -3.5
t-19.5 13.5q-16 24 -47 58t-77 58z" />
    <glyph glyph-name="Eacute" unicode="&#xc9;" horiz-adv-x="625" 
d="M669 233q4 7 11 6.5t12.5 -6.5t6.5 -16t-5 -20q-11 -19 -38 -57t-70 -76.5t-101.5 -67.5t-133.5 -29q-63 0 -118 15t-96.5 46t-66.5 79t-29 115q-4 56 11 106.5t43.5 91.5t68 71t84.5 44q-25 14 -40 40t-21 57.5t-3 64.5t13 62q15 40 42 70t60 49.5t69.5 29t70.5 9.5
q57 0 101.5 -19.5t74 -52.5t40.5 -76.5t1 -91.5q-9 -43 -29.5 -67.5t-45.5 -36t-50.5 -11t-44.5 8t-28.5 19.5t-1.5 25q12 19 22 46.5t13 54.5t-4 50t-29 34q-12 5 -26 4.5t-28 -8t-26.5 -21t-21.5 -33.5q-8 -18 -12.5 -46t-2.5 -62.5t13 -74t34 -81.5q4 -11 6.5 -20.5
t-11.5 -16.5q-22 -10 -50 -29.5t-52 -49.5t-39.5 -69.5t-12.5 -89.5q2 -38 17.5 -65.5t40 -44.5t55.5 -25t64 -8q62 0 109 24.5t79.5 55t51 58.5t23.5 35zM609 1110q-45 -24 -76 -58t-48 -58q-7 -11 -18.5 -13.5t-21.5 3.5q-7 5 -10 13t-1 17q16 75 41.5 118t52.5 58t53 4.5
t43 -41.5q6 -11 1.5 -24t-16.5 -19z" />
    <glyph glyph-name="Ecircumflex" unicode="&#xca;" horiz-adv-x="625" 
d="M669 233q4 7 11 6.5t12.5 -6.5t6.5 -16t-5 -20q-11 -19 -38 -57t-70 -76.5t-101.5 -67.5t-133.5 -29q-63 0 -118 15t-96.5 46t-66.5 79t-29 115q-4 56 11 106.5t43.5 91.5t68 71t84.5 44q-25 14 -40 40t-21 57.5t-3 64.5t13 62q15 40 42 70t60 49.5t69.5 29t70.5 9.5
q57 0 101.5 -19.5t74 -52.5t40.5 -76.5t1 -91.5q-9 -43 -29.5 -67.5t-45.5 -36t-50.5 -11t-44.5 8t-28.5 19.5t-1.5 25q12 19 22 46.5t13 54.5t-4 50t-29 34q-12 5 -26 4.5t-28 -8t-26.5 -21t-21.5 -33.5q-8 -18 -12.5 -46t-2.5 -62.5t13 -74t34 -81.5q4 -11 6.5 -20.5
t-11.5 -16.5q-22 -10 -50 -29.5t-52 -49.5t-39.5 -69.5t-12.5 -89.5q2 -38 17.5 -65.5t40 -44.5t55.5 -25t64 -8q62 0 109 24.5t79.5 55t51 58.5t23.5 35zM484 1067q-6 10 -17 11t-19 -7q-20 -20 -46.5 -39t-52.5 -29.5t-49.5 -9t-36.5 21.5q-8 11 -11.5 30t-5.5 36
q-1 10 5.5 17.5t16.5 8.5q22 1 49.5 9.5t55 22t53 32t42.5 39.5q8 10 21 8t18 -13q33 -69 69 -101.5t78 -37.5q12 -2 18 -12.5t0 -21.5q-12 -22 -26 -35.5t-23 -15.5q-25 -5 -46.5 3t-39 21.5t-31 30.5t-22.5 31z" />
    <glyph glyph-name="Edieresis" unicode="&#xcb;" horiz-adv-x="625" 
d="M669 233q4 7 11 6.5t12.5 -6.5t6.5 -16t-5 -20q-11 -19 -38 -57t-70 -76.5t-101.5 -67.5t-133.5 -29q-63 0 -118 15t-96.5 46t-66.5 79t-29 115q-4 56 11 106.5t43.5 91.5t68 71t84.5 44q-25 14 -40 40t-21 57.5t-3 64.5t13 62q15 40 42 70t60 49.5t69.5 29t70.5 9.5
q57 0 101.5 -19.5t74 -52.5t40.5 -76.5t1 -91.5q-9 -43 -29.5 -67.5t-45.5 -36t-50.5 -11t-44.5 8t-28.5 19.5t-1.5 25q12 19 22 46.5t13 54.5t-4 50t-29 34q-12 5 -26 4.5t-28 -8t-26.5 -21t-21.5 -33.5q-8 -18 -12.5 -46t-2.5 -62.5t13 -74t34 -81.5q4 -11 6.5 -20.5
t-11.5 -16.5q-22 -10 -50 -29.5t-52 -49.5t-39.5 -69.5t-12.5 -89.5q2 -38 17.5 -65.5t40 -44.5t55.5 -25t64 -8q62 0 109 24.5t79.5 55t51 58.5t23.5 35zM464 1056q-8 -38 -35.5 -64t-58.5 -26q-32 0 -48.5 26t-8.5 64q4 18 13.5 34.5t22 28.5t28 19t30.5 7q32 0 48.5 -26
t8.5 -63zM708 1056q-8 -38 -35 -64t-59 -26q-31 0 -47.5 26t-8.5 64q8 37 35 63t59 26q31 0 47.5 -26t8.5 -63z" />
    <glyph glyph-name="Igrave" unicode="&#xcc;" horiz-adv-x="532" 
d="M645 861q-32 -17 -58 -56t-46.5 -90t-36.5 -109.5t-27.5 -113.5t-19.5 -102t-13 -75t-13 -63.5t-20.5 -71.5t-31 -70t-44.5 -61t-60.5 -43t-78.5 -16q-60 0 -96 22.5t-50 56.5q-3 9 -1.5 17t6.5 14t13 9t17 1q8 -2 13.5 -7t7.5 -13q5 -17 18 -26.5t27 -9.5q30 0 53 30
t41 77t31.5 106t23.5 117t17.5 109t14.5 83q10 48 21 89t23 76q-40 -10 -78.5 -29.5t-68.5 -44.5t-46 -54t-11 -57q2 -12 -6 -21.5t-21 -7.5q-19 3 -41 12.5t-40 32.5q-18 24 -22 51t5 52.5t29.5 47.5t50.5 36q34 16 74.5 25.5t83.5 20.5t87 28.5t85 51.5q38 38 84 38
q24 0 47 -7.5t39.5 -18t22.5 -20.5t-5 -16zM401 1109q-12 6 -16.5 19t1.5 24q18 31 43.5 41.5t53 -4.5t52.5 -58t42 -118q2 -9 -1 -17t-11 -13q-9 -6 -20.5 -3.5t-19.5 13.5q-16 24 -47 58t-77 58z" />
    <glyph glyph-name="Iacute" unicode="&#xcd;" horiz-adv-x="532" 
d="M645 861q-32 -17 -58 -56t-46.5 -90t-36.5 -109.5t-27.5 -113.5t-19.5 -102t-13 -75t-13 -63.5t-20.5 -71.5t-31 -70t-44.5 -61t-60.5 -43t-78.5 -16q-60 0 -96 22.5t-50 56.5q-3 9 -1.5 17t6.5 14t13 9t17 1q8 -2 13.5 -7t7.5 -13q5 -17 18 -26.5t27 -9.5q30 0 53 30
t41 77t31.5 106t23.5 117t17.5 109t14.5 83q10 48 21 89t23 76q-40 -10 -78.5 -29.5t-68.5 -44.5t-46 -54t-11 -57q2 -12 -6 -21.5t-21 -7.5q-19 3 -41 12.5t-40 32.5q-18 24 -22 51t5 52.5t29.5 47.5t50.5 36q34 16 74.5 25.5t83.5 20.5t87 28.5t85 51.5q38 38 84 38
q24 0 47 -7.5t39.5 -18t22.5 -20.5t-5 -16zM630 1126q-45 -24 -76 -58t-48 -58q-7 -11 -18.5 -13.5t-21.5 3.5q-7 5 -10 13t-1 17q16 75 41.5 118t52.5 58t53 4.5t43 -41.5q6 -11 1.5 -24t-16.5 -19z" />
    <glyph glyph-name="Icircumflex" unicode="&#xce;" horiz-adv-x="532" 
d="M645 861q-32 -17 -58 -56t-46.5 -90t-36.5 -109.5t-27.5 -113.5t-19.5 -102t-13 -75t-13 -63.5t-20.5 -71.5t-31 -70t-44.5 -61t-60.5 -43t-78.5 -16q-60 0 -96 22.5t-50 56.5q-3 9 -1.5 17t6.5 14t13 9t17 1q8 -2 13.5 -7t7.5 -13q5 -17 18 -26.5t27 -9.5q30 0 53 30
t41 77t31.5 106t23.5 117t17.5 109t14.5 83q10 48 21 89t23 76q-40 -10 -78.5 -29.5t-68.5 -44.5t-46 -54t-11 -57q2 -12 -6 -21.5t-21 -7.5q-19 3 -41 12.5t-40 32.5q-18 24 -22 51t5 52.5t29.5 47.5t50.5 36q34 16 74.5 25.5t83.5 20.5t87 28.5t85 51.5q38 38 84 38
q24 0 47 -7.5t39.5 -18t22.5 -20.5t-5 -16zM574 1057q-6 10 -17 11t-19 -7q-20 -20 -46.5 -39t-52.5 -29.5t-49.5 -9t-36.5 21.5q-8 11 -11.5 30t-5.5 36q-1 10 5.5 17.5t16.5 8.5q22 1 49.5 9.5t55 22t53 32t42.5 39.5q8 10 21 8t18 -13q33 -69 69 -101.5t78 -37.5
q12 -2 18 -12.5t0 -21.5q-12 -22 -26 -35.5t-23 -15.5q-25 -5 -46.5 3t-39 21.5t-31 30.5t-22.5 31z" />
    <glyph glyph-name="Ograve" unicode="&#xd2;" 
d="M476 915q67 0 117.5 -36t81 -98.5t40.5 -146.5t-4 -181q-15 -97 -55 -181t-95 -146t-119.5 -97.5t-127.5 -35.5q-83 0 -140 38.5t-90 102.5t-41 146.5t9 170.5q24 125 69.5 213.5t103 144t123 81t128.5 25.5zM520 411q18 76 24 147t0.5 126.5t-21.5 92t-42 45.5
t-57 -12.5t-61.5 -66.5t-57.5 -109t-45 -141t-22.5 -147.5t2.5 -126t24.5 -92t43.5 -44.5q26 -9 55.5 12.5t58.5 66t54.5 108.5t43.5 141zM407 1110q-12 6 -16.5 19t1.5 24q18 31 43.5 41.5t53 -4.5t52.5 -58t42 -118q2 -9 -1 -17t-11 -13q-9 -6 -20.5 -3.5t-19.5 13.5
q-16 24 -47 58t-77 58z" />
    <glyph glyph-name="Oacute" unicode="&#xd3;" 
d="M476 915q67 0 117.5 -36t81 -98.5t40.5 -146.5t-4 -181q-15 -97 -55 -181t-95 -146t-119.5 -97.5t-127.5 -35.5q-83 0 -140 38.5t-90 102.5t-41 146.5t9 170.5q24 125 69.5 213.5t103 144t123 81t128.5 25.5zM520 411q18 76 24 147t0.5 126.5t-21.5 92t-42 45.5
t-57 -12.5t-61.5 -66.5t-57.5 -109t-45 -141t-22.5 -147.5t2.5 -126t24.5 -92t43.5 -44.5q26 -9 55.5 12.5t58.5 66t54.5 108.5t43.5 141zM637 1110q-45 -24 -76 -58t-48 -58q-7 -11 -18.5 -13.5t-21.5 3.5q-7 5 -10 13t-1 17q16 75 41.5 118t52.5 58t53 4.5t43 -41.5
q6 -11 1.5 -24t-16.5 -19z" />
    <glyph glyph-name="Ocircumflex" unicode="&#xd4;" 
d="M476 915q67 0 117.5 -36t81 -98.5t40.5 -146.5t-4 -181q-15 -97 -55 -181t-95 -146t-119.5 -97.5t-127.5 -35.5q-83 0 -140 38.5t-90 102.5t-41 146.5t9 170.5q24 125 69.5 213.5t103 144t123 81t128.5 25.5zM520 411q18 76 24 147t0.5 126.5t-21.5 92t-42 45.5
t-57 -12.5t-61.5 -66.5t-57.5 -109t-45 -141t-22.5 -147.5t2.5 -126t24.5 -92t43.5 -44.5q26 -9 55.5 12.5t58.5 66t54.5 108.5t43.5 141zM554 1065q-6 10 -17 11t-19 -7q-20 -20 -46.5 -39t-52.5 -29.5t-49.5 -9t-36.5 21.5q-8 11 -11.5 30t-5.5 36q-1 10 5.5 17.5
t16.5 8.5q22 1 49.5 9.5t55 22t53 32t42.5 39.5q8 10 21 8t18 -13q33 -69 69 -101.5t78 -37.5q12 -2 18 -12.5t0 -21.5q-12 -22 -26 -35.5t-23 -15.5q-25 -5 -46.5 3t-39 21.5t-31 30.5t-22.5 31z" />
    <glyph glyph-name="Otilde" unicode="&#xd5;" 
d="M476 915q67 0 117.5 -36t81 -98.5t40.5 -146.5t-4 -181q-15 -97 -55 -181t-95 -146t-119.5 -97.5t-127.5 -35.5q-83 0 -140 38.5t-90 102.5t-41 146.5t9 170.5q24 125 69.5 213.5t103 144t123 81t128.5 25.5zM520 411q18 76 24 147t0.5 126.5t-21.5 92t-42 45.5
t-57 -12.5t-61.5 -66.5t-57.5 -109t-45 -141t-22.5 -147.5t2.5 -126t24.5 -92t43.5 -44.5q26 -9 55.5 12.5t58.5 66t54.5 108.5t43.5 141zM762 1091q-3 -21 -11 -40.5t-21.5 -35.5t-33.5 -25.5t-49 -10.5q-36 -1 -64.5 8.5t-56 21.5t-57 22t-66.5 9q-26 -1 -50.5 -4.5
t-44.5 -8.5q-9 -2 -16 2.5t-10.5 12t-3.5 17t5 18.5q8 13 19 26t25 23.5t32 17t40 6.5q42 1 72 -6.5t55.5 -17.5t52 -18t62.5 -7q20 1 42.5 6t41.5 19q7 5 14.5 4t13 -6.5t8.5 -14t1 -18.5z" />
    <glyph glyph-name="Odieresis" unicode="&#xd6;" 
d="M476 915q67 0 117.5 -36t81 -98.5t40.5 -146.5t-4 -181q-15 -97 -55 -181t-95 -146t-119.5 -97.5t-127.5 -35.5q-83 0 -140 38.5t-90 102.5t-41 146.5t9 170.5q24 125 69.5 213.5t103 144t123 81t128.5 25.5zM520 411q18 76 24 147t0.5 126.5t-21.5 92t-42 45.5
t-57 -12.5t-61.5 -66.5t-57.5 -109t-45 -141t-22.5 -147.5t2.5 -126t24.5 -92t43.5 -44.5q26 -9 55.5 12.5t58.5 66t54.5 108.5t43.5 141zM473 1056q-8 -38 -35.5 -64t-58.5 -26q-32 0 -48.5 26t-8.5 64q4 18 13.5 34.5t22 28.5t28 19t30.5 7q32 0 48.5 -26t8.5 -63z
M717 1056q-8 -38 -35 -64t-59 -26q-31 0 -47.5 26t-8.5 64q8 37 35 63t59 26q31 0 47.5 -26t8.5 -63z" />
    <glyph glyph-name="multiply" unicode="&#xd7;" horiz-adv-x="722" 
d="M566 495q20 -8 24.5 -29t-10.5 -35l-156 -137l112 -123q13 -14 -2 -37q-12 -20 -33.5 -28.5t-33.5 2.5l-128 111l-147 -130q-16 -15 -39 -5q-18 9 -22.5 28.5t8.5 33.5l129 134l-119 103q-7 6 -7.5 16t6.5 21l25 45q6 10 16 18t20 11.5t19 2.5t15 -7l111 -121l131 136
q7 8 17.5 10t20.5 -2l43 -18v0z" />
    <glyph glyph-name="Ugrave" unicode="&#xd9;" horiz-adv-x="892" 
d="M936 232q5 7 12 6t12 -7t6 -16t-5 -20q-5 -7 -15 -24t-25.5 -39t-35.5 -46t-44.5 -43.5t-53 -32.5t-60.5 -13t-53 17t-33.5 47.5t-17.5 72t-3 90.5q-18 -42 -41 -79.5t-51.5 -66t-63 -45t-75.5 -16.5q-107 0 -133.5 137t35.5 421q11 47 22 88t24 77q-40 -10 -79 -29.5
t-69 -45t-46.5 -54.5t-11.5 -57q2 -12 -6 -21t-21 -7q-19 2 -41 12t-40 33q-18 24 -22 51t5 52.5t29.5 47t50.5 35.5q34 17 74.5 26t83.5 20.5t87 29t85 50.5l-1 -1q38 40 85 40q24 0 47 -7.5t39.5 -18t22.5 -21t-5 -15.5q-32 -17 -58 -56t-47 -90t-37.5 -109.5t-28 -113.5
t-19 -102t-11.5 -76q-5 -41 -5 -76t6 -61t17 -40.5t28 -14.5q26 0 50.5 22.5t46 58t40.5 80t33.5 89.5t25.5 85.5t18 68.5q16 70 33.5 134t33.5 114t28.5 82t17.5 37q10 10 29 14.5t41 4.5t44.5 -5t38 -14t21 -22t-4.5 -28q-9 -14 -24.5 -52.5t-33.5 -93t-37 -119
t-34.5 -130t-26 -126.5t-11.5 -108.5t9 -76t35 -28.5q19 0 37.5 16.5t34 38t26.5 42t16 27.5zM610 1109q-12 6 -16.5 19t1.5 24q18 31 43.5 41.5t53 -4.5t52.5 -58t42 -118q2 -9 -1 -17t-11 -13q-9 -6 -20.5 -3.5t-19.5 13.5q-16 24 -47 58t-77 58z" />
    <glyph glyph-name="Uacute" unicode="&#xda;" horiz-adv-x="892" 
d="M936 232q5 7 12 6t12 -7t6 -16t-5 -20q-5 -7 -15 -24t-25.5 -39t-35.5 -46t-44.5 -43.5t-53 -32.5t-60.5 -13t-53 17t-33.5 47.5t-17.5 72t-3 90.5q-18 -42 -41 -79.5t-51.5 -66t-63 -45t-75.5 -16.5q-107 0 -133.5 137t35.5 421q11 47 22 88t24 77q-40 -10 -79 -29.5
t-69 -45t-46.5 -54.5t-11.5 -57q2 -12 -6 -21t-21 -7q-19 2 -41 12t-40 33q-18 24 -22 51t5 52.5t29.5 47t50.5 35.5q34 17 74.5 26t83.5 20.5t87 29t85 50.5l-1 -1q38 40 85 40q24 0 47 -7.5t39.5 -18t22.5 -21t-5 -15.5q-32 -17 -58 -56t-47 -90t-37.5 -109.5t-28 -113.5
t-19 -102t-11.5 -76q-5 -41 -5 -76t6 -61t17 -40.5t28 -14.5q26 0 50.5 22.5t46 58t40.5 80t33.5 89.5t25.5 85.5t18 68.5q16 70 33.5 134t33.5 114t28.5 82t17.5 37q10 10 29 14.5t41 4.5t44.5 -5t38 -14t21 -22t-4.5 -28q-9 -14 -24.5 -52.5t-33.5 -93t-37 -119
t-34.5 -130t-26 -126.5t-11.5 -108.5t9 -76t35 -28.5q19 0 37.5 16.5t34 38t26.5 42t16 27.5zM792 1078q-45 -24 -76 -58t-48 -58q-7 -11 -18.5 -13.5t-21.5 3.5q-7 5 -10 13t-1 17q16 75 41.5 118t52.5 58t53 4.5t43 -41.5q6 -11 1.5 -24t-16.5 -19z" />
    <glyph glyph-name="Udieresis" unicode="&#xdc;" horiz-adv-x="892" 
d="M936 232q5 7 12 6t12 -7t6 -16t-5 -20q-5 -7 -15 -24t-25.5 -39t-35.5 -46t-44.5 -43.5t-53 -32.5t-60.5 -13t-53 17t-33.5 47.5t-17.5 72t-3 90.5q-18 -42 -41 -79.5t-51.5 -66t-63 -45t-75.5 -16.5q-107 0 -133.5 137t35.5 421q11 47 22 88t24 77q-40 -10 -79 -29.5
t-69 -45t-46.5 -54.5t-11.5 -57q2 -12 -6 -21t-21 -7q-19 2 -41 12t-40 33q-18 24 -22 51t5 52.5t29.5 47t50.5 35.5q34 17 74.5 26t83.5 20.5t87 29t85 50.5l-1 -1q38 40 85 40q24 0 47 -7.5t39.5 -18t22.5 -21t-5 -15.5q-32 -17 -58 -56t-47 -90t-37.5 -109.5t-28 -113.5
t-19 -102t-11.5 -76q-5 -41 -5 -76t6 -61t17 -40.5t28 -14.5q26 0 50.5 22.5t46 58t40.5 80t33.5 89.5t25.5 85.5t18 68.5q16 70 33.5 134t33.5 114t28.5 82t17.5 37q10 10 29 14.5t41 4.5t44.5 -5t38 -14t21 -22t-4.5 -28q-9 -14 -24.5 -52.5t-33.5 -93t-37 -119
t-34.5 -130t-26 -126.5t-11.5 -108.5t9 -76t35 -28.5q19 0 37.5 16.5t34 38t26.5 42t16 27.5zM653 1070q-8 -38 -35.5 -64t-58.5 -26q-32 0 -48.5 26t-8.5 64q4 18 13.5 34.5t22 28.5t28 19t30.5 7q32 0 48.5 -26t8.5 -63zM897 1070q-8 -38 -35 -64t-59 -26q-31 0 -47.5 26
t-8.5 64q8 37 35 63t59 26q31 0 47.5 -26t8.5 -63z" />
    <glyph glyph-name="Yacute" unicode="&#xdd;" horiz-adv-x="849" 
d="M758 892q6 13 23 19t38.5 6t43.5 -5.5t39 -15.5t24.5 -23.5t0.5 -30.5q-12 -28 -28 -80t-34.5 -119t-37.5 -144t-38 -154.5t-36.5 -150.5t-31.5 -131q-6 -25 -16.5 -60.5t-26.5 -73t-37.5 -74t-50 -64.5t-65 -44t-80.5 -12q-57 5 -89.5 27t-46.5 54q-3 8 0.5 16t11.5 10
l19 7q8 2 15.5 -2t9.5 -12q5 -14 16 -23t25 -10q37 -3 69 32t58 93t45.5 131t33.5 146q-18 -38 -41 -72t-50.5 -59.5t-60 -40.5t-71.5 -15q-107 0 -133.5 137t35.5 421q11 47 22 88t24 77q-40 -10 -79 -29.5t-69 -45t-46.5 -54.5t-11.5 -57q2 -12 -6 -21t-21 -7
q-19 2 -41 12t-40 33q-18 24 -22 51t5 52.5t29.5 47t50.5 35.5q34 17 74.5 26t83.5 20.5t87 29t85 50.5l-1 -1q38 40 85 40q24 0 47 -7.5t39.5 -18t22.5 -21t-5 -15.5q-32 -17 -58 -56t-47 -90t-37.5 -109.5t-28 -113.5t-19 -102t-11.5 -76q-5 -41 -5 -76t6 -61t17 -40.5
t28 -14.5q25 0 48.5 20.5t44.5 54t39 75.5t33 85t26.5 83.5t19.5 70.5q12 62 25 122.5t26 111.5t25 89.5t22 58.5zM813 1074q-45 -24 -76 -58t-48 -58q-7 -11 -18.5 -13.5t-21.5 3.5q-7 5 -10 13t-1 17q16 75 41.5 118t52.5 58t53 4.5t43 -41.5q6 -11 1.5 -24t-16.5 -19z
" />
    <glyph glyph-name="agrave" unicode="&#xe0;" horiz-adv-x="588" 
d="M633 234q5 7 12 6t12 -7t6 -15.5t-6 -19.5q-7 -11 -27 -43t-51.5 -66.5t-72 -61.5t-88.5 -27q-42 0 -65 24t-33 64q-28 -43 -66.5 -65.5t-86.5 -22.5q-43 0 -79 19.5t-58.5 57.5t-28.5 94t11 128q19 80 50 129.5t65.5 76.5t68.5 36.5t60 9.5q42 0 74.5 -20.5t40.5 -50.5
q11 32 20 52.5t14 25.5q10 10 29.5 14.5t41.5 4t44 -5.5t37 -14t20.5 -22t-4.5 -28q-12 -18 -27.5 -54.5t-29.5 -80.5t-25 -90t-13 -84t6 -62.5t32 -24.5q19 0 38 16.5t35 38t27.5 41.5t16.5 27zM195 117q14 -5 30.5 4t32 28.5t30 47.5t24.5 61t13.5 64t1 56t-11 41.5
t-22.5 20.5t-30.5 -5t-32.5 -28t-30 -47t-24 -61t-13.5 -64.5t-1 -56t11 -41t22.5 -20.5zM220 735q-12 6 -16.5 19t1.5 24q18 31 43.5 41.5t53 -4.5t52.5 -58t42 -118q2 -9 -1 -17t-11 -13q-9 -6 -20.5 -3.5t-19.5 13.5q-16 24 -47 58t-77 58z" />
    <glyph glyph-name="aacute" unicode="&#xe1;" horiz-adv-x="588" 
d="M633 234q5 7 12 6t12 -7t6 -15.5t-6 -19.5q-7 -11 -27 -43t-51.5 -66.5t-72 -61.5t-88.5 -27q-42 0 -65 24t-33 64q-28 -43 -66.5 -65.5t-86.5 -22.5q-43 0 -79 19.5t-58.5 57.5t-28.5 94t11 128q19 80 50 129.5t65.5 76.5t68.5 36.5t60 9.5q42 0 74.5 -20.5t40.5 -50.5
q11 32 20 52.5t14 25.5q10 10 29.5 14.5t41.5 4t44 -5.5t37 -14t20.5 -22t-4.5 -28q-12 -18 -27.5 -54.5t-29.5 -80.5t-25 -90t-13 -84t6 -62.5t32 -24.5q19 0 38 16.5t35 38t27.5 41.5t16.5 27zM195 117q14 -5 30.5 4t32 28.5t30 47.5t24.5 61t13.5 64t1 56t-11 41.5
t-22.5 20.5t-30.5 -5t-32.5 -28t-30 -47t-24 -61t-13.5 -64.5t-1 -56t11 -41t22.5 -20.5zM497 737q-45 -24 -76 -58t-48 -58q-7 -11 -18.5 -13.5t-21.5 3.5q-7 5 -10 13t-1 17q16 75 41.5 118t52.5 58t53 4.5t43 -41.5q6 -11 1.5 -24t-16.5 -19z" />
    <glyph glyph-name="acircumflex" unicode="&#xe2;" horiz-adv-x="588" 
d="M633 234q5 7 12 6t12 -7t6 -15.5t-6 -19.5q-7 -11 -27 -43t-51.5 -66.5t-72 -61.5t-88.5 -27q-42 0 -65 24t-33 64q-28 -43 -66.5 -65.5t-86.5 -22.5q-43 0 -79 19.5t-58.5 57.5t-28.5 94t11 128q19 80 50 129.5t65.5 76.5t68.5 36.5t60 9.5q42 0 74.5 -20.5t40.5 -50.5
q11 32 20 52.5t14 25.5q10 10 29.5 14.5t41.5 4t44 -5.5t37 -14t20.5 -22t-4.5 -28q-12 -18 -27.5 -54.5t-29.5 -80.5t-25 -90t-13 -84t6 -62.5t32 -24.5q19 0 38 16.5t35 38t27.5 41.5t16.5 27zM195 117q14 -5 30.5 4t32 28.5t30 47.5t24.5 61t13.5 64t1 56t-11 41.5
t-22.5 20.5t-30.5 -5t-32.5 -28t-30 -47t-24 -61t-13.5 -64.5t-1 -56t11 -41t22.5 -20.5zM404 700q-6 10 -17 11t-19 -7q-20 -20 -46.5 -39t-52.5 -29.5t-49.5 -9t-36.5 21.5q-8 11 -11.5 30t-5.5 36q-1 10 5.5 17.5t16.5 8.5q22 1 49.5 9.5t55 22t53 32t42.5 39.5
q8 10 21 8t18 -13q33 -69 69 -101.5t78 -37.5q12 -2 18 -12.5t0 -21.5q-12 -22 -26 -35.5t-23 -15.5q-25 -5 -46.5 3t-39 21.5t-31 30.5t-22.5 31z" />
    <glyph glyph-name="atilde" unicode="&#xe3;" horiz-adv-x="588" 
d="M633 234q5 7 12 6t12 -7t6 -15.5t-6 -19.5q-7 -11 -27 -43t-51.5 -66.5t-72 -61.5t-88.5 -27q-42 0 -65 24t-33 64q-28 -43 -66.5 -65.5t-86.5 -22.5q-43 0 -79 19.5t-58.5 57.5t-28.5 94t11 128q19 80 50 129.5t65.5 76.5t68.5 36.5t60 9.5q42 0 74.5 -20.5t40.5 -50.5
q11 32 20 52.5t14 25.5q10 10 29.5 14.5t41.5 4t44 -5.5t37 -14t20.5 -22t-4.5 -28q-12 -18 -27.5 -54.5t-29.5 -80.5t-25 -90t-13 -84t6 -62.5t32 -24.5q19 0 38 16.5t35 38t27.5 41.5t16.5 27zM195 117q14 -5 30.5 4t32 28.5t30 47.5t24.5 61t13.5 64t1 56t-11 41.5
t-22.5 20.5t-30.5 -5t-32.5 -28t-30 -47t-24 -61t-13.5 -64.5t-1 -56t11 -41t22.5 -20.5zM573 740q-3 -21 -11 -40.5t-21.5 -35.5t-33.5 -25.5t-49 -10.5q-36 -1 -64.5 8.5t-56 21.5t-57 22t-66.5 9q-26 -1 -50.5 -4.5t-44.5 -8.5q-9 -2 -16 2.5t-10.5 12t-3.5 17t5 18.5
q8 13 19 26t25 23.5t32 17t40 6.5q42 1 72 -6.5t55.5 -17.5t52 -18t62.5 -7q20 1 42.5 6t41.5 19q7 5 14.5 4t13 -6.5t8.5 -14t1 -18.5z" />
    <glyph glyph-name="adieresis" unicode="&#xe4;" horiz-adv-x="588" 
d="M633 234q5 7 12 6t12 -7t6 -15.5t-6 -19.5q-7 -11 -27 -43t-51.5 -66.5t-72 -61.5t-88.5 -27q-42 0 -65 24t-33 64q-28 -43 -66.5 -65.5t-86.5 -22.5q-43 0 -79 19.5t-58.5 57.5t-28.5 94t11 128q19 80 50 129.5t65.5 76.5t68.5 36.5t60 9.5q42 0 74.5 -20.5t40.5 -50.5
q11 32 20 52.5t14 25.5q10 10 29.5 14.5t41.5 4t44 -5.5t37 -14t20.5 -22t-4.5 -28q-12 -18 -27.5 -54.5t-29.5 -80.5t-25 -90t-13 -84t6 -62.5t32 -24.5q19 0 38 16.5t35 38t27.5 41.5t16.5 27zM195 117q14 -5 30.5 4t32 28.5t30 47.5t24.5 61t13.5 64t1 56t-11 41.5
t-22.5 20.5t-30.5 -5t-32.5 -28t-30 -47t-24 -61t-13.5 -64.5t-1 -56t11 -41t22.5 -20.5zM392 719q-8 -38 -35.5 -64t-58.5 -26q-32 0 -48.5 26t-8.5 64q4 18 13.5 34.5t22 28.5t28 19t30.5 7q32 0 48.5 -26t8.5 -63zM636 719q-8 -38 -35 -64t-59 -26q-31 0 -47.5 26
t-8.5 64q8 37 35 63t59 26q31 0 47.5 -26t8.5 -63z" />
    <glyph glyph-name="ccedilla" unicode="&#xe7;" horiz-adv-x="484" 
d="M263 -44q56 -10 82.5 -40.5t12.5 -73.5q-13 -40 -57.5 -75.5t-104.5 -57.5q-17 -6 -32.5 -5.5t-26.5 5.5t-16 14.5t1 20.5l11 22q8 17 36 27q45 14 74 31.5t27 31.5q-2 10 -18.5 14t-43.5 2t-42 10.5t-7 29.5l8 16l3 4l41 70q-60 6 -104 29t-70.5 62.5t-34 94t6.5 122.5
q15 74 48 129.5t77 91t95 48.5t102 1q35 -8 62.5 -28.5t42.5 -52.5t14.5 -76t-21.5 -98q-10 -26 -26.5 -37.5t-34.5 -12t-35.5 8.5t-28.5 24.5t-13.5 35.5t8.5 42q9 18 13.5 35.5t5 32.5t-3 25t-9.5 13q-12 6 -28 -1t-32.5 -29t-33.5 -59.5t-31 -92.5q-30 -115 0.5 -177.5
t105.5 -62.5q19 0 37.5 3t37 12t38.5 25t43 42q20 23 34.5 48.5t20.5 33.5q5 7 12 6t12 -7t6 -15.5t-6 -19.5q-5 -8 -18 -29t-33 -47q-31 -40 -74 -74t-103 -45l-30 -47v0z" />
    <glyph glyph-name="egrave" unicode="&#xe8;" horiz-adv-x="484" 
d="M497 234q5 7 12 6t12 -7t6 -15.5t-6 -19.5q-5 -8 -18 -29t-33 -47q-18 -23 -39.5 -45t-48.5 -39t-59 -27.5t-71 -10.5q-70 0 -122 21t-84 60.5t-42 97t5 131.5t48 129.5t77 91t95 48.5t102 1q35 -8 62.5 -28.5t42.5 -52.5t14.5 -76t-21.5 -98q-20 -50 -48 -82.5
t-59.5 -51.5t-64.5 -25t-62 -3q-16 3 -26 7q9 -49 39 -74.5t78 -25.5q19 0 37.5 3t37 12t38.5 25t43 42q20 23 34.5 48.5t20.5 33.5zM305 492q-12 6 -28 -1t-32.5 -29t-33.5 -59.5t-31 -92.5q-7 -30 -12 -59q3 -2 5.5 -3t5.5 -2q19 -5 38.5 10t37 40.5t31.5 57.5t22 61
t7.5 50.5t-10.5 26.5zM234 750q-12 6 -16.5 19t1.5 24q18 31 43.5 41.5t53 -4.5t52.5 -58t42 -118q2 -9 -1 -17t-11 -13q-9 -6 -20.5 -3.5t-19.5 13.5q-16 24 -47 58t-77 58z" />
    <glyph glyph-name="eacute" unicode="&#xe9;" horiz-adv-x="484" 
d="M497 234q5 7 12 6t12 -7t6 -15.5t-6 -19.5q-5 -8 -18 -29t-33 -47q-18 -23 -39.5 -45t-48.5 -39t-59 -27.5t-71 -10.5q-70 0 -122 21t-84 60.5t-42 97t5 131.5t48 129.5t77 91t95 48.5t102 1q35 -8 62.5 -28.5t42.5 -52.5t14.5 -76t-21.5 -98q-20 -50 -48 -82.5
t-59.5 -51.5t-64.5 -25t-62 -3q-16 3 -26 7q9 -49 39 -74.5t78 -25.5q19 0 37.5 3t37 12t38.5 25t43 42q20 23 34.5 48.5t20.5 33.5zM305 492q-12 6 -28 -1t-32.5 -29t-33.5 -59.5t-31 -92.5q-7 -30 -12 -59q3 -2 5.5 -3t5.5 -2q19 -5 38.5 10t37 40.5t31.5 57.5t22 61
t7.5 50.5t-10.5 26.5zM466 761q-45 -24 -76 -58t-48 -58q-7 -11 -18.5 -13.5t-21.5 3.5q-7 5 -10 13t-1 17q16 75 41.5 118t52.5 58t53 4.5t43 -41.5q6 -11 1.5 -24t-16.5 -19z" />
    <glyph glyph-name="ecircumflex" unicode="&#xea;" horiz-adv-x="484" 
d="M497 234q5 7 12 6t12 -7t6 -15.5t-6 -19.5q-5 -8 -18 -29t-33 -47q-18 -23 -39.5 -45t-48.5 -39t-59 -27.5t-71 -10.5q-70 0 -122 21t-84 60.5t-42 97t5 131.5t48 129.5t77 91t95 48.5t102 1q35 -8 62.5 -28.5t42.5 -52.5t14.5 -76t-21.5 -98q-20 -50 -48 -82.5
t-59.5 -51.5t-64.5 -25t-62 -3q-16 3 -26 7q9 -49 39 -74.5t78 -25.5q19 0 37.5 3t37 12t38.5 25t43 42q20 23 34.5 48.5t20.5 33.5zM305 492q-12 6 -28 -1t-32.5 -29t-33.5 -59.5t-31 -92.5q-7 -30 -12 -59q3 -2 5.5 -3t5.5 -2q19 -5 38.5 10t37 40.5t31.5 57.5t22 61
t7.5 50.5t-10.5 26.5zM333 698q-6 10 -17 11t-19 -7q-20 -20 -46.5 -39t-52.5 -29.5t-49.5 -9t-36.5 21.5q-8 11 -11.5 30t-5.5 36q-1 10 5.5 17.5t16.5 8.5q22 1 49.5 9.5t55 22t53 32t42.5 39.5q8 10 21 8t18 -13q33 -69 69 -101.5t78 -37.5q12 -2 18 -12.5t0 -21.5
q-12 -22 -26 -35.5t-23 -15.5q-25 -5 -46.5 3t-39 21.5t-31 30.5t-22.5 31z" />
    <glyph glyph-name="edieresis" unicode="&#xeb;" horiz-adv-x="484" 
d="M497 234q5 7 12 6t12 -7t6 -15.5t-6 -19.5q-5 -8 -18 -29t-33 -47q-18 -23 -39.5 -45t-48.5 -39t-59 -27.5t-71 -10.5q-70 0 -122 21t-84 60.5t-42 97t5 131.5t48 129.5t77 91t95 48.5t102 1q35 -8 62.5 -28.5t42.5 -52.5t14.5 -76t-21.5 -98q-20 -50 -48 -82.5
t-59.5 -51.5t-64.5 -25t-62 -3q-16 3 -26 7q9 -49 39 -74.5t78 -25.5q19 0 37.5 3t37 12t38.5 25t43 42q20 23 34.5 48.5t20.5 33.5zM305 492q-12 6 -28 -1t-32.5 -29t-33.5 -59.5t-31 -92.5q-7 -30 -12 -59q3 -2 5.5 -3t5.5 -2q19 -5 38.5 10t37 40.5t31.5 57.5t22 61
t7.5 50.5t-10.5 26.5zM265 719q-8 -38 -35.5 -64t-58.5 -26q-32 0 -48.5 26t-8.5 64q4 18 13.5 34.5t22 28.5t28 19t30.5 7q32 0 48.5 -26t8.5 -63zM509 719q-8 -38 -35 -64t-59 -26q-31 0 -47.5 26t-8.5 64q8 37 35 63t59 26q31 0 47.5 -26t8.5 -63z" />
    <glyph glyph-name="igrave" unicode="&#xec;" horiz-adv-x="296" 
d="M342 234q5 7 11.5 6t11.5 -7t6 -15.5t-6 -19.5q-7 -11 -27 -43t-51 -66.5t-72 -61.5t-89 -27q-53 0 -77 39t-28 98.5t7 129.5t27.5 132t33.5 106.5t25 52.5q10 10 29 14.5t41.5 4t44.5 -5.5t37 -14t20.5 -22t-4.5 -28q-12 -18 -28 -54.5t-30 -80.5t-25 -90t-13 -84
t6 -62.5t32 -24.5q19 0 38 16.5t35 38t28 41.5t17 27zM110 735q-12 6 -16.5 19t1.5 24q18 31 43.5 41.5t53 -4.5t52.5 -58t42 -118q2 -9 -1 -17t-11 -13q-9 -6 -20.5 -3.5t-19.5 13.5q-16 24 -47 58t-77 58z" />
    <glyph glyph-name="iacute" unicode="&#xed;" horiz-adv-x="296" 
d="M342 234q-5 -7 -17 -27t-28 -41.5t-35 -38t-38 -16.5q-24 0 -32 24.5t-6 62.5t13 84t25 90t30 80.5t28 54.5q10 15 4.5 28t-20.5 22t-37 14t-44.5 5.5t-41.5 -4t-29 -14.5q-8 -8 -25 -52.5t-33.5 -106.5t-27.5 -132t-7 -129.5t28 -98.5t77 -39q48 0 89 27t72 61.5
t51 66.5t27 43q7 10 6 19.5t-6 15.5t-11.5 7t-11.5 -6zM378 759q-45 -24 -76 -58t-48 -58q-7 -11 -18.5 -13.5t-21.5 3.5q-7 5 -10 13t-1 17q16 75 41.5 118t52.5 58t53 4.5t43 -41.5q6 -11 1.5 -24t-16.5 -19z" />
    <glyph glyph-name="icircumflex" unicode="&#xee;" horiz-adv-x="296" 
d="M342 234q-5 -7 -17 -27t-28 -41.5t-35 -38t-38 -16.5q-24 0 -32 24.5t-6 62.5t13 84t25 90t30 80.5t28 54.5q10 15 4.5 28t-20.5 22t-37 14t-44.5 5.5t-41.5 -4t-29 -14.5q-8 -8 -25 -52.5t-33.5 -106.5t-27.5 -132t-7 -129.5t28 -98.5t77 -39q48 0 89 27t72 61.5
t51 66.5t27 43q7 10 6 19.5t-6 15.5t-11.5 7t-11.5 -6zM251 685q-5 8 -12.5 8.5t-13.5 -5.5q-14 -14 -33 -27.5t-38 -21t-35.5 -7t-25.5 15.5q-6 8 -8.5 22t-4.5 25q0 17 16 19q16 1 35.5 7t39.5 15.5t38.5 23t30.5 28.5q6 7 15 5.5t13 -9.5q23 -50 49.5 -72.5t55.5 -26.5
q9 -2 13.5 -9.5t-0.5 -15.5q-9 -16 -19 -25.5t-16 -10.5q-18 -3 -33.5 2.5t-28 15t-22.5 21.5t-16 22z" />
    <glyph glyph-name="ograve" unicode="&#xf2;" horiz-adv-x="513" 
d="M634 476q5 7 11.5 6t11.5 -7t6 -16t-6 -20q-6 -9 -24 -37.5t-45 -61t-63 -60.5t-78 -36q-17 -57 -45.5 -101.5t-63.5 -75t-75.5 -47t-82.5 -16.5q-50 0 -87.5 25t-60.5 67.5t-29.5 98t5.5 115.5q10 50 32.5 97t49.5 83t56 58t53 22q14 0 26 -12.5t19 -30t7.5 -35.5
t-7.5 -29q-17 -23 -35.5 -60t-32.5 -93q-9 -35 -13.5 -71t-1.5 -65t14 -48t34 -19q13 0 27.5 14t28 37.5t25 53t18.5 60.5q-30 29 -40 75.5t-2.5 93t32 83t62.5 45.5q25 6 47.5 -7.5t38 -45t21 -81t-3.5 -115.5q30 5 58 22.5t51 43.5q11 12 21 26t18 27t14 22.5t9 14.5z
M220 735q-12 6 -16.5 19t1.5 24q18 31 43.5 41.5t53 -4.5t52.5 -58t42 -118q2 -9 -1 -17t-11 -13q-9 -6 -20.5 -3.5t-19.5 13.5q-16 24 -47 58t-77 58z" />
    <glyph glyph-name="oacute" unicode="&#xf3;" horiz-adv-x="513" 
d="M634 476q5 7 11.5 6t11.5 -7t6 -16t-6 -20q-6 -9 -24 -37.5t-45 -61t-63 -60.5t-78 -36q-17 -57 -45.5 -101.5t-63.5 -75t-75.5 -47t-82.5 -16.5q-50 0 -87.5 25t-60.5 67.5t-29.5 98t5.5 115.5q10 50 32.5 97t49.5 83t56 58t53 22q14 0 26 -12.5t19 -30t7.5 -35.5
t-7.5 -29q-17 -23 -35.5 -60t-32.5 -93q-9 -35 -13.5 -71t-1.5 -65t14 -48t34 -19q13 0 27.5 14t28 37.5t25 53t18.5 60.5q-30 29 -40 75.5t-2.5 93t32 83t62.5 45.5q25 6 47.5 -7.5t38 -45t21 -81t-3.5 -115.5q30 5 58 22.5t51 43.5q11 12 21 26t18 27t14 22.5t9 14.5z
M445 737q-45 -24 -76 -58t-48 -58q-7 -11 -18.5 -13.5t-21.5 3.5q-7 5 -10 13t-1 17q16 75 41.5 118t52.5 58t53 4.5t43 -41.5q6 -11 1.5 -24t-16.5 -19z" />
    <glyph glyph-name="ocircumflex" unicode="&#xf4;" horiz-adv-x="513" 
d="M634 476q5 7 11.5 6t11.5 -7t6 -16t-6 -20q-6 -9 -24 -37.5t-45 -61t-63 -60.5t-78 -36q-17 -57 -45.5 -101.5t-63.5 -75t-75.5 -47t-82.5 -16.5q-50 0 -87.5 25t-60.5 67.5t-29.5 98t5.5 115.5q10 50 32.5 97t49.5 83t56 58t53 22q14 0 26 -12.5t19 -30t7.5 -35.5
t-7.5 -29q-17 -23 -35.5 -60t-32.5 -93q-9 -35 -13.5 -71t-1.5 -65t14 -48t34 -19q13 0 27.5 14t28 37.5t25 53t18.5 60.5q-30 29 -40 75.5t-2.5 93t32 83t62.5 45.5q25 6 47.5 -7.5t38 -45t21 -81t-3.5 -115.5q30 5 58 22.5t51 43.5q11 12 21 26t18 27t14 22.5t9 14.5z
M374 701q-6 10 -17 11t-19 -7q-20 -20 -46.5 -39t-52.5 -29.5t-49.5 -9t-36.5 21.5q-8 11 -11.5 30t-5.5 36q-1 10 5.5 17.5t16.5 8.5q22 1 49.5 9.5t55 22t53 32t42.5 39.5q8 10 21 8t18 -13q33 -69 69 -101.5t78 -37.5q12 -2 18 -12.5t0 -21.5q-12 -22 -26 -35.5
t-23 -15.5q-25 -5 -46.5 3t-39 21.5t-31 30.5t-22.5 31z" />
    <glyph glyph-name="otilde" unicode="&#xf5;" horiz-adv-x="513" 
d="M634 476q5 7 11.5 6t11.5 -7t6 -16t-6 -20q-6 -9 -24 -37.5t-45 -61t-63 -60.5t-78 -36q-17 -57 -45.5 -101.5t-63.5 -75t-75.5 -47t-82.5 -16.5q-50 0 -87.5 25t-60.5 67.5t-29.5 98t5.5 115.5q10 50 32.5 97t49.5 83t56 58t53 22q14 0 26 -12.5t19 -30t7.5 -35.5
t-7.5 -29q-17 -23 -35.5 -60t-32.5 -93q-9 -35 -13.5 -71t-1.5 -65t14 -48t34 -19q13 0 27.5 14t28 37.5t25 53t18.5 60.5q-30 29 -40 75.5t-2.5 93t32 83t62.5 45.5q25 6 47.5 -7.5t38 -45t21 -81t-3.5 -115.5q30 5 58 22.5t51 43.5q11 12 21 26t18 27t14 22.5t9 14.5z
M573 740q-3 -21 -11 -40.5t-21.5 -35.5t-33.5 -25.5t-49 -10.5q-36 -1 -64.5 8.5t-56 21.5t-57 22t-66.5 9q-26 -1 -50.5 -4.5t-44.5 -8.5q-9 -2 -16 2.5t-10.5 12t-3.5 17t5 18.5q8 13 19 26t25 23.5t32 17t40 6.5q42 1 72 -6.5t55.5 -17.5t52 -18t62.5 -7q20 1 42.5 6
t41.5 19q7 5 14.5 4t13 -6.5t8.5 -14t1 -18.5z" />
    <glyph glyph-name="odieresis" unicode="&#xf6;" horiz-adv-x="513" 
d="M634 476q5 7 11.5 6t11.5 -7t6 -16t-6 -20q-6 -9 -24 -37.5t-45 -61t-63 -60.5t-78 -36q-17 -57 -45.5 -101.5t-63.5 -75t-75.5 -47t-82.5 -16.5q-50 0 -87.5 25t-60.5 67.5t-29.5 98t5.5 115.5q10 50 32.5 97t49.5 83t56 58t53 22q14 0 26 -12.5t19 -30t7.5 -35.5
t-7.5 -29q-17 -23 -35.5 -60t-32.5 -93q-9 -35 -13.5 -71t-1.5 -65t14 -48t34 -19q13 0 27.5 14t28 37.5t25 53t18.5 60.5q-30 29 -40 75.5t-2.5 93t32 83t62.5 45.5q25 6 47.5 -7.5t38 -45t21 -81t-3.5 -115.5q30 5 58 22.5t51 43.5q11 12 21 26t18 27t14 22.5t9 14.5z
M283 719q-8 -38 -35.5 -64t-58.5 -26q-32 0 -48.5 26t-8.5 64q4 18 13.5 34.5t22 28.5t28 19t30.5 7q32 0 48.5 -26t8.5 -63zM527 719q-8 -38 -35 -64t-59 -26q-31 0 -47.5 26t-8.5 64q8 37 35 63t59 26q31 0 47.5 -26t8.5 -63z" />
    <glyph glyph-name="divide" unicode="&#xf7;" horiz-adv-x="780" 
d="M438 479q-7 -34 -32 -58t-54 -24t-44 24t-8 58q8 34 33 58t54 24t44 -24t7 -58zM438 140q-7 -34 -32 -58t-54 -24t-44 24t-8 58q8 34 33 58t54 24t44 -24t7 -58zM654 298l-561 -53q-11 -2 -21 2t-15 10q-11 13 -1.5 27t29.5 17l536 81q11 2 21.5 -1t16.5 -10l25 -28
q11 -13 1.5 -28t-31.5 -17z" />
    <glyph glyph-name="ugrave" unicode="&#xf9;" horiz-adv-x="573" 
d="M619 234q5 7 11.5 6t11.5 -7t6 -15.5t-6 -19.5q-7 -11 -27 -43t-51 -66.5t-72 -61.5t-89 -27q-47 0 -70.5 30.5t-31.5 79.5q-32 -46 -80.5 -78t-114.5 -32q-53 0 -77 39t-28 98.5t7 129.5t27.5 132t33.5 106.5t25 52.5q10 10 29.5 14.5t41.5 4t44 -5.5t37 -14t20.5 -22
t-4.5 -28q-12 -18 -28 -54.5t-30 -80.5t-25 -90t-13 -84t6 -62.5t32 -24.5q17 0 33 18t29.5 45.5t24.5 59.5t18 61q8 47 20 92t24 81t22 60t16 30q10 10 29.5 14.5t41.5 4t44 -5.5t37 -14t20.5 -22t-4.5 -28q-12 -18 -28 -54.5t-30 -80.5t-25 -90t-13 -84t6 -62.5t32 -24.5
q19 0 38 16.5t35 38t28 41.5t17 27zM212 735q-12 6 -16.5 19t1.5 24q18 31 43.5 41.5t53 -4.5t52.5 -58t42 -118q2 -9 -1 -17t-11 -13q-9 -6 -20.5 -3.5t-19.5 13.5q-16 24 -47 58t-77 58z" />
    <glyph glyph-name="uacute" unicode="&#xfa;" horiz-adv-x="573" 
d="M619 234q5 7 11.5 6t11.5 -7t6 -15.5t-6 -19.5q-7 -11 -27 -43t-51 -66.5t-72 -61.5t-89 -27q-47 0 -70.5 30.5t-31.5 79.5q-32 -46 -80.5 -78t-114.5 -32q-53 0 -77 39t-28 98.5t7 129.5t27.5 132t33.5 106.5t25 52.5q10 10 29.5 14.5t41.5 4t44 -5.5t37 -14t20.5 -22
t-4.5 -28q-12 -18 -28 -54.5t-30 -80.5t-25 -90t-13 -84t6 -62.5t32 -24.5q17 0 33 18t29.5 45.5t24.5 59.5t18 61q8 47 20 92t24 81t22 60t16 30q10 10 29.5 14.5t41.5 4t44 -5.5t37 -14t20.5 -22t-4.5 -28q-12 -18 -28 -54.5t-30 -80.5t-25 -90t-13 -84t6 -62.5t32 -24.5
q19 0 38 16.5t35 38t28 41.5t17 27zM474 760q-45 -24 -76 -58t-48 -58q-7 -11 -18.5 -13.5t-21.5 3.5q-7 5 -10 13t-1 17q16 75 41.5 118t52.5 58t53 4.5t43 -41.5q6 -11 1.5 -24t-16.5 -19z" />
    <glyph glyph-name="udieresis" unicode="&#xfc;" horiz-adv-x="573" 
d="M619 234q5 7 11.5 6t11.5 -7t6 -15.5t-6 -19.5q-7 -11 -27 -43t-51 -66.5t-72 -61.5t-89 -27q-47 0 -70.5 30.5t-31.5 79.5q-32 -46 -80.5 -78t-114.5 -32q-53 0 -77 39t-28 98.5t7 129.5t27.5 132t33.5 106.5t25 52.5q10 10 29.5 14.5t41.5 4t44 -5.5t37 -14t20.5 -22
t-4.5 -28q-12 -18 -28 -54.5t-30 -80.5t-25 -90t-13 -84t6 -62.5t32 -24.5q17 0 33 18t29.5 45.5t24.5 59.5t18 61q8 47 20 92t24 81t22 60t16 30q10 10 29.5 14.5t41.5 4t44 -5.5t37 -14t20.5 -22t-4.5 -28q-12 -18 -28 -54.5t-30 -80.5t-25 -90t-13 -84t6 -62.5t32 -24.5
q19 0 38 16.5t35 38t28 41.5t17 27zM334 729q-8 -38 -35.5 -64t-58.5 -26q-32 0 -48.5 26t-8.5 64q4 18 13.5 34.5t22 28.5t28 19t30.5 7q32 0 48.5 -26t8.5 -63zM578 729q-8 -38 -35 -64t-59 -26q-31 0 -47.5 26t-8.5 64q8 37 35 63t59 26q31 0 47.5 -26t8.5 -63z" />
    <glyph glyph-name="yacute" unicode="&#xfd;" horiz-adv-x="540" 
d="M586 234q5 7 11.5 6t11.5 -7t6 -15.5t-6 -19.5q-5 -9 -20.5 -33.5t-38.5 -53.5q-13 -17 -32 -36.5t-41 -38t-46 -34t-48 -24.5q-18 -46 -40 -85.5t-48.5 -69.5t-58 -49.5t-68.5 -23.5q-57 -6 -85.5 9.5t-37 41t-0.5 53.5t24 47q62 74 181 95q5 18 9.5 36.5t9.5 38.5
q-31 -32 -71.5 -51.5t-91.5 -19.5q-53 0 -77 39t-28 98.5t7 129.5t27.5 132t33.5 106.5t25 52.5q10 10 29.5 14.5t41.5 4t44 -5.5t37 -14t20.5 -22t-4.5 -28q-12 -18 -28 -54.5t-30 -80.5t-25 -90t-13 -84t6 -62.5t32 -24.5q19 0 36 21.5t31.5 52.5t25.5 66.5t18 64.5
q7 44 13.5 84t12.5 72t11.5 54.5t11.5 31.5q7 12 25.5 17.5t40.5 5t44.5 -6.5t39 -15.5t22.5 -23t-4 -28.5q-11 -15 -21 -48t-20 -76.5t-20.5 -94t-22.5 -99.5q-9 -36 -19 -72.5t-21 -71.5q29 14 56 38.5t60 61.5q11 12 21 26t18 26.5t14 22.5t9 14zM137 -177q29 0 52 32
t43 85q-33 -6 -63.5 -25t-48 -39.5t-16 -36.5t32.5 -16zM463 754q-45 -24 -76 -58t-48 -58q-7 -11 -18.5 -13.5t-21.5 3.5q-7 5 -10 13t-1 17q16 75 41.5 118t52.5 58t53 4.5t43 -41.5q6 -11 1.5 -24t-16.5 -19z" />
    <glyph glyph-name="Abreve" unicode="&#x102;" horiz-adv-x="739" 
d="M784 233q5 7 11.5 6t11.5 -7t6 -15.5t-5 -19.5q-6 -11 -25.5 -43t-49.5 -66.5t-70 -61.5t-88 -27q-32 0 -53 17t-33.5 47.5t-17.5 72.5t-3 91q-5 -11 -20 -42t-42.5 -63.5t-68 -58t-94.5 -25.5q-66 0 -110 37t-67 98t-25.5 139.5t15.5 162.5q27 122 73.5 206.5t100.5 137
t108.5 75.5t98.5 23q36 0 62.5 -10.5t45 -27t28.5 -37t13 -41.5q14 39 23.5 63.5t13.5 29.5q10 10 29.5 14.5t41.5 4t44 -5.5t37.5 -14t21.5 -22t-4 -28q-9 -14 -24.5 -52.5t-33.5 -92.5t-37.5 -118.5t-35 -130t-26 -126.5t-11.5 -108.5t9 -76t35 -28.5q19 0 38 16.5
t34.5 38t26.5 41.5t16 27zM283 173q23 -7 50.5 11t55.5 54.5t53 88.5t44 115t27 121t5.5 103.5t-16 75.5t-36.5 37t-50.5 -10.5t-55 -54t-53 -89t-44.5 -115.5t-26.5 -120.5t-5 -103.5t15.5 -76t36 -37zM452 1113q17 2 29.5 -11t10.5 -30t1.5 -28.5t12.5 -14.5
q14 -4 32.5 11t33.5 41q8 16 27 18l22 2q11 1 20 -4t14.5 -13t5.5 -18.5t-6 -20.5q-23 -34 -59 -55t-76 -21q-48 0 -79.5 29t-36.5 74q-2 14 8 25.5t24 13.5z" />
    <glyph glyph-name="abreve" unicode="&#x103;" horiz-adv-x="588" 
d="M633 234q5 7 12 6t12 -7t6 -15.5t-6 -19.5q-7 -11 -27 -43t-51.5 -66.5t-72 -61.5t-88.5 -27q-42 0 -65 24t-33 64q-28 -43 -66.5 -65.5t-86.5 -22.5q-43 0 -79 19.5t-58.5 57.5t-28.5 94t11 128q19 80 50 129.5t65.5 76.5t68.5 36.5t60 9.5q42 0 74.5 -20.5t40.5 -50.5
q11 32 20 52.5t14 25.5q10 10 29.5 14.5t41.5 4t44 -5.5t37 -14t20.5 -22t-4.5 -28q-12 -18 -27.5 -54.5t-29.5 -80.5t-25 -90t-13 -84t6 -62.5t32 -24.5q19 0 38 16.5t35 38t27.5 41.5t16.5 27zM195 117q14 -5 30.5 4t32 28.5t30 47.5t24.5 61t13.5 64t1 56t-11 41.5
t-22.5 20.5t-30.5 -5t-32.5 -28t-30 -47t-24 -61t-13.5 -64.5t-1 -56t11 -41t22.5 -20.5zM284 758q17 2 29.5 -11t10.5 -30t1.5 -28.5t12.5 -14.5q14 -4 32.5 11t33.5 41q8 16 27 18l22 2q11 1 20 -4t14.5 -13t5.5 -18.5t-6 -20.5q-23 -34 -59 -55t-76 -21q-48 0 -79.5 29
t-36.5 74q-2 14 8 25.5t24 13.5z" />
    <glyph glyph-name="aogonek" unicode="&#x105;" horiz-adv-x="588" 
d="M633 234q5 7 12 6t12 -7t6 -15.5t-6 -19.5q-7 -11 -27 -43t-51.5 -66.5t-72 -61.5t-88.5 -27q-42 0 -65 24t-33 64q-28 -43 -66.5 -65.5t-86.5 -22.5q-43 0 -79 19.5t-58.5 57.5t-28.5 94t11 128q19 80 50 129.5t65.5 76.5t68.5 36.5t60 9.5q42 0 74.5 -20.5t40.5 -50.5
q11 32 20 52.5t14 25.5q10 10 29.5 14.5t41.5 4t44 -5.5t37 -14t20.5 -22t-4.5 -28q-12 -18 -27.5 -54.5t-29.5 -80.5t-25 -90t-13 -84t6 -62.5t32 -24.5q19 0 38 16.5t35 38t27.5 41.5t16.5 27zM195 117q14 -5 30.5 4t32 28.5t30 47.5t24.5 61t13.5 64t1 56t-11 41.5
t-22.5 20.5t-30.5 -5t-32.5 -28t-30 -47t-24 -61t-13.5 -64.5t-1 -56t11 -41t22.5 -20.5zM207 -159q-8 -16 -28 -26t-43 -8q-33 3 -59 13.5t-42 27.5t-21.5 39.5t2.5 48.5q13 45 57.5 84t104.5 63q17 7 32.5 6.5t27 -6.5t16 -16.5t-1.5 -22.5l-11 -24q-8 -20 -36 -30
q-45 -16 -74 -35.5t-27 -34.5q2 -11 18.5 -15t43.5 -2t42 -11.5t7 -33.5z" />
    <glyph glyph-name="Cacute" unicode="&#x106;" horiz-adv-x="667" 
d="M711 233q4 7 11 6.5t12.5 -6.5t7 -16t-4.5 -20q-11 -19 -38.5 -57t-70.5 -76.5t-101.5 -67.5t-133.5 -29q-107 0 -181.5 40t-116.5 109.5t-51.5 163t14.5 200.5q24 110 69.5 192t102.5 136.5t121 81.5t126 27q53 0 98.5 -18t76.5 -50t43 -76t-1 -96q-11 -42 -32 -66.5
t-46 -36t-50 -11t-44 7.5t-27.5 19t-0.5 25q12 19 22.5 50.5t14.5 61.5t-3.5 51.5t-31.5 21.5q-19 0 -54 -16.5t-74 -57.5t-75.5 -110.5t-57.5 -175.5q-15 -76 -8 -144.5t34 -121t74 -83.5t113 -31q62 0 109 24.5t79.5 55t51 58.5t23.5 35zM692 1106q-45 -24 -76 -58
t-48 -58q-7 -11 -18.5 -13.5t-21.5 3.5q-7 5 -10 13t-1 17q16 75 41.5 118t52.5 58t53 4.5t43 -41.5q6 -11 1.5 -24t-16.5 -19z" />
    <glyph glyph-name="cacute" unicode="&#x107;" horiz-adv-x="484" 
d="M429 325q-10 -26 -26.5 -37.5t-34.5 -12t-35.5 8.5t-28.5 24.5t-13.5 35.5t8.5 42q9 18 13.5 35.5t5 32.5t-3 25t-9.5 13q-12 6 -28 -1t-32.5 -29t-33.5 -59.5t-31 -92.5q-30 -115 0.5 -177.5t105.5 -62.5q19 0 37.5 3t37 12t38.5 25t43 42q20 23 34.5 48.5t20.5 33.5
q5 7 12 6t12 -7t6 -15.5t-6 -19.5q-5 -8 -18 -29t-33 -47q-18 -23 -39.5 -45t-48.5 -39t-59 -27.5t-71 -10.5q-70 0 -122 21t-84 60.5t-42 97t5 131.5t48 129.5t77 91t95 48.5t102 1q35 -8 62.5 -28.5t42.5 -52.5t14.5 -76t-21.5 -98zM429 745q-45 -24 -76 -58t-48 -58
q-7 -11 -18.5 -13.5t-21.5 3.5q-7 5 -10 13t-1 17q16 75 41.5 118t52.5 58t53 4.5t43 -41.5q6 -11 1.5 -24t-16.5 -19z" />
    <glyph glyph-name="Ccaron" unicode="&#x10c;" horiz-adv-x="667" 
d="M711 233q4 7 11 6.5t12.5 -6.5t7 -16t-4.5 -20q-11 -19 -38.5 -57t-70.5 -76.5t-101.5 -67.5t-133.5 -29q-107 0 -181.5 40t-116.5 109.5t-51.5 163t14.5 200.5q24 110 69.5 192t102.5 136.5t121 81.5t126 27q53 0 98.5 -18t76.5 -50t43 -76t-1 -96q-11 -42 -32 -66.5
t-46 -36t-50 -11t-44 7.5t-27.5 19t-0.5 25q12 19 22.5 50.5t14.5 61.5t-3.5 51.5t-31.5 21.5q-19 0 -54 -16.5t-74 -57.5t-75.5 -110.5t-57.5 -175.5q-15 -76 -8 -144.5t34 -121t74 -83.5t113 -31q62 0 109 24.5t79.5 55t51 58.5t23.5 35zM532 1084q5 -8 12.5 -8.5
t13.5 5.5q15 15 34 28.5t38.5 21t36 7t26.5 -15.5q6 -8 8.5 -22t4.5 -26q1 -8 -4 -13.5t-12 -5.5q-16 -1 -36.5 -7t-40.5 -16t-38.5 -23.5t-30.5 -29.5q-6 -7 -15.5 -5.5t-13.5 9.5q-24 51 -50.5 74.5t-56.5 27.5q-9 1 -13.5 8.5t0.5 15.5q9 17 19 26.5t17 11.5
q18 3 33.5 -2.5t28.5 -15.5t23 -22.5t16 -22.5z" />
    <glyph glyph-name="ccaron" unicode="&#x10d;" horiz-adv-x="484" 
d="M429 325q-10 -26 -26.5 -37.5t-34.5 -12t-35.5 8.5t-28.5 24.5t-13.5 35.5t8.5 42q9 18 13.5 35.5t5 32.5t-3 25t-9.5 13q-12 6 -28 -1t-32.5 -29t-33.5 -59.5t-31 -92.5q-30 -115 0.5 -177.5t105.5 -62.5q19 0 37.5 3t37 12t38.5 25t43 42q20 23 34.5 48.5t20.5 33.5
q5 7 12 6t12 -7t6 -15.5t-6 -19.5q-5 -8 -18 -29t-33 -47q-18 -23 -39.5 -45t-48.5 -39t-59 -27.5t-71 -10.5q-70 0 -122 21t-84 60.5t-42 97t5 131.5t48 129.5t77 91t95 48.5t102 1q35 -8 62.5 -28.5t42.5 -52.5t14.5 -76t-21.5 -98zM318 747q5 -8 12.5 -8.5t13.5 5.5
q15 15 34 28.5t38.5 21t36 7t26.5 -15.5q6 -8 8.5 -22t4.5 -26q1 -8 -4 -13.5t-12 -5.5q-16 -1 -36.5 -7t-40.5 -16t-38.5 -23.5t-30.5 -29.5q-6 -7 -15.5 -5.5t-13.5 9.5q-24 51 -50.5 74.5t-56.5 27.5q-9 1 -13.5 8.5t0.5 15.5q9 17 19 26.5t17 11.5q18 3 33.5 -2.5
t28.5 -15.5t23 -22.5t16 -22.5z" />
    <glyph glyph-name="Dcaron" unicode="&#x10e;" horiz-adv-x="828" 
d="M535 967q71 0 134 -34t103.5 -103t51.5 -173t-23 -243q-18 -73 -52 -145.5t-79 -130t-98 -93t-109 -35.5q-26 0 -48 8.5t-44 21.5t-46 29t-53 31q-5 2 -10 4.5t-10 4.5q-23 -47 -58 -78.5t-83 -31.5q-50 0 -75.5 21t-32.5 51t2.5 61.5t30.5 52.5q17 17 44.5 22t59.5 1
q10 41 16 88t10.5 92.5t8 84.5t7.5 64q6 38 20.5 61.5t33.5 37t40 18t39 4.5q24 0 44.5 -3.5t34 -9.5t18.5 -14t-4 -16q-23 -21 -37.5 -54.5t-24.5 -74t-17.5 -84.5t-14.5 -87q-5 -30 -13.5 -67t-21.5 -74q10 -3 19.5 -6.5t18.5 -5.5q46 -14 88 -7t77 32.5t63.5 67
t49.5 97.5q28 77 43.5 158.5t13.5 151t-23 120t-64 65.5q-32 11 -70.5 4t-76 -26.5t-70 -50t-51.5 -67.5q-8 -15 -24 -14t-30 12.5t-22 29.5t0 36q18 45 53 81t78.5 61.5t91.5 39.5t91 14zM78 91q13 7 23 20.5t19 33.5q-15 0 -27 -2.5t-19 -8.5q-11 -9 -13.5 -18t0 -15t8 -9
t9.5 -1zM576 1139q5 -8 12.5 -8.5t13.5 5.5q15 15 34 28.5t38.5 21t36 7t26.5 -15.5q6 -8 8.5 -22t4.5 -26q1 -8 -4 -13.5t-12 -5.5q-16 -1 -36.5 -7t-40.5 -16t-38.5 -23.5t-30.5 -29.5q-6 -7 -15.5 -5.5t-13.5 9.5q-24 51 -50.5 74.5t-56.5 27.5q-9 1 -13.5 8.5t0.5 15.5
q9 17 19 26.5t17 11.5q18 3 33.5 -2.5t28.5 -15.5t23 -22.5t16 -22.5z" />
    <glyph glyph-name="dcaron" unicode="&#x10f;" horiz-adv-x="844" 
d="M632 234q5 7 12 6t12 -7t6 -15.5t-6 -19.5q-7 -11 -27 -43t-51.5 -66.5t-72 -61.5t-88.5 -27q-39 0 -61.5 25t-32.5 68q-56 -93 -156 -93q-43 0 -79 19.5t-58.5 57.5t-28.5 94t11 128q19 80 50 129.5t65.5 76.5t68.5 36.5t60 9.5q35 0 63 -13.5t42 -35.5q18 73 38 142
t38.5 123t33 88.5t19.5 39.5q10 10 29.5 14.5t41.5 4t44 -5.5t37 -14t20.5 -22t-4.5 -28q-9 -14 -25.5 -52.5t-36.5 -92.5t-40.5 -118.5t-38 -130t-29.5 -126.5t-14.5 -108.5t7 -76t34.5 -28.5q19 0 38 16.5t35 38t27.5 41.5t16.5 27zM195 117q14 -5 30.5 4t32 28.5t30 47.5
t24.5 61t13.5 64t1 56t-11 41.5t-22.5 20.5t-30.5 -5t-32.5 -28t-30 -47t-24 -61t-13.5 -64.5t-1 -56t11 -41t22.5 -20.5zM721 743q-1 17 8 30t23 12q36 -3 58 -28t23 -66t-24 -95.5t-82 -116.5q-15 -16 -32 -4q-11 8 -14 24t2 30q6 16 13.5 39t13 50.5t9 59t2.5 65.5z" />
    <glyph glyph-name="Dcroat" unicode="&#x110;" horiz-adv-x="828" 
d="M535 968q71 0 134 -34t103.5 -103t51.5 -173t-23 -243q-18 -73 -52 -145.5t-79 -130t-98 -93t-109 -35.5q-26 0 -48 8.5t-44 21.5t-46 29t-53 31l-20 9q-23 -47 -58 -78.5t-83 -31.5q-50 0 -75.5 21t-32.5 51t2.5 61.5t30.5 52.5q17 17 44.5 22t59.5 1q7 31 12 65.5
t10 69.5l-91 1q-15 0 -23 23q-5 20 1.5 38.5t19.5 20.5l102 13l5.5 55t5.5 43q6 38 20.5 61.5t33.5 37t40 18t39 4.5q24 0 44.5 -3.5t34 -9.5t18.5 -14t-4 -16q-26 -25 -42 -66t-27 -90l79 9q16 2 24 -21l14 -44q3 -10 3 -21t-3.5 -20t-9 -14.5t-12.5 -5.5l-116 1
q-1 -8 -2 -14.5t-2 -13.5q-5 -30 -13.5 -67t-21.5 -74q10 -3 19.5 -6.5t18.5 -5.5q46 -14 88 -7t77 32.5t63.5 67t49.5 97.5q28 77 43.5 158.5t13.5 151t-23 120t-64 65.5q-32 11 -70.5 4t-76 -26.5t-70 -50t-51.5 -67.5q-8 -15 -24 -14t-30 12.5t-22 29.5t0 36q18 45 53 81
t78.5 61.5t91.5 39.5t91 14zM78 92q13 7 23 20.5t19 33.5q-15 0 -27 -2.5t-19 -8.5q-11 -9 -13.5 -18t0 -15t8 -9t9.5 -1z" />
    <glyph glyph-name="dcroat" unicode="&#x111;" horiz-adv-x="590" 
d="M700 705q3 -10 3 -21t-3.5 -20t-9 -14.5t-12.5 -5.5h-101q-19 -55 -37 -115.5t-33 -120t-24 -113.5t-10 -94.5t9 -65t33 -24.5q19 0 38 16.5t35 38t27.5 41.5t16.5 27t12 6t12 -7t6 -15.5t-6 -19.5q-7 -11 -27 -43t-51.5 -66.5t-72 -61.5t-88.5 -27q-39 0 -61.5 25
t-32.5 68q-56 -93 -156 -93q-43 0 -79 19.5t-58.5 57.5t-28.5 94t11 128q19 80 50 129.5t65.5 76.5t68.5 36.5t60 9.5q35 0 63 -13.5t42 -35.5q18 75 38 143l-84 1q-15 0 -23 23q-5 20 1.5 38.5t19.5 20.5l116 14q21 64 38 105.5t23 47.5q10 10 29.5 14.5t41.5 4t44 -5.5
t37 -14t20.5 -22t-4.5 -28q-6 -9 -16 -29.5t-21 -49.5l41 5q16 2 24 -21zM195 117q14 -5 30.5 4t32 28.5t30 47.5t24.5 61t13.5 64t1 56t-11 41.5t-22.5 20.5t-30.5 -5t-32.5 -28t-30 -47t-24 -61t-13.5 -64.5t-1 -56t11 -41t22.5 -20.5z" />
    <glyph glyph-name="Eogonek" unicode="&#x118;" horiz-adv-x="625" 
d="M359 -204q-8 -16 -28 -26t-43 -8q-33 3 -59 13.5t-42 27.5t-21.5 39.5t2.5 48.5q7 25 24 48t41 43q-41 11 -75 31t-59 50t-40 69.5t-18 89.5q-4 56 11 106.5t43.5 91.5t68 71t84.5 44q-25 14 -40 40t-21 57.5t-3 64.5t13 62q15 40 42 70t60 49.5t69.5 29t70.5 9.5
q57 0 101.5 -19.5t74 -52.5t40.5 -76.5t1 -91.5q-9 -43 -29.5 -67.5t-45.5 -36t-50.5 -11t-44.5 8t-28.5 19.5t-1.5 25q12 19 22 46.5t13 54.5t-4 50t-29 34q-12 5 -26 4.5t-28 -8t-26.5 -21t-21.5 -33.5q-8 -18 -12.5 -46t-2.5 -62.5t13 -74t34 -81.5q4 -11 6.5 -20.5
t-11.5 -16.5q-22 -10 -50 -29.5t-52 -49.5t-39.5 -69.5t-12.5 -89.5q2 -38 17.5 -65.5t40 -44.5t55.5 -25t64 -8q62 0 109 24.5t79.5 55t51 58.5t23.5 35q4 7 11 6.5t12.5 -6.5t6.5 -16t-5 -20q-10 -18 -34 -52.5t-62.5 -70.5t-90 -66t-117.5 -38q-11 -17 -33 -25
q-45 -16 -74 -35.5t-27 -34.5q2 -11 18.5 -15t43.5 -2t42 -11.5t7 -33.5z" />
    <glyph glyph-name="eogonek" unicode="&#x119;" horiz-adv-x="484" 
d="M234 -188q-8 -16 -28 -26t-43 -8q-33 3 -59 13.5t-42 27.5t-21.5 39.5t2.5 48.5q9 31 33.5 59.5t59.5 51.5q-81 30 -115.5 104.5t-11.5 187.5q15 74 48 129.5t77 91t95 48.5t102 1q35 -8 62.5 -28.5t42.5 -52.5t14.5 -76t-21.5 -98q-20 -50 -48 -82.5t-59.5 -51.5
t-64.5 -25t-62 -3q-16 3 -26 7q9 -49 39 -74.5t78 -25.5q19 0 37.5 3t37 12t38.5 25t43 42q20 23 34.5 48.5t20.5 33.5q5 7 12 6t12 -7t6 -15.5t-6 -19.5q-5 -8 -18 -29t-33 -47q-17 -22 -37 -42.5t-44 -37t-53.5 -27.5t-63.5 -14l-4 -10q-8 -20 -36 -30q-45 -16 -74 -35.5
t-27 -34.5q2 -11 18.5 -15t43.5 -2t42 -11.5t7 -33.5zM305 492q-12 6 -28 -1t-32.5 -29t-33.5 -59.5t-31 -92.5q-7 -30 -12 -59q3 -2 5.5 -3t5.5 -2q19 -5 38.5 10t37 40.5t31.5 57.5t22 61t7.5 50.5t-10.5 26.5z" />
    <glyph glyph-name="Ecaron" unicode="&#x11a;" horiz-adv-x="625" 
d="M669 233q4 7 11 6.5t12.5 -6.5t6.5 -16t-5 -20q-11 -19 -38 -57t-70 -76.5t-101.5 -67.5t-133.5 -29q-63 0 -118 15t-96.5 46t-66.5 79t-29 115q-4 56 11 106.5t43.5 91.5t68 71t84.5 44q-25 14 -40 40t-21 57.5t-3 64.5t13 62q15 40 42 70t60 49.5t69.5 29t70.5 9.5
q57 0 101.5 -19.5t74 -52.5t40.5 -76.5t1 -91.5q-9 -43 -29.5 -67.5t-45.5 -36t-50.5 -11t-44.5 8t-28.5 19.5t-1.5 25q12 19 22 46.5t13 54.5t-4 50t-29 34q-12 5 -26 4.5t-28 -8t-26.5 -21t-21.5 -33.5q-8 -18 -12.5 -46t-2.5 -62.5t13 -74t34 -81.5q4 -11 6.5 -20.5
t-11.5 -16.5q-22 -10 -50 -29.5t-52 -49.5t-39.5 -69.5t-12.5 -89.5q2 -38 17.5 -65.5t40 -44.5t55.5 -25t64 -8q62 0 109 24.5t79.5 55t51 58.5t23.5 35zM503 1084q5 -8 12.5 -8.5t13.5 5.5q15 15 34 28.5t38.5 21t36 7t26.5 -15.5q6 -8 8.5 -22t4.5 -26q1 -8 -4 -13.5
t-12 -5.5q-16 -1 -36.5 -7t-40.5 -16t-38.5 -23.5t-30.5 -29.5q-6 -7 -15.5 -5.5t-13.5 9.5q-24 51 -50.5 74.5t-56.5 27.5q-9 1 -13.5 8.5t0.5 15.5q9 17 19 26.5t17 11.5q18 3 33.5 -2.5t28.5 -15.5t23 -22.5t16 -22.5z" />
    <glyph glyph-name="ecaron" unicode="&#x11b;" horiz-adv-x="484" 
d="M497 234q5 7 12 6t12 -7t6 -15.5t-6 -19.5q-5 -8 -18 -29t-33 -47q-18 -23 -39.5 -45t-48.5 -39t-59 -27.5t-71 -10.5q-70 0 -122 21t-84 60.5t-42 97t5 131.5t48 129.5t77 91t95 48.5t102 1q35 -8 62.5 -28.5t42.5 -52.5t14.5 -76t-21.5 -98q-20 -50 -48 -82.5
t-59.5 -51.5t-64.5 -25t-62 -3q-16 3 -26 7q9 -49 39 -74.5t78 -25.5q19 0 37.5 3t37 12t38.5 25t43 42q20 23 34.5 48.5t20.5 33.5zM305 492q-12 6 -28 -1t-32.5 -29t-33.5 -59.5t-31 -92.5q-7 -30 -12 -59q3 -2 5.5 -3t5.5 -2q19 -5 38.5 10t37 40.5t31.5 57.5t22 61
t7.5 50.5t-10.5 26.5zM337 747q5 -8 12.5 -8.5t13.5 5.5q15 15 34 28.5t38.5 21t36 7t26.5 -15.5q6 -8 8.5 -22t4.5 -26q1 -8 -4 -13.5t-12 -5.5q-16 -1 -36.5 -7t-40.5 -16t-38.5 -23.5t-30.5 -29.5q-6 -7 -15.5 -5.5t-13.5 9.5q-24 51 -50.5 74.5t-56.5 27.5
q-9 1 -13.5 8.5t0.5 15.5q9 17 19 26.5t17 11.5q18 3 33.5 -2.5t28.5 -15.5t23 -22.5t16 -22.5z" />
    <glyph glyph-name="Itilde" unicode="&#x128;" horiz-adv-x="532" 
d="M645 861q-32 -17 -58 -56t-46.5 -90t-36.5 -109.5t-27.5 -113.5t-19.5 -102t-13 -75t-13 -63.5t-20.5 -71.5t-31 -70t-44.5 -61t-60.5 -43t-78.5 -16q-60 0 -96 22.5t-50 56.5q-3 9 -1.5 17t6.5 14t13 9t17 1q8 -2 13.5 -7t7.5 -13q5 -17 18 -26.5t27 -9.5q30 0 53 30
t41 77t31.5 106t23.5 117t17.5 109t14.5 83q10 48 21 89t23 76q-40 -10 -78.5 -29.5t-68.5 -44.5t-46 -54t-11 -57q2 -12 -6 -21.5t-21 -7.5q-19 3 -41 12.5t-40 32.5q-18 24 -22 51t5 52.5t29.5 47.5t50.5 36q34 16 74.5 25.5t83.5 20.5t87 28.5t85 51.5q38 38 84 38
q24 0 47 -7.5t39.5 -18t22.5 -20.5t-5 -16zM798 1072q-3 -21 -11 -40.5t-21.5 -35.5t-33.5 -25.5t-49 -10.5q-36 -1 -64.5 8.5t-56 21.5t-57 22t-66.5 9q-26 -1 -50.5 -4.5t-44.5 -8.5q-9 -2 -16 2.5t-10.5 12t-3.5 17t5 18.5q8 13 19 26t25 23.5t32 17t40 6.5q42 1 72 -6.5
t55.5 -17.5t52 -18t62.5 -7q20 1 42.5 6t41.5 19q7 5 14.5 4t13 -6.5t8.5 -14t1 -18.5z" />
    <glyph glyph-name="itilde" unicode="&#x129;" horiz-adv-x="296" 
d="M342 234q5 7 11.5 6t11.5 -7t6 -15.5t-6 -19.5q-7 -11 -27 -43t-51 -66.5t-72 -61.5t-89 -27q-53 0 -77 39t-28 98.5t7 129.5t27.5 132t33.5 106.5t25 52.5q10 10 29 14.5t41.5 4t44.5 -5.5t37 -14t20.5 -22t-4.5 -28q-12 -18 -28 -54.5t-30 -80.5t-25 -90t-13 -84
t6 -62.5t32 -24.5q19 0 38 16.5t35 38t28 41.5t17 27zM473 732q-3 -21 -11 -40.5t-21.5 -35.5t-33.5 -25.5t-49 -10.5q-36 -1 -64.5 8.5t-56 21.5t-57 22t-66.5 9q-26 -1 -50.5 -4.5t-44.5 -8.5q-9 -2 -16 2.5t-10.5 12t-3.5 17t5 18.5q8 13 19 26t25 23.5t32 17t40 6.5
q42 1 72 -6.5t55.5 -17.5t52 -18t62.5 -7q20 1 42.5 6t41.5 19q7 5 14.5 4t13 -6.5t8.5 -14t1 -18.5z" />
    <glyph glyph-name="Lacute" unicode="&#x139;" horiz-adv-x="810" 
d="M757 174q5 -13 3.5 -34.5t-10 -46t-24.5 -50t-41.5 -46t-61 -33.5t-81.5 -13t-88.5 12t-82.5 28t-76.5 32t-70.5 25t-66 7t-61 -23q-12 -8 -24 -5.5t-20 11t-11 20.5t3 21q6 10 21 26.5t39 32.5t56 27.5t72 11.5q26 0 49 -3q17 47 29.5 104.5t22 113t17 104.5t13.5 80
q10 48 21 89t23 76q-40 -10 -78.5 -29.5t-68.5 -44.5t-46 -54t-11 -57q2 -12 -6 -21.5t-21 -7.5q-19 3 -41 12.5t-40 32.5q-19 24 -22.5 51t5.5 52.5t29.5 47.5t50.5 36q34 16 74.5 25.5t83.5 20.5t86.5 28.5t84.5 51.5q38 38 85 38q24 0 47 -7.5t39 -18t22 -20.5t-4 -16
q-32 -17 -58 -56t-46.5 -90t-36 -109.5t-27.5 -113.5t-20 -102t-13 -75q-9 -49 -28 -97.5t-45 -85.5q26 -10 55 -17t68 -7q49 0 83 6.5t55 16.5t29 21.5t7 21.5q-1 8 5 16t15 11t19 -2.5t18 -24.5zM482 1074q-45 -24 -76 -58t-48 -58q-7 -11 -18.5 -13.5t-21.5 3.5
q-7 5 -10 13t-1 17q16 75 41.5 118t52.5 58t53 4.5t43 -41.5q6 -11 1.5 -24t-16.5 -19z" />
    <glyph glyph-name="Lcaron" unicode="&#x13d;" horiz-adv-x="810" 
d="M757 174q5 -13 3.5 -34.5t-10 -46t-24.5 -50t-41.5 -46t-61 -33.5t-81.5 -13t-88.5 12t-82.5 28t-76.5 32t-70.5 25t-66 7t-61 -23q-12 -8 -24 -5.5t-20 11t-11 20.5t3 21q6 10 21 26.5t39 32.5t56 27.5t72 11.5q26 0 49 -3q17 47 29.5 104.5t22 113t17 104.5t13.5 80
q10 48 21 89t23 76q-40 -10 -78.5 -29.5t-68.5 -44.5t-46 -54t-11 -57q2 -12 -6 -21.5t-21 -7.5q-19 3 -41 12.5t-40 32.5q-19 24 -22.5 51t5.5 52.5t29.5 47.5t50.5 36q34 16 74.5 25.5t83.5 20.5t86.5 28.5t84.5 51.5q38 38 85 38q24 0 47 -7.5t39 -18t22 -20.5t-4 -16
q-32 -17 -58 -56t-46.5 -90t-36 -109.5t-27.5 -113.5t-20 -102t-13 -75q-9 -49 -28 -97.5t-45 -85.5q26 -10 55 -17t68 -7q49 0 83 6.5t55 16.5t29 21.5t7 21.5q-1 8 5 16t15 11t19 -2.5t18 -24.5zM392 1172q-1 17 8 30t23 12q36 -3 58 -28t23 -66t-24 -95.5t-82 -116.5
q-15 -16 -32 -4q-11 8 -14 24t2 30q6 16 13.5 39t13 50.5t9 59t2.5 65.5z" />
    <glyph glyph-name="Nacute" unicode="&#x143;" horiz-adv-x="948" 
d="M993 233q5 7 12 6t12 -7t6 -15.5t-6 -19.5q-6 -11 -25.5 -43t-49.5 -66.5t-70 -61.5t-88 -27q-44 0 -69 29t-34.5 78.5t-6.5 114.5t14 136.5t28 145t35 139.5q6 24 8.5 45.5t-0.5 37.5t-13 25.5t-29 9.5t-43 -24t-50.5 -63.5t-53.5 -90t-52 -104t-46 -105.5t-35 -94
q-9 -44 -25 -94.5t-44 -94t-70 -72t-102 -28.5t-96 22.5t-50 56.5q-3 9 -1.5 17t6.5 14t13 9t17 1q8 -2 13.5 -7t7.5 -13q5 -17 18 -26.5t27 -9.5q30 0 53 30t41 77t31.5 106t23.5 117t17.5 109t14.5 83q10 48 21 89t23 76q-40 -10 -78.5 -29.5t-68.5 -44.5t-46 -54t-11 -57
q2 -12 -6 -21.5t-21 -7.5q-19 3 -41 12.5t-40 32.5q-18 24 -22 51t5 52.5t29.5 47.5t50.5 36q34 16 74.5 25.5t83.5 20.5t87 28.5t85 51.5q38 38 84 38q24 0 47 -7.5t39.5 -18t22.5 -20.5t-5 -16q-29 -15 -52.5 -48t-43 -77t-35 -94.5t-27.5 -101.5q31 67 67.5 129t77.5 110
t85 77t90 29q35 0 65 -17t49 -47t23 -71.5t-13 -90.5q-19 -55 -36.5 -116.5t-31 -122.5t-22 -117t-8 -99t11 -68.5t34.5 -25.5q19 0 37.5 16.5t34 38t26.5 41.5t16 27zM849 1098q-45 -24 -76 -58t-48 -58q-7 -11 -18.5 -13.5t-21.5 3.5q-7 5 -10 13t-1 17q16 75 41.5 118
t52.5 58t53 4.5t43 -41.5q6 -11 1.5 -24t-16.5 -19z" />
    <glyph glyph-name="nacute" unicode="&#x144;" horiz-adv-x="544" 
d="M590 234q5 7 11.5 6t11.5 -7t6 -15.5t-6 -19.5q-7 -11 -27 -43t-51 -66.5t-71.5 -61.5t-88.5 -27q-52 0 -73.5 33t-23.5 84t9.5 113.5t26.5 122.5q3 13 5 26t2 23t-3.5 16.5t-11.5 6.5q-16 0 -39 -30t-46 -77t-43.5 -104t-31.5 -110q-2 -18 -3.5 -37t-2.5 -37
q-1 -17 -13 -23.5t-22 -6.5q-36 0 -58 18t-33.5 49t-13.5 71.5t3 84.5q6 55 19 112t27.5 104t28 79.5t19.5 39.5q10 10 29.5 14.5t41.5 4t44 -5.5t37 -14t20.5 -22t-4.5 -28q-13 -19 -29.5 -57t-33.5 -89q22 42 47.5 80t51.5 66.5t52 45t50 16.5q40 0 62 -21.5t29.5 -55
t3 -75.5t-16.5 -84q-3 -10 -9 -30.5t-12.5 -45t-11.5 -50.5t-5 -47.5t6.5 -35t22.5 -13.5q19 0 38 16.5t35 38t28 41.5t17 27zM484 737q-45 -24 -76 -58t-48 -58q-7 -11 -18.5 -13.5t-21.5 3.5q-7 5 -10 13t-1 17q16 75 41.5 118t52.5 58t53 4.5t43 -41.5q6 -11 1.5 -24
t-16.5 -19z" />
    <glyph glyph-name="Ncaron" unicode="&#x147;" horiz-adv-x="948" 
d="M993 233q5 7 12 6t12 -7t6 -15.5t-6 -19.5q-6 -11 -25.5 -43t-49.5 -66.5t-70 -61.5t-88 -27q-44 0 -69 29t-34.5 78.5t-6.5 114.5t14 136.5t28 145t35 139.5q6 24 8.5 45.5t-0.5 37.5t-13 25.5t-29 9.5t-43 -24t-50.5 -63.5t-53.5 -90t-52 -104t-46 -105.5t-35 -94
q-9 -44 -25 -94.5t-44 -94t-70 -72t-102 -28.5t-96 22.5t-50 56.5q-3 9 -1.5 17t6.5 14t13 9t17 1q8 -2 13.5 -7t7.5 -13q5 -17 18 -26.5t27 -9.5q30 0 53 30t41 77t31.5 106t23.5 117t17.5 109t14.5 83q10 48 21 89t23 76q-40 -10 -78.5 -29.5t-68.5 -44.5t-46 -54t-11 -57
q2 -12 -6 -21.5t-21 -7.5q-19 3 -41 12.5t-40 32.5q-18 24 -22 51t5 52.5t29.5 47.5t50.5 36q34 16 74.5 25.5t83.5 20.5t87 28.5t85 51.5q38 38 84 38q24 0 47 -7.5t39.5 -18t22.5 -20.5t-5 -16q-29 -15 -52.5 -48t-43 -77t-35 -94.5t-27.5 -101.5q31 67 67.5 129t77.5 110
t85 77t90 29q35 0 65 -17t49 -47t23 -71.5t-13 -90.5q-19 -55 -36.5 -116.5t-31 -122.5t-22 -117t-8 -99t11 -68.5t34.5 -25.5q19 0 37.5 16.5t34 38t26.5 41.5t16 27zM709 1084q5 -8 12.5 -8.5t13.5 5.5q15 15 34 28.5t38.5 21t36 7t26.5 -15.5q6 -8 8.5 -22t4.5 -26
q1 -8 -4 -13.5t-12 -5.5q-16 -1 -36.5 -7t-40.5 -16t-38.5 -23.5t-30.5 -29.5q-6 -7 -15.5 -5.5t-13.5 9.5q-24 51 -50.5 74.5t-56.5 27.5q-9 1 -13.5 8.5t0.5 15.5q9 17 19 26.5t17 11.5q18 3 33.5 -2.5t28.5 -15.5t23 -22.5t16 -22.5z" />
    <glyph glyph-name="ncaron" unicode="&#x148;" horiz-adv-x="544" 
d="M590 234q5 7 11.5 6t11.5 -7t6 -15.5t-6 -19.5q-7 -11 -27 -43t-51 -66.5t-71.5 -61.5t-88.5 -27q-52 0 -73.5 33t-23.5 84t9.5 113.5t26.5 122.5q3 13 5 26t2 23t-3.5 16.5t-11.5 6.5q-16 0 -39 -30t-46 -77t-43.5 -104t-31.5 -110q-2 -18 -3.5 -37t-2.5 -37
q-1 -17 -13 -23.5t-22 -6.5q-36 0 -58 18t-33.5 49t-13.5 71.5t3 84.5q6 55 19 112t27.5 104t28 79.5t19.5 39.5q10 10 29.5 14.5t41.5 4t44 -5.5t37 -14t20.5 -22t-4.5 -28q-13 -19 -29.5 -57t-33.5 -89q22 42 47.5 80t51.5 66.5t52 45t50 16.5q40 0 62 -21.5t29.5 -55
t3 -75.5t-16.5 -84q-3 -10 -9 -30.5t-12.5 -45t-11.5 -50.5t-5 -47.5t6.5 -35t22.5 -13.5q19 0 38 16.5t35 38t28 41.5t17 27zM386 747q5 -8 12.5 -8.5t13.5 5.5q15 15 34 28.5t38.5 21t36 7t26.5 -15.5q6 -8 8.5 -22t4.5 -26q1 -8 -4 -13.5t-12 -5.5q-16 -1 -36.5 -7
t-40.5 -16t-38.5 -23.5t-30.5 -29.5q-6 -7 -15.5 -5.5t-13.5 9.5q-24 51 -50.5 74.5t-56.5 27.5q-9 1 -13.5 8.5t0.5 15.5q9 17 19 26.5t17 11.5q18 3 33.5 -2.5t28.5 -15.5t23 -22.5t16 -22.5z" />
    <glyph glyph-name="Ohungarumlaut" unicode="&#x150;" 
d="M476 915q67 0 117.5 -36t81 -98.5t40.5 -146.5t-4 -181q-15 -97 -55 -181t-95 -146t-119.5 -97.5t-127.5 -35.5q-83 0 -140 38.5t-90 102.5t-41 146.5t9 170.5q24 125 69.5 213.5t103 144t123 81t128.5 25.5zM520 411q18 76 24 147t0.5 126.5t-21.5 92t-42 45.5
t-57 -12.5t-61.5 -66.5t-57.5 -109t-45 -141t-22.5 -147.5t2.5 -126t24.5 -92t43.5 -44.5q26 -9 55.5 12.5t58.5 66t54.5 108.5t43.5 141zM484 1056q-8 -38 -35.5 -64t-58.5 -26q-32 0 -48.5 26t-8.5 64q4 18 13.5 34.5t22 28.5t28 19t30.5 7q32 0 48.5 -26t8.5 -63z
M728 1056q-8 -38 -35 -64t-59 -26q-31 0 -47.5 26t-8.5 64q8 37 35 63t59 26q31 0 47.5 -26t8.5 -63z" />
    <glyph glyph-name="ohungarumlaut" unicode="&#x151;" horiz-adv-x="513" 
d="M634 476q5 7 11.5 6t11.5 -7t6 -16t-6 -20q-6 -9 -24 -37.5t-45 -61t-63 -60.5t-78 -36q-17 -57 -45.5 -101.5t-63.5 -75t-75.5 -47t-82.5 -16.5q-50 0 -87.5 25t-60.5 67.5t-29.5 98t5.5 115.5q10 50 32.5 97t49.5 83t56 58t53 22q14 0 26 -12.5t19 -30t7.5 -35.5
t-7.5 -29q-17 -23 -35.5 -60t-32.5 -93q-9 -35 -13.5 -71t-1.5 -65t14 -48t34 -19q13 0 27.5 14t28 37.5t25 53t18.5 60.5q-30 29 -40 75.5t-2.5 93t32 83t62.5 45.5q25 6 47.5 -7.5t38 -45t21 -81t-3.5 -115.5q30 5 58 22.5t51 43.5q11 12 21 26t18 27t14 22.5t9 14.5z
M279 719q-8 -38 -35.5 -64t-58.5 -26q-32 0 -48.5 26t-8.5 64q4 18 13.5 34.5t22 28.5t28 19t30.5 7q32 0 48.5 -26t8.5 -63zM523 719q-8 -38 -35 -64t-59 -26q-31 0 -47.5 26t-8.5 64q8 37 35 63t59 26q31 0 47.5 -26t8.5 -63z" />
    <glyph glyph-name="Racute" unicode="&#x154;" horiz-adv-x="769" 
d="M813 232q5 7 12 6t12 -7t6 -16t-5 -20q-5 -7 -15 -24t-25.5 -39t-35.5 -46t-44.5 -43.5t-53 -32.5t-60.5 -13q-48 0 -70.5 31.5t-29 81.5t-2 112.5t11.5 124.5q2 21 -2.5 38t-15.5 27t-28.5 11.5t-40.5 -9.5q-11 -6 -22.5 0.5t-12.5 20.5q0 8 4 13q23 39 63 61v1
q20 11 44.5 36t47 57.5t41.5 68.5t28 69.5t5.5 61t-25.5 42.5q-28 19 -66 13t-76.5 -27.5t-72.5 -55t-53 -70.5q-8 -15 -23.5 -14t-30 12.5t-22.5 29.5t0 36q18 45 53 81t78.5 61.5t91.5 39.5t91 14q36 0 80.5 -8.5t80.5 -32t56 -63.5t9 -103q-8 -42 -24 -77t-38 -65
t-48.5 -54.5t-54.5 -43.5q34 -19 51 -56.5t4 -95.5q-11 -51 -18 -97.5t-7 -82.5t8.5 -57t29.5 -21q19 0 37.5 16.5t34 38t26.5 42t16 27.5zM342 657q24 0 44 -3t33.5 -9t18 -14t-2.5 -18q-27 -36 -42 -79.5t-23 -85.5t-11 -78t-7 -57q-5 -29 -13 -64t-20.5 -71t-31 -70
t-44.5 -60.5t-60.5 -42.5t-78.5 -16q-41 0 -70.5 10.5t-48.5 28.5t-28 41.5t-9 49.5q0 107 65 187.5t186 114.5q5 34 9 63.5t9 51.5q7 37 21 60.5t31 37t36 18.5t37 5zM59 53q27 0 47 22t34.5 58t25 82.5t18.5 95.5q-86 -31 -129 -86t-43 -121q0 -24 14.5 -37.5t32.5 -13.5z
M687 1150q-45 -24 -76 -58t-48 -58q-7 -11 -18.5 -13.5t-21.5 3.5q-7 5 -10 13t-1 17q16 75 41.5 118t52.5 58t53 4.5t43 -41.5q6 -11 1.5 -24t-16.5 -19z" />
    <glyph glyph-name="racute" unicode="&#x155;" horiz-adv-x="435" 
d="M480 234q5 7 12 6t12 -7t6 -15.5t-6 -19.5q-7 -11 -27 -43t-51.5 -66.5t-72 -61.5t-88.5 -27q-33 0 -52 16t-27.5 43t-8.5 63t5.5 76.5t14.5 83.5t18 84q5 24 -4.5 38.5t-26.5 25.5q-21 -51 -50.5 -111t-63.5 -119q-8 -14 -16.5 -16.5t-14 2.5t-7 14.5t3.5 18.5
q30 55 54.5 117.5t34.5 122.5q-14 8 -26 18t-17 24q-9 24 -8 58t10 64.5t25.5 52t38.5 21.5q45 0 67 -43t4 -125q-3 -13 -11 -38q29 -8 59.5 -12.5t56.5 -9.5q25 -4 40 -16.5t22 -28.5t7 -32.5t-4 -28.5q-14 -44 -28 -88.5t-21.5 -81t-3.5 -59.5t27 -23q19 0 38 16.5t35 38
t27.5 41.5t16.5 27zM461 742q-45 -24 -76 -58t-48 -58q-7 -11 -18.5 -13.5t-21.5 3.5q-7 5 -10 13t-1 17q16 75 41.5 118t52.5 58t53 4.5t43 -41.5q6 -11 1.5 -24t-16.5 -19z" />
    <glyph glyph-name="Rcaron" unicode="&#x158;" horiz-adv-x="769" 
d="M813 232q5 7 12 6t12 -7t6 -16t-5 -20q-5 -7 -15 -24t-25.5 -39t-35.5 -46t-44.5 -43.5t-53 -32.5t-60.5 -13q-48 0 -70.5 31.5t-29 81.5t-2 112.5t11.5 124.5q2 21 -2.5 38t-15.5 27t-28.5 11.5t-40.5 -9.5q-11 -6 -22.5 0.5t-12.5 20.5q0 8 4 13q23 39 63 61v1
q20 11 44.5 36t47 57.5t41.5 68.5t28 69.5t5.5 61t-25.5 42.5q-28 19 -66 13t-76.5 -27.5t-72.5 -55t-53 -70.5q-8 -15 -23.5 -14t-30 12.5t-22.5 29.5t0 36q18 45 53 81t78.5 61.5t91.5 39.5t91 14q36 0 80.5 -8.5t80.5 -32t56 -63.5t9 -103q-8 -42 -24 -77t-38 -65
t-48.5 -54.5t-54.5 -43.5q34 -19 51 -56.5t4 -95.5q-11 -51 -18 -97.5t-7 -82.5t8.5 -57t29.5 -21q19 0 37.5 16.5t34 38t26.5 42t16 27.5zM342 657q24 0 44 -3t33.5 -9t18 -14t-2.5 -18q-27 -36 -42 -79.5t-23 -85.5t-11 -78t-7 -57q-5 -29 -13 -64t-20.5 -71t-31 -70
t-44.5 -60.5t-60.5 -42.5t-78.5 -16q-41 0 -70.5 10.5t-48.5 28.5t-28 41.5t-9 49.5q0 107 65 187.5t186 114.5q5 34 9 63.5t9 51.5q7 37 21 60.5t31 37t36 18.5t37 5zM59 53q27 0 47 22t34.5 58t25 82.5t18.5 95.5q-86 -31 -129 -86t-43 -121q0 -24 14.5 -37.5t32.5 -13.5z
M577 1123q5 -8 12.5 -8.5t13.5 5.5q15 15 34 28.5t38.5 21t36 7t26.5 -15.5q6 -8 8.5 -22t4.5 -26q1 -8 -4 -13.5t-12 -5.5q-16 -1 -36.5 -7t-40.5 -16t-38.5 -23.5t-30.5 -29.5q-6 -7 -15.5 -5.5t-13.5 9.5q-24 51 -50.5 74.5t-56.5 27.5q-9 1 -13.5 8.5t0.5 15.5
q9 17 19 26.5t17 11.5q18 3 33.5 -2.5t28.5 -15.5t23 -22.5t16 -22.5z" />
    <glyph glyph-name="rcaron" unicode="&#x159;" horiz-adv-x="435" 
d="M480 234q5 7 12 6t12 -7t6 -15.5t-6 -19.5q-7 -11 -27 -43t-51.5 -66.5t-72 -61.5t-88.5 -27q-33 0 -52 16t-27.5 43t-8.5 63t5.5 76.5t14.5 83.5t18 84q5 24 -4.5 38.5t-26.5 25.5q-21 -51 -50.5 -111t-63.5 -119q-8 -14 -16.5 -16.5t-14 2.5t-7 14.5t3.5 18.5
q30 55 54.5 117.5t34.5 122.5q-14 8 -26 18t-17 24q-9 24 -8 58t10 64.5t25.5 52t38.5 21.5q45 0 67 -43t4 -125q-3 -13 -11 -38q29 -8 59.5 -12.5t56.5 -9.5q25 -4 40 -16.5t22 -28.5t7 -32.5t-4 -28.5q-14 -44 -28 -88.5t-21.5 -81t-3.5 -59.5t27 -23q19 0 38 16.5t35 38
t27.5 41.5t16.5 27zM349 726q5 -8 12.5 -8.5t13.5 5.5q15 15 34 28.5t38.5 21t36 7t26.5 -15.5q6 -8 8.5 -22t4.5 -26q1 -8 -4 -13.5t-12 -5.5q-16 -1 -36.5 -7t-40.5 -16t-38.5 -23.5t-30.5 -29.5q-6 -7 -15.5 -5.5t-13.5 9.5q-24 51 -50.5 74.5t-56.5 27.5q-9 1 -13.5 8.5
t0.5 15.5q9 17 19 26.5t17 11.5q18 3 33.5 -2.5t28.5 -15.5t23 -22.5t16 -22.5z" />
    <glyph glyph-name="Sacute" unicode="&#x15a;" horiz-adv-x="646" 
d="M443 962q40 0 77 -13t68 -35t54.5 -49.5t36.5 -56.5t2.5 -60t-38.5 -47q-15 -8 -31 -10t-31 2t-28.5 13.5t-22.5 24.5q-17 28 -39.5 50.5t-45 34t-43 9t-33.5 -24.5q-14 -24 -3.5 -66t34 -94.5t54 -112.5t57 -120t43.5 -116t13 -100t-23.5 -83.5t-53.5 -69.5t-81.5 -47.5
t-107.5 -17.5q-45 0 -89.5 16t-83.5 42.5t-70 62t-49 74.5q-15 32 -6 65.5t36 54.5q21 16 46 19t47.5 -4.5t40 -25.5t23.5 -44q7 -27 22 -57t34.5 -55t42 -41.5t43.5 -16.5q17 0 27 6.5t15 17t6.5 25t1.5 29.5q0 36 -14 79t-34.5 90t-45 96t-45 98t-34.5 96.5t-14 90.5
q0 59 20 108.5t53 85.5t77 56.5t92 20.5zM594 1149q-45 -24 -76 -58t-48 -58q-7 -11 -18.5 -13.5t-21.5 3.5q-7 5 -10 13t-1 17q16 75 41.5 118t52.5 58t53 4.5t43 -41.5q6 -11 1.5 -24t-16.5 -19z" />
    <glyph glyph-name="sacute" unicode="&#x15b;" horiz-adv-x="360" 
d="M394 234q5 7 11.5 6t11.5 -7t6 -15.5t-6 -19.5q-6 -10 -24 -39t-47 -62q-16 -18 -39.5 -39.5t-52 -40t-59.5 -30.5t-62 -12q-24 0 -42 5t-31.5 13.5t-23 19t-16.5 20.5q-13 18 -12 32t7.5 22t16.5 9t15 -5q4 -5 10.5 -14t15 -16t19 -10.5t21.5 1.5q9 4 11 24t-1 48.5
t-8.5 64t-10.5 71.5q-8 -15 -16.5 -30.5t-16.5 -29.5t-16.5 -16.5t-14 2.5t-7 14.5t3.5 18.5q34 61 58 126q-4 70 3.5 133.5t25.5 108t46.5 65t66.5 5.5q19 -8 26 -31t6 -50.5t-6.5 -54.5t-11.5 -42h-1q2 -28 7 -63.5t15 -80.5q16 -69 18.5 -132.5t-12.5 -114.5q10 7 21 18
t21.5 23t19.5 24t15 21q14 20 24 37t15 23zM350 845q-45 -24 -76 -58t-48 -58q-7 -11 -18.5 -13.5t-21.5 3.5q-7 5 -10 13t-1 17q16 75 41.5 118t52.5 58t53 4.5t43 -41.5q6 -11 1.5 -24t-16.5 -19z" />
    <glyph glyph-name="Scedilla" unicode="&#x15e;" horiz-adv-x="646" 
d="M443 962q40 0 77 -13t68 -35t54.5 -49.5t36.5 -56.5t2.5 -60t-38.5 -47q-15 -8 -31 -10t-31 2t-28.5 13.5t-22.5 24.5q-17 28 -39.5 50.5t-45 34t-43 9t-33.5 -24.5q-14 -24 -3.5 -66t34 -94.5t54 -112.5t57 -120t43.5 -116t13 -100t-23.5 -83.5t-53.5 -69.5t-81.5 -47.5
t-107.5 -17.5q-45 0 -89.5 16t-83.5 42.5t-70 62t-49 74.5q-15 32 -6 65.5t36 54.5q21 16 46 19t47.5 -4.5t40 -25.5t23.5 -44q7 -27 22 -57t34.5 -55t42 -41.5t43.5 -16.5q17 0 27 6.5t15 17t6.5 25t1.5 29.5q0 36 -14 79t-34.5 90t-45 96t-45 98t-34.5 96.5t-14 90.5
q0 59 20 108.5t53 85.5t77 56.5t92 20.5zM317 -50q56 -10 82.5 -40.5t12.5 -73.5q-13 -40 -57.5 -75.5t-104.5 -57.5q-17 -6 -32.5 -5.5t-26.5 5.5t-16 14.5t1 20.5l11 22q8 17 36 27q45 14 74 31.5t27 31.5q-2 10 -18.5 14t-43.5 2t-42 10.5t-7 29.5l8 16q1 1 1.5 2t1.5 2
l74 125h84l-65 -101v0z" />
    <glyph glyph-name="scedilla" unicode="&#x15f;" horiz-adv-x="360" 
d="M394 234q5 7 11.5 6t11.5 -7t6 -15.5t-6 -19.5q-6 -10 -24 -39t-47 -62q-16 -18 -39.5 -39.5t-52 -40t-59.5 -30.5t-62 -12q-24 0 -42 5t-31.5 13.5t-23 19t-16.5 20.5q-13 18 -12 32t7.5 22t16.5 9t15 -5q4 -5 10.5 -14t15 -16t19 -10.5t21.5 1.5q9 4 11 24t-1 48.5
t-8.5 64t-10.5 71.5q-8 -15 -16.5 -30.5t-16.5 -29.5t-16.5 -16.5t-14 2.5t-7 14.5t3.5 18.5q34 61 58 126q-4 70 3.5 133.5t25.5 108t46.5 65t66.5 5.5q19 -8 26 -31t6 -50.5t-6.5 -54.5t-11.5 -42h-1q2 -28 7 -63.5t15 -80.5q16 -69 18.5 -132.5t-12.5 -114.5q10 7 21 18
t21.5 23t19.5 24t15 21q14 20 24 37t15 23zM179 -44q56 -10 82.5 -40.5t12.5 -73.5q-13 -40 -57.5 -75.5t-104.5 -57.5q-17 -6 -32.5 -5.5t-26.5 5.5t-16 14.5t1 20.5l11 22q8 17 36 27q45 14 74 31.5t27 31.5q-2 10 -18.5 14t-43.5 2t-42 10.5t-7 29.5l8 16q1 1 1.5 2
t1.5 2l74 125h84l-65 -101v0z" />
    <glyph glyph-name="Scaron" unicode="&#x160;" horiz-adv-x="646" 
d="M443 962q40 0 77 -13t68 -35t54.5 -49.5t36.5 -56.5t2.5 -60t-38.5 -47q-15 -8 -31 -10t-31 2t-28.5 13.5t-22.5 24.5q-17 28 -39.5 50.5t-45 34t-43 9t-33.5 -24.5q-14 -24 -3.5 -66t34 -94.5t54 -112.5t57 -120t43.5 -116t13 -100t-23.5 -83.5t-53.5 -69.5t-81.5 -47.5
t-107.5 -17.5q-45 0 -89.5 16t-83.5 42.5t-70 62t-49 74.5q-15 32 -6 65.5t36 54.5q21 16 46 19t47.5 -4.5t40 -25.5t23.5 -44q7 -27 22 -57t34.5 -55t42 -41.5t43.5 -16.5q17 0 27 6.5t15 17t6.5 25t1.5 29.5q0 36 -14 79t-34.5 90t-45 96t-45 98t-34.5 96.5t-14 90.5
q0 59 20 108.5t53 85.5t77 56.5t92 20.5zM455 1120q5 -8 12.5 -8.5t13.5 5.5q15 15 34 28.5t38.5 21t36 7t26.5 -15.5q6 -8 8.5 -22t4.5 -26q1 -8 -4 -13.5t-12 -5.5q-16 -1 -36.5 -7t-40.5 -16t-38.5 -23.5t-30.5 -29.5q-6 -7 -15.5 -5.5t-13.5 9.5q-24 51 -50.5 74.5
t-56.5 27.5q-9 1 -13.5 8.5t0.5 15.5q9 17 19 26.5t17 11.5q18 3 33.5 -2.5t28.5 -15.5t23 -22.5t16 -22.5z" />
    <glyph glyph-name="scaron" unicode="&#x161;" horiz-adv-x="360" 
d="M394 234q5 7 11.5 6t11.5 -7t6 -15.5t-6 -19.5q-6 -10 -24 -39t-47 -62q-16 -18 -39.5 -39.5t-52 -40t-59.5 -30.5t-62 -12q-24 0 -42 5t-31.5 13.5t-23 19t-16.5 20.5q-13 18 -12 32t7.5 22t16.5 9t15 -5q4 -5 10.5 -14t15 -16t19 -10.5t21.5 1.5q9 4 11 24t-1 48.5
t-8.5 64t-10.5 71.5q-8 -15 -16.5 -30.5t-16.5 -29.5t-16.5 -16.5t-14 2.5t-7 14.5t3.5 18.5q34 61 58 126q-4 70 3.5 133.5t25.5 108t46.5 65t66.5 5.5q19 -8 26 -31t6 -50.5t-6.5 -54.5t-11.5 -42h-1q2 -28 7 -63.5t15 -80.5q16 -69 18.5 -132.5t-12.5 -114.5q10 7 21 18
t21.5 23t19.5 24t15 21q14 20 24 37t15 23zM211 810q5 -8 12.5 -8.5t13.5 5.5q15 15 34 28.5t38.5 21t36 7t26.5 -15.5q6 -8 8.5 -22t4.5 -26q1 -8 -4 -13.5t-12 -5.5q-16 -1 -36.5 -7t-40.5 -16t-38.5 -23.5t-30.5 -29.5q-6 -7 -15.5 -5.5t-13.5 9.5q-24 51 -50.5 74.5
t-56.5 27.5q-9 1 -13.5 8.5t0.5 15.5q9 17 19 26.5t17 11.5q18 3 33.5 -2.5t28.5 -15.5t23 -22.5t16 -22.5z" />
    <glyph glyph-name="Tcaron" unicode="&#x164;" horiz-adv-x="523" 
d="M798 920q-1 8 5 16t15 11t19 -2.5t18 -24.5q5 -13 3.5 -34.5t-10 -46.5t-24.5 -50.5t-41.5 -46t-61 -33.5t-81.5 -13q-33 0 -66 6t-67 16q-21 -51 -37 -110t-28 -115t-20 -103.5t-13 -76.5t-14 -64t-23 -71t-34 -70t-47 -60.5t-62.5 -42.5t-79.5 -16q-61 0 -97 22t-50 56
q-3 9 -1.5 17t6.5 14t13 9t17 1q17 -3 22 -20t17.5 -26t27.5 -9q30 0 53 30t40.5 77t31 106t23.5 117t18 109t15 83q16 74 42.5 118.5t55.5 67.5q-36 13 -70.5 23.5t-66 14.5t-59.5 -0.5t-52 -21.5q-12 -8 -24 -5.5t-20 11t-11 20.5t3 21q6 10 21 26.5t39 32.5t56 28t72 12
q47 0 89.5 -11t84.5 -23.5t85.5 -23.5t93.5 -11q49 0 83 6.5t54.5 16.5t29 21.5t7.5 21.5zM502 1053q5 -8 12.5 -8.5t13.5 5.5q15 15 34 28.5t38.5 21t36 7t26.5 -15.5q6 -8 8.5 -22t4.5 -26q1 -8 -4 -13.5t-12 -5.5q-16 -1 -36.5 -7t-40.5 -16t-38.5 -23.5t-30.5 -29.5
q-6 -7 -15.5 -5.5t-13.5 9.5q-24 51 -50.5 74.5t-56.5 27.5q-9 1 -13.5 8.5t0.5 15.5q9 17 19 26.5t17 11.5q18 3 33.5 -2.5t28.5 -15.5t23 -22.5t16 -22.5z" />
    <glyph glyph-name="tcaron" unicode="&#x165;" horiz-adv-x="567" 
d="M358 234q5 7 12 6t12 -7t6 -15.5t-6 -19.5q-7 -11 -27 -43t-51.5 -66.5t-72 -61.5t-88.5 -27q-45 0 -68.5 33t-30.5 86.5t-0.5 122t20.5 139.5q-11 1 -22 1h-22q-18 0 -19.5 13t7.5 29t24.5 29t31.5 13q4 0 8.5 -0.5t10.5 -0.5q13 56 28.5 107.5t29.5 91.5t25 65.5
t16 30.5q10 10 29 14.5t41.5 4t44.5 -5.5t37 -14t20.5 -22t-4.5 -28q-8 -11 -19.5 -35.5t-24.5 -58.5t-26.5 -74.5t-26.5 -83.5q23 -2 40.5 -2.5t25.5 0.5q14 0 13.5 -13.5t-9.5 -30t-23.5 -30.5t-27.5 -14q-15 0 -43 3q-13 -51 -21 -98t-8 -82.5t9.5 -57t31.5 -21.5
q19 0 38 16.5t35 38t27.5 41.5t16.5 27zM444 743q-1 17 8 30t23 12q36 -3 58 -28t23 -66t-24 -95.5t-82 -116.5q-15 -16 -32 -4q-11 8 -14 24t2 30q6 16 13.5 39t13 50.5t9 59t2.5 65.5z" />
    <glyph glyph-name="Utilde" unicode="&#x168;" horiz-adv-x="892" 
d="M936 232q5 7 12 6t12 -7t6 -16t-5 -20q-5 -7 -15 -24t-25.5 -39t-35.5 -46t-44.5 -43.5t-53 -32.5t-60.5 -13t-53 17t-33.5 47.5t-17.5 72t-3 90.5q-18 -42 -41 -79.5t-51.5 -66t-63 -45t-75.5 -16.5q-107 0 -133.5 137t35.5 421q11 47 22 88t24 77q-40 -10 -79 -29.5
t-69 -45t-46.5 -54.5t-11.5 -57q2 -12 -6 -21t-21 -7q-19 2 -41 12t-40 33q-18 24 -22 51t5 52.5t29.5 47t50.5 35.5q34 17 74.5 26t83.5 20.5t87 29t85 50.5l-1 -1q38 40 85 40q24 0 47 -7.5t39.5 -18t22.5 -21t-5 -15.5q-32 -17 -58 -56t-47 -90t-37.5 -109.5t-28 -113.5
t-19 -102t-11.5 -76q-5 -41 -5 -76t6 -61t17 -40.5t28 -14.5q26 0 50.5 22.5t46 58t40.5 80t33.5 89.5t25.5 85.5t18 68.5q16 70 33.5 134t33.5 114t28.5 82t17.5 37q10 10 29 14.5t41 4.5t44.5 -5t38 -14t21 -22t-4.5 -28q-9 -14 -24.5 -52.5t-33.5 -93t-37 -119
t-34.5 -130t-26 -126.5t-11.5 -108.5t9 -76t35 -28.5q19 0 37.5 16.5t34 38t26.5 42t16 27.5zM966 1065q-3 -21 -11 -40.5t-21.5 -35.5t-33.5 -25.5t-49 -10.5q-36 -1 -64.5 8.5t-56 21.5t-57 22t-66.5 9q-26 -1 -50.5 -4.5t-44.5 -8.5q-9 -2 -16 2.5t-10.5 12t-3.5 17
t5 18.5q8 13 19 26t25 23.5t32 17t40 6.5q42 1 72 -6.5t55.5 -17.5t52 -18t62.5 -7q20 1 42.5 6t41.5 19q7 5 14.5 4t13 -6.5t8.5 -14t1 -18.5z" />
    <glyph glyph-name="utilde" unicode="&#x169;" horiz-adv-x="573" 
d="M619 234q5 7 11.5 6t11.5 -7t6 -15.5t-6 -19.5q-7 -11 -27 -43t-51 -66.5t-72 -61.5t-89 -27q-47 0 -70.5 30.5t-31.5 79.5q-32 -46 -80.5 -78t-114.5 -32q-53 0 -77 39t-28 98.5t7 129.5t27.5 132t33.5 106.5t25 52.5q10 10 29.5 14.5t41.5 4t44 -5.5t37 -14t20.5 -22
t-4.5 -28q-12 -18 -28 -54.5t-30 -80.5t-25 -90t-13 -84t6 -62.5t32 -24.5q17 0 33 18t29.5 45.5t24.5 59.5t18 61q8 47 20 92t24 81t22 60t16 30q10 10 29.5 14.5t41.5 4t44 -5.5t37 -14t20.5 -22t-4.5 -28q-12 -18 -28 -54.5t-30 -80.5t-25 -90t-13 -84t6 -62.5t32 -24.5
q19 0 38 16.5t35 38t28 41.5t17 27zM602 750q-3 -21 -11 -40.5t-21.5 -35.5t-33.5 -25.5t-49 -10.5q-36 -1 -64.5 8.5t-56 21.5t-57 22t-66.5 9q-26 -1 -50.5 -4.5t-44.5 -8.5q-9 -2 -16 2.5t-10.5 12t-3.5 17t5 18.5q8 13 19 26t25 23.5t32 17t40 6.5q42 1 72 -6.5
t55.5 -17.5t52 -18t62.5 -7q20 1 42.5 6t41.5 19q7 5 14.5 4t13 -6.5t8.5 -14t1 -18.5z" />
    <glyph glyph-name="Uring" unicode="&#x16e;" horiz-adv-x="892" 
d="M936 232q5 7 12 6t12 -7t6 -16t-5 -20q-5 -7 -15 -24t-25.5 -39t-35.5 -46t-44.5 -43.5t-53 -32.5t-60.5 -13t-53 17t-33.5 47.5t-17.5 72t-3 90.5q-18 -42 -41 -79.5t-51.5 -66t-63 -45t-75.5 -16.5q-107 0 -133.5 137t35.5 421q11 47 22 88t24 77q-40 -10 -79 -29.5
t-69 -45t-46.5 -54.5t-11.5 -57q2 -12 -6 -21t-21 -7q-19 2 -41 12t-40 33q-18 24 -22 51t5 52.5t29.5 47t50.5 35.5q34 17 74.5 26t83.5 20.5t87 29t85 50.5l-1 -1q38 40 85 40q24 0 47 -7.5t39.5 -18t22.5 -21t-5 -15.5q-32 -17 -58 -56t-47 -90t-37.5 -109.5t-28 -113.5
t-19 -102t-11.5 -76q-5 -41 -5 -76t6 -61t17 -40.5t28 -14.5q26 0 50.5 22.5t46 58t40.5 80t33.5 89.5t25.5 85.5t18 68.5q16 70 33.5 134t33.5 114t28.5 82t17.5 37q10 10 29 14.5t41 4.5t44.5 -5t38 -14t21 -22t-4.5 -28q-9 -14 -24.5 -52.5t-33.5 -93t-37 -119
t-34.5 -130t-26 -126.5t-11.5 -108.5t9 -76t35 -28.5q19 0 37.5 16.5t34 38t26.5 42t16 27.5zM734 1233q25 0 45.5 -11t34.5 -30t19.5 -44.5t1.5 -53.5q-4 -29 -17.5 -54.5t-33 -44t-43.5 -29.5t-49 -11t-45.5 11t-34.5 29.5t-20 44t-1 54.5q4 28 17.5 53.5t33 44.5t43 30
t49.5 11zM746 1083q14 32 13.5 58t-14.5 31t-32.5 -15t-32.5 -52q-14 -33 -13.5 -59t14.5 -31t32.5 15t32.5 53z" />
    <glyph glyph-name="uring" unicode="&#x16f;" horiz-adv-x="573" 
d="M619 234q5 7 11.5 6t11.5 -7t6 -15.5t-6 -19.5q-7 -11 -27 -43t-51 -66.5t-72 -61.5t-89 -27q-47 0 -70.5 30.5t-31.5 79.5q-32 -46 -80.5 -78t-114.5 -32q-53 0 -77 39t-28 98.5t7 129.5t27.5 132t33.5 106.5t25 52.5q10 10 29.5 14.5t41.5 4t44 -5.5t37 -14t20.5 -22
t-4.5 -28q-12 -18 -28 -54.5t-30 -80.5t-25 -90t-13 -84t6 -62.5t32 -24.5q17 0 33 18t29.5 45.5t24.5 59.5t18 61q8 47 20 92t24 81t22 60t16 30q10 10 29.5 14.5t41.5 4t44 -5.5t37 -14t20.5 -22t-4.5 -28q-12 -18 -28 -54.5t-30 -80.5t-25 -90t-13 -84t6 -62.5t32 -24.5
q19 0 38 16.5t35 38t28 41.5t17 27zM391 903q25 0 45.5 -11t34.5 -30t19.5 -44.5t1.5 -53.5q-4 -29 -17.5 -54.5t-33 -44t-43.5 -29.5t-49 -11t-45.5 11t-34.5 29.5t-20 44t-1 54.5q4 28 17.5 53.5t33 44.5t43 30t49.5 11zM403 753q14 32 13.5 58t-14.5 31t-32.5 -15
t-32.5 -52q-14 -33 -13.5 -59t14.5 -31t32.5 15t32.5 53z" />
    <glyph glyph-name="Uhungarumlaut" unicode="&#x170;" horiz-adv-x="892" 
d="M936 232q5 7 12 6t12 -7t6 -16t-5 -20q-5 -7 -15 -24t-25.5 -39t-35.5 -46t-44.5 -43.5t-53 -32.5t-60.5 -13t-53 17t-33.5 47.5t-17.5 72t-3 90.5q-18 -42 -41 -79.5t-51.5 -66t-63 -45t-75.5 -16.5q-107 0 -133.5 137t35.5 421q11 47 22 88t24 77q-40 -10 -79 -29.5
t-69 -45t-46.5 -54.5t-11.5 -57q2 -12 -6 -21t-21 -7q-19 2 -41 12t-40 33q-18 24 -22 51t5 52.5t29.5 47t50.5 35.5q34 17 74.5 26t83.5 20.5t87 29t85 50.5l-1 -1q38 40 85 40q24 0 47 -7.5t39.5 -18t22.5 -21t-5 -15.5q-32 -17 -58 -56t-47 -90t-37.5 -109.5t-28 -113.5
t-19 -102t-11.5 -76q-5 -41 -5 -76t6 -61t17 -40.5t28 -14.5q26 0 50.5 22.5t46 58t40.5 80t33.5 89.5t25.5 85.5t18 68.5q16 70 33.5 134t33.5 114t28.5 82t17.5 37q10 10 29 14.5t41 4.5t44.5 -5t38 -14t21 -22t-4.5 -28q-9 -14 -24.5 -52.5t-33.5 -93t-37 -119
t-34.5 -130t-26 -126.5t-11.5 -108.5t9 -76t35 -28.5q19 0 37.5 16.5t34 38t26.5 42t16 27.5zM649 1061q-8 -38 -35.5 -64t-58.5 -26q-32 0 -48.5 26t-8.5 64q4 18 13.5 34.5t22 28.5t28 19t30.5 7q32 0 48.5 -26t8.5 -63zM893 1061q-8 -38 -35 -64t-59 -26q-31 0 -47.5 26
t-8.5 64q8 37 35 63t59 26q31 0 47.5 -26t8.5 -63z" />
    <glyph glyph-name="uhungarumlaut" unicode="&#x171;" horiz-adv-x="573" 
d="M619 234q5 7 11.5 6t11.5 -7t6 -15.5t-6 -19.5q-7 -11 -27 -43t-51 -66.5t-72 -61.5t-89 -27q-47 0 -70.5 30.5t-31.5 79.5q-32 -46 -80.5 -78t-114.5 -32q-53 0 -77 39t-28 98.5t7 129.5t27.5 132t33.5 106.5t25 52.5q10 10 29.5 14.5t41.5 4t44 -5.5t37 -14t20.5 -22
t-4.5 -28q-12 -18 -28 -54.5t-30 -80.5t-25 -90t-13 -84t6 -62.5t32 -24.5q17 0 33 18t29.5 45.5t24.5 59.5t18 61q8 47 20 92t24 81t22 60t16 30q10 10 29.5 14.5t41.5 4t44 -5.5t37 -14t20.5 -22t-4.5 -28q-12 -18 -28 -54.5t-30 -80.5t-25 -90t-13 -84t6 -62.5t32 -24.5
q19 0 38 16.5t35 38t28 41.5t17 27zM341 732q-8 -38 -35.5 -64t-58.5 -26q-32 0 -48.5 26t-8.5 64q4 18 13.5 34.5t22 28.5t28 19t30.5 7q32 0 48.5 -26t8.5 -63zM585 732q-8 -38 -35 -64t-59 -26q-31 0 -47.5 26t-8.5 64q8 37 35 63t59 26q31 0 47.5 -26t8.5 -63z" />
    <glyph glyph-name="Zacute" unicode="&#x179;" horiz-adv-x="778" 
d="M21 -57q11 4 22.5 -0.5t16.5 -15.5q28 -59 67 -79t92 -20q63 0 116.5 28t92.5 72.5t61 99.5t22 109q0 31 -13.5 50.5t-37 28t-55 5.5t-66.5 -15q-11 -4 -20.5 0t-16.5 12.5t-11 20t-3 22.5q3 23 19 36q42 34 83 81t76 99t62 104.5t42 97.5t15.5 78t-16.5 46
q-27 19 -65.5 8t-80.5 -44t-83 -83.5t-73 -108.5q-28 8 -49 21q-19 11 -34 28.5t-15 42.5q0 16 12.5 40t35 50t54.5 51.5t71.5 46.5t86 33.5t97.5 12.5q37 0 77.5 -9t74.5 -32t56.5 -63t22.5 -102q0 -37 -12 -73.5t-32 -71t-45.5 -66.5t-52.5 -60q-62 -65 -142 -123
q56 10 99 -2t72 -38t44 -63t15 -77q0 -58 -19 -110.5t-51.5 -97.5t-76 -82t-93 -62.5t-102.5 -39.5t-103 -14q-55 0 -97.5 17t-74 44t-52.5 60.5t-32 66.5q-5 12 1 23.5t18 16.5zM699 1074q-45 -24 -76 -58t-48 -58q-7 -11 -18.5 -13.5t-21.5 3.5q-7 5 -10 13t-1 17
q16 75 41.5 118t52.5 58t53 4.5t43 -41.5q6 -11 1.5 -24t-16.5 -19z" />
    <glyph glyph-name="zacute" unicode="&#x17a;" horiz-adv-x="493" 
d="M504 234q5 7 12 6t12 -7t6 -15.5t-6 -19.5q-6 -9 -21.5 -33.5t-38.5 -53.5q-23 -27 -48 -48q0 -12 -3 -24q-14 -58 -46 -108t-76 -88t-98 -62.5t-111 -30.5t-86 10t-37 41.5t-0.5 53.5t24.5 46q22 24 51.5 40t64 28.5t72.5 24t76 25.5q8 23 10 43.5t-4 36.5t-20.5 25
t-39.5 10q-23 -2 -41.5 10.5t-29 29.5t-12 34t9.5 25q41 30 75.5 71t58 79.5t33 68t1.5 37.5q-10 9 -25.5 0t-34 -30.5t-39.5 -52.5t-42.5 -66.5t-42.5 -71.5t-39 -68q-8 -14 -16.5 -16.5t-14 2.5t-7 14.5t3.5 18.5q30 60 63 129.5t72.5 129.5t88 99.5t109.5 39.5
q40 0 69.5 -24t29.5 -73q0 -33 -14 -73t-36.5 -81t-50.5 -80.5t-56 -70.5q35 -12 64.5 -37t40.5 -63q13 12 28 30q10 12 20 26t18 26.5t14 22.5t9 14zM55 -177q21 0 44 11t45 29.5t42 43t36 50.5q-53 -19 -99.5 -35.5t-79.5 -42.5q-23 -18 -21.5 -37t33.5 -19zM492 790
q-45 -24 -76 -58t-48 -58q-7 -11 -18.5 -13.5t-21.5 3.5q-7 5 -10 13t-1 17q16 75 41.5 118t52.5 58t53 4.5t43 -41.5q6 -11 1.5 -24t-16.5 -19z" />
    <glyph glyph-name="Zcaron" unicode="&#x17d;" horiz-adv-x="778" 
d="M21 -57q11 4 22.5 -0.5t16.5 -15.5q28 -59 67 -79t92 -20q63 0 116.5 28t92.5 72.5t61 99.5t22 109q0 31 -13.5 50.5t-37 28t-55 5.5t-66.5 -15q-11 -4 -20.5 0t-16.5 12.5t-11 20t-3 22.5q3 23 19 36q42 34 83 81t76 99t62 104.5t42 97.5t15.5 78t-16.5 46
q-27 19 -65.5 8t-80.5 -44t-83 -83.5t-73 -108.5q-28 8 -49 21q-19 11 -34 28.5t-15 42.5q0 16 12.5 40t35 50t54.5 51.5t71.5 46.5t86 33.5t97.5 12.5q37 0 77.5 -9t74.5 -32t56.5 -63t22.5 -102q0 -37 -12 -73.5t-32 -71t-45.5 -66.5t-52.5 -60q-62 -65 -142 -123
q56 10 99 -2t72 -38t44 -63t15 -77q0 -58 -19 -110.5t-51.5 -97.5t-76 -82t-93 -62.5t-102.5 -39.5t-103 -14q-55 0 -97.5 17t-74 44t-52.5 60.5t-32 66.5q-5 12 1 23.5t18 16.5zM559 1084q5 -8 12.5 -8.5t13.5 5.5q15 15 34 28.5t38.5 21t36 7t26.5 -15.5q6 -8 8.5 -22
t4.5 -26q1 -8 -4 -13.5t-12 -5.5q-16 -1 -36.5 -7t-40.5 -16t-38.5 -23.5t-30.5 -29.5q-6 -7 -15.5 -5.5t-13.5 9.5q-24 51 -50.5 74.5t-56.5 27.5q-9 1 -13.5 8.5t0.5 15.5q9 17 19 26.5t17 11.5q18 3 33.5 -2.5t28.5 -15.5t23 -22.5t16 -22.5z" />
    <glyph glyph-name="zcaron" unicode="&#x17e;" horiz-adv-x="493" 
d="M504 234q5 7 12 6t12 -7t6 -15.5t-6 -19.5q-6 -9 -21.5 -33.5t-38.5 -53.5q-23 -27 -48 -48q0 -12 -3 -24q-14 -58 -46 -108t-76 -88t-98 -62.5t-111 -30.5t-86 10t-37 41.5t-0.5 53.5t24.5 46q22 24 51.5 40t64 28.5t72.5 24t76 25.5q8 23 10 43.5t-4 36.5t-20.5 25
t-39.5 10q-23 -2 -41.5 10.5t-29 29.5t-12 34t9.5 25q41 30 75.5 71t58 79.5t33 68t1.5 37.5q-10 9 -25.5 0t-34 -30.5t-39.5 -52.5t-42.5 -66.5t-42.5 -71.5t-39 -68q-8 -14 -16.5 -16.5t-14 2.5t-7 14.5t3.5 18.5q30 60 63 129.5t72.5 129.5t88 99.5t109.5 39.5
q40 0 69.5 -24t29.5 -73q0 -33 -14 -73t-36.5 -81t-50.5 -80.5t-56 -70.5q35 -12 64.5 -37t40.5 -63q13 12 28 30q10 12 20 26t18 26.5t14 22.5t9 14zM55 -177q21 0 44 11t45 29.5t42 43t36 50.5q-53 -19 -99.5 -35.5t-79.5 -42.5q-23 -18 -21.5 -37t33.5 -19zM327 776
q5 -8 12.5 -8.5t13.5 5.5q15 15 34 28.5t38.5 21t36 7t26.5 -15.5q6 -8 8.5 -22t4.5 -26q1 -8 -4 -13.5t-12 -5.5q-16 -1 -36.5 -7t-40.5 -16t-38.5 -23.5t-30.5 -29.5q-6 -7 -15.5 -5.5t-13.5 9.5q-24 51 -50.5 74.5t-56.5 27.5q-9 1 -13.5 8.5t0.5 15.5q9 17 19 26.5
t17 11.5q18 3 33.5 -2.5t28.5 -15.5t23 -22.5t16 -22.5z" />
    <glyph glyph-name="Ohorn" unicode="&#x1a0;" 
d="M520 411q18 76 24 147t0.5 126.5t-21.5 92t-42 45.5t-57 -12.5t-61.5 -66.5t-57.5 -109t-45 -141t-22.5 -147.5t2.5 -126t24.5 -92t43.5 -44.5q26 -9 55.5 12.5t58.5 66t54.5 108.5t43.5 141zM661 806q7 -12 14 -25q30 -63 40 -147t-4 -181q-15 -97 -55 -181t-95 -146
t-119.5 -97.5t-127.5 -35.5q-83 0 -140 38.5t-90 102.5t-41 146.5t9 170.5q24 125 69.5 213.5t103 144t123 81t128.5 25.5q65 0 115 -34q31 -4 40 8q6 9 -3.5 23t-30.5 31t-23 37t18 30l17 7q17 6 38.5 -0.5t36.5 -23.5q23 -24 34.5 -49.5t12 -49t-11 -43.5t-34.5 -34
q-11 -7 -24 -11z" />
    <glyph glyph-name="ohorn" unicode="&#x1a1;" horiz-adv-x="513" 
d="M464 452q2 -8 3 -16q5 -50 -4 -116q30 5 58 22.5t51 43.5q11 12 21 26t18 27t14 22.5t9 14.5q5 7 11.5 6t11.5 -7t6 -16t-6 -20q-6 -9 -24 -37.5t-45 -61t-63 -60.5t-78 -36q-17 -57 -45.5 -101.5t-63.5 -75t-75.5 -47t-82.5 -16.5q-50 0 -87.5 25t-60.5 67.5t-29.5 98
t5.5 115.5q10 50 32.5 97t49.5 83t56 58t53 22q14 0 26 -12.5t19 -30t7.5 -35.5t-7.5 -29q-17 -23 -35.5 -60t-32.5 -93q-9 -35 -13.5 -71t-1.5 -65t14 -48t34 -19q13 0 27.5 14t28 37.5t25 53t18.5 60.5q-30 29 -40 75.5t-2.5 93t32 83t62.5 45.5q25 6 48 -7q15 -10 27 -28
q23 -1 30 9q6 9 -3.5 23t-30.5 31t-23 37t18 30l17 7q17 6 38.5 -0.5t36.5 -23.5q23 -24 34.5 -49.5t12 -49t-11 -43.5t-34.5 -34q-24 -14 -55 -19z" />
    <glyph glyph-name="Uhorn" unicode="&#x1af;" horiz-adv-x="892" 
d="M923 795q-1 -3 -2 -5q-16 -39 -34 -93.5t-37 -119t-34.5 -130t-26 -126.5t-11.5 -108.5t9 -76t35 -28.5q19 0 37.5 16.5t34 38t26.5 42t16 27.5t12 6t12 -7t6 -16t-5 -20q-5 -7 -15 -24t-25.5 -39t-35.5 -46t-44.5 -43.5t-53 -32.5t-60.5 -13t-53 17t-33.5 47.5t-17.5 72
t-3 90.5q-18 -42 -41 -79.5t-51.5 -66t-63 -45t-75.5 -16.5q-107 0 -133.5 137t35.5 421q11 47 22 88t24 77q-40 -10 -79 -29.5t-69 -45t-46.5 -54.5t-11.5 -57q2 -12 -6 -21t-21 -7q-19 2 -41 12t-40 33q-18 24 -22 51t5 52.5t29.5 47t50.5 35.5q34 17 74.5 26t83.5 20.5
t87 29.5q44 17 85 50q37 39 84 39q24 0 47 -7.5t39.5 -18t22.5 -21t-5 -15.5q-32 -17 -58 -56t-47 -90t-37.5 -109.5t-28 -113.5t-19 -102t-11.5 -76q-5 -41 -5 -76t6 -61t17 -40.5t28 -14.5q26 0 50.5 22.5t46 58t40.5 80t33.5 89.5t25.5 85.5t18 68.5q16 70 33.5 134
t33.5 114t28.5 82t17.5 37q10 10 29 14.5t41 4.5t44.5 -5t38.5 -14q8 -5 14 -11q29 -4 37 8q6 9 -3.5 23t-30.5 31t-23 37t18 30l17 7q17 6 38.5 -0.5t36.5 -23.5q23 -24 34.5 -49.5t12 -49t-11 -43.5t-34.5 -34q-41 -24 -100 -22h-11z" />
    <glyph glyph-name="uhorn" unicode="&#x1b0;" horiz-adv-x="573" 
d="M530 450q-16 -36 -29 -78q-14 -44 -25 -90t-13 -84t6 -62.5t32 -24.5q19 0 38 16.5t35 38t28 41.5t17 27t11.5 6t11.5 -7t6 -15.5t-6 -19.5q-7 -11 -27 -43t-51 -66.5t-72 -61.5t-89 -27q-47 0 -70.5 30.5t-31.5 79.5q-32 -46 -80.5 -78t-114.5 -32q-53 0 -77 39
t-28 98.5t7 129.5t27.5 132t33.5 106.5t25 52.5q10 10 29.5 14.5t41.5 4t44 -5.5t37 -14t20.5 -22t-4.5 -28q-12 -18 -28 -54.5t-30 -80.5t-25 -90t-13 -84t6 -62.5t32 -24.5q17 0 33 18t29.5 45.5t24.5 59.5t18 61q8 47 20 92t24 81t22 60t16 30q10 10 29.5 14.5t41.5 4
t44 -5.5t37 -14t21 -22v-1q24 -1 31 9q6 9 -3.5 23t-30.5 31t-23 37t18 30l17 7q17 6 38.5 -0.5t36.5 -23.5q23 -24 34.5 -49.5t12 -49t-11 -43.5t-34.5 -34q-41 -24 -100 -22q-10 0 -19 1z" />
    <glyph glyph-name="circumflex" unicode="&#x2c6;" horiz-adv-x="510" 
d="M279 728q-6 10 -17 11t-19 -7q-20 -20 -46.5 -39t-52.5 -29.5t-49.5 -9t-36.5 21.5q-8 11 -11.5 30t-5.5 36q-1 10 5.5 17.5t16.5 8.5q22 1 49.5 9.5t55 22t53 32t42.5 39.5q8 10 21 8t18 -13q33 -69 69 -101.5t78 -37.5q12 -2 18 -12.5t0 -21.5q-12 -22 -26 -35.5
t-23 -15.5q-25 -5 -46.5 3t-39 21.5t-31 30.5t-22.5 31z" />
    <glyph glyph-name="caron" unicode="&#x2c7;" horiz-adv-x="449" 
d="M204 747q5 -8 12.5 -8.5t13.5 5.5q15 15 34 28.5t38.5 21t36 7t26.5 -15.5q6 -8 8.5 -22t4.5 -26q1 -8 -4 -13.5t-12 -5.5q-16 -1 -36.5 -7t-40.5 -16t-38.5 -23.5t-30.5 -29.5q-6 -7 -15.5 -5.5t-13.5 9.5q-24 51 -50.5 74.5t-56.5 27.5q-9 1 -13.5 8.5t0.5 15.5
q9 17 19 26.5t17 11.5q18 3 33.5 -2.5t28.5 -15.5t23 -22.5t16 -22.5z" />
    <glyph glyph-name="breve" unicode="&#x2d8;" horiz-adv-x="386" 
d="M97 766q17 2 29.5 -11t10.5 -30t1.5 -28.5t12.5 -14.5q14 -4 32.5 11t33.5 41q8 16 27 18l22 2q11 1 20 -4t14.5 -13t5.5 -18.5t-6 -20.5q-23 -34 -59 -55t-76 -21q-48 0 -79.5 29t-36.5 74q-2 14 8 25.5t24 13.5z" />
    <glyph glyph-name="ring" unicode="&#x2da;" horiz-adv-x="328" 
d="M185 864q25 0 45.5 -11t34.5 -30t19.5 -44.5t1.5 -53.5q-4 -29 -17.5 -54.5t-33 -44t-43.5 -29.5t-49 -11t-45.5 11t-34.5 29.5t-20 44t-1 54.5q4 28 17.5 53.5t33 44.5t43 30t49.5 11zM197 714q14 32 13.5 58t-14.5 31t-32.5 -15t-32.5 -52q-14 -33 -13.5 -59t14.5 -31
t32.5 15t32.5 53z" />
    <glyph glyph-name="ogonek" unicode="&#x2db;" horiz-adv-x="489" 
d="M298 -155q-8 -16 -28 -26t-43 -8q-33 3 -59 13.5t-42 27.5t-21.5 39.5t2.5 48.5q13 45 57.5 84t104.5 63q17 7 32.5 6.5t27 -6.5t16 -16.5t-1.5 -22.5l-11 -24q-8 -20 -36 -30q-45 -16 -74 -35.5t-27 -34.5q2 -11 18.5 -15t43.5 -2t42 -11.5t7 -33.5z" />
    <glyph glyph-name="tilde" unicode="&#x2dc;" horiz-adv-x="566" 
d="M525 740q-3 -21 -11 -40.5t-21.5 -35.5t-33.5 -25.5t-49 -10.5q-36 -1 -64.5 8.5t-56 21.5t-57 22t-66.5 9q-26 -1 -50.5 -4.5t-44.5 -8.5q-9 -2 -16 2.5t-10.5 12t-3.5 17t5 18.5q8 13 19 26t25 23.5t32 17t40 6.5q42 1 72 -6.5t55.5 -17.5t52 -18t62.5 -7q20 1 42.5 6
t41.5 19q7 5 14.5 4t13 -6.5t8.5 -14t1 -18.5z" />
    <glyph glyph-name="hungarumlaut" unicode="&#x2dd;" horiz-adv-x="481" 
d="M194 719q-8 -38 -35.5 -64t-58.5 -26q-32 0 -48.5 26t-8.5 64q4 18 13.5 34.5t22 28.5t28 19t30.5 7q32 0 48.5 -26t8.5 -63zM438 719q-8 -38 -35 -64t-59 -26q-31 0 -47.5 26t-8.5 64q8 37 35 63t59 26q31 0 47.5 -26t8.5 -63z" />
    <glyph glyph-name="gravecomb" unicode="&#x300;" horiz-adv-x="0" 
d="M-321 735q-12 6 -16.5 19t1.5 24q18 31 43.5 41.5t53 -4.5t52.5 -58t42 -118q2 -9 -1 -17t-11 -13q-9 -6 -20.5 -3.5t-19.5 13.5q-16 24 -47 58t-77 58z" />
    <glyph glyph-name="acutecomb" unicode="&#x301;" horiz-adv-x="0" 
d="M-150 737q-45 -24 -76 -58t-48 -58q-7 -11 -18.5 -13.5t-21.5 3.5q-7 5 -10 13t-1 17q16 75 41.5 118t52.5 58t53 4.5t43 -41.5q6 -11 1.5 -24t-16.5 -19z" />
    <glyph glyph-name="tildecomb" unicode="&#x303;" horiz-adv-x="0" 
d="M113 740q-3 -21 -11 -40.5t-21.5 -35.5t-33.5 -25.5t-49 -10.5q-36 -1 -64.5 8.5t-56 21.5t-57 22t-66.5 9q-26 -1 -50.5 -4.5t-44.5 -8.5q-9 -2 -16 2.5t-10.5 12t-3.5 17t5 18.5q8 13 19 26t25 23.5t32 17t40 6.5q42 1 72 -6.5t55.5 -17.5t52 -18t62.5 -7q20 1 42.5 6
t41.5 19q7 5 14.5 4t13 -6.5t8.5 -14t1 -18.5z" />
    <glyph glyph-name="hookabovecomb" unicode="&#x309;" horiz-adv-x="0" 
d="M72 879q52 -9 77 -38t12 -69q-12 -38 -37.5 -63.5t-67.5 -43.5q-16 -6 -30.5 -5.5t-25 5t-15.5 13.5t1 20l10 20q8 16 34 26q28 11 39 19.5t9 21.5q-2 9 -17.5 13t-40.5 2t-39.5 10t-6.5 28l11 13q31 27 87 28v0z" />
    <glyph glyph-name="uni031B" unicode="&#x31b;" horiz-adv-x="0" 
 />
    <glyph glyph-name="dotbelowcomb" unicode="&#x323;" horiz-adv-x="0" 
d="M-13 -50q22 4 41.5 -0.5t34.5 -16t23.5 -29t8.5 -38.5t-8.5 -41t-23.5 -36.5t-34.5 -28.5t-41.5 -16q-23 -4 -42.5 1t-34 16.5t-23 28.5t-8.5 38t8.5 41.5t23 37t34 28t42.5 15.5z" />
    <glyph glyph-name="uni1EA0" unicode="&#x1ea0;" horiz-adv-x="739" 
d="M784 233q5 7 11.5 6t11.5 -7t6 -15.5t-5 -19.5q-6 -11 -25.5 -43t-49.5 -66.5t-70 -61.5t-88 -27q-32 0 -53 17t-33.5 47.5t-17.5 72.5t-3 91q-5 -11 -20 -42t-42.5 -63.5t-68 -58t-94.5 -25.5q-66 0 -110 37t-67 98t-25.5 139.5t15.5 162.5q27 122 73.5 206.5t100.5 137
t108.5 75.5t98.5 23q36 0 62.5 -10.5t45 -27t28.5 -37t13 -41.5q14 39 23.5 63.5t13.5 29.5q10 10 29.5 14.5t41.5 4t44 -5.5t37.5 -14t21.5 -22t-4 -28q-9 -14 -24.5 -52.5t-33.5 -92.5t-37.5 -118.5t-35 -130t-26 -126.5t-11.5 -108.5t9 -76t35 -28.5q19 0 38 16.5
t34.5 38t26.5 41.5t16 27zM283 173q23 -7 50.5 11t55.5 54.5t53 88.5t44 115t27 121t5.5 103.5t-16 75.5t-36.5 37t-50.5 -10.5t-55 -54t-53 -89t-44.5 -115.5t-26.5 -120.5t-5 -103.5t15.5 -76t36 -37zM286 -50q22 4 41.5 -0.5t34.5 -16t23.5 -29t8.5 -38.5t-8.5 -41
t-23.5 -36.5t-34.5 -28.5t-41.5 -16q-23 -4 -42.5 1t-34 16.5t-23 28.5t-8.5 38t8.5 41.5t23 37t34 28t42.5 15.5z" />
    <glyph glyph-name="uni1EA1" unicode="&#x1ea1;" horiz-adv-x="588" 
d="M633 234q5 7 12 6t12 -7t6 -15.5t-6 -19.5q-7 -11 -27 -43t-51.5 -66.5t-72 -61.5t-88.5 -27q-42 0 -65 24t-33 64q-28 -43 -66.5 -65.5t-86.5 -22.5q-43 0 -79 19.5t-58.5 57.5t-28.5 94t11 128q19 80 50 129.5t65.5 76.5t68.5 36.5t60 9.5q42 0 74.5 -20.5t40.5 -50.5
q11 32 20 52.5t14 25.5q10 10 29.5 14.5t41.5 4t44 -5.5t37 -14t20.5 -22t-4.5 -28q-12 -18 -27.5 -54.5t-29.5 -80.5t-25 -90t-13 -84t6 -62.5t32 -24.5q19 0 38 16.5t35 38t27.5 41.5t16.5 27zM195 117q14 -5 30.5 4t32 28.5t30 47.5t24.5 61t13.5 64t1 56t-11 41.5
t-22.5 20.5t-30.5 -5t-32.5 -28t-30 -47t-24 -61t-13.5 -64.5t-1 -56t11 -41t22.5 -20.5zM220 -50q22 4 41.5 -0.5t34.5 -16t23.5 -29t8.5 -38.5t-8.5 -41t-23.5 -36.5t-34.5 -28.5t-41.5 -16q-23 -4 -42.5 1t-34 16.5t-23 28.5t-8.5 38t8.5 41.5t23 37t34 28t42.5 15.5z
" />
    <glyph glyph-name="uni1EA2" unicode="&#x1ea2;" horiz-adv-x="739" 
d="M784 233q5 7 11.5 6t11.5 -7t6 -15.5t-5 -19.5q-6 -11 -25.5 -43t-49.5 -66.5t-70 -61.5t-88 -27q-32 0 -53 17t-33.5 47.5t-17.5 72.5t-3 91q-5 -11 -20 -42t-42.5 -63.5t-68 -58t-94.5 -25.5q-66 0 -110 37t-67 98t-25.5 139.5t15.5 162.5q27 122 73.5 206.5t100.5 137
t108.5 75.5t98.5 23q36 0 62.5 -10.5t45 -27t28.5 -37t13 -41.5q14 39 23.5 63.5t13.5 29.5q10 10 29.5 14.5t41.5 4t44 -5.5t37.5 -14t21.5 -22t-4 -28q-9 -14 -24.5 -52.5t-33.5 -92.5t-37.5 -118.5t-35 -130t-26 -126.5t-11.5 -108.5t9 -76t35 -28.5q19 0 38 16.5
t34.5 38t26.5 41.5t16 27zM283 173q23 -7 50.5 11t55.5 54.5t53 88.5t44 115t27 121t5.5 103.5t-16 75.5t-36.5 37t-50.5 -10.5t-55 -54t-53 -89t-44.5 -115.5t-26.5 -120.5t-5 -103.5t15.5 -76t36 -37zM586 1203q52 -9 77 -38t12 -69q-12 -38 -37.5 -63.5t-67.5 -43.5
q-16 -6 -30.5 -5.5t-25 5t-15.5 13.5t1 20l10 20q8 16 34 26q28 11 39 19.5t9 21.5q-2 9 -17.5 13t-40.5 2t-39.5 10t-6.5 28l11 13q31 27 87 28v0z" />
    <glyph glyph-name="uni1EA3" unicode="&#x1ea3;" horiz-adv-x="588" 
d="M633 234q5 7 12 6t12 -7t6 -15.5t-6 -19.5q-7 -11 -27 -43t-51.5 -66.5t-72 -61.5t-88.5 -27q-42 0 -65 24t-33 64q-28 -43 -66.5 -65.5t-86.5 -22.5q-43 0 -79 19.5t-58.5 57.5t-28.5 94t11 128q19 80 50 129.5t65.5 76.5t68.5 36.5t60 9.5q42 0 74.5 -20.5t40.5 -50.5
q11 32 20 52.5t14 25.5q10 10 29.5 14.5t41.5 4t44 -5.5t37 -14t20.5 -22t-4.5 -28q-12 -18 -27.5 -54.5t-29.5 -80.5t-25 -90t-13 -84t6 -62.5t32 -24.5q19 0 38 16.5t35 38t27.5 41.5t16.5 27zM195 117q14 -5 30.5 4t32 28.5t30 47.5t24.5 61t13.5 64t1 56t-11 41.5
t-22.5 20.5t-30.5 -5t-32.5 -28t-30 -47t-24 -61t-13.5 -64.5t-1 -56t11 -41t22.5 -20.5zM352 833q52 -9 77 -38t12 -69q-12 -38 -37.5 -63.5t-67.5 -43.5q-16 -6 -30.5 -5.5t-25 5t-15.5 13.5t1 20l10 20q8 16 34 26q28 11 39 19.5t9 21.5q-2 9 -17.5 13t-40.5 2t-39.5 10
t-6.5 28l11 13q31 27 87 28v0z" />
    <glyph glyph-name="uni1EA4" unicode="&#x1ea4;" horiz-adv-x="739" 
d="M784 233q5 7 11.5 6t11.5 -7t6 -15.5t-5 -19.5q-6 -11 -25.5 -43t-49.5 -66.5t-70 -61.5t-88 -27q-32 0 -53 17t-33.5 47.5t-17.5 72.5t-3 91q-5 -11 -20 -42t-42.5 -63.5t-68 -58t-94.5 -25.5q-66 0 -110 37t-67 98t-25.5 139.5t15.5 162.5q27 122 73.5 206.5t100.5 137
t108.5 75.5t98.5 23q36 0 62.5 -10.5t45 -27t28.5 -37t13 -41.5q14 39 23.5 63.5t13.5 29.5q10 10 29.5 14.5t41.5 4t44 -5.5t37.5 -14t21.5 -22t-4 -28q-9 -14 -24.5 -52.5t-33.5 -92.5t-37.5 -118.5t-35 -130t-26 -126.5t-11.5 -108.5t9 -76t35 -28.5q19 0 38 16.5
t34.5 38t26.5 41.5t16 27zM283 173q23 -7 50.5 11t55.5 54.5t53 88.5t44 115t27 121t5.5 103.5t-16 75.5t-36.5 37t-50.5 -10.5t-55 -54t-53 -89t-44.5 -115.5t-26.5 -120.5t-5 -103.5t15.5 -76t36 -37zM589 1070q-6 10 -17 11t-19 -7q-20 -20 -46.5 -39t-52.5 -29.5
t-49.5 -9t-36.5 21.5q-8 11 -11.5 30t-5.5 36q-1 10 5.5 17.5t16.5 8.5q22 1 49.5 9.5t55 22t53 32t42.5 39.5q8 10 21 8t18 -13q33 -69 69 -101.5t78 -37.5q12 -2 18 -12.5t0 -21.5q-12 -22 -26 -35.5t-23 -15.5q-25 -5 -46.5 3t-39 21.5t-31 30.5t-22.5 31zM887 1278
q-45 -24 -76 -58t-48 -58q-7 -11 -18.5 -13.5t-21.5 3.5q-7 5 -10 13t-1 17q16 75 41.5 118t52.5 58t53 4.5t43 -41.5q6 -11 1.5 -24t-16.5 -19z" />
    <glyph glyph-name="uni1EA5" unicode="&#x1ea5;" horiz-adv-x="588" 
d="M633 234q5 7 12 6t12 -7t6 -15.5t-6 -19.5q-7 -11 -27 -43t-51.5 -66.5t-72 -61.5t-88.5 -27q-42 0 -65 24t-33 64q-28 -43 -66.5 -65.5t-86.5 -22.5q-43 0 -79 19.5t-58.5 57.5t-28.5 94t11 128q19 80 50 129.5t65.5 76.5t68.5 36.5t60 9.5q42 0 74.5 -20.5t40.5 -50.5
q11 32 20 52.5t14 25.5q10 10 29.5 14.5t41.5 4t44 -5.5t37 -14t20.5 -22t-4.5 -28q-12 -18 -27.5 -54.5t-29.5 -80.5t-25 -90t-13 -84t6 -62.5t32 -24.5q19 0 38 16.5t35 38t27.5 41.5t16.5 27zM195 117q14 -5 30.5 4t32 28.5t30 47.5t24.5 61t13.5 64t1 56t-11 41.5
t-22.5 20.5t-30.5 -5t-32.5 -28t-30 -47t-24 -61t-13.5 -64.5t-1 -56t11 -41t22.5 -20.5zM404 701q-6 10 -17 11t-19 -7q-20 -20 -46.5 -39t-52.5 -29.5t-49.5 -9t-36.5 21.5q-8 11 -11.5 30t-5.5 36q-1 10 5.5 17.5t16.5 8.5q22 1 49.5 9.5t55 22t53 32t42.5 39.5
q8 10 21 8t18 -13q33 -69 69 -101.5t78 -37.5q12 -2 18 -12.5t0 -21.5q-12 -22 -26 -35.5t-23 -15.5q-25 -5 -46.5 3t-39 21.5t-31 30.5t-22.5 31zM683 947q-45 -24 -76 -58t-48 -58q-7 -11 -18.5 -13.5t-21.5 3.5q-7 5 -10 13t-1 17q16 75 41.5 118t52.5 58t53 4.5
t43 -41.5q6 -11 1.5 -24t-16.5 -19z" />
    <glyph glyph-name="uni1EA6" unicode="&#x1ea6;" horiz-adv-x="739" 
d="M784 233q5 7 11.5 6t11.5 -7t6 -15.5t-5 -19.5q-6 -11 -25.5 -43t-49.5 -66.5t-70 -61.5t-88 -27q-32 0 -53 17t-33.5 47.5t-17.5 72.5t-3 91q-5 -11 -20 -42t-42.5 -63.5t-68 -58t-94.5 -25.5q-66 0 -110 37t-67 98t-25.5 139.5t15.5 162.5q27 122 73.5 206.5t100.5 137
t108.5 75.5t98.5 23q36 0 62.5 -10.5t45 -27t28.5 -37t13 -41.5q14 39 23.5 63.5t13.5 29.5q10 10 29.5 14.5t41.5 4t44 -5.5t37.5 -14t21.5 -22t-4 -28q-9 -14 -24.5 -52.5t-33.5 -92.5t-37.5 -118.5t-35 -130t-26 -126.5t-11.5 -108.5t9 -76t35 -28.5q19 0 38 16.5
t34.5 38t26.5 41.5t16 27zM283 173q23 -7 50.5 11t55.5 54.5t53 88.5t44 115t27 121t5.5 103.5t-16 75.5t-36.5 37t-50.5 -10.5t-55 -54t-53 -89t-44.5 -115.5t-26.5 -120.5t-5 -103.5t15.5 -76t36 -37zM589 1071q-6 10 -17 11t-19 -7q-20 -20 -46.5 -39t-52.5 -29.5
t-49.5 -9t-36.5 21.5q-8 11 -11.5 30t-5.5 36q-1 10 5.5 17.5t16.5 8.5q22 1 49.5 9.5t55 22t53 32t42.5 39.5q8 10 21 8t18 -13q33 -69 69 -101.5t78 -37.5q12 -2 18 -12.5t0 -21.5q-12 -22 -26 -35.5t-23 -15.5q-25 -5 -46.5 3t-39 21.5t-31 30.5t-22.5 31zM576 1325
q-12 6 -16.5 19t1.5 24q18 31 43.5 41.5t53 -4.5t52.5 -58t42 -118q2 -9 -1 -17t-11 -13q-9 -6 -20.5 -3.5t-19.5 13.5q-16 24 -47 58t-77 58z" />
    <glyph glyph-name="uni1EA7" unicode="&#x1ea7;" horiz-adv-x="588" 
d="M633 234q5 7 12 6t12 -7t6 -15.5t-6 -19.5q-7 -11 -27 -43t-51.5 -66.5t-72 -61.5t-88.5 -27q-42 0 -65 24t-33 64q-28 -43 -66.5 -65.5t-86.5 -22.5q-43 0 -79 19.5t-58.5 57.5t-28.5 94t11 128q19 80 50 129.5t65.5 76.5t68.5 36.5t60 9.5q42 0 74.5 -20.5t40.5 -50.5
q11 32 20 52.5t14 25.5q10 10 29.5 14.5t41.5 4t44 -5.5t37 -14t20.5 -22t-4.5 -28q-12 -18 -27.5 -54.5t-29.5 -80.5t-25 -90t-13 -84t6 -62.5t32 -24.5q19 0 38 16.5t35 38t27.5 41.5t16.5 27zM195 117q14 -5 30.5 4t32 28.5t30 47.5t24.5 61t13.5 64t1 56t-11 41.5
t-22.5 20.5t-30.5 -5t-32.5 -28t-30 -47t-24 -61t-13.5 -64.5t-1 -56t11 -41t22.5 -20.5zM405 701q-6 10 -17 11t-19 -7q-20 -20 -46.5 -39t-52.5 -29.5t-49.5 -9t-36.5 21.5q-8 11 -11.5 30t-5.5 36q-1 10 5.5 17.5t16.5 8.5q22 1 49.5 9.5t55 22t53 32t42.5 39.5
q8 10 21 8t18 -13q33 -69 69 -101.5t78 -37.5q12 -2 18 -12.5t0 -21.5q-12 -22 -26 -35.5t-23 -15.5q-25 -5 -46.5 3t-39 21.5t-31 30.5t-22.5 31zM362 984q-12 6 -16.5 19t1.5 24q18 31 43.5 41.5t53 -4.5t52.5 -58t42 -118q2 -9 -1 -17t-11 -13q-9 -6 -20.5 -3.5
t-19.5 13.5q-16 24 -47 58t-77 58z" />
    <glyph glyph-name="uni1EA8" unicode="&#x1ea8;" horiz-adv-x="739" 
d="M784 233q5 7 11.5 6t11.5 -7t6 -15.5t-5 -19.5q-6 -11 -25.5 -43t-49.5 -66.5t-70 -61.5t-88 -27q-32 0 -53 17t-33.5 47.5t-17.5 72.5t-3 91q-5 -11 -20 -42t-42.5 -63.5t-68 -58t-94.5 -25.5q-66 0 -110 37t-67 98t-25.5 139.5t15.5 162.5q27 122 73.5 206.5t100.5 137
t108.5 75.5t98.5 23q36 0 62.5 -10.5t45 -27t28.5 -37t13 -41.5q14 39 23.5 63.5t13.5 29.5q10 10 29.5 14.5t41.5 4t44 -5.5t37.5 -14t21.5 -22t-4 -28q-9 -14 -24.5 -52.5t-33.5 -92.5t-37.5 -118.5t-35 -130t-26 -126.5t-11.5 -108.5t9 -76t35 -28.5q19 0 38 16.5
t34.5 38t26.5 41.5t16 27zM283 173q23 -7 50.5 11t55.5 54.5t53 88.5t44 115t27 121t5.5 103.5t-16 75.5t-36.5 37t-50.5 -10.5t-55 -54t-53 -89t-44.5 -115.5t-26.5 -120.5t-5 -103.5t15.5 -76t36 -37zM589 1071q-6 10 -17 11t-19 -7q-20 -20 -46.5 -39t-52.5 -29.5
t-49.5 -9t-36.5 21.5q-8 11 -11.5 30t-5.5 36q-1 10 5.5 17.5t16.5 8.5q22 1 49.5 9.5t55 22t53 32t42.5 39.5q8 10 21 8t18 -13q33 -69 69 -101.5t78 -37.5q12 -2 18 -12.5t0 -21.5q-12 -22 -26 -35.5t-23 -15.5q-25 -5 -46.5 3t-39 21.5t-31 30.5t-22.5 31zM762 1368
q52 -9 77 -38t12 -69q-12 -38 -37.5 -63.5t-67.5 -43.5q-16 -6 -30.5 -5.5t-25 5t-15.5 13.5t1 20l10 20q8 16 34 26q28 11 39 19.5t9 21.5q-2 9 -17.5 13t-40.5 2t-39.5 10t-6.5 28l11 13q31 27 87 28v0z" />
    <glyph glyph-name="uni1EA9" unicode="&#x1ea9;" horiz-adv-x="588" 
d="M633 234q5 7 12 6t12 -7t6 -15.5t-6 -19.5q-7 -11 -27 -43t-51.5 -66.5t-72 -61.5t-88.5 -27q-42 0 -65 24t-33 64q-28 -43 -66.5 -65.5t-86.5 -22.5q-43 0 -79 19.5t-58.5 57.5t-28.5 94t11 128q19 80 50 129.5t65.5 76.5t68.5 36.5t60 9.5q42 0 74.5 -20.5t40.5 -50.5
q11 32 20 52.5t14 25.5q10 10 29.5 14.5t41.5 4t44 -5.5t37 -14t20.5 -22t-4.5 -28q-12 -18 -27.5 -54.5t-29.5 -80.5t-25 -90t-13 -84t6 -62.5t32 -24.5q19 0 38 16.5t35 38t27.5 41.5t16.5 27zM195 117q14 -5 30.5 4t32 28.5t30 47.5t24.5 61t13.5 64t1 56t-11 41.5
t-22.5 20.5t-30.5 -5t-32.5 -28t-30 -47t-24 -61t-13.5 -64.5t-1 -56t11 -41t22.5 -20.5zM404 701q-6 10 -17 11t-19 -7q-20 -20 -46.5 -39t-52.5 -29.5t-49.5 -9t-36.5 21.5q-8 11 -11.5 30t-5.5 36q-1 10 5.5 17.5t16.5 8.5q22 1 49.5 9.5t55 22t53 32t42.5 39.5
q8 10 21 8t18 -13q33 -69 69 -101.5t78 -37.5q12 -2 18 -12.5t0 -21.5q-12 -22 -26 -35.5t-23 -15.5q-25 -5 -46.5 3t-39 21.5t-31 30.5t-22.5 31zM592 1018q52 -9 77 -38t12 -69q-12 -38 -37.5 -63.5t-67.5 -43.5q-16 -6 -30.5 -5.5t-25 5t-15.5 13.5t1 20l10 20
q8 16 34 26q28 11 39 19.5t9 21.5q-2 9 -17.5 13t-40.5 2t-39.5 10t-6.5 28l11 13q31 27 87 28v0z" />
    <glyph glyph-name="uni1EAA" unicode="&#x1eaa;" horiz-adv-x="739" 
d="M784 233q5 7 11.5 6t11.5 -7t6 -15.5t-5 -19.5q-6 -11 -25.5 -43t-49.5 -66.5t-70 -61.5t-88 -27q-32 0 -53 17t-33.5 47.5t-17.5 72.5t-3 91q-5 -11 -20 -42t-42.5 -63.5t-68 -58t-94.5 -25.5q-66 0 -110 37t-67 98t-25.5 139.5t15.5 162.5q27 122 73.5 206.5t100.5 137
t108.5 75.5t98.5 23q36 0 62.5 -10.5t45 -27t28.5 -37t13 -41.5q14 39 23.5 63.5t13.5 29.5q10 10 29.5 14.5t41.5 4t44 -5.5t37.5 -14t21.5 -22t-4 -28q-9 -14 -24.5 -52.5t-33.5 -92.5t-37.5 -118.5t-35 -130t-26 -126.5t-11.5 -108.5t9 -76t35 -28.5q19 0 38 16.5
t34.5 38t26.5 41.5t16 27zM283 173q23 -7 50.5 11t55.5 54.5t53 88.5t44 115t27 121t5.5 103.5t-16 75.5t-36.5 37t-50.5 -10.5t-55 -54t-53 -89t-44.5 -115.5t-26.5 -120.5t-5 -103.5t15.5 -76t36 -37zM590 1071q-6 10 -17 11t-19 -7q-20 -20 -46.5 -39t-52.5 -29.5
t-49.5 -9t-36.5 21.5q-8 11 -11.5 30t-5.5 36q-1 10 5.5 17.5t16.5 8.5q22 1 49.5 9.5t55 22t53 32t42.5 39.5q8 10 21 8t18 -13q33 -69 69 -101.5t78 -37.5q12 -2 18 -12.5t0 -21.5q-12 -22 -26 -35.5t-23 -15.5q-25 -5 -46.5 3t-39 21.5t-31 30.5t-22.5 31zM894 1347
q-3 -21 -11 -40.5t-21.5 -35.5t-33.5 -25.5t-49 -10.5q-36 -1 -64.5 8.5t-56 21.5t-57 22t-66.5 9q-26 -1 -50.5 -4.5t-44.5 -8.5q-9 -2 -16 2.5t-10.5 12t-3.5 17t5 18.5q8 13 19 26t25 23.5t32 17t40 6.5q42 1 72 -6.5t55.5 -17.5t52 -18t62.5 -7q20 1 42.5 6t41.5 19
q7 5 14.5 4t13 -6.5t8.5 -14t1 -18.5z" />
    <glyph glyph-name="uni1EAB" unicode="&#x1eab;" horiz-adv-x="588" 
d="M633 234q5 7 12 6t12 -7t6 -15.5t-6 -19.5q-7 -11 -27 -43t-51.5 -66.5t-72 -61.5t-88.5 -27q-42 0 -65 24t-33 64q-28 -43 -66.5 -65.5t-86.5 -22.5q-43 0 -79 19.5t-58.5 57.5t-28.5 94t11 128q19 80 50 129.5t65.5 76.5t68.5 36.5t60 9.5q42 0 74.5 -20.5t40.5 -50.5
q11 32 20 52.5t14 25.5q10 10 29.5 14.5t41.5 4t44 -5.5t37 -14t20.5 -22t-4.5 -28q-12 -18 -27.5 -54.5t-29.5 -80.5t-25 -90t-13 -84t6 -62.5t32 -24.5q19 0 38 16.5t35 38t27.5 41.5t16.5 27zM195 117q14 -5 30.5 4t32 28.5t30 47.5t24.5 61t13.5 64t1 56t-11 41.5
t-22.5 20.5t-30.5 -5t-32.5 -28t-30 -47t-24 -61t-13.5 -64.5t-1 -56t11 -41t22.5 -20.5zM404 701q-6 10 -17 11t-19 -7q-20 -20 -46.5 -39t-52.5 -29.5t-49.5 -9t-36.5 21.5q-8 11 -11.5 30t-5.5 36q-1 10 5.5 17.5t16.5 8.5q22 1 49.5 9.5t55 22t53 32t42.5 39.5
q8 10 21 8t18 -13q33 -69 69 -101.5t78 -37.5q12 -2 18 -12.5t0 -21.5q-12 -22 -26 -35.5t-23 -15.5q-25 -5 -46.5 3t-39 21.5t-31 30.5t-22.5 31zM680 973q-3 -21 -11 -40.5t-21.5 -35.5t-33.5 -25.5t-49 -10.5q-36 -1 -64.5 8.5t-56 21.5t-57 22t-66.5 9
q-26 -1 -50.5 -4.5t-44.5 -8.5q-9 -2 -16 2.5t-10.5 12t-3.5 17t5 18.5q8 13 19 26t25 23.5t32 17t40 6.5q42 1 72 -6.5t55.5 -17.5t52 -18t62.5 -7q20 1 42.5 6t41.5 19q7 5 14.5 4t13 -6.5t8.5 -14t1 -18.5z" />
    <glyph glyph-name="uni1EAC" unicode="&#x1eac;" horiz-adv-x="739" 
d="M784 233q5 7 11.5 6t11.5 -7t6 -15.5t-5 -19.5q-6 -11 -25.5 -43t-49.5 -66.5t-70 -61.5t-88 -27q-32 0 -53 17t-33.5 47.5t-17.5 72.5t-3 91q-5 -11 -20 -42t-42.5 -63.5t-68 -58t-94.5 -25.5q-66 0 -110 37t-67 98t-25.5 139.5t15.5 162.5q27 122 73.5 206.5t100.5 137
t108.5 75.5t98.5 23q36 0 62.5 -10.5t45 -27t28.5 -37t13 -41.5q14 39 23.5 63.5t13.5 29.5q10 10 29.5 14.5t41.5 4t44 -5.5t37.5 -14t21.5 -22t-4 -28q-9 -14 -24.5 -52.5t-33.5 -92.5t-37.5 -118.5t-35 -130t-26 -126.5t-11.5 -108.5t9 -76t35 -28.5q19 0 38 16.5
t34.5 38t26.5 41.5t16 27zM283 173q23 -7 50.5 11t55.5 54.5t53 88.5t44 115t27 121t5.5 103.5t-16 75.5t-36.5 37t-50.5 -10.5t-55 -54t-53 -89t-44.5 -115.5t-26.5 -120.5t-5 -103.5t15.5 -76t36 -37zM589 1071q-6 10 -17 11t-19 -7q-20 -20 -46.5 -39t-52.5 -29.5
t-49.5 -9t-36.5 21.5q-8 11 -11.5 30t-5.5 36q-1 10 5.5 17.5t16.5 8.5q22 1 49.5 9.5t55 22t53 32t42.5 39.5q8 10 21 8t18 -13q33 -69 69 -101.5t78 -37.5q12 -2 18 -12.5t0 -21.5q-12 -22 -26 -35.5t-23 -15.5q-25 -5 -46.5 3t-39 21.5t-31 30.5t-22.5 31zM284 -50
q22 4 41.5 -0.5t34.5 -16t23.5 -29t8.5 -38.5t-8.5 -41t-23.5 -36.5t-34.5 -28.5t-41.5 -16q-23 -4 -42.5 1t-34 16.5t-23 28.5t-8.5 38t8.5 41.5t23 37t34 28t42.5 15.5z" />
    <glyph glyph-name="uni1EAD" unicode="&#x1ead;" horiz-adv-x="588" 
d="M633 234q5 7 12 6t12 -7t6 -15.5t-6 -19.5q-7 -11 -27 -43t-51.5 -66.5t-72 -61.5t-88.5 -27q-42 0 -65 24t-33 64q-28 -43 -66.5 -65.5t-86.5 -22.5q-43 0 -79 19.5t-58.5 57.5t-28.5 94t11 128q19 80 50 129.5t65.5 76.5t68.5 36.5t60 9.5q42 0 74.5 -20.5t40.5 -50.5
q11 32 20 52.5t14 25.5q10 10 29.5 14.5t41.5 4t44 -5.5t37 -14t20.5 -22t-4.5 -28q-12 -18 -27.5 -54.5t-29.5 -80.5t-25 -90t-13 -84t6 -62.5t32 -24.5q19 0 38 16.5t35 38t27.5 41.5t16.5 27zM195 117q14 -5 30.5 4t32 28.5t30 47.5t24.5 61t13.5 64t1 56t-11 41.5
t-22.5 20.5t-30.5 -5t-32.5 -28t-30 -47t-24 -61t-13.5 -64.5t-1 -56t11 -41t22.5 -20.5zM404 701q-6 10 -17 11t-19 -7q-20 -20 -46.5 -39t-52.5 -29.5t-49.5 -9t-36.5 21.5q-8 11 -11.5 30t-5.5 36q-1 10 5.5 17.5t16.5 8.5q22 1 49.5 9.5t55 22t53 32t42.5 39.5
q8 10 21 8t18 -13q33 -69 69 -101.5t78 -37.5q12 -2 18 -12.5t0 -21.5q-12 -22 -26 -35.5t-23 -15.5q-25 -5 -46.5 3t-39 21.5t-31 30.5t-22.5 31zM207 -50q22 4 41.5 -0.5t34.5 -16t23.5 -29t8.5 -38.5t-8.5 -41t-23.5 -36.5t-34.5 -28.5t-41.5 -16q-23 -4 -42.5 1
t-34 16.5t-23 28.5t-8.5 38t8.5 41.5t23 37t34 28t42.5 15.5z" />
    <glyph glyph-name="uni1EAE" unicode="&#x1eae;" horiz-adv-x="739" 
d="M784 233q5 7 11.5 6t11.5 -7t6 -15.5t-5 -19.5q-6 -11 -25.5 -43t-49.5 -66.5t-70 -61.5t-88 -27q-32 0 -53 17t-33.5 47.5t-17.5 72.5t-3 91q-5 -11 -20 -42t-42.5 -63.5t-68 -58t-94.5 -25.5q-66 0 -110 37t-67 98t-25.5 139.5t15.5 162.5q27 122 73.5 206.5t100.5 137
t108.5 75.5t98.5 23q36 0 62.5 -10.5t45 -27t28.5 -37t13 -41.5q14 39 23.5 63.5t13.5 29.5q10 10 29.5 14.5t41.5 4t44 -5.5t37.5 -14t21.5 -22t-4 -28q-9 -14 -24.5 -52.5t-33.5 -92.5t-37.5 -118.5t-35 -130t-26 -126.5t-11.5 -108.5t9 -76t35 -28.5q19 0 38 16.5
t34.5 38t26.5 41.5t16 27zM283 173q23 -7 50.5 11t55.5 54.5t53 88.5t44 115t27 121t5.5 103.5t-16 75.5t-36.5 37t-50.5 -10.5t-55 -54t-53 -89t-44.5 -115.5t-26.5 -120.5t-5 -103.5t15.5 -76t36 -37zM453 1126q17 2 29.5 -11t10.5 -30t1.5 -28.5t12.5 -14.5
q14 -4 32.5 11t33.5 41q8 16 27 18l22 2q11 1 20 -4t14.5 -13t5.5 -18.5t-6 -20.5q-23 -34 -59 -55t-76 -21q-48 0 -79.5 29t-36.5 74q-2 14 8 25.5t24 13.5zM689 1277q-45 -24 -76 -58t-48 -58q-7 -11 -18.5 -13.5t-21.5 3.5q-7 5 -10 13t-1 17q16 75 41.5 118t52.5 58
t53 4.5t43 -41.5q6 -11 1.5 -24t-16.5 -19z" />
    <glyph glyph-name="uni1EAF" unicode="&#x1eaf;" horiz-adv-x="588" 
d="M633 234q5 7 12 6t12 -7t6 -15.5t-6 -19.5q-7 -11 -27 -43t-51.5 -66.5t-72 -61.5t-88.5 -27q-42 0 -65 24t-33 64q-28 -43 -66.5 -65.5t-86.5 -22.5q-43 0 -79 19.5t-58.5 57.5t-28.5 94t11 128q19 80 50 129.5t65.5 76.5t68.5 36.5t60 9.5q42 0 74.5 -20.5t40.5 -50.5
q11 32 20 52.5t14 25.5q10 10 29.5 14.5t41.5 4t44 -5.5t37 -14t20.5 -22t-4.5 -28q-12 -18 -27.5 -54.5t-29.5 -80.5t-25 -90t-13 -84t6 -62.5t32 -24.5q19 0 38 16.5t35 38t27.5 41.5t16.5 27zM195 117q14 -5 30.5 4t32 28.5t30 47.5t24.5 61t13.5 64t1 56t-11 41.5
t-22.5 20.5t-30.5 -5t-32.5 -28t-30 -47t-24 -61t-13.5 -64.5t-1 -56t11 -41t22.5 -20.5zM283 757q17 2 29.5 -11t10.5 -30t1.5 -28.5t12.5 -14.5q14 -4 32.5 11t33.5 41q8 16 27 18l22 2q11 1 20 -4t14.5 -13t5.5 -18.5t-6 -20.5q-23 -34 -59 -55t-76 -21q-48 0 -79.5 29
t-36.5 74q-2 14 8 25.5t24 13.5zM533 918q-45 -24 -76 -58t-48 -58q-7 -11 -18.5 -13.5t-21.5 3.5q-7 5 -10 13t-1 17q16 75 41.5 118t52.5 58t53 4.5t43 -41.5q6 -11 1.5 -24t-16.5 -19z" />
    <glyph glyph-name="uni1EB0" unicode="&#x1eb0;" horiz-adv-x="739" 
d="M784 233q5 7 11.5 6t11.5 -7t6 -15.5t-5 -19.5q-6 -11 -25.5 -43t-49.5 -66.5t-70 -61.5t-88 -27q-32 0 -53 17t-33.5 47.5t-17.5 72.5t-3 91q-5 -11 -20 -42t-42.5 -63.5t-68 -58t-94.5 -25.5q-66 0 -110 37t-67 98t-25.5 139.5t15.5 162.5q27 122 73.5 206.5t100.5 137
t108.5 75.5t98.5 23q36 0 62.5 -10.5t45 -27t28.5 -37t13 -41.5q14 39 23.5 63.5t13.5 29.5q10 10 29.5 14.5t41.5 4t44 -5.5t37.5 -14t21.5 -22t-4 -28q-9 -14 -24.5 -52.5t-33.5 -92.5t-37.5 -118.5t-35 -130t-26 -126.5t-11.5 -108.5t9 -76t35 -28.5q19 0 38 16.5
t34.5 38t26.5 41.5t16 27zM283 173q23 -7 50.5 11t55.5 54.5t53 88.5t44 115t27 121t5.5 103.5t-16 75.5t-36.5 37t-50.5 -10.5t-55 -54t-53 -89t-44.5 -115.5t-26.5 -120.5t-5 -103.5t15.5 -76t36 -37zM452 1123q17 2 29.5 -11t10.5 -30t1.5 -28.5t12.5 -14.5
q14 -4 32.5 11t33.5 41q8 16 27 18l22 2q11 1 20 -4t14.5 -13t5.5 -18.5t-6 -20.5q-23 -34 -59 -55t-76 -21q-48 0 -79.5 29t-36.5 74q-2 14 8 25.5t24 13.5zM385 1261q-12 6 -16.5 19t1.5 24q18 31 43.5 41.5t53 -4.5t52.5 -58t42 -118q2 -9 -1 -17t-11 -13
q-9 -6 -20.5 -3.5t-19.5 13.5q-16 24 -47 58t-77 58z" />
    <glyph glyph-name="uni1EB1" unicode="&#x1eb1;" horiz-adv-x="588" 
d="M633 234q5 7 12 6t12 -7t6 -15.5t-6 -19.5q-7 -11 -27 -43t-51.5 -66.5t-72 -61.5t-88.5 -27q-42 0 -65 24t-33 64q-28 -43 -66.5 -65.5t-86.5 -22.5q-43 0 -79 19.5t-58.5 57.5t-28.5 94t11 128q19 80 50 129.5t65.5 76.5t68.5 36.5t60 9.5q42 0 74.5 -20.5t40.5 -50.5
q11 32 20 52.5t14 25.5q10 10 29.5 14.5t41.5 4t44 -5.5t37 -14t20.5 -22t-4.5 -28q-12 -18 -27.5 -54.5t-29.5 -80.5t-25 -90t-13 -84t6 -62.5t32 -24.5q19 0 38 16.5t35 38t27.5 41.5t16.5 27zM195 117q14 -5 30.5 4t32 28.5t30 47.5t24.5 61t13.5 64t1 56t-11 41.5
t-22.5 20.5t-30.5 -5t-32.5 -28t-30 -47t-24 -61t-13.5 -64.5t-1 -56t11 -41t22.5 -20.5zM283 757q17 2 29.5 -11t10.5 -30t1.5 -28.5t12.5 -14.5q14 -4 32.5 11t33.5 41q8 16 27 18l22 2q11 1 20 -4t14.5 -13t5.5 -18.5t-6 -20.5q-23 -34 -59 -55t-76 -21q-48 0 -79.5 29
t-36.5 74q-2 14 8 25.5t24 13.5zM219 911q-12 6 -16.5 19t1.5 24q18 31 43.5 41.5t53 -4.5t52.5 -58t42 -118q2 -9 -1 -17t-11 -13q-9 -6 -20.5 -3.5t-19.5 13.5q-16 24 -47 58t-77 58z" />
    </font>
</defs>
</svg>
