<?xml version="1.0" encoding="utf-8"?>
<!-- Generator: Adobe Illustrator 15.0.0, SVG Export Plug-In . SVG Version: 6.00 Build 0)  -->
<!DOCTYPE svg PUBLIC "-//W3C//DTD SVG 1.1//EN" "http://www.w3.org/Graphics/SVG/1.1/DTD/svg11.dtd">
<svg version="1.1" id="Layer_1" xmlns="http://www.w3.org/2000/svg" xmlns:xlink="http://www.w3.org/1999/xlink" x="0px" y="0px"
	 width="224.125px" height="186.859px" viewBox="0 0 224.125 186.859" enable-background="new 0 0 224.125 186.859"
	 xml:space="preserve">
<path fill="#F8ED24" d="M148.714,85.034c21.338-5.788,39.804-3.148,56.271,9.526c17.473,13.447,23.726,38.222,15.658,59.097
	c-8.094,20.942-29.233,34.525-51.407,33.029c-26.795-1.807-46.094-17.725-51.637-45.957c-9.141-46.555,2.138-88.155,34.985-122.964
	c10.194-10.804,23.131-17.216,38.471-17.742c7.427-0.254,13.339,1.398,9.499,11.799c-1.661,4.502-2.302,9.39-4.076,13.836
	c-0.874,2.189-3.019,5.021-5.021,5.426c-14.847,3.003-23.684,13.186-30.283,25.471C156.286,65.653,152.815,75.513,148.714,85.034"/>
<path fill="#F8ED24" d="M35.651,86.018c12.46-4.795,24.951-4.587,37.538-0.832c21.44,6.397,36.588,26.812,36.848,49.847
	c0.245,21.7-15.261,43.112-36.138,49.358c-27.497,8.229-59.822-3.876-69.686-40.019c-8.071-29.576-3.969-58.346,7.391-86.302
	c7.899-19.438,19.203-36.459,36.863-48.553c8.859-6.067,18.628-9.422,29.424-9.498c8.604-0.061,10.834,2.854,8.539,11.038
	c-1.388,4.953-2.501,10.01-4.313,14.803c-0.779,2.062-2.776,4.779-4.627,5.146c-14.807,2.936-23.831,12.865-30.379,25.252
	c-4.898,9.266-8.522,19.205-12.713,28.845L35.651,86.018z"/>
<rect fill="none" width="224.125" height="186.859"/>
</svg>
