<?xml version="1.0" encoding="utf-8"?>
<!-- Generator: Adobe Illustrator 15.0.0, SVG Export Plug-In . SVG Version: 6.00 Build 0)  -->
<!DOCTYPE svg PUBLIC "-//W3C//DTD SVG 1.1//EN" "http://www.w3.org/Graphics/SVG/1.1/DTD/svg11.dtd">
<svg version="1.1" id="Layer_1" xmlns="http://www.w3.org/2000/svg" xmlns:xlink="http://www.w3.org/1999/xlink" x="0px" y="0px"
	 width="130.201px" height="153.07px" viewBox="0 0 130.201 153.07" enable-background="new 0 0 130.201 153.07"
	 xml:space="preserve">
<g>
	<defs>
		<rect id="SVGID_1_" width="130.201" height="153.07"/>
	</defs>
	<clipPath id="SVGID_2_">
		<use xlink:href="#SVGID_1_"  overflow="visible"/>
	</clipPath>
	<path clip-path="url(#SVGID_2_)" fill="#FFFFFF" d="M64.546,82.478h0.507h0.19h0.316c9.288-0.158,16.801-3.424,22.348-9.668
		c12.204-13.757,10.176-37.34,9.953-39.591c-0.793-16.894-8.78-24.978-15.373-28.75c-4.914-2.821-10.65-4.343-17.054-4.47h-0.222
		h-0.127h-0.19c-3.519,0-10.429,0.571-17.054,4.343C41.185,8.115,33.07,16.198,32.278,33.219
		c-0.223,2.251-2.251,25.834,9.953,39.591C47.746,79.054,55.259,82.32,64.546,82.478 M40.741,34.012c0-0.096,0.032-0.19,0.032-0.254
		C41.819,11.031,57.953,8.59,64.863,8.59h0.127h0.253c8.559,0.19,23.107,3.677,24.091,25.168c0,0.095,0,0.191,0.031,0.254
		c0.032,0.222,2.25,21.776-7.829,33.124c-3.994,4.501-9.319,6.72-16.324,6.783h-0.159h-0.158
		c-6.974-0.063-12.331-2.282-16.293-6.783C38.554,55.852,40.708,34.201,40.741,34.012"/>
	<path clip-path="url(#SVGID_2_)" fill="#FFFFFF" d="M130.192,121.593v-0.095c0-0.254-0.031-0.509-0.031-0.793
		c-0.19-6.276-0.603-20.952-14.359-25.644c-0.096-0.031-0.223-0.063-0.317-0.095c-14.296-3.646-26.183-11.887-26.31-11.982
		c-1.934-1.362-4.596-0.887-5.959,1.046c-1.363,1.934-0.887,4.597,1.047,5.959c0.538,0.381,13.154,9.161,28.939,13.219
		c7.387,2.631,8.21,10.523,8.432,17.751c0,0.285,0,0.539,0.031,0.792c0.032,2.854-0.158,7.26-0.665,9.795
		c-5.135,2.916-25.263,12.996-55.884,12.996c-30.493,0-50.749-10.111-55.915-13.027c-0.508-2.536-0.729-6.943-0.666-9.795
		c0-0.254,0.032-0.507,0.032-0.792c0.222-7.228,1.046-15.12,8.432-17.751c15.785-4.058,28.401-12.87,28.94-13.219
		c1.933-1.362,2.409-4.025,1.046-5.959c-1.363-1.934-4.026-2.409-5.96-1.046c-0.126,0.095-11.95,8.337-26.309,11.981
		c-0.127,0.032-0.222,0.063-0.317,0.096C0.643,99.753,0.23,114.429,0.041,120.674c0,0.285,0,0.539-0.032,0.792v0.096
		c-0.031,1.648-0.063,10.111,1.617,14.359c0.317,0.823,0.887,1.521,1.648,1.996c0.951,0.635,23.742,15.152,61.875,15.152
		c38.132,0,60.923-14.55,61.874-15.152c0.729-0.475,1.332-1.173,1.649-1.996C130.256,131.706,130.224,123.242,130.192,121.593"/>
</g>
</svg>
